<svg xmlns="http://www.w3.org/2000/svg" width="307.658" height="336.656" viewBox="0 0 307.658 336.656"><path fill="#ededed" d="M306.772 316.945c0 10.886-68.475 19.71-152.943 19.71-84.47 0-152.95-8.825-152.95-19.71 0-10.886 68.47-19.71 152.94-19.71 84.46 0 152.94 8.824 152.94 19.71"/><path fill="#ffffff" stroke="#c8c7c7" stroke-width="1.771" stroke-miterlimit="10" d="M306.772 153.828c0 84.468-68.475 152.943-152.943 152.943C69.36 306.77.88 238.3.88 153.83S69.36.886 153.83.886c84.467 0 152.942 68.475 152.942 152.942z"/><path fill="#c9ddb0" d="M141.905 218.68c-2.4-.302-5.353-1.716-6.56-3.142-.502-.594-1.308-1.918-1.79-2.94-.783-1.666-.874-2.264-.87-5.747.002-3.56.08-4.04.942-5.8 1.655-3.38 4.523-5.23 8.632-5.58 4.4-.37 7.89 1.42 9.52 4.87.95 2.03 1.32 6.18.61 6.78-.34.28-2.45.44-6.55.5l-6.06.09.09 1.52c.12 1.89 1.29 4.31 2.52 5.2.59.43 1.65.73 2.95.82 1.69.13 2.33 0 3.84-.74 2.72-1.33 3.08-1.13 2.11 1.19-.96 2.27-4.99 3.55-9.4 3zm3.933-15.38c-.07-3.437-1.042-5.24-2.83-5.24-.963 0-2.695 1.566-2.74 2.478-.013.218-.14 1.114-.284 1.99-.17 1.028-.134 1.723.1 1.957.216.215 1.462.323 3.072.265l2.71-.097-.028-1.352zm43.76 15.393c-.86-.11-2.306-.66-3.21-1.218-1.32-.814-1.882-1.475-2.826-3.327-1.093-2.14-1.19-2.582-1.305-5.975-.176-5.127.633-7.802 3.1-10.253 1.81-1.8 3.504-2.565 5.677-2.56 1.558 0 3.662.617 4.746 1.387.493.35.985.638 1.09.638.108 0 .237-3.152.287-7.004l.092-7h6.42v34.8l-3.13.1-3.13.1v-1c0-1.37-.43-1.52-1.39-.49-1.54 1.65-3.51 2.21-6.43 1.83zm5.582-4.288c1.43-1.428 1.99-3.987 1.838-8.354-.154-4.37-.758-6.05-2.462-6.86-.95-.45-1.2-.45-2.327.02-.97.41-1.44.91-2.01 2.15-.65 1.41-.75 2.19-.75 6.01 0 3.91.08 4.55.76 5.82.41.78 1.02 1.58 1.35 1.77 1.11.65 2.65.42 3.59-.53zm26.298 4.24c-4.26-.527-7.568-3.42-8.7-7.604-.76-2.81-.555-7.44.43-9.64 2.05-4.58 6.943-6.84 12.368-5.72 3.906.81 6.467 4.01 6.89 8.6.304 3.28.377 3.25-7.054 3.25h-6.02v.96c0 2.66 1.516 5.37 3.61 6.45 1.36.7 4.17.46 6.112-.52 2.283-1.15 2.858-.79 1.948 1.23-.44.98-1.005 1.55-2.008 2.03-2.164 1.05-4.566 1.36-7.577.99zm3.95-14.27c.516-.623-.1-4.206-.91-5.298-1.296-1.744-3.673-.944-4.412 1.485-.503 1.65-.767 3.564-.542 3.928.32.518 5.42.418 5.863-.115zm-113.483 13.053c-.208-.518-1.275-3.53-2.372-6.69-1.097-3.16-2.698-7.59-3.557-9.84-1.683-4.408-1.788-4.857-1.14-4.88 2.444-.094 6.387.005 6.648.167.182.112 1.355 3.395 2.606 7.294 1.25 3.9 2.38 7.09 2.51 7.09.13 0 1.254-2.93 2.5-6.51 1.247-3.58 2.404-6.85 2.57-7.27.267-.67.552-.76 2.213-.76 1.803 0 1.896.04 1.728.76-.09.42-1.49 3.95-3.1 7.86-1.61 3.9-3.43 8.54-4.04 10.31l-1.12 3.21-2.53.1c-2.49.09-2.54.08-2.91-.85zm49.455.49c-.09-.233-.124-5.215-.074-11.07l.09-10.646 2.964-.17c1.63-.092 3.114-.117 3.296-.055.182.062.33.784.33 1.605 0 1.688.4 1.894 1.225.634.79-1.2 3.17-2.515 4.73-2.61l1.32-.08.1 2.53c.06 1.394.01 2.895-.1 3.34-.19.752-.31.79-1.86.584-2.16-.286-3.8.384-4.62 1.886-.52.957-.63 2.126-.72 7.802l-.11 6.677h-3.19c-2.25 0-3.24-.125-3.36-.426zm-74.78-16.313c-2.99-.65-5.32-2-7.9-4.587-7.472-7.488-6.376-16.792 3.166-26.873 1.493-1.577 2.655-2.92 2.583-2.984-.08-.06-.78-.44-1.57-.84-.79-.4-1.44-.95-1.44-1.22 0-.42.85-.5 5.38-.5 2.96 0 5.62.09 5.91.21.48.19.53 2.12.53 18.36 0 13.67-.1 18.25-.41 18.56-.53.53-3.59.48-6.27-.1zm46.722-10.728c-.09-.234-.123-6.204-.074-13.27l.088-12.844 1.606-.103c1.588-.102 1.606-.092 1.606.93 0 1.14.36 1.313 1.035.5.872-1.05 2.955-1.834 4.878-1.834 4.46 0 7.22 2.92 7.54 7.97.23 3.467-.54 5.815-2.56 7.9-1.65 1.707-3.22 2.386-5.48 2.375-1.34 0-3.66-.96-4.35-1.79-.25-.31-.6-.56-.76-.56-.16 0-.3 2.51-.3 5.58v5.58h-1.53c-.91 0-1.59-.17-1.69-.42zm10.562-11.057c1.725-1.052 2.245-2.424 2.404-6.337.123-3.04.05-3.632-.61-4.995-.852-1.76-2.07-2.543-3.958-2.54-2.69.002-4.24 1.864-4.935 5.924-.4 2.342.03 5.17.996 6.55 1.39 1.975 4.13 2.603 6.11 1.398zm14.3 2.17c-3.52-1.092-5.738-4.302-5.744-8.31-.006-4.184 1.498-6.76 4.93-8.452 1.988-.978 2.358-1.048 4.78-.904 3.702.22 5.67 1.43 7.305 4.49 1.048 1.964 1.043 6.846-.01 8.818-2.093 3.925-6.797 5.746-11.26 4.36zm5.616-1.814c2.734-1.667 3.86-8.25 2.018-11.808-1.606-3.107-5.593-3.56-7.928-.9-3.077 3.504-2.17 11.522 1.477 13.03 1.202.497 3.344.342 4.433-.322zm12.22 1.827c-1.822-1.03-2.06-2.08-1.998-8.79.03-3.346-.06-6.25-.2-6.454-.14-.21-.675-.48-1.187-.6-1.36-.34-1.255-1.47.17-1.83 1.024-.27 1.105-.4 1.202-1.9.096-1.48.202-1.65 1.257-2.1.634-.27 1.303-.48 1.486-.48.183 0 .378.95.433 2.11.1 2.07.118 2.11 1.115 2.2 2.153.19 2.584.4 2.473 1.18-.09.63-.37.77-1.79.91l-1.69.17v6.31c0 6.21.01 6.33.82 7.18.61.64 1.16.87 2.11.87.71 0 1.3.13 1.3.29 0 1.14-3.92 1.77-5.49.89zm12.374.025c-2.118-.662-3.72-2.075-4.763-4.2-.8-1.63-.93-2.306-.9-4.614.04-3.226.86-5.267 2.86-7.07 2.48-2.237 7.18-2.564 9.85-.686 1.85 1.297 3.04 3.594 3.11 5.964l.05 1.792-6.08.17c-5.59.155-6.09.218-6.2.8-.22 1.17.68 3.52 1.76 4.555 2.13 2.05 4.53 2.28 7.49.72 1.06-.56 1.99-1.02 2.06-1.02.08 0 .14.37.14.82 0 2.29-5.56 3.93-9.34 2.75zm6.912-11.42c.06-.506-.2-1.614-.577-2.464-1.24-2.795-4.5-3.303-6.64-1.034-1.07 1.13-2.06 3.647-1.68 4.262.13.208 1.87.304 4.49.246l4.28-.094.1-.917zm11.96 11.423c-4.04-1.31-6.15-4.39-6.15-8.97 0-3.98 2.207-7.12 5.86-8.33 2.125-.7 6.644-.52 8.29.35 1.02.54 1.115.71.924 1.66-.335 1.68-.72 1.8-2.047.63-1.428-1.25-2.408-1.55-4.395-1.32-3.107.35-5.052 3.06-5.052 7.04 0 6.2 5.17 9.68 9.755 6.57 1.58-1.07 1.95-1.05 1.82.09-.24 2.08-5.53 3.44-9 2.31zm14.817-.09c-2.38-1.24-3.284-3.82-2.225-6.36.66-1.58 2.052-2.34 5.534-3.02 3.605-.7 4.46-1.2 4.46-2.57 0-1.29-.813-2.88-1.725-3.37-1.61-.86-4.868-.22-6.032 1.18-.7.84-1.084.62-.97-.57.092-.95.353-1.22 1.965-2.05 1.63-.83 2.16-.94 4.293-.84 2.838.14 3.96.77 5 2.83.566 1.13.696 2.25.844 7.25.173 5.87.18 5.92.954 6.03 1.07.15.84 1.1-.37 1.5-1.21.41-2.4.1-3.28-.84-.57-.62-.79-.68-1.27-.34-2.44 1.73-5.25 2.2-7.16 1.2zm6.164-2.31c1.44-.98 1.686-1.66 1.54-4.23l-.105-1.84-1.677.09c-3.913.21-6.104 2.58-4.876 5.27.77 1.71 3.17 2.04 5.11.72zM103.6 181.77c-.093-.244-.13-6.45-.08-13.795l.088-13.353h3.042l.092 6.017.093 6.01 1.537-1.11c1.295-.93 1.895-1.13 3.796-1.23 1.933-.11 2.423-.01 3.41.66 2.53 1.73 2.566 1.87 2.566 9.85V182h-2.704l-.187-6.255c-.197-6.6-.512-7.987-1.992-8.78-.87-.47-3.16-.44-4.25.057-1.72.785-2 1.902-2.19 8.723l-.17 6.255-1.44.104c-.95.07-1.49-.047-1.61-.34zm20.958-.006c-.095-.246-.132-4.172-.082-8.724l.09-8.277h3.042v17.24l-1.44.105c-.962.07-1.495-.045-1.61-.345zm-50.61-22.8c-6.536-8.176-8.227-16.34-4.826-23.304 2.04-4.18 6.09-7.11 11.035-7.983 1.184-.21 2.27-.48 2.415-.604.145-.123-.11-.897-.564-1.72-1.38-2.492-2.025-5.257-2.008-8.594.018-3.53.402-5.17 1.995-8.5 1.422-2.99 3.616-5.3 6.156-6.49 1.7-.8 2.33-.9 5.15-.87 2.08.02 3.74.23 4.69.59 2.41.9 2.41.89 2.42-2.24.01-5.24 1.46-9.14 4.4-11.9 3.08-2.88 6.56-4.01 12.33-4.03 6.28-.02 9.88 1.34 13.69 5.17 2.36 2.36 4.03 5.28 4.86 8.48.53 2.05.36 1.99 3.94 1.37 6.9-1.19 13.53.39 18.74 4.47 1.29 1.01 2.34 1.57 2.94 1.57 2.99 0 8.74 2.27 12.01 4.74.98.74 1.9 1.34 2.05 1.34.15-.01.73-.79 1.29-1.75 1.38-2.36 5.01-5.99 7.29-7.29 5.08-2.9 10.82-2.82 17.07.24 6.15 3 9.96 9.09 10.81 17.26l.2 1.86 4.13.01c4.49 0 6.86.51 9.79 2.1 2.25 1.21 5.16 4.39 6.34 6.92 1.32 2.8 2.26 6.59 1.77 7.08-.26.26-7.48-2.48-25.42-9.65-13.78-5.51-25.37-10.01-25.76-10.01-.39 0-8.48 3.25-17.99 7.23-63.32 26.5-87.37 36.49-88.15 36.62-.76.13-1.14-.17-2.74-2.16zm51.295 1.17c-.877-.497-1.172-.954-1.178-1.825-.01-1.61 2.385-2.44 3.492-1.21.813.9.687 1.93-.33 2.73-1.024.8-1.075.81-1.984.29z"/><path fill="#a6cf9c" d="M140.118 218.23c-4.245-1.404-6.467-4.096-7.292-8.835-.728-4.18.19-7.95 2.58-10.61 2.074-2.307 4.237-3.186 7.844-3.19 2.425 0 3.045.128 4.69.98 1.154.596 2.27 1.507 2.858 2.33 1.112 1.56 2.085 5.008 1.932 6.85l-.104 1.265-6.423.17-6.424.168.03 1.896c.1 5.208 4.76 7.774 9.59 5.27 2.2-1.14 2.73-.848 1.82 1.005-.95 1.94-3.17 2.92-6.87 3.05-1.76.05-3.43-.08-4.25-.35zm5.717-15.605c-.092-6.28-5.12-6.365-6.058-.1-.13.865-.132 1.742-.004 1.948.148.24 1.28.34 3.16.278l2.932-.09-.03-2.03zm42.117 15.614c-1.702-.54-4.164-3.14-4.878-5.15-.33-.93-.677-3.15-.776-4.94-.373-6.78 2.26-11.36 7.154-12.46 2.11-.48 4.888.06 6.243 1.2.537.45 1.064.82 1.173.82.11 0 .24-3.16.29-7.02l.09-7.02h6.424l.094 16.56c.05 9.11.017 16.88-.076 17.26-.157.64-.405.7-3.137.67l-2.966-.03-.106-1.09c-.12-1.28-.39-1.36-1.27-.37-1.57 1.76-5.33 2.46-8.25 1.53zm6.79-3.37c1.753-1.18 2.43-3.33 2.472-7.85.04-4.2-.566-6.43-2.065-7.61-1.95-1.53-4.44-.23-5.34 2.79-.65 2.19-.67 8.36-.02 10.16.52 1.47 1.39 2.55 2.38 2.95 1.04.42 1.33.37 2.56-.45zm25.495 3.51c-3.156-.83-6.106-3.54-7.166-6.58-.91-2.62-.83-7.97.14-10.11 1.2-2.63 2.39-3.9 4.71-5.04 1.91-.94 2.51-1.07 4.95-1.07 5.52.01 8.5 2.57 9.37 8.03.6 3.73.96 3.52-6.36 3.63l-6.32.09-.11 1.16c-.28 3.02 1.65 6.05 4.32 6.77 1.78.48 3.32.23 5.49-.87 1.96-.99 1.98-1 1.98-.13 0 1.38-1.03 2.73-2.64 3.45-1.71.77-6.45 1.12-8.34.62zm5.346-15.64c-.118-3.58-1.56-5.49-3.563-4.73-1.196.45-1.885 1.57-2.356 3.82-.605 2.88-.465 3.02 3.018 2.9l2.964-.1-.063-1.9zM112.255 217.7c-.152-.296-1.155-3.05-2.227-6.117-1.073-3.067-2.76-7.705-3.75-10.306-.99-2.6-1.678-4.85-1.53-5 .15-.148 1.765-.226 3.59-.172l3.317.097 2.376 7.353c1.31 4.044 2.49 7.352 2.62 7.352.13 0 1.42-3.346 2.87-7.437l2.63-7.437H124c1.6 0 1.82.078 1.66.592-.1.325-1.615 4.09-3.364 8.366-1.75 4.28-3.53 8.85-3.953 10.15-.424 1.3-.913 2.52-1.085 2.71-.17.19-1.3.35-2.51.37-1.69.03-2.26-.09-2.47-.51zm49.495.36c-.09-.092-.166-5.09-.166-11.11v-10.94l3.127.097 3.13.097.17 1.795.17 1.79 1.24-1.49c.69-.82 1.77-1.75 2.42-2.05 1.22-.58 3.12-.75 3.39-.31.09.14.08 1.58-.02 3.2l-.18 2.95-1.89-.18c-2.15-.2-3.14.19-4.23 1.65-.65.87-.72 1.52-.88 7.77l-.17 6.82-2.96.02c-1.63.01-3.04-.05-3.13-.14zM89.41 201.9c-4.575-.523-7.83-2.03-10.723-4.96-5.012-5.078-6.022-11.645-2.814-18.308 1.39-2.886 3.997-6.386 6.858-9.206l2.14-2.1-.85-.52-1.74-1.066c-.57-.35-.75-.63-.5-.782.22-.13 2.66-.264 5.44-.295 4.17-.046 5.15.036 5.58.47.46.46.53 2.67.52 18.162 0 9.702-.11 17.808-.25 18.014-.29.44-2.2.75-3.63.59zm44.27-11.023c-.09-.234-.123-6.204-.074-13.27l.088-12.844 1.148-.11c1.297-.124 1.713.3 1.72 1.755l.006.97 1.333-1.205c4.33-3.91 10.69-1.332 11.85 4.805.84 4.446-1.44 9.557-4.83 10.836-2.27.858-5.78.227-7.13-1.285-.35-.4-.77-.73-.93-.73-.15 0-.28 2.34-.28 5.21s-.09 5.45-.2 5.74c-.25.65-2.44.74-2.68.11zm10.562-10.915c1.565-1.026 2.3-3.298 2.29-7.086-.01-3.632-.347-4.696-1.967-6.21-1.182-1.103-3.4-1.304-4.955-.447-1.832 1.01-2.846 3.3-2.993 6.75-.135 3.16.422 5.18 1.775 6.46 1.53 1.43 4.107 1.67 5.85.52zm13.114 1.416c-4.53-2.11-6.17-7.78-3.622-12.532 1.742-3.25 5.916-5.067 9.85-4.286 2.616.52 4.37 1.84 5.574 4.194.83 1.624.988 2.33.978 4.38-.007 1.526-.233 2.988-.6 3.886-.73 1.782-3.376 4.214-5.168 4.75-2.205.66-5.098.5-7.012-.392zm5.895-.715c3.4-1.756 4.85-8.2 2.77-12.28-1.96-3.833-6.93-3.733-9.1.184-.98 1.79-1.33 5.396-.74 7.83.89 3.714 4.25 5.734 7.08 4.266zm12.61.985c-1.44-1.014-1.59-1.728-1.76-8.772l-.17-6.76-.93-.108c-.64-.074-.93-.3-.93-.738s.29-.664.93-.738c.85-.098.95-.254 1.1-1.795.15-1.438.31-1.755 1.12-2.14 1.48-.71 1.88-.34 1.99 1.867l.1 1.96 1.69.17c1.2.12 1.69.315 1.69.676 0 .36-.49.556-1.69.676l-1.69.17-.09 6.452c-.08 6.11-.05 6.5.62 7.353.55.71 1 .9 2.04.9.73 0 1.33.15 1.33.33 0 1.05-4.01 1.42-5.33.5zm11.52-.3c-3.14-1.463-4.73-4.652-4.42-8.9.25-3.49 1.77-5.886 4.66-7.37 1.75-.896 5.18-.84 7 .115 2.43 1.28 4.02 4.166 3.77 6.838l-.11 1.19-5.75-.12c-6.85-.15-6.91-.12-6.23 2.74 1.05 4.42 6.09 6.28 9.82 3.62 1.1-.78 1.66-.83 1.66-.16 0 .77-1.29 1.79-2.98 2.37-2.33.8-5.3.68-7.39-.3zm8.08-11.15c-.3-3.777-3.69-5.775-6.69-3.946-1.17.713-2.49 3.13-2.49 4.543v.917l4.65-.094 4.65-.094-.1-1.327zm11.3 11.443c-2.05-.75-3.45-2-4.39-3.94-1.13-2.33-1.37-4.12-.89-6.46.55-2.64 2.04-4.52 4.58-5.79 1.77-.88 2.38-1.01 4.74-.99 3.41.03 5.46.86 5.31 2.17-.16 1.42-.62 1.5-2.03.36-2.46-1.98-5.48-1.72-7.63.66-1.33 1.48-1.89 3.13-1.9 5.55 0 6.01 4.89 9.51 9.61 6.87 1.76-.98 2.44-.93 1.86.16-.94 1.76-6.15 2.58-9.24 1.45zm15.49.23c-.38-.16-1.11-.78-1.6-1.37-.71-.85-.9-1.42-.9-2.76 0-3.08 1.21-4.09 6-5.05 4.41-.87 5.23-1.83 3.93-4.58-.65-1.37-1.98-2.15-3.69-2.15-1.38 0-3.5.89-3.77 1.58-.26.7-1.11.54-1.11-.19 0-1.53 4.23-3.32 6.89-2.92 1.74.26 3.36 1.21 4.17 2.45.52.79.63 1.85.72 7.14l.11 6.21.83.38c1.19.54.82 1.09-.82 1.21-1.16.09-1.55-.05-2.23-.78l-.82-.88-1.42.94c-1.09.72-1.89.96-3.49 1.03-1.14.06-2.39-.04-2.78-.2zm5.08-1.52c2.19-.91 2.56-1.57 2.56-4.63v-2.74l-1.26.23c-2.67.48-3.86.93-4.87 1.83-1.34 1.21-1.47 3.34-.28 4.61.67.71 1.09.9 2.47 1.14.15.03.78-.16 1.41-.43zm-123.62-11.7c-.05-7.25-.04-13.33.02-13.52.06-.18.71-.33 1.44-.33h1.33v5.86c0 3.23.1 5.96.21 6.07.12.12.77-.23 1.44-.76 3.19-2.52 7.61-1.99 9.25 1.1.72 1.34.76 1.84.77 8.02l.01 6.6h-2.7l-.17-6.42c-.11-4.31-.31-6.67-.6-7.18-1.17-2.05-4.75-2.33-6.56-.52-1.35 1.36-1.61 2.76-1.62 8.97l-.01 5.33h-2.69l-.09-13.18zm21.12 4.65l.09-8.53h2.37l.1 8.54.09 8.53h-2.72l.09-8.53zm-50.07-13.6c-2.1-2.28-4.63-6.38-5.84-9.47-1.26-3.22-1.67-8-.96-11.03 1.44-6.07 5.69-10.04 12.22-11.39 1.46-.3 2.65-.67 2.65-.82 0-.15-.38-1.02-.85-1.94-4.18-8.23-1-19.87 6.32-23.15 2.65-1.18 6.36-1.26 9.71-.2 1.2.38 2.29.62 2.43.53.14-.08.17-.95.07-1.93-.26-2.53.44-6.49 1.57-8.93 1.75-3.76 5.05-6.3 9.56-7.36 2.74-.64 8.29-.64 11.05.01 6.09 1.44 10.72 5.98 12.71 12.47.85 2.75.45 2.62 5.74 1.9 6.4-.87 13.34 1.05 17.31 4.8.87.83 1.68 1.14 4.38 1.68 3.75.75 7.03 2.16 10.33 4.43 2.56 1.76 2.2 1.89 4.49-1.54 3.84-5.75 10.55-8.98 16.61-8.02 4.73.75 8.52 2.6 11.49 5.6 3.28 3.32 5.3 7.92 5.83 13.32l.25 2.53 3.89-.1c6.05-.15 10.04 1.2 13.35 4.52 2.49 2.49 4.89 7.66 4.9 10.59 0 .69-.11.77-.88.578-.48-.12-11.89-4.62-25.35-10.01-13.46-5.38-24.66-9.78-24.89-9.78-.234 0-3.695 1.387-7.69 3.078-18.55 7.85-97.635 40.89-98.4 41.11-.32.09-1.1-.47-1.97-1.41zm50.25.14c-.78-.45-.76-2.08.03-2.79.81-.72 1.51-.71 2.21.06 1.5 1.66-.3 3.87-2.23 2.74z"/><path fill="#9ec472" d="M141.64 218.36c-3.633-.654-6.427-2.76-7.833-5.898-.656-1.467-.773-2.304-.78-5.61-.008-3.448.084-4.077.812-5.544 1.66-3.354 4.47-5.222 8.33-5.53 6.11-.492 9.99 2.86 10.08 8.706l.03 2.536-6.43.17-6.43.168.09 1.52c.13 2.08.64 3.54 1.69 4.788 1.8 2.14 5.13 2.607 8.04 1.13.91-.464 1.79-.844 1.95-.845.48 0-.12 1.81-.87 2.61-1.34 1.44-5.73 2.34-8.72 1.8zm4.385-13.696c.65-.784-.168-4.977-1.186-6.076-1.61-1.732-4-.684-4.84 2.122-.43 1.438-.53 3.866-.17 4.225.12.124 1.47.225 3 .225 2.03 0 2.88-.133 3.18-.496zm43.28 13.715c-3.794-.81-6.038-3.73-6.755-8.78-.673-4.75.73-9.71 3.392-11.99 2.832-2.43 7.39-2.59 9.804-.36 1.606 1.48 1.652 1.32 1.75-6.38l.09-7.18h5.75l.088 17.15.087 17.15h-5.66l-.22-1.41-.22-1.41-1.25 1.2c-.69.66-1.56 1.35-1.93 1.54-.99.5-3.54.73-4.9.44zm6.087-3.71c1.51-1.51 2.12-4.17 1.973-8.63-.146-4.49-.775-6.11-2.757-7.09-1.21-.6-1.285-.6-2.514 0-1.932.94-2.808 3-3.033 7.11-.32 6 1.23 9.56 4.17 9.56.87 0 1.47-.27 2.17-.97zm25.703 3.63c-5.443-.95-8.465-5.11-8.465-11.68 0-6.4 3.396-10.38 9.256-10.85 6.06-.49 9.742 2.62 10.247 8.65.112 1.33.143 2.44.07 2.48-.074.03-3.025.15-6.557.25l-6.423.18.078 1.82c.12 2.6 1.17 4.58 3.02 5.66 1.33.77 1.78.86 3.65.71 1.34-.11 2.66-.46 3.53-.95.76-.43 1.48-.68 1.6-.56.3.3-.48 2.11-1.17 2.7-1.62 1.38-5.7 2.1-8.83 1.56zm4.668-13.75c.405-.78-.058-4.08-.763-5.44-.988-1.91-3.508-1.83-4.663.15-.337.57-.773 1.91-.97 2.98-.496 2.68-.26 2.89 3.266 2.89 2.342 0 2.873-.1 3.13-.59zm-113.328 13.16c-.104-.17-1.163-3.11-2.352-6.53-1.19-3.42-2.88-8.09-3.756-10.39-.877-2.3-1.51-4.26-1.406-4.36.15-.15 4.69-.24 6.28-.12.18.01 1.4 3.37 2.72 7.46 1.32 4.09 2.53 7.43 2.69 7.43.3 0 2.47-5.7 4.41-11.58.6-1.82 1.23-3.31 1.4-3.33 2.11-.19 2.85-.04 2.8.57-.03.35-1 2.92-2.16 5.71-1.16 2.79-2.98 7.35-4.03 10.14l-1.91 5.07-2.23.1c-1.22.05-2.31-.04-2.41-.21zm49.374.05c-.32-.31-.29-21.41.02-21.43.14-.01 1.47-.04 2.96-.06l2.7-.05.17 1.89c.21 2.31.47 2.64 1.12 1.38 1.02-1.96 3.78-3.84 5.63-3.84.66 0 .69.16.6 2.96l-.1 2.95-2.07.02c-2.38.02-3.53.6-4.42 2.26-.5.91-.62 2.2-.72 7.6l-.12 6.5h-2.79c-1.54 0-2.89-.1-3.01-.23zm-75.62-16.6c-7.66-2.03-13.2-10.04-11.88-17.19.87-4.75 3.29-8.99 7.83-13.72 1.47-1.54 2.68-2.91 2.68-3.05 0-.14-.61-.56-1.35-.94-.75-.38-1.35-.85-1.35-1.03 0-.22 1.92-.31 5.32-.25l5.32.09v36.51l-2.2.07c-1.24.04-3.16-.18-4.4-.51zm47.48-10.64c-.09-.24-.13-6.05-.08-12.93l.09-12.51 1.27-.11c1.24-.11 1.27-.08 1.27 1.08 0 1.54.45 1.78 1.31.69 2.16-2.75 6.96-2.93 9.79-.36 1.7 1.54 2.25 3.17 2.23 6.63-.01 2.82-.13 3.43-.93 4.96-1.15 2.2-2.7 3.4-5.02 3.87-2.31.47-4.26-.02-5.66-1.42-.56-.56-1.17-1.01-1.37-1.01-.25 0-.37 1.87-.37 5.74v5.74H135c-.655 0-1.265-.19-1.355-.426zm10.79-10.74c1.66-1.47 2.31-3.34 2.33-6.76.03-4.98-1.7-7.44-5.24-7.44-3.25-.01-5.17 3-5.17 8.11 0 2.51.11 3.07.91 4.43 1.64 2.8 4.97 3.56 7.15 1.65zm13.97 1.88c-3.81-1.36-5.65-4.02-5.64-8.12.01-5.15 3.02-8.5 8-8.9 5.32-.43 8.77 2.49 9.15 7.73.21 3.04-.58 5.36-2.48 7.26-2.25 2.25-6.03 3.09-9.05 2.01zm5.54-1.3c3.73-2.52 4.28-10.55.93-13.66-2.66-2.47-6.5-1.48-8.27 2.13-.76 1.55-.92 2.33-.93 4.67-.02 2.36.12 3.07.83 4.46.46.9 1.35 1.99 1.97 2.41 1.54 1.03 3.9 1.03 5.45-.01zm12.3 1.31c-1.66-.72-1.85-1.62-1.86-8.59 0-3.48-.11-6.5-.25-6.71-.14-.22-.62-.45-1.07-.51-1.18-.17-1.26-.9-.14-1.18 1.22-.3 1.45-.67 1.45-2.38 0-1.27.11-1.44 1.07-1.78.59-.21 1.11-.37 1.17-.37.06 0 .15.95.2 2.11l.1 2.11 1.69.17c1.2.12 1.69.31 1.69.67 0 .36-.49.55-1.69.67l-1.69.17-.1 5.24c-.06 2.88-.01 5.9.11 6.72.26 1.83 1.42 3.08 2.85 3.08 1.34 0 1.32.53-.03.8-1.52.31-2.36.25-3.52-.26zm12.85.17c-2.61-.69-4.81-2.65-5.61-5-.76-2.25-.58-5.76.42-7.93 2.97-6.44 12.63-5.65 14.16 1.17.67 2.99.86 2.89-6.01 3l-6.02.09.01 1.73c.03 4.63 4.91 7.24 9.33 5 1.77-.9 2.21-.9 1.86.02-.51 1.31-5.76 2.53-8.16 1.9zm6.52-11.2c.24-2.94-2.58-5.75-5.25-5.25-1.66.31-3.63 2.3-4.13 4.19-.66 2.42-.63 2.43 4.63 2.33l4.65-.1.09-1.19zm12.75 11.28c-2.09-.54-3.06-.99-4.14-1.94-3.18-2.79-3.77-8.45-1.27-12.06 1.98-2.86 7.27-4.21 11.27-2.88 1.68.56 1.95.91 1.52 2.01-.29.74-.69.67-1.75-.31s-2.59-1.35-4.55-1.08c-2.51.33-4.35 2.34-5 5.47-.8 3.82.78 7.72 3.71 9.21 2.03 1.03 3.6.96 5.89-.24 1.75-.92 1.89-.95 1.89-.35 0 1.35-5.08 2.79-7.61 2.14zm14.53-.04c-4.26-1.07-4.18-7.22.1-8.47.68-.2 2.24-.54 3.45-.75 3.1-.54 3.71-1.01 3.71-2.85 0-2.85-2.59-4.63-5.62-3.86-.79.2-1.7.65-2.02 1-.75.83-1.15.81-1.15-.05 0-1.08 3.02-2.35 5.58-2.35 2.55-.01 4.12.79 5.03 2.55.58 1.12.69 2.13.82 7.36.13 5.57.19 6.07.77 6.22.77.2.82.62.1.89-1.03.4-1.87.2-2.71-.64-.99-.99-1.39-1.04-2.2-.31-1.26 1.13-3.99 1.71-5.88 1.24zm4.83-1.58c.5-.26 1.26-.85 1.69-1.31.69-.74.76-1.12.67-3.33l-.1-2.5-1.66.06c-3.44.12-5.95 1.8-5.94 3.96.01 2.87 2.74 4.46 5.33 3.11zm-123.84 1.09c-.1-.25-.14-6.3-.09-13.46l.09-13.02h2.36l.1 6.17c.05 3.39.21 6.17.36 6.17s.64-.4 1.09-.89c1.11-1.2 2.67-1.82 4.61-1.82 2.29 0 3.83.87 4.74 2.69.71 1.41.76 1.94.76 8.03v6.52h-2.29l-.14-6.17c-.18-8.19-.748-9.39-4.438-9.37-1.726 0-2.82.52-3.76 1.79-.64.86-.723 1.53-.88 7.27l-.17 6.31-1.1.1c-.68.06-1.16-.07-1.27-.34zm21.03.19c-.14-.14-.24-3.95-.24-8.47v-8.22h2.71l-.09 8.36-.09 8.36-1.03.1c-.57.05-1.14-.01-1.27-.14zm-49.9-21.8c-3.02-3.15-6.15-9.1-7.01-13.31-.46-2.25-.49-3.16-.17-5.54.94-7.08 5.52-11.82 12.54-13 1.28-.22 2.44-.5 2.56-.62.12-.13-.25-1.19-.83-2.36-1.62-3.28-2.25-6.91-1.79-10.32.77-5.79 3.99-10.92 7.92-12.62 3.12-1.36 8.06-1.15 11.83.5.54.23.59-.02.59-2.84 0-4.17.75-7.28 2.35-9.77 2.33-3.61 5.53-5.42 10.87-6.15 5.25-.72 10.31.24 14.01 2.66 3.51 2.3 5.65 5.25 7.1 9.8.515 1.61.97 2.97 1.01 3.03.04.06 1.223-.13 2.63-.42 7.134-1.48 14.442.14 19.55 4.32 1.44 1.18 2.205 1.57 3.055 1.57 2.92 0 7.91 1.95 11.64 4.56 1.2.84 2.307 1.52 2.46 1.52.157 0 .916-.97 1.69-2.16 2.11-3.24 5.26-6.09 8.37-7.57 2.595-1.24 2.72-1.26 6.53-1.24 3.31.02 4.23.15 6.17.89 8.083 3.05 12.22 8.84 13.27 18.54l.203 1.88 4.46.01c3.59.01 4.877.143 6.576.704 3.88 1.28 6.53 3.41 8.65 6.943 1.24 2.08 2.837 7.25 2.367 7.69-.156.15-10.93-3.98-23.946-9.17-13.01-5.19-24.432-9.72-25.38-10.08l-1.71-.64-7.58 3.19c-4.17 1.753-19.375 8.12-33.78 14.14-14.41 6.02-34.65 14.474-44.97 18.793-10.32 4.315-19.082 7.92-19.48 8.003-.492.11-1.044-.19-1.794-.97zm50.08-.14c-.42-.29-.76-.88-.76-1.31 0-1.81 2.59-2.14 3.2-.41.29.83.22 1.06-.46 1.61-.96.77-1.05.78-2 .11z"/><path fill="#7cbd82" d="M141.64 218.36c-3.633-.654-6.427-2.76-7.833-5.898-.656-1.467-.773-2.304-.78-5.61-.008-3.448.084-4.077.812-5.544 1.66-3.354 4.47-5.222 8.33-5.53 6.11-.492 9.99 2.86 10.08 8.706l.03 2.536-6.43.17-6.43.168.09 1.52c.13 2.08.64 3.54 1.69 4.788 1.8 2.14 5.13 2.607 8.04 1.13.91-.464 1.79-.844 1.95-.845.48 0-.12 1.81-.87 2.61-1.34 1.44-5.73 2.34-8.72 1.8zm4.385-13.696c.65-.784-.168-4.977-1.186-6.076-1.61-1.732-4-.684-4.84 2.122-.43 1.438-.53 3.866-.17 4.225.12.124 1.47.225 3 .225 2.03 0 2.88-.133 3.18-.496zm43.28 13.715c-3.794-.81-6.038-3.73-6.755-8.78-.673-4.75.73-9.71 3.392-11.99 2.832-2.43 7.39-2.59 9.804-.36 1.606 1.48 1.652 1.32 1.75-6.38l.09-7.18h5.75l.088 17.15.087 17.15h-5.66l-.22-1.41-.22-1.41-1.25 1.2c-.69.66-1.56 1.35-1.93 1.54-.99.5-3.54.73-4.9.44zm6.087-3.71c1.51-1.51 2.12-4.17 1.973-8.63-.146-4.49-.775-6.11-2.757-7.09-1.21-.6-1.285-.6-2.514 0-1.932.94-2.808 3-3.033 7.11-.32 6 1.23 9.56 4.17 9.56.87 0 1.47-.27 2.17-.97zm25.703 3.63c-5.443-.95-8.465-5.11-8.465-11.68 0-6.4 3.396-10.38 9.256-10.85 6.06-.49 9.742 2.62 10.247 8.65.112 1.33.143 2.44.07 2.48-.074.03-3.025.15-6.557.25l-6.423.18.078 1.82c.12 2.6 1.17 4.58 3.02 5.66 1.33.77 1.78.86 3.65.71 1.34-.11 2.66-.46 3.53-.95.76-.43 1.48-.68 1.6-.56.3.3-.48 2.11-1.17 2.7-1.62 1.38-5.7 2.1-8.83 1.56zm4.668-13.75c.405-.78-.058-4.08-.763-5.44-.988-1.91-3.508-1.83-4.663.15-.337.57-.773 1.91-.97 2.98-.496 2.68-.26 2.89 3.266 2.89 2.342 0 2.873-.1 3.13-.59zm-113.328 13.16c-.104-.17-1.163-3.11-2.352-6.53-1.19-3.42-2.88-8.09-3.756-10.39-.877-2.3-1.51-4.26-1.406-4.36.15-.15 4.69-.24 6.28-.12.18.01 1.4 3.37 2.72 7.46 1.32 4.09 2.53 7.43 2.69 7.43.3 0 2.47-5.7 4.41-11.58.6-1.82 1.23-3.31 1.4-3.33 2.11-.19 2.85-.04 2.8.57-.03.35-1 2.92-2.16 5.71-1.16 2.79-2.98 7.35-4.03 10.14l-1.91 5.07-2.23.1c-1.22.05-2.31-.04-2.41-.21zm49.374.05c-.32-.31-.29-21.41.02-21.43.14-.01 1.47-.04 2.96-.06l2.7-.05.17 1.89c.21 2.31.47 2.64 1.12 1.38 1.02-1.96 3.78-3.84 5.63-3.84.66 0 .69.16.6 2.96l-.1 2.95-2.07.02c-2.38.02-3.53.6-4.42 2.26-.5.91-.62 2.2-.72 7.6l-.12 6.5h-2.79c-1.54 0-2.89-.1-3.01-.23zm-75.62-16.6c-7.66-2.03-13.2-10.04-11.88-17.19.87-4.75 3.29-8.99 7.83-13.72 1.47-1.54 2.68-2.91 2.68-3.05 0-.14-.61-.56-1.35-.94-.75-.38-1.35-.85-1.35-1.03 0-.22 1.92-.31 5.32-.25l5.32.09v36.51l-2.2.07c-1.24.04-3.16-.18-4.4-.51zm47.74-23.3l.09-12.76h.84c.74 0 .86.16.95 1.32.06.73.34 1.5.63 1.71.46.33.47.55.07 1.71-.71 2.08-.58 6.1.25 7.94 1.86 4.11 6.93 4.49 9.16.68.85-1.46.92-1.83.92-5.45 0-3.28-.11-4.07-.68-5.04-.95-1.61-2.28-2.5-4.15-2.79-1.4-.21-1.29-.23.8-.17 2.06.06 2.58.21 3.67 1.04.77.59 1.6 1.7 2.12 2.81.74 1.61.82 2.19.7 4.61-.25 4.7-2.36 7.64-5.88 8.17-2.31.35-3.76-.08-5.4-1.59-.81-.75-1.64-1.26-1.83-1.14-.23.13-.36 2.33-.36 5.94v5.73h-2.03l.09-12.75zm24.06 3.44c-3.01-1.11-4.85-3.98-4.87-7.55-.01-2.73.49-4.41 1.79-5.98 1.11-1.36 3.95-2.86 5.3-2.82l.84.02-.88.26c-1.54.46-2.68 1.42-3.62 3.02-.84 1.42-.92 1.86-.92 5.11 0 2.8.13 3.82.64 4.83.87 1.75 2.58 2.98 4.42 3.19 4.13.46 6.84-3.34 6.53-9.2-.18-3.49-1.2-5.47-3.39-6.6l-1.45-.75 1.34.19c3.38.48 5.93 3.92 5.91 7.96-.03 3.83-1.46 6.46-4.24 7.81-2 .96-5.51 1.19-7.44.47zm18.24.13c-1.39-.68-1.62-1.8-1.81-8.91l-.18-6.76-.93-.11c-.51-.06-.93-.24-.93-.4 0-.16.42-.34.93-.4.85-.1.94-.25 1.03-1.71.08-1.19.29-1.74.84-2.11 1.11-.78 1.25-.65 1.25 1.15 0 2.51.16 2.73 2.06 2.73.91 0 1.65.15 1.65.34 0 .18-.76.33-1.69.33-2.15 0-2.14-.04-1.99 7.52.12 6.36.39 7.36 2.16 8.03.45.17.83.39.83.49 0 .31-2.51.14-3.26-.22zm12.26-.02c-.74-.2-1.94-.96-2.76-1.74-4.59-4.42-2.4-13.87 3.39-14.6 1.19-.15 1.25-.13.5.19-1.58.68-3.05 2.44-3.59 4.31-.78 2.67-.61 2.78 4.62 2.78 2.38 0 4.57-.1 4.86-.21.66-.26.68-1.84.04-3.62-.57-1.6-1.4-2.56-2.72-3.14-.65-.29-.8-.46-.41-.46 1-.03 2.72.86 3.69 1.89 1.02 1.09 1.95 3.42 1.95 4.89v.97h-5.85c-4.1 0-5.97.12-6.26.4-.51.51-.52 1.86-.02 3.34 1.36 4.05 5.48 5.77 9.26 3.86.91-.46 1.71-.78 1.78-.7.66.65-3.39 2.22-5.61 2.17-.88-.02-2.18-.19-2.9-.38zm18.45-.21c-2.23-.8-3.32-1.79-4.34-3.95s-1.1-5.75-.17-7.8c.76-1.69 2.97-3.63 4.72-4.16 2.46-.74 7.74-.33 8.35.65.11.19.12.58 0 .88-.19.48-.27.48-.79.02-3.38-2.96-8.27-1.71-10.06 2.58-.68 1.61-.73 4.92-.13 6.95.59 1.96 2.75 4.21 4.53 4.7 2.01.55 2.92.46 4.76-.47 1.89-.96 1.83-.94 1.83-.57 0 .59-2.65 1.51-4.74 1.63-1.58.09-2.71-.05-3.99-.51zm15.2.05c-2.19-1.08-2.83-4.27-1.24-6.15.82-.98 1.83-1.45 4.04-1.88l1.01-.2-1.18.64c-1.95 1.05-2.54 1.93-2.54 3.78 0 1.35.17 1.82.94 2.58.8.8 1.21.94 2.81.94 1.76 0 1.82.02.92.41-1.35.57-3.46.51-4.78-.13zM104.1 168.3v-13.18h2.03v6.227c0 4.25.12 6.267.375 6.35.273.093.273.49.002 1.467-.21.737-.38 3.812-.38 6.833l-.01 5.5h-2.02v-13.19zm11.84 12.952c.004-.15-.05-2.87-.12-6.04-.14-6.4-.524-7.88-2.28-8.788-1.1-.57-3.25-.643-4.532-.156-1.34.51-.69-.29.7-.88 1.686-.7 4.485-.6 5.82.22 1.86 1.14 2.12 2.28 2.136 9.4l.01 6.316-.87.105c-.48.06-.87-.02-.87-.17zm9.2-7.958l.09-8.19h1.69l.09 8.19.09 8.19h-2.05l.09-8.19zm105.63 7.05c-1-1.003-1.083-1.213-.685-1.756.46-.62.63-4.36.244-5.36-.11-.29-.48-.53-.83-.53-.54 0-.51-.11.25-.87.75-.752.84-1.08.69-2.44-.14-1.25-.42-1.79-1.39-2.68-1.05-.96-1.44-1.11-3.03-1.11-1.37 0-2.11.21-3.04.84-.85.574-1.23.694-1.23.38 0-.25.79-.792 1.75-1.206 2.55-1.1 5.93-.888 7.33.46 1.39 1.332 1.73 3.11 1.73 9.036 0 4.313.09 5.245.56 5.764.53.584.51.618-.33.618-.56 0-1.32-.425-2.03-1.14zM75.06 159.8c-3.014-3.144-6.148-9.095-7.01-13.31-.458-2.252-.486-3.16-.17-5.534.946-7.075 5.52-11.817 12.544-13 1.285-.218 2.44-.497 2.564-.62.126-.125-.245-1.188-.824-2.363-1.616-3.275-2.245-6.907-1.79-10.315.774-5.79 3.993-10.916 7.924-12.62 3.125-1.354 8.06-1.146 11.834.5.54.234.592-.018.592-2.84 0-4.17.75-7.28 2.354-9.764 2.33-3.61 5.53-5.42 10.868-6.15 5.25-.72 10.315.24 14.016 2.66 3.51 2.3 5.65 5.25 7.104 9.8.514 1.61.967 2.97 1.008 3.03.04.06 1.224-.13 2.63-.42 7.246-1.5 14.35.112 19.785 4.49 1.56 1.253 2.45 1.737 3.21 1.74 2.69.01 7.57 1.987 11.25 4.56 1.2.836 2.36 1.52 2.58 1.514.22-.003.86-.79 1.42-1.748 1.33-2.293 4.53-5.714 6.52-6.983 3.46-2.206 7.93-2.95 12.3-2.05 3.21.66 7.31 2.884 9.56 5.18 3.27 3.336 4.91 7.014 5.66 12.71l.42 3.21 3.38-.114c9.96-.336 16.01 3.88 18.27 12.735.3 1.18.48 2.2.41 2.277-.07.073-11.34-4.35-25.04-9.833-13.71-5.48-25.23-9.965-25.62-9.965-.8 0-14.41 5.584-15.18 6.23-.28.237-6.22 2.798-13.19 5.69-6.97 2.9-27.13 11.31-44.79 18.69-17.67 7.386-32.44 13.496-32.83 13.58-.5.11-1.05-.19-1.8-.972zm50.212-.39c-.372-.27-.56-.758-.487-1.266.092-.698.3-.828 1.3-.828.99 0 1.2.13 1.293.827.106.732-.636 1.71-1.3 1.71-.112 0-.48-.2-.81-.444z"/><path fill="#84b54a" d="M140.963 217.876c-10.284-3.99-9.18-13.135-4.97-18.962 8.05-7.463 18.67 1.664 16.158 7.068-.95 2.255-9.86-.333-12.99 1.363-1.5 4.402 3.34 10.21 11.64 8.062-.82 2.194-6.28 3.556-9.82 2.47zm5.246-12.94c2.79-3.18-3.81-11.217-6.45-4.46-1.15 2.948-1.35 6.804 6.44 4.46zm42.92 13.092c-9.06-4.266-6.78-12.343-4.68-18.146.74-4.002 9.91-5.01 12.93-1.296.65-4.85.26-9.733.36-14.6 4.42-.495 6.52.292 5.41 2.85v30.86c-5.04.785-6-1.75-6.19-2.633-1.46 1.618-3.79 4.097-7.85 2.965zm6.19-2.894c2.57-5.026 5.49-12.982-2.1-16.775-6.42 4.07-7.29 14.32.63 17.51l1.46-.74zm25.73 2.89c-10.81-3.897-9.11-12.875-5.78-18.864 7.8-7.72 19.5 1.246 16.44 6.907-1.82 2.072-13.3-1.228-12.9 2.63-1.01 3.793 4.82 9.84 11.99 5.754-.12 2.67-5.32 4.41-9.77 3.58zm4.33-12.74c3.61-2.923-2.94-12.026-5.91-4.76-1.17 2.8-1.59 6.15 5.9 4.76zm-113.69 9.596c.09-5.725-9.37-14.343-3.61-18.28 8.28 1.916 3.92 10.664 8.53 14.983 3.75-4.704 2.14-11.004 7.24-15.08.7 6.095-4.89 12.876-6.33 19.28 1.33 2.28-5.71 2.81-5.34.64l-.51-1.543zm50.31-7.724l.09-10.54c6.22-1.06 5.52 1.625 5.79 4.318 1.36-4.06 8.84-6.344 6.88-.886 1.39 2.826-8.07.372-6.82 4.388-.98 4.33-.48 8.71-.55 13.063-4.43.64-6.62-.02-5.46-2.66l.07-7.69zm-75.81-6.328c-11.25-4.075-13.14-12.804-10.83-19.59.69-5.534 10.42-12.027 8.91-15.882 4.14-.068 10.33-1 8.34 2.447v33.64c-2.19.013-4.42-.075-6.43-.615zm47.74-22.956l.09-12.753c6.68 3.99-3.25 12.59 7.2 16 9.35-2.77 6.47-13.15 1.62-16.08 9.88 2.32 9.61 16.14-2.34 16.54-7.17-5.96-4.01 3.27-4.63 6.47 1.6 2.44-2.93 3.75-2.03.66l.07-10.85zm24.06 3.44c-8.1-3.883-6.03-14.975 2.57-16.17-6.97 3.843-7.55 12.73.16 16.27 9.44-2.575 8.49-12.427 1.88-16.445 9.39 2.113 9.95 13.038 1.09 16.45-1.8.393-4 .485-5.71-.106zm18.24.127c-2.97-4.25-1.38-9.11-1.93-13.65-.64-2.97-1.48-3.25.88-6.74 2.45 1.44-.23 4.22 4.97 4.22-7.43 3.04-2.77 10.49-2.57 15.25 2.89 1.23 1.73 1.68-1.37.92zm12.26-.02c-7.36-3.9-7.65-13.54 1.14-16.14-6.71 3.4-4.12 9.22 5.88 6.88 3.53-2.41-6.93-10.15.6-5.33 2.79 3.01 4.02 7.22-3.89 5.86-14.86-1.12-1.4 12.04 4.48 7.54-2.01 1.3-5.33 2-8.22 1.17zm18.45-.21c-8.52-3.9-7.73-18 7.35-15.86 4.38 3.7-6.2-2.67-7.78 1.47-4.7 4.03-3.62 17.55 9.14 13.25-1.59 1.6-6 2.18-8.71 1.13zm15.2.05c-6-2.17 1.06-9.08 3-7.78-4.33 1.97-4.36 7.19 1.77 7.9l-2.4.39-2.38-.52zM104.1 168.31v-13.19c4.038-.28 1.165 3.27 2.028 4.75.384 7.21-.04 14.4 0 21.62-4.04.27-1.165-3.27-2.027-4.75v-8.44zm11.837 12.95c-.403-5.3 1.91-14.79-6.23-15.86 11.37-1.57 7.16 7.87 7.96 11.82-.72 1.06 1.707 4.73-1.73 4.03zm9.2-7.96l.09-8.19c3.57-.08.876 3.33 1.747 4.75l.13 11.63c-4.075.28-1.156-3.27-2-4.75l.037-3.44zm105.635 7.05c-2.854-4.69 3.674-11.71-4.748-14.75-10.44 2.88 4.997-3.75 5.664 1.6 1.53 4.69.56 9.612 1.11 14.28l-2.02-1.14zM75 159.28c-7.11-8.656-10.88-19.776-1.252-28.29 2.75-2.82 13.75-2.297 8.37-6.713-2.6-7.13-2.74-15.65 5.76-21.62 4.212-3.97 15.28 3.3 13.16-2.8-1.03-6.76 3.39-17.65 19.82-15.73 13.812 1.32 10.28 13.11 17.84 15.08 13.99-2.62 20.19 6.34 31.43 8.69 2.783 1.92 6.61 5.073 7.405.63 1.886-6.91 17.994-12.166 25.823-4.63 6.736 5.08 7.313 11.55 8.08 17.6 9.727-1.28 18.427 2.905 19.98 8.13.596 2.09 5.274 9.47-2.26 5.13-15.524-5.99-30.556-12.363-46.313-18.163-18.8 7.184-36.56 15.202-54.99 22.683-17.003 7.05-33.822 14.24-50.985 21.17L75 159.29zm50.275.135c-1.75-5.77 5.63 1.32 0 0z"/><path fill="#46a34b" d="M140.963 217.876c-4.986-1.106-7.435-4.35-7.71-10.216-.2-4.342.44-6.387 2.74-8.746 1.974-2.024 4.107-2.88 7.175-2.88 5.414 0 8.522 2.928 8.88 8.366l.16 2.45h-6.432c-5.33 0-6.464.085-6.62.495-.105.272-.05 1.352.12 2.4.697 4.286 3.258 6.49 7.128 6.14 1.145-.104 2.524-.49 3.224-.903 1.425-.84 1.617-.77 1.163.425-.43 1.15-1.44 1.776-3.89 2.413-2.34.61-3.38.62-5.93.056zm5.246-12.94c.98-.98-.04-5.776-1.47-6.898-2.57-2.018-5.47.92-5.47 5.53 0 1.813.04 1.835 3.78 1.89 2 .032 2.72-.087 3.15-.52zm42.92 13.092c-3.55-.864-5.59-3.536-6.29-8.24-.69-4.646.75-9.922 3.28-12.01 2.85-2.35 7.3-2.338 9.82.03.58.552 1.23.903 1.43.778.24-.15.36-2.606.36-7.413v-7.186h5.41v33.71l-2.62-.1-2.62-.098-.11-1.44c-.06-.79-.19-1.44-.3-1.44-.11 0-.82.67-1.59 1.48-1.86 1.98-4.02 2.59-6.8 1.91zm6.19-2.894c1.57-1.322 2.17-3.223 2.35-7.466.19-4.597-.38-7.053-1.98-8.394-1.55-1.306-3.42-1.214-4.88.24-1.34 1.34-1.84 2.893-2.09 6.492-.21 2.936.22 5.94 1.1 7.802 1.04 2.2 3.68 2.84 5.48 1.326zm25.73 2.89c-2.24-.41-4.1-1.465-5.63-3.198-1.78-2.014-2.47-4.262-2.47-8.01 0-6.57 3.14-10.277 9.08-10.7 5.89-.423 9.58 2.783 9.65 8.368l.03 2.198-6.32.092c-5.92.086-6.33.133-6.53.75-.35 1.082.45 4.446 1.37 5.85 1.72 2.6 5.59 3.32 8.95 1.66.81-.4 1.53-.662 1.61-.583.08.08-.15.65-.51 1.26-1.11 1.9-5.53 3-9.27 2.32zm4.33-12.74c.66-.176.76-.423.76-1.938-.01-4.753-2.54-7.346-5.17-5.28-1.56 1.224-2.74 5.903-1.74 6.9.54.55 4.52.755 6.14.32zm-113.69 9.596c-.51-1.534-2.13-6.06-3.61-10.058-1.48-3.997-2.71-7.462-2.74-7.7-.07-.54 5.43-.773 5.85-.248.15.188 1.31 3.575 2.57 7.526 1.76 5.518 2.42 7.183 2.85 7.183.33 0 .71-.45.92-1.098 1.28-3.867 4.53-13.016 4.77-13.438.17-.295.82-.522 1.55-.543 1.51-.044 1.71-.893-1.93 7.98-1.57 3.812-3.35 8.338-3.96 10.057l-1.12 3.13h-4.25l-.93-2.79zm50.31-7.724l.09-10.54 2.6-.038 2.6-.038.1 2.17c.12 2.583.64 2.964 1.57 1.148.83-1.62 1.91-2.632 3.51-3.302 2.21-.924 2.29-.848 2.29 2.226v2.75l-1.36-.184c-3.07-.412-5.15 1.098-5.74 4.164-.2 1.015-.33 4.128-.31 6.917l.05 5.07-2.75.09-2.75.1.09-10.54zm-75.81-6.328c-7.19-1.88-12.46-9.132-11.68-16.065.5-4.475 3.59-10.01 8.17-14.646 1.37-1.39 2.49-2.725 2.49-2.97 0-.243-.46-.633-1.02-.866-.56-.23-1.11-.55-1.21-.71-.1-.16 2.03-.29 4.74-.29h4.92v36.18l-2.12-.02c-1.16-.01-3.1-.28-4.31-.59zM75 159.283c-2.413-2.672-4.807-6.813-6.085-10.528-1.953-5.675-.58-12.632 3.25-16.46 1.81-1.81 4.964-3.392 7.808-3.916 1.1-.21 2.34-.44 2.76-.51.937-.17.96-.77.086-2.25-2.03-3.43-2.77-8.31-1.91-12.39 1.96-9.24 8.21-13.5 16.43-11.2 1.39.39 2.76.74 3.04.78.42.06.54-.66.71-4.15.15-3.16.39-4.7.93-6.09 2.31-5.91 7-8.59 15.08-8.6 3.28-.01 4.52.13 6.49.75 5.35 1.67 9.26 5.71 11.09 11.45.52 1.64 1.05 3.11 1.19 3.27.13.15 1.39.04 2.8-.25 7.16-1.48 14.27.07 19.49 4.25 5.76 4.62 8.66 9.82 9.04 16.22l.17 2.93-.98.5c-.54.27-5.92 2.55-11.96 5.06-6.04 2.51-25.82 10.76-43.95 18.34-18.13 7.58-33.28 13.84-33.66 13.93-.49.1-1.05-.24-1.88-1.16z"/></svg>