<svg xmlns="http://www.w3.org/2000/svg" viewBox="0 0 227.839 169.211"><defs><clipPath id="a"><path d="M1025.2 1331.41h177.82v-17.76H1025.2v17.76z"/></clipPath></defs><path fill="#717275" d="M226.448 169.21H1.38v-5.644h225.068v5.645z"/><path fill="#d7d7d8" d="M224.336 161.81c3.083 1.552 2.783 2.84-.682 2.84H4.186c-3.462 0-3.767-1.282-.682-2.84l32.693-16.526c3.086-1.56 8.447-2.84 11.912-2.84h131.595c3.46 0 8.82 1.28 11.91 2.84l32.72 16.525z"/><g clip-path="url(#a)" transform="matrix(1.25 0 0 -1.25 -1277.31 1806.71)"><path fill="#d7d7d8" d="M1201.32 1315.92l-26.176 13.22c-2.47 1.248-6.76 2.272-9.527 2.272h-47.596l-24.96-13.32-67.86-4.444h175.577c2.772 0 3.012 1.03.545 2.272"/></g><path fill="#e6e8e9" d="M227.31 89.56c1.453 3.14-.19 5.714-3.655 5.714H4.185c-3.46 0-5.11-2.575-3.656-5.715L39.172 5.712C40.628 2.573 44.643 0 48.11 0h131.596c3.462 0 7.478 2.572 8.932 5.715L227.31 89.56z"/><path fill="#95979a" d="M223.655 95.274H4.185l6.17 9.03h207.1l6.2-9.03z"/><path fill="#5693ce" d="M116.546 46.898h39.434l-4.437-21.19h-34.997V46.9zm-5.174 0v-21.19H77.007l-4.44 21.19h38.805zm5.174-26.362h33.92L147.36 5.694h-30.814v14.842zm-5.174 61.79V52.07H71.484l-6.33 30.256h46.218zM38.56 25.71l-9.25 21.187h37.965l4.43-21.19H38.56zm72.812-20.016H81.197L78.09 20.537h33.282V5.694zm-38.58 14.842L75.9 5.694H47.29l-6.475 14.842h31.978zm84.273 31.534h-40.52v30.256h46.85l-6.33-30.256zm-1.307-31.534h31.244l-6.48-14.842h-27.87l3.106 14.842zM66.194 52.07H27.056L13.86 82.326h46.003l6.33-30.256zm95.086-5.172h37.236l-9.26-21.19H156.84l4.44 21.19zm39.49 5.172h-38.416l6.33 30.256h45.296L200.77 52.07z"/><path fill="#e6e8e9" d="M137.57 159.092H89.007l8.304-59.076h31.91l8.35 59.076z"/><path fill="#bdbfc1" d="M129.22 100.016h-8.296l8.35 59.076h8.295l-8.35-59.076z"/></svg>