<svg xmlns="http://www.w3.org/2000/svg" width="320.267" height="327.225" viewBox="0 0 320.26736 327.22508">
  <defs>
    <clipPath id="b">
      <path d="M0 2735.414h1397.833V0H0v2735.414z"/>
    </clipPath>
    <clipPath id="a">
      <path d="M0 2735.414h1397.833V0H0v2735.414z"/>
    </clipPath>
  </defs>
  <g>
    <g clip-path="url(#a)" transform="matrix(1.25 0 0 -1.25 -135.69 2585.25)">
      <g>
        <path fill="#ededed" d="M359.013 1822.188c0-8.71-54.78-15.77-122.354-15.77-67.58 0-122.36 7.06-122.36 15.77 0 8.708 54.78 15.768 122.35 15.768s122.35-7.06 122.35-15.768"/>
      </g>
      <g>
        <path fill="#fff" d="M363.763 1935.54L247.35 2051.96l4.55 4.55-10.687 10.687-131.66-131.656 10.686-10.68 15.15 15.04-5.4-5.383v-.003l-.02-.02v-7.855l.02.02v-77.58h213.32v80.814l7.56-7.57 10.69 10.687-.174.173 2.37 2.37z"/>
      </g>
      <g>
        <path fill="none" stroke="#c8c7c7" stroke-width="1.417" stroke-miterlimit="10" d="M363.763 1935.54L247.35 2051.96l4.55 4.55-10.687 10.687-131.66-131.656 10.686-10.68 15.15 15.04-5.4-5.383v-.003l-.02-.02v-7.855l.02.02v-77.58h213.32v80.814l7.56-7.57 10.69 10.687-.174.173 2.37 2.37z"/>
      </g>
      <g>
        <path fill="#4bae68" d="M221.008 1970.805H328.5l-81.152 81.154 4.55 4.55-10.686 10.68-96.394-96.39h76.19z"/>
      </g>
    </g>
    <text x="13.25" y="250.24" fill="#fff" style="-inkscape-font-specification:Arial-BoldMT" font-weight="bold" font-size="20" font-family="Arial" transform="translate(51.56 -77.32)">
       <tspan x="66.529793 78.749786 93.189774 98.749786 110.60179 125.04178 137.26178" y="168.74">TU VALE</tspan>
    </text>
    <g clip-path="url(#b)" transform="matrix(1.25 0 0 -1.25 -135.69 2585.25)">
      <g>
        <path fill="#efa922" d="M273.568 1827.816h-64.424c-2.905 0-5.26 2.355-5.26 5.26v56.18h74.944v-56.18c0-2.905-2.355-5.26-5.26-5.26"/>
      </g>
      <g>
        <path fill="#b87e24" d="M224.754 1852.642c2.076 1.605 3.436 4.093 3.436 6.92 0 4.848-3.93 8.778-8.777 8.778-4.847 0-8.777-3.93-8.777-8.778 0-2.827 1.36-5.315 3.436-6.92-2.076-1.605-3.436-4.093-3.436-6.92 0-4.848 3.93-8.778 8.777-8.778 4.847 0 8.777 3.93 8.777 8.777 0 2.83-1.36 5.32-3.436 6.93"/>
      </g>
      <g>
        <path fill="#b87e24" d="M245.994 1836.944l-3.71 2.43-3.397-2.202v1.677l2.283 1.42-2.283 1.39v1.66l3.45-2.21 3.657 2.43v-1.73l-2.458-1.578 2.458-1.58v-1.72z"/>
      </g>
      <g>
        <path fill="#b87e24" d="M245.994 1843.566l-3.71 2.43-3.397-2.202v1.677l2.283 1.43-2.283 1.4v1.67l3.45-2.21 3.657 2.428v-1.73l-2.458-1.576 2.458-1.58v-1.72z"/>
      </g>
      <g>
        <path fill="#b87e24" d="M245.994 1852.947l-3.71 2.43-3.397-2.202v1.677l2.283 1.426-2.283 1.396v1.663l3.45-2.21 3.657 2.428v-1.73l-2.458-1.577 2.458-1.58v-1.72z"/>
      </g>
      <g>
        <path fill="#b87e24" d="M245.994 1859.57l-3.71 2.43-3.397-2.202v1.677l2.283 1.426-2.283 1.4v1.67l3.45-2.21 3.657 2.43v-1.73l-2.458-1.575 2.458-1.58v-1.72z"/>
      </g>
      <g>
        <path fill="#b87e24" d="M245.994 1866.192l-3.71 2.43-3.397-2.202v1.677l2.283 1.426-2.283 1.396v1.66l3.45-2.21 3.657 2.43v-1.73l-2.458-1.58 2.458-1.58v-1.72z"/>
      </g>
      <g>
        <path fill="#b87e24" d="M245.994 1872.814l-3.71 2.43-3.397-2.202v1.677l2.283 1.42-2.283 1.39v1.66l3.45-2.21 3.657 2.43v-1.73l-2.458-1.578 2.458-1.58v-1.72z"/>
      </g>
      <g>
        <path fill="#b87e24" d="M245.994 1882.195l-3.71 2.43-3.397-2.202v1.677l2.283 1.426-2.283 1.396v1.663l3.45-2.21 3.657 2.428v-1.73l-2.458-1.577 2.458-1.58v-1.72z"/>
      </g>
      <g>
        <path fill="#4bae68" d="M302.024 1890.124c0 8.19-6.663 14.852-14.852 14.852H182.04v-15.006c0-8.19 6.662-14.852 14.85-14.852h1.325v8.612h-1.324c-3.44 0-6.23 2.8-6.23 6.24v6.394h96.52c3.44 0 6.24-2.8 6.24-6.24v-6.394h-8.92v-8.612h17.53v15.006z"/>
      </g>
    </g>
  </g>
</svg>
