<?xml version="1.0" standalone="no"?>
<!DOCTYPE svg PUBLIC "-//W3C//DTD SVG 20010904//EN"
 "http://www.w3.org/TR/2001/REC-SVG-20010904/DTD/svg10.dtd">
<svg version="1.0" xmlns="http://www.w3.org/2000/svg"
 width="16.000000pt" height="16.000000pt" viewBox="0 0 16.000000 16.000000"
 preserveAspectRatio="xMidYMid meet">
<metadata>
Created by potrace 1.11, written by Peter Selinger 2001-2013
</metadata>
<g transform="translate(0.000000,16.000000) scale(0.017021,-0.017021)"
fill="#000000" stroke="none">
<path d="M779 784 c19 -10 48 -33 66 -51 21 -22 38 -31 49 -27 9 3 16 9 16 13
0 11 -103 69 -135 76 l-30 6 34 -17z"/>
<path d="M723 768 c16 -11 39 -38 52 -59 19 -28 29 -36 45 -32 11 3 20 8 20
12 0 12 -64 68 -97 85 -44 22 -54 20 -20 -6z"/>
<path d="M442 756 c-89 -30 -128 -54 -180 -110 -66 -71 -94 -138 -102 -236
l-6 -85 -13 45 c-21 70 -23 127 -7 180 18 61 13 64 -13 8 -33 -75 -44 -129
-37 -197 7 -64 7 -65 -13 -47 -11 10 -29 36 -40 59 -16 32 -22 37 -27 23 -12
-31 6 -100 33 -128 25 -26 25 -29 10 -46 -24 -26 -22 -30 21 -26 33 2 449 10
760 15 102 1 112 3 112 20 0 23 18 21 -215 24 -248 4 -239 3 -176 27 66 27
155 106 185 167 27 52 42 111 29 112 -38 3 -232 4 -245 1 -11 -3 -23 -24 -33
-57 -8 -29 -15 -55 -15 -58 0 -3 16 -4 35 -3 41 4 45 -7 11 -29 -35 -23 -85
-16 -107 15 -15 20 -17 32 -9 64 22 97 118 159 175 114 l26 -20 84 28 c73 24
85 31 85 51 0 12 -12 34 -27 49 -63 63 -183 79 -301 40z"/>
</g>
</svg>
