<svg xmlns="http://www.w3.org/2000/svg" class="hide"><symbol id="ahorro-agua" viewBox="0 0 141.732 141.732"><path d="M97.063 102.327a2.689 2.689 0 0 0-.14-.47l-4.02-12.803a2.695 2.695 0 0 0-2.577-1.892 2.7 2.7 0 0 0-2.578 1.892l-4.08 12.993c-.02.065-.038.13-.052.195a6.974 6.974 0 0 0-.326 2.1 7.044 7.044 0 0 0 7.036 7.037c3.88 0 7.035-3.157 7.035-7.038 0-.68-.1-1.36-.296-2.016m2.812-25.956v4.593a2.703 2.703 0 0 1-2.704 2.704H83.83a2.702 2.702 0 0 1-2.703-2.704V76.37c0-1.308.93-2.4 2.165-2.648v-5.17c0-.924-.75-1.674-1.672-1.674h-.55c-2.487 4.475-7.175 7.278-12.405 7.278-5.233 0-9.92-2.803-12.407-7.278H35.733a2.703 2.703 0 0 1-2.704-2.702V55.25a2.702 2.702 0 0 1 2.702-2.702h20.8a14.25 14.25 0 0 1 7.37-5.98V43.21c0-.184.02-.366.055-.54h-7.255A2.702 2.702 0 0 1 54 39.968v-3.87a2.703 2.703 0 0 1 2.703-2.704h7.2v-.336a2.705 2.705 0 0 1 2.703-2.704h4.11a2.704 2.704 0 0 1 2.703 2.704v.336h7.2a2.702 2.702 0 0 1 2.702 2.703v3.87a2.703 2.703 0 0 1-2.703 2.705h-7.257c.035.174.055.356.055.54v3.358a14.246 14.246 0 0 1 7.37 5.98h5.2c6.366 0 11.544 5.176 11.544 11.54v9.608a2.702 2.702 0 0 1 2.34 2.675"/></symbol><symbol id="aire-acond" viewBox="0 0 141.732 141.732"><path d="M77.758 72.83c-.06.11-.113.22-.138.33a5.672 5.672 0 0 1-4.983 2.943c-.357 0-.69-.027-1.02-.083h-.052c-2.233-.41-3.99-2.175-4.488-4.376 0-.055-.025-.085-.025-.11a5.134 5.134 0 0 1-.112-1.126c0-1.903.935-3.582 2.392-4.627.113-.08.25-.13.36-.22a5.672 5.672 0 0 1 2.945-.82c1.32 0 2.533.45 3.495 1.21.11.09.22.17.33.28a5.646 5.646 0 0 1 1.844 4.19c0 .88-.19 1.68-.548 2.42m24.138-32.45c-1.984-1.43-4.24-.55-5.26 1.71-4.486 8.21-9.55 14.86-16.1 20.73-.63-.66-1.35-1.21-2.116-1.703 3.575-8.04 6.298-16.35 9.023-24.8.773-2.143-.415-4.514-2.75-5.392-10.488-3.94-23.203-3.85-32.946 2.098-2.285 1.43-2.2 3.906-.192 5.56 6.963 6.794 12.222 13.757 16.098 22.097a12.89 12.89 0 0 0-2.143 1.46c-6.744-6.11-14.175-11.367-21.8-16.484-2.065-1.38-4.843-.91-6.22 1.1-5.917 8.75-8.312 20.145-6.44 30.55.495 2.67 2.672 3.66 4.845 2.368 8.615-4.155 16.868-6.69 25.925-7.65.112.74.275 1.43.522 2.117-8.035 4.734-15.356 10.43-22.65 16.32-1.952 1.57-2.392 4.71-.88 6.85 6.028 8.478 16.733 12.718 26.833 13.598 2.505.19 4.158-1.43 3.716-3.72-1.04-9.22-.76-17.504.97-26.09.69.136 1.4.22 2.12.22 1.6 8.754 4.1 17.286 6.72 25.844.69 2.31 3.39 3.8 6.22 3.277 11.18-3.36 19.24-8.975 23.12-20.45.8-2.258-.36-4.266-2.67-4.626-8.91-1.98-16.51-4.95-23.86-9.36.44-.74.83-1.532 1.08-2.39 8.59 1.077 17.2 1.35 25.93 1.63 2.26.136 4.27-1.735 4.57-4.404 1.32-11.31-2.2-23.48-11.64-30.44"/><path d="M74.454 67.708a3.257 3.257 0 0 0-1.842-.578 3.306 3.306 0 0 0-2.094.774c-.714.577-1.156 1.457-1.185 2.445v.05c0 .41.083.79.22 1.15.304.8.91 1.46 1.708 1.82.31.13.61.22.94.24.14.02.28.05.42.05 1.07 0 2.01-.52 2.61-1.32.14-.2.28-.39.36-.61.19-.418.31-.858.31-1.35 0-.88-.36-1.655-.91-2.26a3.95 3.95 0 0 0-.52-.44"/></symbol><symbol id="calentar-agua" viewBox="0 0 141.732 141.732"><path d="M38.356 84.737l6.94-26.617h49.297l8.784 26.617h-65.02zm56.766-28.563h-50.36c-1.46 0-2.66.726-2.66 1.622l-6.925 27.266c0 .893 1.188 1.62 2.65 1.62h66.08c1.46 0 2.648-.727 2.648-1.62L97.77 57.796c0-.896-1.19-1.622-2.648-1.622M73.704 88.58h-5.84v11.615H60.99v3.952h19.75v-3.952h-7.036V88.58zm-34.292-29.8l.218-.858c-1.514-.873-2.504-2.24-2.504-3.797v-2.783c0-2.23 2.007-4.098 4.72-4.63.166-.057.335-.108.506-.155h-1.51c-3.475 0-6.292 2.142-6.292 4.785v2.783c0 2.268 2.077 4.163 4.862 4.655m61.48-12.223h-1.51c.17.047.34.1.504.156 2.712.53 4.72 2.4 4.72 4.63v2.78c0 2.058-1.716 3.793-4.11 4.47l.1.316h.296c3.474 0 6.29-2.15 6.29-4.79v-2.78c0-2.65-2.816-4.79-6.29-4.79M69.06 35.08h3.234a.28.28 0 0 0 .2-.11c.058-.055.065-.136.046-.21l-1.616-6c-.062-.23-.43-.23-.494-.002l-1.606 5.993c-.027.08-.01.16.035.22.05.08.12.11.2.11m12.83 4.78c.05.06.13.09.21.09.08-.01.15-.06.19-.14l3.09-5.37c.12-.19-.15-.46-.35-.34l-5.38 3.094a.256.256 0 0 0-.13.205c-.02.074.02.146.07.203l2.285 2.28zm-22.46.33c.03.07.11.11.19.12.07.02.15-.01.2-.07l2.28-2.28c.05-.05.09-.13.08-.21a.221.221 0 0 0-.13-.18l-5.39-3.1c-.19-.12-.458.145-.35.35l3.11 5.39zm20.93 3.75c-.51-1.01-1.18-1.97-2.03-2.81-4.24-4.23-11.11-4.23-15.347 0-.847.85-1.5 1.81-2.01 2.82h19.38z"/><path d="M70.71 59.516a3.195 3.195 0 0 0-3.196 3.195v17.44a3.192 3.192 0 1 0 6.385.01V62.71a3.196 3.196 0 0 0-3.2-3.194m-9.7.004a3.198 3.198 0 0 0-3.37 3.015l-.96 17.433a3.192 3.192 0 0 0 3.18 3.372 3.2 3.2 0 0 0 3.19-3.02L64 62.888a3.194 3.194 0 0 0-3.013-3.368m-8.796.064a3.196 3.196 0 0 0-3.78 2.472L44.78 79.49a3.194 3.194 0 0 0 3.131 3.85c1.48 0 2.81-1.035 3.13-2.54l3.65-17.434a3.193 3.193 0 0 0-2.47-3.782m28.51-.064a3.193 3.193 0 0 0-3.01 3.368l.96 17.432a3.207 3.207 0 0 0 3.37 3.015 3.193 3.193 0 0 0 3.02-3.367l-.96-17.433a3.197 3.197 0 0 0-3.363-3.015m8.794.064a3.192 3.192 0 0 0-2.47 3.782L90.7 80.8a3.2 3.2 0 0 0 6.262-1.31l-3.65-17.434a3.2 3.2 0 0 0-3.782-2.472m-49.9-8.244v2.785c0 .756.24 1.47.65 2.106.84-1.11 2.53-1.88 4.49-1.88h50.36c2.65 0 4.83 1.41 5.03 3.18l.016.05c1.193-.87 1.94-2.09 1.94-3.45v-2.79c0-2.64-2.814-4.78-6.29-4.78h-49.91c-3.474 0-6.29 2.15-6.29 4.79"/></symbol><symbol id="check" viewBox="0 0 34.741248 27.669999"><path d="M34.741 5.547L29.194 0 12.703 16.491 5.548 9.336 0 14.884l7.155 7.155-.084.083 5.548 5.548.084-.084.083.084 5.548-5.548-.084-.083L34.741 5.548z"/></symbol><symbol id="clock-o" viewBox="0 0 1792 1792"><path d="M1024 544v448q0 14-9 23t-23 9H672q-14 0-23-9t-9-23v-64q0-14 9-23t23-9h224V544q0-14 9-23t23-9h64q14 0 23 9t9 23zm416 352q0-148-73-273t-198-198-273-73-273 73-198 198-73 273 73 273 198 198 273 73 273-73 198-198 73-273zm224 0q0 209-103 385.5T1281.5 1561 896 1664t-385.5-103T231 1281.5 128 896t103-385.5T510.5 231 896 128t385.5 103T1561 510.5 1664 896z"/></symbol><symbol id="energia-solar" viewBox="0 0 141.732 141.732"><path d="M81.63 53.73v8.164h13.86l-2.313-8.165H81.63zm.062 18.963h16.176l-2.313-8.163H81.692v8.163z"/><path d="M38.452 86.156l6.94-34.997H94.69l8.783 34.99h-65.02zM95.218 48.6h-50.36c-1.458 0-2.658.955-2.658 2.133l-6.927 35.85c0 1.175 1.188 2.13 2.65 2.13h66.08c1.462 0 2.65-.955 2.65-2.13l-8.786-35.85c0-1.178-1.19-2.134-2.65-2.134"/><path d="M60.22 53.73H47.753l-2.31 8.164h14.78V53.73zm3.384-.002h14.78v8.153h-14.78v-8.15zm-20.41 18.965h17.09V64.53h-14.78l-2.31 8.163zm20.463-8.163H78.45v8.166H63.658V64.53zm-22.31 19.054h18.937V75.42H43.657l-2.31 8.164zm22.31-8.164H78.45v8.166H63.658V75.42zm18.035 0v8.164h18.487l-2.32-8.164H81.69zm-8.047 15.19h-5.84v11.616H60.93v3.953h19.752v-3.96h-7.037V90.61zm23.2-43.74c1.462 0 2.65.956 2.65 2.143l2.467 10.076c2.417-2 3.992-5 3.992-8.39 0-6.04-4.895-10.93-10.943-10.93-4.68 0-8.65 2.96-10.2 7.1h12.04v-.017zm9.005-4.717a.288.288 0 0 0 .22.066c.08 0 .142-.06.18-.12l3.1-5.39c.12-.21-.14-.47-.348-.35l-5.373 3.1c-.08.03-.12.1-.13.18-.02.09.01.16.06.22l2.29 2.28zm-.826 17.167c-.052-.06-.116-.115-.195-.127a.212.212 0 0 0-.21.078l-2.11 2.1.19.78 5.06 2.92c.192.1.463-.15.347-.35l-3.1-5.39zM82.727 42.23a.283.283 0 0 0 .205-.077l2.29-2.285a.307.307 0 0 0 .075-.21.19.19 0 0 0-.116-.167l-4.97-2.69c-.18-.1-.45.16-.35.35l2.7 4.98c.04.066.09.106.17.116m32.85 8.23l-5.99-1.616a.248.248 0 0 0-.23.052c-.06.04-.083.116-.083.196v3.226c0 .08.026.156.088.21.07.05.157.06.237.036l5.993-1.612c.22-.05.22-.422 0-.49M93.4 36.994h3.23a.256.256 0 0 0 .204-.09.202.202 0 0 0 .04-.22l-1.61-6.01c-.052-.22-.43-.22-.492 0l-1.613 6.01c-.03.074 0 .153.05.22.035.063.114.09.19.09"/></symbol><symbol id="envelope-o" viewBox="0 0 1792 1792"><path d="M1664 1504V736q-32 36-69 66-268 206-426 338-51 43-83 67t-86.5 48.5T897 1280h-2q-48 0-102.5-24.5T706 1207t-83-67q-158-132-426-338-37-30-69-66v768q0 13 9.5 22.5t22.5 9.5h1472q13 0 22.5-9.5t9.5-22.5zm0-1051v-24.5l-.5-13-3-12.5-5.5-9-9-7.5-14-2.5H160q-13 0-22.5 9.5T128 416q0 168 147 284 193 152 401 317 6 5 35 29.5t46 37.5 44.5 31.5T852 1143t43 9h2q20 0 43-9t50.5-27.5 44.5-31.5 46-37.5 35-29.5q208-165 401-317 54-43 100.5-115.5T1664 453zm128-37v1088q0 66-47 113t-113 47H160q-66 0-113-47T0 1504V416q0-66 47-113t113-47h1472q66 0 113 47t47 113z"/></symbol><symbol id="envelope" viewBox="0 0 1792 1792"><path d="M1792 710v794q0 66-47 113t-113 47H160q-66 0-113-47T0 1504V710q44 49 101 87 362 246 497 345 57 42 92.5 65.5t94.5 48 110 24.5h2q51 0 110-24.5t94.5-48 92.5-65.5q170-123 498-345 57-39 100-87zm0-294q0 79-49 151t-122 123q-376 261-468 325-10 7-42.5 30.5t-54 38-52 32.5-57.5 27-50 9h-2q-23 0-50-9t-57.5-27-52-32.5-54-38T639 1015q-91-64-262-182.5T172 690q-62-42-117-115.5T0 438q0-78 41.5-130T160 256h1472q65 0 112.5 47t47.5 113z"/></symbol><symbol id="facebook" viewBox="0 0 1792 1792"><path d="M1343 12v264h-157q-86 0-116 36t-30 108v189h293l-39 296h-254v759H734V905H479V609h255V391q0-186 104-288.5T1115 0q147 0 228 12z"/></symbol><symbol id="google-plus" viewBox="0 0 1792 1792"><path d="M1181 913q0 208-87 370.5t-248 254-369 91.5q-149 0-285-58t-234-156-156-234-58-285 58-285 156-234 234-156 285-58q286 0 491 192L769 546Q652 433 477 433q-123 0-227.5 62T84 663.5 23 896t61 232.5T249.5 1297t227.5 62q83 0 152.5-23t114.5-57.5 78.5-78.5 49-83 21.5-74H477V791h692q12 63 12 122zm867-122v210h-209v209h-210v-209h-209V791h209V582h210v209h209z"/></symbol><symbol id="home" viewBox="0 0 1792 1792"><path d="M1472 992v480q0 26-19 45t-45 19h-384v-384H768v384H384q-26 0-45-19t-19-45V992q0-1 .5-3t.5-3l575-474 575 474q1 2 1 6zm223-69l-62 74q-8 9-21 11h-3q-13 0-21-7L896 424l-692 577q-12 8-24 7-13-2-21-11l-62-74q-8-10-7-23.5t11-21.5l719-599q32-26 76-26t76 26l244 204V288q0-14 9-23t23-9h192q14 0 23 9t9 23v408l219 182q10 8 11 21.5t-7 23.5z"/></symbol><symbol id="ilum-led" viewBox="0 0 141.732 141.732"><path d="M58.535 110.164c.03-5.48.1-10.963.034-16.443-.01-.58-.81-1.15-1.52-2.11V71.6h9.32v20.768l-1.81.305v17.49h-6.03zm18.07 0c-.086-2.527-.207-5.055-.247-7.583-.044-2.67-.05-5.35.007-8.02.027-1.225.013-2.292-1.642-2.17V71.62h9.32v20.73l-1.815.363v17.45h-5.623zM50.712 68.662c.87-1.968-1.173-4.46 1.838-5.86 0-3.975-.084-8.12.02-12.258.186-7.62 3.367-13.552 10.316-17.043 11.346-5.7 25.04 1.85 26.136 14.3.392 4.45.254 8.95.367 13.42.02 1.1-.45 2.56 1.63 2.07v5.38H50.71z"/></symbol><symbol id="linea-blanca" viewBox="0 0 141.732 141.732"><path d="M37.952 110.965h65.83v-9.828h-65.83v9.828zm11.84-48.188a4.275 4.275 0 0 1 4.262-4.263H87.68a4.277 4.277 0 0 1 4.262 4.263v25.337c0 2.344-1.92 4.26-4.263 4.26l-33.63.002a4.272 4.272 0 0 1-4.26-4.262V62.777zm-11.84 35.876h65.83V51.527h-65.83v47.126zm53.812-54.82a4.618 4.618 0 1 1 4.617-4.617 4.613 4.613 0 0 1-4.612 4.617m-13.933 0c-2.55 0-4.615-2.067-4.615-4.617s2.065-4.618 4.615-4.618a4.618 4.618 0 1 1 0 9.235m-13.93 0c-2.55 0-4.616-2.067-4.616-4.617a4.615 4.615 0 1 1 9.232 0 4.616 4.616 0 0 1-4.617 4.617m-13.93 0c-2.55 0-4.62-2.067-4.62-4.617s2.07-4.618 4.62-4.618a4.617 4.617 0 0 1 4.616 4.618 4.616 4.616 0 0 1-4.616 4.617M93.01 29.388v-1.184H78.33v1.184H63.41v-1.184H48.725v1.184H37.95v19.655h65.83V29.388H93.007z"/></symbol><symbol id="linkedin" viewBox="0 0 1792 1792"><path d="M477 625v991H147V625h330zm21-306q1 73-50.5 122T312 490h-2q-82 0-132-49t-50-122q0-74 51.5-122.5T314 148t133 48.5T498 319zm1166 729v568h-329v-530q0-105-40.5-164.5T1168 862q-63 0-105.5 34.5T999 982q-11 30-11 81v553H659q2-399 2-647t-1-296l-1-48h329v144h-2q20-32 41-56t56.5-52 87-43.5T1285 602q171 0 275 113.5t104 332.5z"/></symbol><symbol id="map-marker" viewBox="0 0 1792 1792"><path d="M1152 640q0-106-75-181t-181-75-181 75-75 181 75 181 181 75 181-75 75-181zm256 0q0 109-33 179l-364 774q-16 33-47.5 52t-67.5 19-67.5-19-46.5-52L417 819q-33-70-33-179 0-212 150-362t362-150 362 150 150 362z"/></symbol><symbol id="phone" viewBox="0 0 1792 1792"><path d="M1600 1240q0 27-10 70.5t-21 68.5q-21 50-122 106-94 51-186 51-27 0-52.5-3.5T1151 1520t-47.5-14.5-55.5-20.5-49-18q-98-35-175-83-128-79-264.5-215.5T344 904q-48-77-83-175-3-9-18-49t-20.5-55.5T208 577t-12.5-57.5T192 467q0-92 51-186 56-101 106-122 25-11 68.5-21t70.5-10q14 0 21 3 18 6 53 76 11 19 30 54t35 63.5 31 53.5q3 4 17.5 25t21.5 35.5 7 28.5q0 20-28.5 50t-62 55-62 53-28.5 46q0 9 5 22.5t8.5 20.5 14 24 11.5 19q76 137 174 235t235 174q2 1 19 11.5t24 14 20.5 8.5 22.5 5q18 0 46-28.5t53-62 55-62 50-28.5q14 0 28.5 7t35.5 21.5 25 17.5q25 15 53.5 31t63.5 35 54 30q70 35 76 53 3 7 3 21z"/></symbol><symbol id="pin" viewBox="-17.7 -48.66 95.27 48"><path d="M-.46-48.66c-9.8 0-17.7 7.8-17.7 17.4 0 15.5 17.7 30.6 17.7 30.6s17.7-15.4 17.7-30.6c0-9.6-7.9-17.4-17.7-17.4z" class="pin"/><circle cx="-.46" cy="-30.96" r="17.7" class="circulo1"/><path class="rect1" style="transform-origin:-1.46px -30.96px" d="M-1.458-48.66h2v35.4h-2z"/><circle cx="-.46" cy="-30.96" r="13" class="circulo2"/><path class="rect2" style="transform-origin:-1.46px -30.96px" d="M-1.458-43.96h2v26h-2z"/><circle cx="-.46" cy="-30.96" r="13" class="circulo3"/></symbol><symbol id="pintura-imper" viewBox="0 0 141.732 141.732"><path d="M43.14 41.827h55.433c.78 0 1.614.73 1.614 1.563v2.918c-1.56-1.093-2.81-1.667-4.53-1.667a6.57 6.57 0 0 0-6.557 6.57c0 2.61-2.133 4.9-4.892 4.9-2.758 0-4.84-2.29-4.84-5.05v-.52c0-3.02-2.447-5.47-5.466-5.47a5.47 5.47 0 0 0-5.465 5.48v.52c0 1.305-1.04 2.348-2.342 2.348s-2.343-1.043-2.343-2.345v-.833a3.623 3.623 0 0 0-3.644-3.645 3.624 3.624 0 0 0-3.642 3.648v.577c0 2.61-2.083 4.69-4.685 4.69-2.6 0-4.68-2.08-4.68-4.69v-.52c0-2.03-1.61-3.644-3.64-3.644-.57 0-1.04.155-1.56.363v-3.6c0-.836.42-1.566 1.25-1.566m60.28 8.44c-.05 0-.26-.103-.31-.103h-.83V43.4c0-1.928-1.766-3.648-3.693-3.648H43.14c-1.978 0-3.33 1.67-3.33 3.647v14.33c0 1.92 1.352 3.38 3.33 3.38h55.433c1.927 0 3.695-1.46 3.695-3.39v-5.48h.73c.677.52 1.353.99 1.353 1.665v8.34c0 .885-.88 1.405-1.77 1.405H73.49c-2.03 0-3.488 1.774-3.488 3.806v1.46h-6.767c-.26 0-.47.21-.52.47-.052.208.104.52.364.626.57.32 2.24 1.41 2.24 2.35v31.11c0 1.72 1.24 3.03 2.96 3.03h5.2c1.71 0 3.28-1.304 3.28-3.024V72.31c0-.935 1.51-2.03 2.08-2.29.21-.1.26-.414.21-.622-.06-.208-.32-.47-.52-.47h-6.46v-1.41c0-.885.57-1.718 1.4-1.718h29.093c2.03 0 3.855-1.512 3.855-3.492v-8.34c0-1.77-1.35-3.333-3.015-3.7"/></symbol></svg>