<svg xmlns="http://www.w3.org/2000/svg" version="1" viewBox="0 0 11839 8020">
  <defs>
    <filter id="a" height="1.3">
      <feGaussianBlur in="SourceAlpha" stdDeviation="300"/>
      <feOffset dx="2" dy="2" result="offsetblur"/>
      <feMerge>
        <feMergeNode/>
        <feMergeNode in="SourceGraphic"/>
      </feMerge>
    </filter>
  </defs>
  <path fill="#faf7f6" d="M4852.962 6744.587c-53-65-118-169-197-313-39-71-75-136-80-144-7-11-23-2-77 47l-68 60-29-16c-49-29-90-82-174-227-423-732-632-1532-633-2425v-255l-43 105c-242 589-519 1017-893 1380-293 285-579 454-889 526-121 28-327 26-422-4-193-61-316-216-353-445-16-98-8-330 15-442 22-104 110-371 170-510 73-171 206-432 390-765 171-310 230-409 282-469 27-32 30-33 69-22 46 12 89 52 105 99 14 41-1 72-190 407-175 307-362 682-418 835-162 444-190 778-78 941 59 84 202 117 366 85 438-88 867-393 1171-831 283-408 550-1105 723-1885 25-113 54-224 65-248 27-58 89-123 143-150l44-22 48-138c51-149 121-327 192-492 121-281 385-759 438-794 35-23 97-20 129 5 37 29 59 75 51 108-3 15-46 99-96 187-660 1170-888 2488-643 3712 39 196 104 430 168 601 49 134 157 383 163 378 2-3-10-53-26-113-182-673-231-1352-145-2034 82-651 272-1281 569-1885 152-308 321-585 358-585 67 0 147 66 147 121 0 34-11 58-123 258-392 704-629 1482-697 2286-12 141-13 325-2 325s157-104 324-231c489-371 992-687 1365-859 379-173 671-267 993-317 178-28 602-26 765 4 294 54 500 139 668 278 84 70 146 148 197 250 61 123 72 175 77 387l5 188 32 5c17 3 73 12 124 20 125 21 247 53 494 130 114 36 212 65 219 65 18 0 252-224 358-343 110-124 271-335 271-356 0-29 91-421 120-519 52-176 167-419 220-467 24-22 113-31 151-17 25 10 28 18 39 98 30 212-30 474-175 764-90 179-95 214-96 645 0 551 47 933 152 1212 83 222 145 476 164 674 5 48 3 75-9 102-24 59-64 104-112 127-53 26-95 20-124-17s-80-205-160-525c-89-359-123-442-243-603-122-165-347-333-534-399-38-13-38-13-88 31-543 484-1074 884-1360 1023-210 103-429 162-538 146-93-14-127-109-72-202 37-63 71-83 172-99 386-62 757-277 1283-741 239-211 299-267 295-275-11-17-323-109-488-144-98-20-179-36-181-34s-39 74-83 160c-144 282-309 506-530 719-298 289-598 458-983 555-227 57-554 77-780 46-222-30-534-117-683-192-164-83-319-208-403-324-133-188-196-460-179-782 4-73 5-133 1-133-3 0-28 9-55 20-52 20-74 14-43-12 9-8 38-29 64-47 55-37 63-50 89-138l18-64-37 23c-127 77-229 148-449 314-136 103-250 189-252 191-8 7 19 343 40 485 76 531 287 1123 560 1572 39 66 78 139 85 164 13 40 12 49-7 91-33 75-109 141-162 141-8 0-30-19-49-42zm2007-1579c687-76 1296-516 1520-1098 20-51 34-95 32-97-2-3-51-8-109-12l-104-7-62-68c-65-72-83-117-66-165 14-40 114-61 287-62h137v-98c0-148-41-277-117-370-102-124-341-243-575-287-195-35-515-36-718 0-409 71-940 275-1386 530-116 67-142 90-196 170-23 33-49 67-59 75-23 20-74 168-99 291-38 188-24 439 34 593 85 226 199 346 431 456 296 140 660 192 1050 149zm3392-1041c-4-79-7-213-7-298v-154l-71 69c-74 74-262 281-267 294-1 4 44 36 100 70 57 34 132 84 168 111s69 49 74 49c5 1 6-58 3-141z" filter="url(#a)"/>
  <path fill="#fbaf57" d="M6464.962 5085.587c-220-13-390-58-564-147-232-119-352-255-408-461-17-61-21-107-22-231 0-173 11-246 71-432 19-61 33-112 31-113-2-2-46 22-98 55-52 32-98 56-102 54-13-8 42-138 65-156 12-9 24-15 27-13 11 7 219-99 355-179 353-208 680-348 989-421 328-78 694-80 943-4 131 40 298 147 371 238 67 83 117 221 124 340l3 54-80 21c-86 23-92 29-81 91 4 22 28 58 67 100 44 49 57 70 50 79-6 7-39 71-75 143-178 361-403 618-697 796-241 147-577 211-969 186z"/>
</svg>
