<svg xmlns="http://www.w3.org/2000/svg" width="41.103" height="43.041" viewBox="0 0 41.103 43.041"><path fill="#eb17c2" d="M23.346 17.136c1.24-1.32 2.865-2.17 4.73-3.334l-.31-1.473c-.852.69-3.565 2.94-6.672 2.94-.464 0-1.084-.16-1.55-.23 1.628.69 2.407 1.39 3.802 2.09m-6.826 1.09v.23c0 2.01-1.165 2.01-1.706 3.1.233.62 1.162.93 1.162 2.32 1.863-.23 3.568-.31 5.045-.31 2.87 0 5.12.39 6.6.94 1.01.22 1.79 1.24 1.79 2.39 0 .31-.08.63-.16 1.01 0 2.49-.77 4.73-1.01 10.47 1.09 1.93 2.1 2.09 3.81 3.25.7.39 1.09.85 1.55.85-.08.23-.46.46-.93.46-.23 0-.54-.08-.85-.24-.62.154-1.08.232-1.32.232-.69 0-.46-.466-1.85-.466-.46 0-1.08.076-2.02.152-.07 0-.31.08-.39.08-.77 0-2.01-.31-2.01-1.4 0-.31.24-.85.46-1.32.24-.62.32-1.397.32-2.02 0-2.4-1.24-5.04-1.24-7.29 0-1.004.32-2.09 1.01-2.864-3.41 1.7-4.57 1.78-7.21 2.014 1.56 2.48 2.64 5.503 3.03 9.07v.7c0 1.47-.853 2.944-2.25 2.944-1.55 0-5.583-.467-10.86-1.16-.93 0-3.874.773-5.503.773-.23 0-.46-.08-.62-.08-.234.7-.695.93-.93.93H.24c-.16-.06-.24-.3-.24-.45 0-.152.08-.54.237-.7.077-2.71 2.788-1.7 3.332-3.1l.93-1.082c.31-.156.62-.23.85-.23 1.16 0 1.7 2.014 2.17 2.014l.15-.08c1.78-.24 3.72-1.32 6.05-1.32.62 0 1.31.07 2.01.23-2.25-1.787-6.28-4.73-6.83-7.99-1.86-1.007-2.56-2.33-2.56-3.57 0-2.09 1.7-4.65 2.01-7.13V18.5c0-1.555-.31-3.18-.31-4.655 0-1.86.62-3.88 2.71-5.584-.08-.69-.23-1.24-.23-1.55 0-1.24.77-.77.93-1.78 0-.07-.08-.15-.08-.23.03-3.38 2.43-4.7 4.6-4.7h.78c2.33.31 3.332 1.86 3.332 3.108 0 .543-.152 1.085-.462 1.473-.154.155-.312.465-.312.62 0 .386.39.85.47 1.16.08.156.16.468.16.62 0 .07-.234.31-.465.31-.08 0-.16-.08-.24-.08l-.157.23v.16s0 .15-.08.15-.24.07-.31.07l-.08-.07c0 .15.07.07.23.23-.08 0-.23.54-.46.54l-.08-.08c-.24.78-.55 1.16-1.09 1.16-.31 0-.85-.24-1.47-.39l-.78 1.31c2.56.15 4.88 1.24 7.05 2.17 2.48-1.165 3.334-1.475 5.2-1.71 0 0-.31-1.4-.31-2.48 0-.62.155-1.24.38-1.475.7-1.16 2.564-2.09 4.5-2.633.464 0 1.09.077 1.24.39l7.83 12.64-.31.85-.93.31 1.47 7.37-.926.16-1.09-3.803 1.556 10.71-1.09.31-1.7-10.628.39 6.672-.774.15-.856-7.6-.31.16.86 12.1-1.164-.07-1.008-13.03-.31-.072v10.94l-1.397.07-.23-9.54c-.08 0-.31.085-.39.085-2.01 0-3.18-2.1-3.33-3.58l-.936-3.87c-.85 1.55-2.01 3.333-4.65 4.42-.22 0-.54.076-.77.076-1.93 0-4.11-1-4.88-2.16-.31.46-.85.77-1.55.77"/></svg>