<svg xmlns="http://www.w3.org/2000/svg" width="41.329" height="41.491" viewBox="0 0 41.329 41.491"><path fill="#fc2104" d="M2.248 21.02c2.327-3.644 5.273-4.42 8.605-4.42 2.173 0 4.732.388 7.292.388 1.395 0 3.023-.232 4.42-.465 2.095-3.418 4.34-6.753 5.275-7.528.075-.156.075-.31.075-.466 0-.46-.31-1.32-.31-1.48l.076-.07c-1.31-2.02-3.02-3.11-4.49-3.11-.77 0-1.63.31-2.32 1.09-1.01 1.47-1.24 3.87-1.24 5.43 0 .62.077 1.17.077 1.4l-.62.07C17.61 10.23 16.99 8.6 16.99 7.21c0-2.87 2.25-5.12 2.25-5.12C21.013.77 23.03 0 24.817 0c2.325 0 4.57 1.162 6.05 3.645l.923 1.55.63-1.55C33.03 2.17 34.12.62 36.84.62h.93c2.7.776 3.25 2.092 3.56 5.272h-.78c-.694-1.545-1.707-2.558-2.786-2.558-.544 0-1.24.31-1.94.93-.623.783-.86 1.628-.86 2.25 0 1.396 1.086 2.325 1.086 2.325l3.5 3.88-.706 1.62c-.31.47-1.62 1.09-2.79 1.09-.698 0-1.467-.31-1.858-.78-2.87 1.937-.697 7.985-4.344 11.475l3.18 15.275h-1.7l-3.49-8.293-.698 8.375h-1.17L22.33 28.23c-2.09 1.164-4.03 1.63-5.426 1.63-1.01 0-1.86-.233-2.483-.543-.69-.156-1.47-.388-2.01-.388-.62 0-1.16.54-1.16 2.17 0 .31.08.69.08 1.08l.158 9.3H10.01L7.674 31.1l-1.086.62v9.77h-1.94c-.852-2.946-1.24-5.428-2.48-7.678-.547-.773-.854-1.316-.854-1.705 0-1.007 1.55-1.318 1.71-3.022.074-.466.155-1.01.155-1.398 0-.542-.16-1.238-.47-1.858-.16-.31-.78-.63-1.16-.63-.24 0-.55.15-.7.39-.31-.78-.55-.78-.86-1.24.54-1.55 1.55-2.25 2.244-3.34"/></svg>