<svg xmlns="http://www.w3.org/2000/svg" width="42.425" height="42.107" viewBox="0 0 42.425 42.107"><path fill="#9df510" d="M8.456 16.75c0 .93.388 2.015 1.083 2.712 1.01 1.398 2.4 2.25 3.64 2.25.54 0 1.24-.233 1.62-.542.15-.39.31-.778.31-1.088 0-1.317-1.32-2.557-1.55-3.178-.93-1.24-2.41-2.48-3.49-2.48-.39 0-.85.153-1.16.62-.24.386-.47 1.085-.47 1.706m5.35 11.165c.7-.155.93-.465.93-.698 0-.232-.31-.62-.62-.776-1.55.31-3.1.63-4.5.63-5.51 0-9.62-2.79-9.62-7.52 0-3.1 1.86-7.21 6.13-11.78l1.08.62c-.855 1.39-1.55 7.36-1.55 8.06 2.25-2.56 4.033-3.25 5.43-3.25 1.393 0 2.635.7 3.72.7.154-.7.233-1.4.233-2.02 0-1.47-.54-2.79-2.015-3.72l.7-.69c2.02 1.24 2.56 1.785 2.87 4.42.466 2.017 2.33 3.1 3.8 3.1.23 0 .62-.154.776-.154.85-.463 1.084-1.16 1.084-2.09 0-.62-.08-1.55-.15-2.48-.31-2.48-3.336-2.56-5.43-2.56h-.31l2.87-2.64c-1.78-1.4-5.655-1.71-7.05-1.71l-.31-.855C14.66.77 17.373 0 19.778 0c5.43 0 9.387 4.03 9.387 8.918 0 .93-.08 1.938-.39 2.946-.235.93-1.32 3.023-1.864 3.955.24 0 .55.15.78.15.08 0 .31-.08.39-.08 3.026-.7 5.58-4.34 6.36-6.28l1.24.62c-.932 2.71-2.56 4.96-5.042 6.9l.857.85c.157 0 .386.07.548.07 2.01 0 3.486-2.41 4.494-4.19l1.32.69c-.31 1.4-2.72 4.655-4.74 5.586l.54 1.01c.08 0 .31.074.47.074 1.63 0 4.42-2.32 5.27-4.49l.7.54c-.7 4.26-3.18 6.28-5.51 6.82.62.62.85 1.32.85 1.788 0 .463-.23 1.004-.54 1.24.54.23.77.773.77 1.24 0 .23-.08.62-.154.93h.31c.7 0 1.24.385 1.24 1.084v.466c2.64-.23 3.804-.854 3.88-1.24.153.386.54 1.086.54 1.783 0 .694-.387 1.55-1.55 2.25 1.01.23 2.484 1.16 2.484 2.01 0 .39-.39.936-1.473 1.4-.543 1.01-2.33 2.56-3.18 2.948-.46 1.55-1.16 2.092-1.63 2.092-.77 0-1.55-1.55-1.79-2.87-.46 1.084-1.62 1.626-2.55 1.626-.24 0-.545 0-.78-.08 0-.62.315-2.87.315-4.27 0-.38-.08-.85-.08-1-.158.07-.46.15-.626.15-.7 0-1.55-.7-1.55-1.78v-.16c-.31.23-1.008.54-1.4.54-.54 0-1-.383-1-1.24-.24.31-.7.55-1.095.55-.54 0-1.236-.39-1.543-.935-1.94 3.567-4.888 4.886-8.688 5.2l-.547-1.24c1.706-.39 5.04-1.86 5.66-3.02v-.07c0-.39-1.706-.7-1.784-1.24-1.704 1.24-4.264 2.87-6.744 2.87-.47 0-.93-.16-1.4-.233l-.157-1.55c1.472-.31 6.435-1.782 6.435-2.79 0-.08 0-.235-.077-.31-.93-.235-1.86-.312-2.56-.312-2.328 0-3.8 1.166-5.27 2.33l-.93-1.164c1.32-2.09 4.5-2.94 5.813-3.18"/></svg>