<svg xmlns="http://www.w3.org/2000/svg" width="40.56" height="40.715" viewBox="0 0 40.56 40.715"><path fill="#c717eb" d="M27.3 6.827c.462-.387.62-.775.62-1.008 0-.39-.54-.778-1.163-1.01-.695-.237-1.787-.466-2.87-.466-3.335 0-7.91 1.706-10.156 6.203l-.856-.466C14.194 6.207 19.934 0 27.066 0c2.094 0 4.42.542 6.67 1.784L40.56 4.81l-.464 2.637C39.706 8.07 38.312 9 36.376 9c-.467 0-1.166-.156-1.71-.234-1.006.465-1.395 2.094-1.395 3.955 0 1.864.31 4.266.31 6.36 0 2.79-.462 5.35-2.71 6.204l3.647 15.355h-1.71l-3.645-8.766 1.398 8.61-2.015.155-5.815-13.496c-.853.31-1.938.544-2.872.544-3.18 0-6.36-1.63-6.36-1.63-.543 2.328-1.394 3.41-1.394 4.81l.462 9.695-1.24.077-3.1-11.4L6.67 30.4l.545 10.316H5.272c-.85-2.95-1.468-4.73-2.48-6.75-.697-1.783-1.395-3.566-1.395-4.73 0-.23.154-.54.154-.696.547-.93 1.014-.39 1.477-1.165.464-.388.7-1.163.7-1.86 0-.466-.08-1.163-.236-1.553-.225-.386-.62-2.402-1.47-2.402-.312 0-.78.234-1.242.93-.31-.774-.467-1.164-.777-1.628.157-.62 1.008-1.473 1.32-1.706 2.79-2.482 2.485-2.792 3.88-3.8 1.625-1.084 3.178-1.472 4.727-1.472 2.87 0 5.97 1.24 9.62 1.24.925 0 2.01-.155 3.025-.31 1.625-1.86 3.028-6.203 4.73-7.987"/></svg>