<svg xmlns="http://www.w3.org/2000/svg" width="42.809" height="41.799" viewBox="0 0 42.809 41.799"><path fill="#1753eb" d="M8.143 34.664L6.05 34.12l-4.42-4.11 1.163-1.395 2.637 2.17 3.1-.076 1.01-1.166-.234-1.24-1.938.775-2.172-.077L0 22.103l.776-1.24 6.592 4.11-.388-2.56-4.11-1.473-1.86-6.514.93-.7L3.8 15.9l-.155 1.626 2.56.08.62-1.165-6.28-4.803-.08-1.708 3.568-6.126v-2.02l1.86-1.24.31 2.48 1.396.39 3.49-.93-1.55 4.188-6.438 3.49 6.28 2.17.856-1.16 2.012.54 2.018 4.655.074-5.117 1.63-1.163 1.24.775 4.737-5.04-6.05-.315-1.94-2.638 3.646.314.233-.697L16.283 0l3.41.077.238 1.24L24.2 4.19l.768 1.315-2.635 5.12c-.463.7-.77 1.475-.77 2.016 0 1.167.926 1.788 2.01 1.788 1.088 0 2.486-.776 2.798-2.247l1.24-3.647 1.55-.077-.693 7.676-4.265 1.786L24.046 19l4.42-1.006 3.72-4.578h1.164l-1.94 6.204-6.443 2.947-.225 2.482 6.975-3.726.386.93-5.118 5.506-2.715.158c-.225.54-.46 1.16-.46 1.704 0 2.403 2.328 4.652 4.186 4.806.47.077 1.01.234 1.473.234 3.26 0 6.592-2.56 7.29-5.507.076-.465.154-1.007.154-1.395 0-2.637-1.94-4.962-1.94-6.978 0-1.395 1.007-2.87 4.344-4.11l3.41-1.317-3.567 4.728c2.327.466 3.646 2.482 3.646 4.5 0 1.937-1.24 4.03-4.032 4.882-1.32 6.05-5.82 12.022-13.81 12.332-6.36 0-11.165-3.49-13.57-7.834l-3.255.698z"/></svg>