<svg xmlns="http://www.w3.org/2000/svg" width="41.722" height="41.104" viewBox="0 0 41.722 41.104"><path fill="#21f211" d="M29.395 35.52c0 .308.154.774.31 1.084 2.94 0 4.184 1.244 4.184 2.56 0 .385-.16.852-.31 1.24-.31.31-.63.544-1.01.544-.32 0-.78-.078-1.71-.078-.62 0-1.47 0-2.64.078h-1.47c-.54 0-1.01-.078-1.01-.31-1.16-1.163-1.395-2.79-1.395-4.11v-.622c0-.698 0-1.396-.23-1.707-1.16.15-3.1.7-4.73.7-1.086 0-2.245-.24-3.1-.86-.08.77-.54 2.01-2.405 2.56-.232.23-1.01.31-1.394.54.85.23 1.784.39 2.637.39 1.553 0 3.26-.24 4.42-.24 1.55 0 2.718.385 2.718 2.172.078.154.078.465.078.54 0 .855-1.397 1.09-3.18 1.09-2.557 0-6.204-.467-8.297-.467H9.23c-1.316 0-1.705.387-3.332.387-.465 0-1.087 0-1.784-.075-.464-.08-.93-.39-.93-.933 0-.23.23-.693.387-1.084C3.26 35.51.86 36.13.7 34.11l-.07-.154c0-1.006 1.32-2.17 1.32-3.02v-.39C.54 28.614 0 26.21 0 23.81c0-5.814 3.18-12.095 4.652-14.19-.62-1.395-1.007-2.558-1.007-3.49 0-2.868 2.636-3.88 2.712-6.05C7.83 2.172 8.374 4.038 8.374 5.43c0 2.407-1.628 3.802-2.17 4.346-3.102 3.722-4.652 9.46-4.652 13.725 0 2.79.695 5.12 1.86 5.82.465-.77.62-1.55 1.008-2.87 1.784-4.8 6.824-1.78 12.02-7.98-.93-1.084-1.474-2.325-1.474-3.41 0-4.5 6.668-9 9.848-10.16C26.29.31 29.856 0 31.016 0h.39c3.025 0 6.204 1.553 6.67 5.586.774.462 2.718 1.242 3.646 1.784v.93c0 1.706-.465 2.48-1.627 2.948v1.705l-.62.775-1.628.23-.237 5.12c.08.156.08.466.08.622 0 .775-.776 1.55-1.24 1.86.075.776.075 1.63.075 2.248 0 5.04-2.942 7.443-4.882 7.443-.154 0-.392-.07-.546-.07-.778 1.55-1.702 3.11-1.702 4.35"/></svg>