<svg xmlns="http://www.w3.org/2000/svg" width="42.729" height="41.568" viewBox="0 0 42.729 41.568"><path fill="#16ede9" d="M34.51 31.563h6.516L34.898 12.41h-.387v19.15zM33.115 12.41l-6.822 19.15h7.132V12.41h-.31zM9.31 31.56h7.13L9.616 12.41H9.31v19.15zM7.833 12.41l-6.13 19.15h6.522V12.41h-.392zM22.493 0l4.265 3.414c.852.62 1.16 1.32 1.16 1.707 0 .47-.385.86-.852 1.09l15.587.547V8.38l-7.213.777v1.627l6.67 20.47h.62v3.18l-8.84 7.137h-1.395l-7.83-7.37v-3.02h.614l7.44-20.313v-1.48l-6.826.698-.23.776-1.55-.236-1.55 3.413h-2.41l-1.547-3.414-1.55.233-.236-.778L10 9.38v1.474l7.45 20.316h.616v3.03l-7.837 7.366H8.84L0 34.43v-3.18h.62l6.67-20.47V9.155L.08 8.377V6.75l15.59-.543c-.47-.233-.93-.62-.93-1.086 0-.38.384-1.08 1.24-1.7L20.242 0h2.25z"/></svg>