<svg xmlns="http://www.w3.org/2000/svg" width="41.259" height="41.724" viewBox="0 0 41.259 41.724"><path fill="#eb1766" d="M8.61 30.326c3.413 0 9.69-3.18 12.714-5.196 0 .155-.07.387-.07.542 0 1.862.85 1.862.85 1.862 6.594-2.56 10.702-7.91 11.17-10.08 0-.233.07-.542.07-.775 0-2.02-1.394-4.97-2.09-6.37-.156 2.95-2.248 5.27-4.65 5.27-.163 0-.39-.07-.625-.07.31-.78.77-1.71.77-2.41 0-.54-.24-1.16-1.02-1.48-.46-.23-1.16-.38-1.786-.38-4.18 0-10.93 5.43-15.97 11.32 0 .7.46 2.71.46 5.12 0 .77 0 1.7-.15 2.552.075 0 .23.08.31.08M18.53.69c3.18-.542 6.205-.7 8.454-.7 2.867 0 4.806.234 4.806.234 1.4.475 4.74 1.095 4.74 2.41V3.65l-1.32 1.002 1.94 1.94-1.01 1.634c-.155 0-.467-.085-.54-.085-1.014 0-.7 1.56-2.327 1.87.308 1.16 3.097 5.74 7.986 5.82l-.32 1.24h-.54c-1.56 0-4.42.93-6.28 8.61C30.16 36.92 25.43 37 18.84 38.55c-.227 2.25-2.167 3.18-3.334 3.18-.232 0-.544-.08-.7-.157-.154-2.327-1.63-2.94-3.484-2.94-1.633 0-3.727.458-5.898.69l-.31-1.162.93-1.32-2.09-1.23-.157-.85c1.085-2.17 2.482-3.254 3.41-3.8-.62-3.18-5.19-6.124-7.21-7.442C2.09 21.968 4.494 20.8 5.812 20.8 7.6 12.333 12.95 5.35 18.38 3.1l.155-2.4z"/></svg>