<svg xmlns="http://www.w3.org/2000/svg" width="44.278" height="42.499" viewBox="0 0 44.278 42.499"><path fill="#6f17eb" d="M25.896 12.956c.778-.084 2.175-.155 3.49-.155 1.784 0 3.884.08 4.657.16 0 0 1.01-.86 2.326-.86.15 0 .46.08.69.08-.39-3.41-1.48-7.05-3.18-8.84l-9.77 8.93c.23.07 1.47.7 1.78.7m-3.96 2.398l-.156.086s.153.075.153.23l-.073.08c0 .146.7.54.7.54h-.08l11.72 9.53c1.626-2.4 2.635-6.2 2.947-9.614-1.24-.16-1.71-.386-2.252-.773-1.394.31-4.648.85-7.447.85-1.314 0-2.635-.154-3.557-.463-.4 0-1.02-.076-1.95-.47m19-1.47l-.07-.773 3.41 1.32-3.49.925.15-.618h-1.32c-.076.155-.076.54-.385.7-.153.694-.543.77-1.084.85-.31 3.72-1.32 7.68-3.1 10.314l-.312 1.626-1.005-.23.233-1.475-12.72-10.39c-.382 0-.54.233-.85.233-.076 0-.312-.16-.462-.16-.78 2.56-2.02 3.88-3.57 5.503.235.307.542.465.542 1.084v.23c1.63-.157 3.176-.234 4.574-.234 2.947 0 5.59.385 7.057.854.857.23 1.48 1.16 1.48 2.245 0 .465-.154 1.01-.39 1.55-1.154 5.506-1.935 5.506-3.413 10.47.626 2.093 3.724 2.713 5.2 3.876.463 0 .543.16.543.16l-.08.156h.08c-.08.16-.61.39-1.08.39-.31 0-.7-.08-1.01-.226-.628.147-1.17.226-1.478.226-1.006 0-1.16-.546-2.945-.546-.545 0-1.24.076-2.175.154-.616 0-1.007-.47-1.007-1.166 0-.464.23-1.24.46-1.94.7-1.24.937-2.56.937-3.8 0-1.082-.154-2.324-.154-3.41 0-1.472.31-3.024 1.634-4.263-3.65 1.55-6.365 2.403-7.53 2.403l-.154-.08c1.55 2.48 2.72 4.887 3.1 8.453v.7c0 1.477-.852 2.95-2.25 2.95-1.55 0-5.503 0-10.776-.7-.776 0-3.412.39-5.04.39-.465 0-.932-.156-1.164-.156-.23.7-.697 1.01-.93 1.01l-.156-.08c-.154-.08-.23-.312-.23-.468 0-.153.076-.54.23-.7.775-3.253 3.024-1.78 3.568-3.175l.926-1.17c.236-.156.625-.234.78-.234 1.164 0 1.55 2.248 2.016 2.248l.155-.076c1.94-.31 3.65-1.786 6.05-1.786.467 0 1.087.08 1.63.158-2.25-1.784-6.36-4.496-6.75-7.75-1.47-.856-2.09-1.94-2.09-3.03 0-2.4 2.714-5.424 2.714-8.293v-.62c-3.1-.387-4.34-.387-4.81-.852-.31-.085-.62-.544-.62-.853 0-.158.156-.474.31-.546 1.55-1.625 6.05-6.2 7.52-6.52.546-.54 1.477-.92 2.487-1.464 0-.083-.08-.24-.08-.316 0-2.714 1.008-1.623 1.396-2.79.383-3.16 2.32-4.17 4.26-4.17.47 0 1.166.08 1.626.156 2.17.698 3.1 2.016 3.1 3.18 0 .464-.16 1.006-.47 1.395-.154.31-.308.86-.308 1.17 0 .31.077.78.077 1.09v.465c0 .077-.23.155-.386.155-.08 0-.31.077-.384.077h-.15c-.545.86-1.397 1.785-2.406 1.785-.312 0-.772-.225-1.162-.38l-.15 1c1.16.313 2.867 1.25 4.42 1.86l10.08-9.39-.31-1.086 1.158-.31.312 1.24c1.938 2.095 3.18 6.516 3.566 10.008.698.307 1.244.932 1.244 1.474h1.39z"/></svg>