<svg xmlns="http://www.w3.org/2000/svg" width="39.708" height="42.11" viewBox="0 0 39.708 42.11"><path fill="#faa308" d="M7.983 5.196c0 1.32-.464 2.637-1.938 3.413-1.164.85-1.706 2.244-1.706 3.64 0 2.015 1.002 4.264 1.86 5.815 1.24.154 2.48.385 3.562.385 9.23 0 13.964-6.666 17.687-7.443-1.24-1.78-1.78-3.33-1.78-4.65 0-3.642 3.72-5.74 5.19-6.358l.47.383c-1.48 1.166-2.255 3.104-2.255 4.656 0 1.705.93 3.18 2.56 3.18l.235-.077c.156 0 .466.078.617.078 2.56 0 3.332-2.633 3.332-4.964 0-.93-.076-1.94-.23-2.637h.464c1.703.93 2.48 2.792 2.48 4.42 0 1.005-.31 2.02-.85 2.87-.625.7-1.01 1.474-1.01 2.094 0 1.705 2.094 3.18 2.79 3.8.156.233.238.853.238 1.395 0 .774-.237 1.55-1.012 1.55-.23 0-.542-.077-.852-.233l-.08.078c0 .466-.54.698-1.005.698-.777 0-1.94-.31-2.175-.31-2.48 2.093.16 12.096-4.106 13.337l2.482 10.86-1.473.23-4.27-7.29-1.7 7.448h-1.084l-3.96-9.93c-.542.39-1.475.62-2.245.62-1.936 0-4.42-1.007-6.205-1.55l.54 11.324h-1.47L7.28 33.66l-.85.62-.773 7.757-1.476.08c-.93-4.265-2.79-7.06-2.79-8.146 0-.234.23-.465.39-.543.08-.152.16-.386.16-.62C1.94 31.41 0 28.31 0 26.217c0-.388.15-.93.305-1.24 1.397-2.56 3.335-3.646 3.335-6.28v-.62c-.387-1.786-.853-3.337-.853-4.81 0-1.473.466-3.1 1.473-5.118-.077-.467-.155-.93-.155-1.32 0-2.87 2.408-2.17 3.493-4.267.154.695.383 1.784.383 2.636"/></svg>