<svg xmlns="http://www.w3.org/2000/svg" width="41.879" height="43.506" viewBox="0 0 41.879 43.506"><path fill="#15f092" d="M11.326 40.172l.073-.078c1.17 0 3.87-.622 6.05-1.008-.24 0-.7.076-1.09.076-1.86 0-4.89-.386-5.59-.386.15.465.23 1.396.54 1.396M.62 28.774s-.387-.312-.387-1.17c0-.387.155-1.157.387-1.94 0-2.395 1.32-4.03 2.636-7.985.082-2.25 1.087-3.8 2.328-4.66-.698 0-1.55-.54-1.55-1.4 0-.47.31-1.24.852-1.94 0-4.42.543-7.29 3.957-7.84.77-.08 1.55-.16 2.092-.16 2.403 0 3.335 1.08 3.723 3.25-.08.23-.153.54-.153.69 0 1 1.008 1.7 1.16 2.25 0 .31-.616.31-.696.54 0 .15-.09.39-.09.54 0 .62.16 1.01.16 1.01-.08 1.55-2.56.93-2.56 2.02 0 .07.08.23.08.31.15.31 1.24.54 1.62.69h.38c2.33 0 6.2 2.33 9.54 2.33 1.32 0 6.05-.7 10.31-1.01 0 .076-.08.153-.08.153-.16 0-.78-1.24-1.24-1.24-1.17-.615-1.63-1.315-1.63-1.86 0-.386.31-.93.46-1.393 0 0 .46-.31 1.31-.31.54 0 1.47.15 2.4.62-1.07-1.39-1.46-2.4-1.46-3.25 0-1.397.93-2.48.93-4.266 0-.7-.08-1.63-.47-2.56l.572-.2c2.094 1.553 3.724 3.88 3.724 6.21 0 1.16-.47 2.48-1.398 3.72 0 0 1.317-.93 2.56-.93.54 0 1.237.232 1.626.85.076.39.155.854.155 1.087 0 1.94-2.25 2.02-2.95 2.794 0 4.11-2.64 1.163-3.03 8.607l-.94-.15c0-.23-.08-.54-.08-.77 0-1.32.38-2.87.85-3.95 0-.7-1.55-1.09-2.09-1.09-2.25.85-5.9 2.02-8.3 2.17-.86.08-1.86.16-2.56.16-2.64 0-4.66-.63-6.36-1.56 1 1.32 1.47 2.1 2.16 2.8-.23.93-1.24 1.86-2.1 1.86l-.15-.07c.23.62.39 1.32.39 1.79 0 1.09-.54 2.1-1.01 3.1.77.31 1.313 1.55 1.465 2.25 4.27-2.87 9.47-5.81 11.8-6.2h.31c1.085 0 2.71.93 2.71 2.64 1.632 5.35 1.243 7.14 2.33 12.18.78 2.02 4.033 3.34 5.503 4.34h.24c.16 0 .31.16.31.16v.08c0 .236-.62.547-1.16.547-.23 0-.54-.157-.78-.235-.69.234-1.314.388-1.62.388-.7 0-1.09-.385-2.33-.385-.54 0-1.393.078-2.48.234-.077 0-.234.074-.31.074-.544 0-1.086-.23-1.086-.93 0-.384.31-1.16.776-2.013v-.16c0-3.72-3.49-5.74-3.49-9.075 0-.456.16-1.084.31-1.627-2.94 3.024-4.65 4.66-5.97 5.51 2.25 1.32 2.79 2.25 5.04 3.8.24.31.47 1.16.47 1.86 0 1.164-.62 2.56-2.41 2.56l-.15-.08s-3.57.7-8.45.7c-1.7 0-3.64-.078-5.66-.31-1.005-.157-4.81-.236-6.125-.698-.384.54-.853.7-1.01.7H3.8c-.077 0-.234-.15-.234-.31 0-.23.234-.694.388-.85.624-2.17 3.025-1.16 3.802-2.48l1.087-1.16c-2.408-.853-3.18-3.18-3.18-4.884 0-.783.228-1.553.386-1.94 1.01-2.17 1.62-4.42 1.62-6.36 0-1.556-.39-3.11-1.32-4.115 0 1.55-1.48 4.498-2.8 6.057.31.93.39 2.4.39 3.79 0 1.02-.08 2.26-.08 3.18 0 1.33.15 2.41.54 2.648l-.08.08c0 .08.08.544.08.93 0 .544-.16 1.475-1.17 2.33 0 .62-.47 1.86-1.09 1.94 0 0-.16-.39-.16-1.01 0-.47.15-1.17.31-1.79-.16.16-.7 1.32-1.16 1.554 0 .39 0 1.396-.31 3.025-.93 0-.7-1.78-.86-1.78.03-1.667.49-3.76 2.2-5-.3-2.65-1.31-4.28-1.54-8"/></svg>