<svg xmlns="http://www.w3.org/2000/svg" viewBox="0 0 870 555" preserveAspectRatio="xMinYMid" id="mapa-sucursales" xmlns:xlink="http://www.w3.org/1999/xlink"><g id="mexico"><path d="M523.9 430.306l-2.256.731-6.113-2.33-2.408-4.08 3.575-3.767 2.88-4.846 2.112 5.18 2.799 2.164z" class="estado"/><path d="M509.507 440.189l1.132 3.089 3.505 4.199 5.006-.22 2.321 3.766 1.84 3.975 3.301.672.312 3.015 6.148 3.491 5.653-1.607.649 3.483-1.928 2.598.919 3.982 2.347.698 2.502 7.717-1.009 1.482 3.361 1.666-.543 2.629 6.013 2.29-2.904 2.27 1.08 2.331-.993 3.196-2.72 1.757-.05 3.02-5.244 1.202 1.258 2.863-5.657 3.584-6.126-6.66-2.372.732-16.252-4.217-5.131-.196-3.711-1.555-3.521-3.287-10.544-3.995-22.046-7.49-4.388-4.402-6.704-2.743-1.98-2.717-3.522-1.206-4.518-6.045-4.56-2.36-4.714.789-1.321-3.396 1.223-3.537 4.529-.531 3.224-2.232-.47-7.038 4.32-2.045 2.397.278 3.673 3.232 5.823-1.294 8.087.233 1.188 2.01 2.592-1.095 4.803 2.022 1.647 2.051 1.53-1.843-4.356-2.957-1.471-6.373.412-3.016 2.13 1.616 2.59-2.532 5.085 2.891-1.603 3.64 1.639 1.506 1.239 4.824 2.28 1.662 5.97-4.333 1.814-2.365 1.803 1.445 4.64-2.088 1.598-3.07z" class="estado"/><path d="M499.323 396.962l3.86 2.812 5.646.544 2.288 4.146-1.319 2.643 3.093 1.498-.274 2.238 4.624-3.352 1.644-3.791 3.826 1.122.883-2.218 1.114 7.45 1.868-2.845 5.901 1.337 2.095 2.452-1.92 4.46.345 3.914.718 5.815-.152 6.764-2.286 2.035-4.039-.618-3.338-3.062.589-6.948-2.799-2.163-2.112-5.181-2.88 4.846-3.575 3.768 2.408 4.079-1.074 5.353-3.133 1.744-1.817 4.385-6.775-.54-1.597 3.071-4.64 2.088-1.804-1.445-1.815 2.365-5.97 4.333-2.28-1.662-1.238-4.824-1.639-1.506 1.603-3.64-5.084-2.891 2.307-3.396 3.31-1.529 2.575-5.539.205-2.808 2.093-1.15 1.145-3.58-1.883-4.582 3.23-.905.286-8.827 5.881-.636.392-6.11z" class="estado"/><path d="M523.9 430.306l3.338 3.062 4.04.618 2.285-2.035-3.366 7.611 1.307 8.318-3.623-1.381-4.159 2.05-2.25 2.474-2.322-3.766-5.006.22-3.505-4.2-1.132-3.088 1.817-4.385 3.133-1.744 1.074-5.353 6.113 2.33z" class="estado"/><path d="M300.07 246.34l-3.645 3.123-2.382 3.722 2.38 6.436-.139 3.728 11.84 10.832 2.913 7 2.36 3.563 4.303-.48 2.629-1.971 5.427 2.941 5.788 11.008-2.413-.931 1.328 4.725-.078 4.22 2.715-.636 4.714 9.372-.067 3.679 7.066 1.665-3.045 3.505.839 2.102-1.484 3.005 2.32 6.997-7.185-1.208-1.667.857-1.77-3.249-5.76-4.96-4.468-4.838-6.105-5.094-3.277-5.523-7.613-8.35-2.636-4.32-8.463-7.35-15.447-10.152-7.172-5.375-.38-1.891-6.478-8.908-5.606-5.917-3.173-1.568-12.749-3.49-5.725-5.26-4.691-.312-1.515-8.705 5.288-10.358 3.551.628 3.491-2.934 3.484-.105.23-4.044 5.427-1.004 5.916-10.714-.991-.465 7.247-1.528 1.715 1.085-1.36 2.722 3.801.985 2.469 3.055-2.12 3.325 3.364 3.21-1.442 2.457 4.371 5.949 3.352 1.614 8.94.754 3.105 1.81.245 4.234 6.613 4.652z" class="estado"/><path d="M70.542 170.577l1.6 6.548-.802 3.04-3.312-1.794zm47.467-32.845l3.55 2.547.562 4.146 5.395.652-.036 4.398 1.664 3.969-10.619-8.231-2.704-4.676zm-134.383 10.544l1.819 2.953.377 3.98-1.845 1.464-2.627-7.53zM83.588 74.89l2.701 3.346-4.078-1.61zm-1.872-19.326l-3.51.549-.737 3.72-2.44 2.678 2.17 1.875.274 7.249 4.43 2.842.46 5.584-2.507 6.25-.288 6.276 1.9 5.062 2.851 1.391.598 8.411 1.809 3.762-.97 8.458 3.753 6.427 3.393 2.162 1.96 4.02 1.995-.706 13.894 10.095 4.151 4.403-.808 1.321 3.228 4.122.37 4.618 3.858-1.323 1.117 3.917 4.208.206 2.571 7.993 7.116 1.782-.67 4.47 2.4 2.352.632 5.528h-40.21l4.022-5.982-1.791-1.19 2.153-5.074-3.795-6.103-4.536-2.05-1.666-3.714-5.203-2.986-.447-2.475-2.653-1.183-6.915-7.263-6.64-1.852-1.334-2.04-7.716-3.37-5.228-3.732-1.168-5.368-1.964-.17.839-3.906-1.544-7.004-5.863-3.527.571-4.61-1.235-4.996-7.466-4.775.818-4.615-5.35-7.26-5.352-4.476 1.976-8.007-3.47-1.237-3.725-3.221-1.602-6.291-2.452-.728-2.757-7.42 67.116-5.145z" class="estado"/><path d="M152.135 146.813l2.499 5.903-2.997 7.48-7.64-3.63 2.62-2.011.327-6.093zm-70.42-91.25l44.775 13.794 59.626 18.637 16.398.009 48.363-.005-2.505 5.497 4.519 3.62-3.336.032.024 2.812-3.821-.096-.253 4.765 2.063 3.166 5.49 1.856 1.557 6.053.415 13.772 2.017 2.675-3.466.984.948 6.006-2.586.98 1.34 4.427-2.11 4.051 1.625 8.006 2.886 3.785 2.648 10.193-4.254 2.332-12.108.53 1.2 7.103 2.943 2.17.866 5.466 3.616 1.089 4.886 10.828-2.048 2.197 1.734 5.654 2.788 1.385.99.465-5.915 10.714-5.426 1.004-.23 4.044-3.485.105-3.49 2.934-3.552-.628-.513-5.605-3.885-3.945-9.986-1.365-2.209-2.353-2.874-6.921-9.808-3.142-3.222-2.924-4.738-1.32.113-5.093-1.056-4.127 1.323-6.837-7.696-1.811-.998 2.659-2.64-2.972-3.018.485-5.27-4.153-5.899-8.302-6.15-2.008-1.467-3.732-4.49-3.53.686-1.898-7.603-5.143.227-4.013-2.54-5.922-4.605-1.331-.219-4.055-6.97-10.678-1.925-.557-.796-8.478-2.298-1.083-.504-4.697-5.63-6.555-1.378-4.038 1.905-7.27-1.188-3.269-12.406-2.988-2.58-5.051-9.53-4.303-1.287 3.87-6.87-1.412-8.956-5.95-5.994-1.681-4.43-2.842-.274-7.249-2.17-1.875 2.44-2.677.737-3.721z" class="estado"/><path d="M221.71 288.516l-1.767.125-1.886-6.384zm-15.463-10.599l1.81 1.7-1.642 1.935zm-9.846-16.012l3.28 2.057 1.588 4.327-3-1.254zm-9.862-26.98l-4.84 6.227 1.618-5.412zm-87.826-53.868h40.211l-.18 3.854 4.915 5.906 6.245 2.439 1.956 5.023 4.052 6.19 5.675 1.821-1.584 3.775 3.009 3.017 2.38-1.218 7.124 5.572.147 4.076 3.072.854-.421 3.332 3.985 9.283-1.041 2.817 1.47 5.515 2.229 1.27 2.86 5.5 2.94.4 3.033 10.279 4.096 3.655 2.901 5.83-2.302 5.07 1.625 7.476 3.383 4.065 7.18.832-.868-4.119 2.806-.408 1.68 2.555 4.616 2.587.59 3.15 4.476-.388.018 4.143 3.54 3.161.105 3.858 6.344 2.967 1.194 2.898-.93 7.116-2.061 2.342-3.8 1.447-4.92 4.432-3.318.822-3.742-4.084-1.846-8.062-4.176-6.648-8.341-4.55-11.446-10.765-9.6-5.502-6.09-2.172-4.665.462-5.29-3.7-4.514-2.077-2.03-2.64.691-2.497-4.314-1.442 2.956-6.702 2.828-12.681-.118-7.474-2.53-6.466-3.24-2.36-.994-2.926-4.293-1.524-5.96-3.492-18.199-12.275-4.091.128-1.895 2.425-4.376-2.647-1.444-3.291-4.512-2.293-1.55.792-4.82-4.612-3.322.233-5.415-2.815-.064-3.673-2.986-3.249-3.935-1.348-1.125-2.116-6.394-3.319-1.321-3.932 12.548 2.423 2.857.033 6.63-3.241z" class="estado"/><path d="M473.05 277.226l1.61 2.674-5.669 5.006-1.882-3.062-1.472 5.133-4.227 1.32.677 6.736-16.27 13.15-6.613 2.091-4.38.328-1.936-2.398-1.617 3.53 2.287 5.282-.668 2.337 1.282 5.103 7.049 6.12 2.414-.287-.55 2.596 2.503 2.738 3.556-1.363 4.609-6.396 3.958.868 1.7 4.177-.709 3.036-3.33 2.52 3.037 4.283-.09 5.944-2.875 1.807-1.841 3.417-.397.304-1.655-3.296-2.259.263-2.801-2.987-3.09-.398-4.587-2.817-.317-4.725-7.934-2.501-5.743 2.727-3.957-.028-.618 5.175-4.088 4.634-.45 3.953 3.018 2.206-.542 3.463 3.741 1.733-.808 3.438-6.654 4.846-4.446-.308-1.929 5.416-2.314-1.109-4.432 1.199-1.547-2.035-4.793-.213-1.093-4.205-1.931-1.218 5.395-.81-2.134-1.046-2.704-4.617 3.59-.529 1.29-4.554-1.792-1.78 2.85-.282 5.361-4.917 2.387.56 3.274-4.577-.689-4.478-2.514-.13-.81-3.127-4.053 1.144 1.473 3.805-2.71.5-.83 2.71-6.845.254 3.441-8.766-1.617-3.925-4.204.22-2.621 10.86-1.76-4.626 1.675-2.309.147-4.185 2.436-1.296.054-3.398-7.097-.282-1.32 1.398 1.881 4.374 2.025 1.327-2.29 3.47-1.778-.338.278-4.051-3.535.54-2.714 4.421-1.57-1.826 1.654-6.676 1.914-3.648 3.936.266-2.38-4.799-.19-5.212 1.204-1.503 1.783-7.856 7.089-4.192-1.111-1.842.914-7.967-1.51-1.176 8.745-5.344-.254-2.457 3.676-1.705.478-2.315 7.822.052 2.69-1.062 5.904 2.285 3.568.295 6.263-1.52-.907-7.852-1.51-5.376-2.982-1.131.093-3.46 6.226 1.875-.462-3.251 6.302-.071 10.858 2.816 2.104 3.968 4.81 1.116-.588 2.138 4.485.621 3.337-2.139 3.922 1.337 2.07 3.969 4.713 2.253z" class="estado"/><path d="M392.09 216.655l9.074 3.432 1.602 6.718 1.563 2.151-2.504 3.975.115 7.878.767 1.27-1.8 4.885-3.101 2.852 4.398 4.65-3.488-.143-1.365 2.715 4.222 4.722 2.702 1.425.101 2.635 4.534 3.857 6.804 1.523 5.122-8.228-.093 3.46 2.982 1.131 1.51 5.376.907 7.852-6.263 1.52-3.568-.295-5.904-2.285-2.69 1.062-7.822-.052-.478 2.315-3.676 1.705.254 2.457-8.744 5.344 1.51 1.176-.915 7.967 1.11 1.842-7.088 4.192-1.783 7.856-1.204 1.503.19 5.212 2.38 4.799-3.936-.266-1.914 3.648-1.655 6.676-4.428 1.779-4.13-3.243-.41-2.88-3.05-2.168-5.828 4.027-1.938-5.288 4.596-1.378-2.707-2.832-.675-3.877-8.783.969-1.784-3.94-7.066-1.665.067-3.68-4.714-9.37-2.715.635.078-4.22-1.328-4.725 2.413.93-5.788-11.007-5.427-2.941-2.63 1.97-4.302.481-2.36-3.563-2.914-7-11.839-10.832.14-3.728-2.38-6.436 2.381-3.722 3.645-3.123 3.366 2.524 5.651.124 3.224-3.471.242-7.28 2.555-.564.644-6.462 4.702-5.644 1.577-7.594 4.484-4.659 15.524 9.057 3.441-.375 2.89 2.008 4.556-1.656 1.255 2.85 4.404-2.533 4.219.491 4.842 4.244 2.048-2.069 1.852-5.305 2.915-1.452 1.602-5.187 1.263 1.818 5.084.955z" class="estado"/><path d="M403.04 153.022l-5.796 9.465-2.285.713-1.302 3.546-6.27 11.18-2.583 7.73 2.203 2.684.74 5.3-.622 6.641 1.25.372 2.463 7.603-3.018 2.55 4.27 5.849-9.68-.495-5.084-.955-1.263-1.818-1.602 5.187-2.915 1.452-1.852 5.305-2.048 2.069-4.842-4.244-4.219-.49-4.404 2.533-1.255-2.851-4.556 1.656-2.89-2.008-3.441.375-15.524-9.057-4.484 4.659-1.577 7.594-4.702 5.644-.644 6.462-2.555.563-.242 7.28-3.224 3.472-5.65-.124-3.367-2.524-1.815-2.68-6.613-4.652-.245-4.234-3.106-1.81-8.939-.754-3.352-1.614-4.37-5.949 1.441-2.458-3.363-3.21 2.119-3.324-2.469-3.055-3.8-.985 1.359-2.722-1.715-1.085-7.247 1.528-2.788-1.385-1.734-5.654 2.048-2.197-4.886-10.828-3.616-1.089-.866-5.467-2.943-2.17-1.2-7.102 12.108-.53 4.254-2.332-2.648-10.193-2.886-3.785-1.625-8.006 2.11-4.05-1.34-4.428 2.586-.98-.948-6.006 3.466-.984-2.017-2.675-.415-13.772-1.556-6.053-5.49-1.856-2.064-3.166.253-4.765 3.821.096-.024-2.812 3.336-.032-4.52-3.62 2.506-5.497 15.287-.026.003-12.577 46.91-.002 4.113 1.438 4.514 7.003 7.382 3.251 5.062 5.513 4.743 2.358 1.348 2.636 4.458 3.864 5.045 1.246 8.54 6.17 1.413 5.432 4.813 5.902.108 6.978 4.876 8.281 6.833 3.309 2.83 3.42 5.197 2.652 5.386.871 1.795 2.335 4.71.766 3.258 3.043z" class="estado"/><path d="M188.54 436.476l1.952 1.755-.716 2.138-2.856-2.577zm209.428-3.111l-6.958 7.84-6.853-5.262-9.852-4.178-1.387-2.685-8.506-1.626 2.772.744 1.018-2.434 7.326-1.841 3.69-.028 2.746-5.409 6.726 2.435 5.657-2.849 3.678 5.141-.998 7.33z" class="estado"/><path d="M309.592 357.17l3.29 1.017.661 2.417-2.397-.3zm64.354-20.003l1.571 1.826-2.014 6.476.211 3.919 5.124.034.32 4.476 6.555 1.012.123 5.157 5.645 4.587-2.726 4.926-4.347-.183-1.707 1.665-5.172.634-.564 4.231 1.1 1.745-4.492 3.326 3.2 3.178-1.103 1.095-13.833-9.39-5.16 3.18-3.69-.259-2.066 4.217-3.006 2.676-2.295-2.525-4.369-.248 5.837-7.4 2.219-1.205-.366-7.4 1.564-2.877-7.16-4.951-5.46-9.989-1.289-11.076-2.01-4.43 1.668-.857 7.185 1.208-2.32-6.997 1.484-3.005-.84-2.102 3.046-3.505 1.784 3.94 8.783-.969.675 3.877 2.707 2.832-4.596 1.378 1.938 5.288 5.828-4.027 3.05 2.169.41 2.879 4.13 3.243z" class="estado"/><path d="M485.596 396.405l4.734 2.223-1.52 1.825 2.726 2.77-.286 8.826-3.23.905 1.883 4.582-1.145 3.58-2.093 1.15-.205 2.808-2.575 5.54-3.31 1.528-2.307 3.396-2.59 2.532-2.13-1.616-.413 3.016 1.471 6.373 4.356 2.957-1.53 1.843-1.647-2.05-4.803-2.023-2.592 1.095-1.188-2.01-8.087-.233-5.823 1.294-3.673-3.232-2.397-.278-4.32 2.045.47 7.038-3.224 2.232-4.529.531-1.223 3.537 1.32 3.396-18.125-3.975-5.776-2.563-4.275-.727-9.676-3.615-2.323-4.584-4.53-5.316 6.957-7.84 4.36-.234 3.033-1.42 2.76 2.624 2.787-3.433.154-2.214 7.425-3.447 2.343 1.212 2.824-5.591-.344-3.216-4.406.813-2.252-7.799 2.244-1.11-1.252-3.73-4.669-1.265-1.795 1.026-.445-4.935 5.924-.02 10.805-5.69 4.977.16 4.409-1.364 3.587.694 1.014 4.203 6.87-.27 1.83-2.71 4.381-.347 1.714 8.18 5.589.259 5.145-1.675.381 3.298 7.163 1.523 4.232-2.195 2.42.9 4.077-.85-.748-2.54z" class="estado"/><path d="M418.725 356.426l3.122-1.32 8.595 4.051 5.128-2.32 2.895-4.129 4.418-1.59.518-3.316 3.09.398 2.801 2.987 2.26-.263 1.654 3.296-3.65 7.607 1.953 3.024-2.967.648.96 2.676-3.491 1.162-1.38 4.208-1.498.327-1.978 4.67-4.296 4.134 4.04 4.839-4.05 6.217-4.408 1.365-4.977-.162-10.805 5.691-5.924.02.445 4.935 1.795-1.026 4.669 1.266 1.252 3.73-2.244 1.11 2.252 7.798 4.406-.813.344 3.216-2.824 5.59-2.343-1.21-7.425 3.446-.154 2.214-2.787 3.433-2.76-2.624-3.033 1.42-4.36.234-.941-2.822.998-7.33-3.678-5.14-5.657 2.848-6.726-2.435-2.747 5.41-3.69.027-7.325 1.84-1.018 2.435-2.772-.744-2.746-2.993-2.5-.026-4.306-2.922-1.582-4.78-6.751-5.772-6.095-9.252-.255-3.698-3.807-4.993 2.13-1.626 8.187-1.288 2.57-2.83-1.342-1.58 3.006-2.675 2.066-4.217 3.69.259 5.16-3.18 13.833 9.39 1.102-1.095-3.2-3.178 4.494-3.326-1.101-1.745.564-4.231 5.172-.634 1.707-1.665 4.347.183 2.726-4.926-5.645-4.587-.123-5.157-6.556-1.012-.32-4.476-5.123-.034-.211-3.92 2.014-6.475 2.714-4.422 3.535-.54-.278 4.052 1.777.338 2.29-3.47-2.024-1.327-1.881-4.374 1.32-1.398 7.097.282-.054 3.398-2.436 1.296-.147 4.185-1.674 2.309 1.759 4.627 2.62-10.861 4.205-.22 1.617 3.925-3.441 8.766 6.846-.254.83-2.71 2.71-.5-1.474-3.805 4.053-1.144.81 3.126 2.514.13.689 4.48-3.274 4.577-2.387-.561-5.36 4.917-2.851.281 1.791 1.78-1.29 4.555-3.59.529 2.705 4.617 2.134 1.046-5.395.81 1.931 1.218 1.093 4.205 4.793.213 1.547 2.035 4.432-1.199 2.314 1.109 1.93-5.416 4.445.308 6.654-4.846.808-3.438-3.741-1.733z" class="estado"/><path d="M734.437 481.227l4.52 2.005.602 2.181 5.356 4.913 8.394 4.512 2.34 2.174.966 4.641 4.688 1.68 2.951 2.398-2.289 3.43.366 4.928-36.04.004-13.367 22.698 4.137 5.23-2.48 2.522-.952 4.338 1.094 4.593-2.264 3.678-7.886-7.436-9.63-10.065-13.359-12.073-10.894-8.073-7.756-3.43-3.054-4.916 1.708-1.04-.063-3.166-2.47-3.69 7.587-18.853 2.652-3.04 4.594-1.93 7.098-10.96-1.027-1.842 3.29-5.807 6.412 3.875.073 6.5 2.614 3.565 3.247.071 2.082 3.766 2.189-.984 2.967-4.737 6.165-1.908 10.167-8.52 5.717 1.92-1.362 3.256 4.806 1.756.677 3.914-1.054 2.53 7.043 1.954z" class="estado"/><path d="M747.061 465.463l.005 15.762-12.629.002.555-3.438-7.043-1.954 1.054-2.53-.677-3.914-4.806-1.756 1.362-3.256-5.717-1.92-10.167 8.52-6.165 1.908-2.967 4.737-2.19.984-2.081-3.766-3.247-.07-2.614-3.567-.073-6.5-6.412-3.874-3.29 5.807 1.027 1.843-7.098 10.96-2.429-2.036 2.05-4.38-3.276-3.762-5.572-2.04-.495-2.28-3.556-.999.243-5.3-1.544-4.278 15.206-5.005 5.227-1.152 13.241-.121 3.18-1.11 3.424-3.962 6.113-.884 1.56 4.617 1.793 1.188 4.818-.423.426 8.455 5.423 3.894 4.526 1.214 4.631 2.753.778-6.172 2.66-2.094 2.172 2.398 3.106.605 3.05 2.442 6.41.347z" class="estado"/><path d="M666.642 484.41l-7.587 18.854 2.47 3.689.063 3.166-1.708 1.04 3.054 4.915-11.928-4.657-12.206-1.235-10.297 1.558-5.653 5.088-3.83.553-5.683 2.356-8.889 2.746-3.98 2.539-5.28-.385-3.582 1.061-8.15-2.136-8.912-4.816-10.057-1.714-6.84-.23-12.708-7.252-9.133-2.213 5.657-3.584-1.258-2.863 5.244-1.202.05-3.02 2.72-1.757.993-3.196-1.08-2.331 2.904-2.27-6.013-2.29.543-2.629-3.36-1.666 1.008-1.482-2.502-7.717-2.347-.698-.92-3.982 1.929-2.598 3.981-1.931 1 1.583 2.348-2.348 3.704-.818 2.61 2.085 3.268.068 1.33-4.29-1.981 2.018-.695-4.146 1.96-3.87 3.982-.278 3.095 7.25 10.514-4.676 3.499 1.238 1.82-2.125 3.65-.396 3.283-4.157 1.266-7.64 6.315 2.766 1.592 3.513 3.553 4.025 1.531 3.845 1.91.866 5.442-.777 3.397.85.929 4.999-2.825 6.179 5.545 5.865 3.272-.456 9.674-5.703 1.418 2.473-1.828 1.36 4.944 6.397 5.188 1.728-.895 3.274z" class="estado"/><path d="M501.606 362.71l.543 5.666 2.419-.253-4.408 4-4.39-1.685-3.672 8.27-4.071-1.364-1.954 2.242-3.34-.907-2.964 2.605-1.04 3.146 3.194 3.935.168 5.214 3.505 2.826-1.091 5.797.748 2.54-4.077.85-2.42-.9-4.232 2.195-7.163-1.523-.38-3.298-5.146 1.675-5.589-.26-1.714-8.179-4.38.347-1.83 2.71-6.871.27-1.014-4.203-3.587-.694 4.048-6.217-4.039-4.84 4.296-4.133 1.978-4.67 1.497-.327 1.381-4.208 3.491-1.162-.96-2.676 2.967-.648-1.954-3.024 3.651-7.607.397-.304 6.618-.374 2.739 1.838 5.006.111 4.123 2.485-.652 1.273 6.779 3.16 4.208-1.043.472-3.68 4.893-.346 5.86 4.58 2.945-.08.212 1.96z" class="estado"/><path d="M443.4 347.802l-.517 3.316-4.418 1.59-2.895 4.128-5.128 2.321-8.595-4.051-3.122 1.32-3.017-2.206.449-3.953 4.088-4.634.618-5.175 3.957.028 5.743-2.727 7.934 2.5.317 4.726z" class="estado"/><path d="M521.774 368.644l-.173 3.584-5.204 1.478-1.7-1.286-2.291 5.447-4.408 6.006 1.299 2.185-3.283 1.886-5.824 1.351-.867 7.667-1.514-.486-.392 6.11-5.88.636-2.728-2.769 1.52-1.825-4.733-2.223-3.505-2.826-.168-5.214-3.193-3.935 1.04-3.146 2.963-2.605 3.34.907 1.954-2.242 4.071 1.364 3.671-8.27 4.39 1.686 4.409-4-2.419.252-.543-5.666.855-2.327 2.392.273 3.458 3.83 3.399.064 1.268-2.597 5.081-4.129z" class="estado"/><path d="M492.49 314.218l-.33 2.947 2.905 1.687-2.456 1.61 1.959 5.125-2.026 1.72 7.236.9 1.042 2.033 3.433-.652 5.25 1.683-1.39-3.442 5.996 3.05 2.59 6.2 4.92-.067 4.767 1.68 6.118-1.412 9.337 6.087-2.672 1.678-.763 3.698-2.469 3.753 2.413 1.99-4.794 3.788 3.599 7.387-5.004 1.322 2.445 1.582-1.297 2.882-6.715-.291-1.733-3.316-3.077.804-3.715-10.82-5.08 4.129-1.27 2.597-3.398-.065-3.458-3.829-2.392-.273-.855 2.327-4.8 1.09-.212-1.96-2.945.08-5.86-4.58-4.893.346-.472 3.68-4.208 1.044-6.779-3.161.652-1.273-4.123-2.485-5.006-.11-2.739-1.839-6.618.374 1.841-3.417 2.874-1.807.09-5.944-3.036-4.284 3.33-2.52.71-3.035-1.701-4.177-3.958-.868-4.609 6.396-3.556 1.363-2.502-2.738.55-2.596-2.415.288-7.049-6.12-1.282-5.104.668-2.337-2.287-5.283 1.617-3.53 1.936 2.399 4.38-.328 6.613-2.09 16.27-13.151-.677-6.735 4.227-1.321 1.472-5.133 1.882 3.062 5.668-5.006 3.875 1.652-.824 4.896 3.246 2.403-1.273 6.151 3.258 6.767-1.996 7.157 1.68 1.525-.637 4.805 4.136.885-1.188-2.867 2.677-1.258z" class="estado"/><path d="M532.997 419.372l-.344-3.914 2.364-.849 5.563.76 1.397-3.156 2.132.098 10.782 4.503-.572 1.486 4.613 2.031 2.76 2.8-1.823 1.27-4.141-.433-2.484 3.83-2.89-1.863-3.756 3.515-4.594-2.655-5.375-7.28z" class="estado"/><path d="M586.742 449.259l-3.283 4.157-3.65.396-1.82 2.125-3.499-1.238-10.514 4.677-3.095-7.251-3.981.277-1.96 3.87.694 4.147 1.98-2.018-1.329 4.29-3.268-.068-2.61-2.085-3.704.818-2.349 2.348-.999-1.583-3.981 1.931-.65-3.483-5.652 1.607-6.148-3.491-.312-3.015-3.3-.672-1.84-3.975 2.25-2.474 4.159-2.05 3.623 1.381-1.307-8.318 3.366-7.611.152-6.764-.718-5.815 3.632.143 5.375 7.28 4.594 2.655 3.756-3.515 2.89 1.864 2.484-3.83 4.141.432 1.823-1.27-2.76-2.8-4.613-2.031.572-1.486-10.782-4.503 1.637-.666-1.986-4.843 3-1.732 1.45-3.984-3.575-5.126 1.631.266 5.39-6.205 2.511-2.95-.763-2.62 1.21-3.289 4.277 1.19-.657 4.143 1.33 1.995 3.147.435.367 1.826-5.274 3.077 2.332 2.186-1.675 3.054 3.823.731.244 1.954 2.821-1.143 1.38-3.025 9.017 3.056-3.968 4.688-1.728 8.097-3.01 2.529 2.058 5.929 2.958-.158 1.551 2.026 5.95.777-3.421 3.16-2.826.232-2.108 4.48 1.21 2.703-3.156 3.442.896 3.215 5.062 1.894 1.826 3.642 3.438-2.455 4.355 1.172z" class="estado"/><path d="M551.657 390.02l-5.39 6.206-1.632-.266 3.575 5.126-1.45 3.984-3 1.732 1.986 4.843-1.637.666-2.132-.098-1.397 3.155-5.563-.759-2.364.849 1.919-4.46-2.095-2.452-5.9-1.337-1.869 2.845-1.114-7.45-.883 2.218-3.826-1.122-1.644 3.791-4.624 3.352.274-2.238-3.093-1.498 1.319-2.643-2.288-4.146-5.647-.544-3.859-2.812.867-7.667 5.824-1.351 3.283-1.886-1.3-2.185 4.409-6.006 2.29-5.447 1.7 1.286 5.205-1.478.173-3.584 3.077-.804 1.733 3.316 6.715.291 1.297-2.882-2.445-1.582 5.004-1.322-1.107 3.504 3.562 3.041 3.932-.945 3.532 2.954-4.332 8.397-1.124-2.231-2.77.78.622 2.514-1.64 4.337-3.27 2.603 1.355 3.664 2.467.924 6.934-5.503 4.058-4.059z" class="estado"/><path d="M557.254 341.282l1.5 6.899 4.65 6.828 6.166 5.114.395 1.86-2.284 5.162-.083 3.611 5.2 10.539 2.328 6.01 10.05 10.337 9.423 11.152 2.03 7.885 1.72 2.31 1.251 5.177 3.785 2.131 1.18 3.72 3.367 1.008.807 4.002 2.195 2.034 6.039 2.7 12.98.873 5.368 4.123 4.816.513 2.208 4.005 3.187 3.008.44 2.304 4.204 1.492 9.133-1.713 1.544 4.279-.243 5.299 3.556 1 .495 2.278 5.572 2.041 3.275 3.763-2.049 4.38 2.429 2.034-4.594 1.93-2.652 3.04-29.472-1.587.895-3.274-5.188-1.728-4.944-6.397 1.828-1.36-1.418-2.473-9.674 5.703-3.272.456-5.545-5.865 2.825-6.18-.929-4.998-3.397-.85-5.443.777-1.909-.866-1.531-3.845-3.553-4.025-1.592-3.513-6.315-2.766-1.266 7.64-1.91-3.245-4.354-1.172-3.438 2.455-1.826-3.642-5.062-1.894-.896-3.215 3.157-3.442-1.211-2.704 2.108-4.48 2.826-.231 3.421-3.16-5.95-.777-1.55-2.026-2.959.158-2.057-5.93 3.009-2.528 1.728-8.097 3.968-4.688-9.017-3.056-1.38 3.025-2.82 1.143-.245-1.954-3.823-.73 1.675-3.055-2.332-2.186 5.274-3.077-.367-1.826-3.148-.435-1.33-1.995.658-4.143-4.277-1.19-1.21 3.288.763 2.62-2.51 2.95-2.283-4.379-4.058 4.06-6.934 5.502-2.467-.924-1.356-3.664 3.27-2.603 1.641-4.337-.621-2.515 2.77-.78 1.123 2.232 4.332-8.397-3.532-2.954-3.932.945-3.562-3.041 1.107-3.504-3.599-7.387 4.794-3.788-2.413-1.99 2.47-3.753.762-3.698 2.672-1.678-9.337-6.087 6.672-.723 1.233 1.181 5.385-2.242.167 1.235 9.755 6.045z" class="estado"/><path d="M499.766 187.484l3.214 2.534-5.537 3.63.203 1.609 4.434 1.523.354 4.46 2.727 5.903-2.35 4.056 4.283 2.528-2.187 4.46 3.374.162 3.951 1.9-.952 6.849 6.51 2.586 1.08 5.522 3.777-1.205 3.438 3.791 2.165-2.215 6.65.83.093 14.76 4.43 1.17-14.427 10.508-2.641-1.347-3.526 1.791-.597 7.798-3.154-.785-5.47 2.935-.246 1.62-6.517 2.43 2.698 1.322 1.297 3.087-1.876 7.767 4.752 4.398-.192 2.285-3.51 3.324-6.734-.414-2.808 6.076 1.115 4.962-4.44-.462-1.806 1.57 1.149 3.016-4.877-2.202-2.677 1.258 1.188 2.867-4.136-.885.637-4.805-1.68-1.525 1.996-7.157-3.258-6.767 1.273-6.15-3.246-2.404.824-4.896-3.875-1.652-1.61-2.674-.73-7.786 2.753-2.337-2.624-2.178.512-4.707 5.897-2.507 7.26 1.92 2.86-.883-.686-2.486-6.03-.862.506-1.964-3.711-1.75 1.54-1.217-7.023-3.469-2.254-5.023 1.096-2.749-2.314-1.118-.304-3.314-3.658-2.631-4.45-5.583 12.67-10.205 1.727 3.39 4.274-5.439.116-6.619-4.486-1.792-2.926 1.786-.968-4.17 4.36-3.9 7.268-1.643 1.874-8.125 4.528-3.199 5.294 5.134z" class="estado"/><path d="M499.766 187.484l-4.346 4.316-5.294-5.134-4.528 3.199-1.874 8.125-7.269 1.643-4.36 3.9.969 4.17 2.926-1.786 4.486 1.792-.116 6.62-4.274 5.439-1.726-3.391-12.671 10.205 4.45 5.583 3.658 2.631.304 3.314 2.314 1.118-1.096 2.749 2.254 5.023 7.024 3.469-1.541 1.216 3.711 1.751-.506 1.964 6.03.862.686 2.486-2.86.883-7.26-1.92-5.897 2.507-.512 4.707 2.624 2.178-2.753 2.337.73 7.786-4.436.378-4.714-2.253-2.07-3.97-3.92-1.336-3.338 2.14-4.485-.622.587-2.138-4.809-1.116-2.104-3.968-10.858-2.816-6.302.07.462 3.252-6.226-1.875-5.122 8.228-6.804-1.523-4.534-3.857-.1-2.635-2.703-1.425-4.222-4.722 1.365-2.715 3.488.143-4.398-4.65 3.101-2.852 1.8-4.884-.767-1.271-.115-7.878 2.504-3.975-1.563-2.15-1.602-6.72-9.074-3.431-4.27-5.848 3.018-2.551-2.463-7.603-1.25-.372.622-6.642-.74-5.299-2.203-2.684 2.583-7.73 6.27-11.18 1.302-3.546 2.285-.713 5.796-9.465 4.3.885 4.32-5.634 2.243-.468 2.2-4.696.868-4.58 3.274-5.568 4.92-1.735 3.566.631 1.27-3.003 6.306 2.146 7.461-.39 3.892 1.248 7.12-.684 5.625 4.466-.085 2.946 5.417 1.582 1.586 2.76 5.885 3.443 3.068 3.65.918 4.627 2.928 3.358 1.299 4.574 2.834 2.13 1.374 5.082 3.856 5.847 3.575 1.416 4.177 4.51z" class="estado"/><path d="M557.254 341.282l-1.538 1.494-9.755-6.045-.167-1.235-5.385 2.242-1.233-1.18-6.672.722-6.118 1.413-4.768-1.681-4.918.067-2.591-6.2-5.995-3.05 1.39 3.442-5.25-1.683-3.434.652-1.042-2.032-7.236-.9 2.026-1.72-1.959-5.126 2.456-1.61-2.905-1.687.33-2.947-1.15-3.015 1.807-1.57 4.44.461-1.115-4.962 2.808-6.076 6.734.414 3.51-3.324.192-2.285-4.752-4.398 1.876-7.767-1.297-3.087-2.698-1.321 6.517-2.432.246-1.619 5.47-2.935 3.154.785.597-7.798 3.526-1.79 2.641 1.346 14.427-10.509-4.43-1.169-.094-14.76-6.65-.83-2.164 2.215-3.438-3.791-3.776 1.205-1.082-5.522-6.51-2.586.953-6.85-3.951-1.9-3.374-.16 2.187-4.461-4.283-2.528 2.35-4.056-2.727-5.903-.354-4.46-4.434-1.523-.203-1.61 5.537-3.63 3.692 1.1 3.271 4.486-.483 5.833 1.948 2.58-.508 4.427 4.93 4.934 2.694 8.363 2.513 4.094 7.278.707 4.408 3.798 6.1.934 5.447 3.62 12.483.335 4.395.901 5.616 5.006 4.32-2.978 3.992.01-1.6 9.113-8.495 15.708-3.697 11.516-1.841 9.204-1.753 26.414.23 10.396-.773 5.95-1.575 3.653-.344 5.437z" class="estado"/><path d="M843.48 362.844l.049 13.701-5.895 9.657-10.954 10.4-7.613.817-7.86 4.53-2.595 2.282-3.564 5.787-3.184.677-.308 2.755-7.271 3.543-3.237-2.743-4.888-6.284-.312-3.456-4.183-5.057-1.27 1.204-1.23-4.217-4.64-5.58-1.76 1.725-4.665-1.264-.01-2.09-4.246-.286.203-8.176-.703.044 2.291-4.855L772 372.19l7.348-2.716 12.074-2.175 15.588-1.902 6.278-3.439 8.351-.8 4.804-2.048 5.085.386 6.271 2.227zm-61.293-31.258l4.068 2.896-1.432 3.7-3.528-3.008z" class="estado"/><path d="M794.285 416.993l4.186 3.555-.1 27.166.691.012-.491 8.512-1.777 3.483 1.53 2.257.005 3.48-33.758.078-17.51-.073-.009-4.107-6.41-.347-3.049-2.442-3.106-.605-2.173-2.398-2.66 2.094-.777 6.172-4.63-2.753-4.527-1.214-5.423-3.894-.426-8.455-4.818.423-1.793-1.188-1.56-4.617 14.295-1.298 2.826 2.405 9.98-5.004 2.747-2.7 5.794-2.867 8.175-5.407 4.443-4.079.965-3.686-.028-5.968 1.271-2.326 4.263-3.006 1.605-2.61-1.11-2.83-.31-12.197 2.728-9.746.703-.044-.203 8.176 4.247.285.01 2.091 4.663 1.264 1.76-1.726 4.642 5.58 1.228 4.218 1.271-1.204 4.183 5.057.312 3.456 4.888 6.284z" class="estado"/><path d="M865.89 388.666l-4.638 6.182-2.489 2.018-.82-3.901 2.498-3.887zm-67.567 73.312l-1.53-2.257 1.778-3.483.491-8.512-.691-.012.1-27.166-4.186-3.555 7.27-3.543.309-2.755 3.184-.677 3.564-5.787 2.594-2.281 7.86-4.53 7.614-.818 10.954-10.4 5.895-9.657-.05-13.7 8.446 2 3.372-1.47.285-3.176 2.547.768 3.294 4.08 1.224 4.453 3.012 3.255-3.707 7.973-6.355 7.23-4.06 2.962-4.915 7.177-1.56 4.163.726 4.084-1.16 3.396-2.377.573-4.742 5.313 2.744 2.652 6.704-2.604-.833 3.613-5.467 2.67-1.313 4.702 1.48.604 2.335-3.338 2.81-.285-2.245 2.314-.668 3.932-4.891 11.755-1.086 7.001-3.862 7.683-3.572-.493-.002-7.105-6.122-.022-2.156-2.083-5.328.745-2.432 6.212-2.593 1.637-.534 3.404-3.996 4.637-4.757-3.044z" class="estado"/></g><g id="sucursales"><g id="mexicali" class="suc sucursal-0" style="transform-origin:63.436104353217615px 51.42095381112915px"><path d="M63.436 3.421c-9.8 0-17.7 7.8-17.7 17.4 0 15.5 17.7 30.6 17.7 30.6s17.7-15.4 17.7-30.6c0-9.6-7.9-17.4-17.7-17.4z" class="pin" fill="#eb5893"/><circle cx="63.436" cy="21.121" r="17.7" fill="#eb5893" class="circulo1"/><path fill="#eb5893" class="rect1" style="transform-origin:62.436104353217615px 21.12095381112915px" d="M62.436 3.421h2v35.4h-2z"/><circle cx="63.436" cy="21.121" r="13" class="circulo2"/><path class="rect2" style="transform-origin:62.436104353217615px 21.12095381112915px" d="M62.436 8.121h2v26h-2z"/><circle cx="63.436" cy="21.121" r="13" class="circulo3"/><a data-href="mexicali"><text id="t_mexicali" x="57.436" y="27.121">Mexicali</text></a></g><g id="tijuana" class="suc sucursal-1" style="transform-origin:22.745244052282942px 55.543242782624134px"><path d="M22.745 7.543c-9.8 0-17.7 7.8-17.7 17.4 0 15.5 17.7 30.6 17.7 30.6s17.7-15.4 17.7-30.6c0-9.6-7.9-17.4-17.7-17.4z" class="pin" fill="#eb5893"/><circle cx="22.745" cy="25.243" r="17.7" fill="#eb5893" class="circulo1"/><path fill="#eb5893" class="rect1" style="transform-origin:21.745244052282942px 25.243242782624133px" d="M21.745 7.543h2v35.4h-2z"/><circle cx="22.745" cy="25.243" r="13" class="circulo2"/><path class="rect2" style="transform-origin:21.745244052282942px 25.243242782624133px" d="M21.745 12.243h2v26h-2z"/><circle cx="22.745" cy="25.243" r="13" class="circulo3"/><a data-href="tijuana"><text id="t_tijuana" x="16.745" y="31.243">Tijuana</text></a></g><g id="chihuahua" class="suc sucursal-2" style="transform-origin:325.89796607841436px 163.20663112332238px"><path d="M325.898 115.207c-9.8 0-17.7 7.8-17.7 17.4 0 15.5 17.7 30.6 17.7 30.6s17.7-15.4 17.7-30.6c0-9.6-7.9-17.4-17.7-17.4z" class="pin" fill="#79679c"/><circle cx="325.898" cy="132.907" r="17.7" fill="#79679c" class="circulo1"/><path fill="#79679c" class="rect1" style="transform-origin:324.89796607841436px 132.90663112332237px" d="M324.898 115.207h2v35.4h-2z"/><circle cx="325.898" cy="132.907" r="13" class="circulo2"/><path class="rect2" style="transform-origin:324.89796607841436px 132.90663112332237px" d="M324.898 119.907h2v26h-2z"/><circle cx="325.898" cy="132.907" r="13" class="circulo3"/><a data-href="chihuahua"><text id="t_chihuahua" x="319.898" y="138.907">Chihuahua</text></a></g><g id="guaymas" class="suc sucursal-3" style="transform-origin:190.58928565056794px 183.30418402836813px"><path d="M190.59 135.304c-9.8 0-17.7 7.8-17.7 17.4 0 15.5 17.7 30.6 17.7 30.6s17.7-15.4 17.7-30.6c0-9.6-7.9-17.4-17.7-17.4z" class="pin" fill="#f2e659"/><circle cx="190.589" cy="153.004" r="17.7" fill="#f2e659" class="circulo1"/><path fill="#f2e659" class="rect1" style="transform-origin:189.58928565056794px 153.00418402836812px" d="M189.589 135.304h2v35.4h-2z"/><circle cx="190.589" cy="153.004" r="13" class="circulo2"/><path class="rect2" style="transform-origin:189.58928565056794px 153.00418402836812px" d="M189.589 140.004h2v26h-2z"/><circle cx="190.589" cy="153.004" r="13" class="circulo3"/><a data-href="guaymas"><text id="t_guaymas" x="184.589" y="159.004">Guaymas</text></a></g><g id="ciudad-obregon" class="suc sucursal-4" style="transform-origin:217.88949123801194px 195.13467635713073px"><path d="M217.89 147.135c-9.8 0-17.7 7.8-17.7 17.4 0 15.5 17.7 30.6 17.7 30.6s17.7-15.4 17.7-30.6c0-9.6-7.9-17.4-17.7-17.4z" class="pin" fill="#f2e659"/><circle cx="217.889" cy="164.835" r="17.7" fill="#f2e659" class="circulo1"/><path fill="#f2e659" class="rect1" style="transform-origin:216.88949123801194px 164.83467635713072px" d="M216.889 147.135h2v35.4h-2z"/><circle cx="217.889" cy="164.835" r="13" class="circulo2"/><path class="rect2" style="transform-origin:216.88949123801194px 164.83467635713072px" d="M216.889 151.835h2v26h-2z"/><circle cx="217.889" cy="164.835" r="13" class="circulo3"/><a data-href="ciudad-obregon"><text id="t_ciudad-obregon" x="211.889" y="170.835">Ciudad Obregon</text></a></g><g id="reynosa" class="suc sucursal-5" style="transform-origin:543.2396262465372px 234.72151397895084px"><path d="M543.24 186.722c-9.8 0-17.7 7.8-17.7 17.4 0 15.5 17.7 30.6 17.7 30.6s17.7-15.4 17.7-30.6c0-9.6-7.9-17.4-17.7-17.4z" class="pin" fill="#f19e65"/><circle cx="543.24" cy="204.422" r="17.7" fill="#f19e65" class="circulo1"/><path fill="#f19e65" class="rect1" style="transform-origin:542.2396262465372px 204.42151397895083px" d="M542.24 186.722h2v35.4h-2z"/><circle cx="543.24" cy="204.422" r="13" class="circulo2"/><path class="rect2" style="transform-origin:542.2396262465372px 204.42151397895083px" d="M542.24 191.422h2v26h-2z"/><circle cx="543.24" cy="204.422" r="13" class="circulo3"/><a data-href="reynosa"><text id="t_reynosa" x="537.24" y="210.422">Reynosa</text></a></g><g id="matamoros" class="suc sucursal-6" style="transform-origin:565.2121291202006px 240.6497551668109px"><path d="M565.212 192.65c-9.8 0-17.7 7.8-17.7 17.4 0 15.5 17.7 30.6 17.7 30.6s17.7-15.4 17.7-30.6c0-9.6-7.9-17.4-17.7-17.4z" class="pin" fill="#f19e65"/><circle cx="565.212" cy="210.35" r="17.7" fill="#f19e65" class="circulo1"/><path fill="#f19e65" class="rect1" style="transform-origin:564.2121291202006px 210.3497551668109px" d="M564.212 192.65h2v35.4h-2z"/><circle cx="565.212" cy="210.35" r="13" class="circulo2"/><path class="rect2" style="transform-origin:564.2121291202006px 210.3497551668109px" d="M564.212 197.35h2v26h-2z"/><circle cx="565.212" cy="210.35" r="13" class="circulo3"/><a data-href="matamoros"><text id="t_matamoros" x="559.212" y="216.35">Matamoros</text></a></g><g id="monterrey" class="suc sucursal-7" style="transform-origin:486.63497390456996px 246.11242907856968px"><path d="M486.635 198.112c-9.8 0-17.7 7.8-17.7 17.4 0 15.5 17.7 30.6 17.7 30.6s17.7-15.4 17.7-30.6c0-9.6-7.9-17.4-17.7-17.4z" class="pin" fill="#53b89c"/><circle cx="486.635" cy="215.812" r="17.7" fill="#53b89c" class="circulo1"/><path fill="#53b89c" class="rect1" style="transform-origin:485.63497390456996px 215.81242907856966px" d="M485.635 198.112h2v35.4h-2z"/><circle cx="486.635" cy="215.812" r="13" class="circulo2"/><path class="rect2" style="transform-origin:485.63497390456996px 215.81242907856966px" d="M485.635 202.812h2v26h-2z"/><circle cx="486.635" cy="215.812" r="13" class="circulo3"/><a data-href="monterrey"><text id="t_monterrey" x="480.635" y="221.812">Monterrey</text></a></g><g id="culiacan" class="suc sucursal-8" style="transform-origin:288.95631037554176px 270.3530473545262px"><path d="M288.956 222.353c-9.8 0-17.7 7.8-17.7 17.4 0 15.5 17.7 30.6 17.7 30.6s17.7-15.4 17.7-30.6c0-9.6-7.9-17.4-17.7-17.4z" class="pin" fill="#e94b4c"/><circle cx="288.956" cy="240.053" r="17.7" fill="#e94b4c" class="circulo1"/><path fill="#e94b4c" class="rect1" style="transform-origin:287.95631037554176px 240.0530473545262px" d="M287.956 222.353h2v35.4h-2z"/><circle cx="288.956" cy="240.053" r="13" class="circulo2"/><path class="rect2" style="transform-origin:287.95631037554176px 240.0530473545262px" d="M287.956 227.053h2v26h-2z"/><circle cx="288.956" cy="240.053" r="13" class="circulo3"/><a data-href="culiacan"><text id="t_culiacan" x="282.956" y="246.053">Culiacan</text></a></g><g id="zacatecas" class="suc sucursal-9" style="transform-origin:424.4278090786479px 327.501762108505px"><path d="M424.428 279.502c-9.8 0-17.7 7.8-17.7 17.4 0 15.5 17.7 30.6 17.7 30.6s17.7-15.4 17.7-30.6c0-9.6-7.9-17.4-17.7-17.4z" class="pin" fill="#bf6698"/><circle cx="424.428" cy="297.202" r="17.7" fill="#bf6698" class="circulo1"/><path fill="#bf6698" class="rect1" style="transform-origin:423.4278090786479px 297.20176210850497px" d="M423.428 279.502h2v35.4h-2z"/><circle cx="424.428" cy="297.202" r="13" class="circulo2"/><path class="rect2" style="transform-origin:423.4278090786479px 297.20176210850497px" d="M423.428 284.202h2v26h-2z"/><circle cx="424.428" cy="297.202" r="13" class="circulo3"/><a data-href="zacatecas"><text id="t_zacatecas" x="418.428" y="303.202">Zacatecas</text></a></g><g id="tepic" class="suc sucursal-10" style="transform-origin:358.01700339040053px 362.0036011060639px"><path d="M358.017 314.004c-9.8 0-17.7 7.8-17.7 17.4 0 15.5 17.7 30.6 17.7 30.6s17.7-15.4 17.7-30.6c0-9.6-7.9-17.4-17.7-17.4z" class="pin" fill="#71a3d8"/><circle cx="358.017" cy="331.704" r="17.7" fill="#71a3d8" class="circulo1"/><path fill="#71a3d8" class="rect1" style="transform-origin:357.01700339040053px 331.7036011060639px" d="M357.017 314.004h2v35.4h-2z"/><circle cx="358.017" cy="331.704" r="13" class="circulo2"/><path class="rect2" style="transform-origin:357.01700339040053px 331.7036011060639px" d="M357.017 318.704h2v26h-2z"/><circle cx="358.017" cy="331.704" r="13" class="circulo3"/><a data-href="tepic"><text id="t_tepic" x="352.017" y="337.704">Tepic</text></a></g><g id="leon" class="suc sucursal-11" style="transform-origin:449.1451898706596px 374.2323328897029px"><path d="M449.145 326.232c-9.8 0-17.7 7.8-17.7 17.4 0 15.5 17.7 30.6 17.7 30.6s17.7-15.4 17.7-30.6c0-9.6-7.9-17.4-17.7-17.4z" class="pin" fill="#67b9e8"/><circle cx="449.145" cy="343.932" r="17.7" fill="#67b9e8" class="circulo1"/><path fill="#67b9e8" class="rect1" style="transform-origin:448.1451898706596px 343.9323328897029px" d="M448.145 326.232h2v35.4h-2z"/><circle cx="449.145" cy="343.932" r="13" class="circulo2"/><path class="rect2" style="transform-origin:448.1451898706596px 343.9323328897029px" d="M448.145 330.932h2v26h-2z"/><circle cx="449.145" cy="343.932" r="13" class="circulo3"/><a data-href="leon"><text id="t_leon" x="443.145" y="349.932">Leon</text></a></g><g id="merida" class="suc sucursal-12" style="transform-origin:784.5170166142434px 376.67121130601095px"><path d="M784.517 328.671c-9.8 0-17.7 7.8-17.7 17.4 0 15.5 17.7 30.6 17.7 30.6s17.7-15.4 17.7-30.6c0-9.6-7.9-17.4-17.7-17.4z" class="pin" fill="#ed6a5e"/><circle cx="784.517" cy="346.371" r="17.7" fill="#ed6a5e" class="circulo1"/><path fill="#ed6a5e" class="rect1" style="transform-origin:783.5170166142434px 346.37121130601093px" d="M783.517 328.671h2v35.4h-2z"/><circle cx="784.517" cy="346.371" r="13" class="circulo2"/><path class="rect2" style="transform-origin:783.5170166142434px 346.37121130601093px" d="M783.517 333.371h2v26h-2z"/><circle cx="784.517" cy="346.371" r="13" class="circulo3"/><a data-href="merida"><text id="t_merida" x="778.517" y="352.371">Merida</text></a></g><g id="guadalajara" class="suc sucursal-13" style="transform-origin:401.5012868956296px 385.37825961287774px"><path d="M401.501 337.378c-9.8 0-17.7 7.8-17.7 17.4 0 15.5 17.7 30.6 17.7 30.6s17.7-15.4 17.7-30.6c0-9.6-7.9-17.4-17.7-17.4z" class="pin" fill="#8acbbf"/><circle cx="401.501" cy="355.078" r="17.7" fill="#8acbbf" class="circulo1"/><path fill="#8acbbf" class="rect1" style="transform-origin:400.5012868956296px 355.07825961287773px" d="M400.501 337.378h2v35.4h-2z"/><circle cx="401.501" cy="355.078" r="13" class="circulo2"/><path class="rect2" style="transform-origin:400.5012868956296px 355.07825961287773px" d="M400.501 342.078h2v26h-2z"/><circle cx="401.501" cy="355.078" r="13" class="circulo3"/><a data-href="guadalajara"><text id="t_guadalajara" x="395.501" y="361.078">Guadalajara</text></a></g><g id="puerto-vallarta" class="suc sucursal-14" style="transform-origin:349.2991926852342px 386.55164307273003px"><path d="M349.3 338.552c-9.8 0-17.7 7.8-17.7 17.4 0 15.5 17.7 30.6 17.7 30.6s17.7-15.4 17.7-30.6c0-9.6-7.9-17.4-17.7-17.4z" class="pin" fill="#8acbbf"/><circle cx="349.299" cy="356.252" r="17.7" fill="#8acbbf" class="circulo1"/><path fill="#8acbbf" class="rect1" style="transform-origin:348.2991926852342px 356.25164307273px" d="M348.299 338.552h2v35.4h-2z"/><circle cx="349.299" cy="356.252" r="13" class="circulo2"/><path class="rect2" style="transform-origin:348.2991926852342px 356.25164307273px" d="M348.299 343.252h2v26h-2z"/><circle cx="349.299" cy="356.252" r="13" class="circulo3"/><a data-href="puerto-vallarta"><text id="t_puerto-vallarta" x="343.299" y="362.252">Puerto Vallarta</text></a></g><g id="queretaro" class="suc sucursal-15" style="transform-origin:484.65479594095405px 388.16073331957716px"><path d="M484.655 340.16c-9.8 0-17.7 7.8-17.7 17.4 0 15.5 17.7 30.6 17.7 30.6s17.7-15.4 17.7-30.6c0-9.6-7.9-17.4-17.7-17.4z" class="pin" fill="#8ec152"/><circle cx="484.655" cy="357.861" r="17.7" fill="#8ec152" class="circulo1"/><path fill="#8ec152" class="rect1" style="transform-origin:483.65479594095405px 357.86073331957715px" d="M483.655 340.161h2v35.4h-2z"/><circle cx="484.655" cy="357.861" r="13" class="circulo2"/><path class="rect2" style="transform-origin:483.65479594095405px 357.86073331957715px" d="M483.655 344.861h2v26h-2z"/><circle cx="484.655" cy="357.861" r="13" class="circulo3"/><a data-href="queretaro"><text id="t_queretaro" x="478.655" y="363.861">Queretaro</text></a></g><g id="morelia" class="suc sucursal-16" style="transform-origin:462.95642146092587px 412.91454820879005px"><path d="M462.956 364.915c-9.8 0-17.7 7.8-17.7 17.4 0 15.5 17.7 30.6 17.7 30.6s17.7-15.4 17.7-30.6c0-9.6-7.9-17.4-17.7-17.4z" class="pin" fill="#eddb58"/><circle cx="462.956" cy="382.615" r="17.7" fill="#eddb58" class="circulo1"/><path fill="#eddb58" class="rect1" style="transform-origin:461.95642146092587px 382.61454820879004px" d="M461.956 364.915h2v35.4h-2z"/><circle cx="462.956" cy="382.615" r="13" class="circulo2"/><path class="rect2" style="transform-origin:461.95642146092587px 382.61454820879004px" d="M461.956 369.615h2v26h-2z"/><circle cx="462.956" cy="382.615" r="13" class="circulo3"/><a data-href="morelia"><text id="t_morelia" x="456.956" y="388.615">Morelia</text></a></g><g id="xalapa" class="suc sucursal-17" style="transform-origin:581.7808552649112px 417.6993613718156px"><path d="M581.78 369.7c-9.8 0-17.7 7.8-17.7 17.4 0 15.5 17.7 30.6 17.7 30.6s17.7-15.4 17.7-30.6c0-9.6-7.9-17.4-17.7-17.4z" class="pin" fill="#fdc84a"/><circle cx="581.781" cy="387.399" r="17.7" fill="#fdc84a" class="circulo1"/><path fill="#fdc84a" class="rect1" style="transform-origin:580.7808552649112px 387.3993613718156px" d="M580.781 369.699h2v35.4h-2z"/><circle cx="581.781" cy="387.399" r="13" class="circulo2"/><path class="rect2" style="transform-origin:580.7808552649112px 387.3993613718156px" d="M580.781 374.399h2v26h-2z"/><circle cx="581.781" cy="387.399" r="13" class="circulo3"/><a data-href="xalapa"><text id="t_xalapa" x="575.781" y="393.399">Xalapa</text></a></g><g id="coatzacoalcos" class="suc sucursal-18" style="transform-origin:651.1863806595352px 456.29683188000644px"><path d="M651.186 408.297c-9.8 0-17.7 7.8-17.7 17.4 0 15.5 17.7 30.6 17.7 30.6s17.7-15.4 17.7-30.6c0-9.6-7.9-17.4-17.7-17.4z" class="pin" fill="#fdc84a"/><circle cx="651.186" cy="425.997" r="17.7" fill="#fdc84a" class="circulo1"/><path fill="#fdc84a" class="rect1" style="transform-origin:650.1863806595352px 425.9968318800064px" d="M650.186 408.297h2v35.4h-2z"/><circle cx="651.186" cy="425.997" r="13" class="circulo2"/><path class="rect2" style="transform-origin:650.1863806595352px 425.9968318800064px" d="M650.186 412.997h2v26h-2z"/><circle cx="651.186" cy="425.997" r="13" class="circulo3"/><a data-href="coatzacoalcos"><text id="t_coatzacoalcos" x="645.186" y="431.997">Coatzacoalcos</text></a></g><g id="villahermosa" class="suc sucursal-19" style="transform-origin:693.2108651933431px 460.52890904276904px"><path d="M693.21 412.529c-9.8 0-17.7 7.8-17.7 17.4 0 15.5 17.7 30.6 17.7 30.6s17.7-15.4 17.7-30.6c0-9.6-7.9-17.4-17.7-17.4z" class="pin" fill="#f28e77"/><circle cx="693.211" cy="430.229" r="17.7" fill="#f28e77" class="circulo1"/><path fill="#f28e77" class="rect1" style="transform-origin:692.2108651933431px 430.22890904276903px" d="M692.211 412.529h2v35.4h-2z"/><circle cx="693.211" cy="430.229" r="13" class="circulo2"/><path class="rect2" style="transform-origin:692.2108651933431px 430.22890904276903px" d="M692.211 417.229h2v26h-2z"/><circle cx="693.211" cy="430.229" r="13" class="circulo3"/><a data-href="villahermosa"><text id="t_villahermosa" x="687.211" y="436.229">Villahermosa</text></a></g></g></svg>