<svg xmlns="http://www.w3.org/2000/svg" viewBox="0 0 141.732 141.732"><path d="M77.758 72.83c-.06.11-.113.22-.138.33-.965 1.76-2.837 2.943-4.983 2.943-.357 0-.69-.027-1.02-.083h-.052c-2.233-.41-3.99-2.175-4.488-4.376 0-.055-.025-.085-.025-.11-.084-.385-.112-.743-.112-1.126 0-1.903.935-3.582 2.392-4.627.113-.08.25-.13.36-.22.854-.52 1.873-.82 2.945-.82 1.32 0 2.533.45 3.495 1.21.11.09.22.17.33.28 1.13 1.02 1.844 2.53 1.844 4.19 0 .88-.19 1.68-.548 2.42m24.138-32.45c-1.984-1.43-4.24-.55-5.26 1.71-4.486 8.21-9.55 14.86-16.1 20.73-.63-.66-1.35-1.21-2.116-1.703 3.575-8.04 6.298-16.35 9.023-24.8.773-2.143-.415-4.514-2.75-5.392-10.488-3.94-23.203-3.85-32.946 2.098-2.285 1.43-2.2 3.906-.192 5.56 6.963 6.794 12.222 13.757 16.098 22.097-.767.414-1.486.91-2.143 1.46-6.744-6.11-14.175-11.367-21.8-16.484-2.065-1.38-4.843-.91-6.22 1.1-5.917 8.75-8.312 20.145-6.44 30.55.495 2.67 2.672 3.66 4.845 2.368 8.615-4.155 16.868-6.69 25.925-7.65.112.74.275 1.43.522 2.117-8.035 4.734-15.356 10.43-22.65 16.32-1.952 1.57-2.392 4.71-.88 6.85 6.028 8.478 16.733 12.718 26.833 13.598 2.505.19 4.158-1.43 3.716-3.72-1.04-9.22-.76-17.504.97-26.09.69.136 1.4.22 2.12.22 1.6 8.754 4.1 17.286 6.72 25.844.69 2.31 3.39 3.8 6.22 3.277 11.18-3.36 19.24-8.975 23.12-20.45.8-2.258-.36-4.266-2.67-4.626-8.91-1.98-16.51-4.95-23.86-9.36.44-.74.83-1.532 1.08-2.39 8.59 1.077 17.2 1.35 25.93 1.63 2.26.136 4.27-1.735 4.57-4.404 1.32-11.31-2.2-23.48-11.64-30.44"/><path d="M74.454 67.708c-.523-.358-1.157-.578-1.842-.578-.58 0-1.104.165-1.57.414-.19.11-.36.22-.524.36-.714.577-1.156 1.457-1.185 2.445v.05c0 .41.083.79.22 1.15.304.8.91 1.46 1.708 1.82.31.13.61.22.94.24.14.02.28.05.42.05 1.07 0 2.01-.52 2.61-1.32.14-.2.28-.39.36-.61.19-.418.31-.858.31-1.35 0-.88-.36-1.655-.91-2.26-.16-.166-.33-.3-.52-.44"/></svg>