<svg xmlns="http://www.w3.org/2000/svg" viewBox="0 0 141.732 141.732"><path d="M43.14 41.827h55.433c.78 0 1.614.73 1.614 1.563v2.918c-1.56-1.093-2.81-1.667-4.53-1.667-3.59 0-6.557 2.92-6.557 6.57 0 2.61-2.133 4.9-4.892 4.9-2.758 0-4.84-2.29-4.84-5.05v-.52c0-3.02-2.447-5.47-5.466-5.47-3.02 0-5.465 2.45-5.465 5.48v.52c0 1.305-1.04 2.348-2.342 2.348s-2.343-1.043-2.343-2.345v-.833c0-2.03-1.614-3.645-3.644-3.645-2.028 0-3.642 1.616-3.642 3.648v.577c0 2.61-2.083 4.69-4.685 4.69-2.6 0-4.68-2.08-4.68-4.69v-.52c0-2.03-1.61-3.644-3.64-3.644-.57 0-1.04.155-1.56.363v-3.6c0-.836.42-1.566 1.25-1.566m60.28 8.44c-.05 0-.26-.103-.31-.103h-.83V43.4c0-1.928-1.766-3.648-3.693-3.648H43.14c-1.978 0-3.33 1.67-3.33 3.647v14.33c0 1.92 1.352 3.38 3.33 3.38h55.433c1.927 0 3.695-1.46 3.695-3.39v-5.48h.73c.677.52 1.353.99 1.353 1.665v8.34c0 .885-.88 1.405-1.77 1.405H73.49c-2.03 0-3.488 1.774-3.488 3.806v1.46h-6.767c-.26 0-.47.21-.52.47-.052.208.104.52.364.626.57.32 2.24 1.41 2.24 2.35v31.11c0 1.72 1.24 3.03 2.96 3.03h5.2c1.71 0 3.28-1.304 3.28-3.024V72.31c0-.935 1.51-2.03 2.08-2.29.21-.1.26-.414.21-.622-.06-.208-.32-.47-.52-.47h-6.46v-1.41c0-.885.57-1.718 1.4-1.718h29.093c2.03 0 3.855-1.512 3.855-3.492v-8.34c0-1.77-1.35-3.333-3.015-3.7"/></svg>