<svg xmlns="http://www.w3.org/2000/svg" style="display:none"><symbol id="apron" viewBox="0 0 290.625 290.625"><path d="M75 234.375c0 7.753 6.309 14.063 14.063 14.063h112.5c7.753 0 14.063-6.309 14.063-14.063v-70.313H75v70.313zm75-60.937h56.25v60.937a4.69 4.69 0 0 1-4.688 4.688H150v-65.625zm-65.625 0h56.25v65.625H89.063a4.69 4.69 0 0 1-4.688-4.688v-60.937z"/><path d="M93.75 178.125h14.063v9.375H93.75zM117.188 178.125h14.063v9.375h-14.063zM159.375 178.125h14.063v9.375h-14.063zM182.813 178.125h14.063v9.375h-14.063zM103.125 75h9.375v9.375h-9.375zM121.875 75h9.375v9.375h-9.375zM140.625 75H150v9.375h-9.375zM159.375 75h9.375v9.375h-9.375zM178.125 75h9.375v9.375h-9.375z"/><path d="M242.325 37.148L195.028 16.88a4.691 4.691 0 0 1-2.841-4.308V0h-9.375v12.572c0 5.63 3.347 10.702 8.522 12.923l5.541 2.372v33.07H93.75v-33.07l5.545-2.377a14.045 14.045 0 0 0 8.517-12.919V0h-9.375v12.572a4.69 4.69 0 0 1-2.836 4.308L48.3 37.148A79.593 79.593 0 0 0 0 110.395v180.23h9.375v-180.23a70.233 70.233 0 0 1 42.614-64.631l32.386-13.88v33.741c0 44.723-26.47 53.888-37.5 55.762v-22.95H37.5v192.188h215.625V98.438h-9.375v22.983c-11.03-1.805-37.5-10.819-37.5-55.795V31.884l32.386 13.88a70.233 70.233 0 0 1 42.614 64.631v180.23h9.375v-180.23a79.593 79.593 0 0 0-48.3-73.247zm1.425 93.643V281.25H46.875V130.791c12.314-1.875 44.794-11.494 46.758-60.478h103.359c1.964 48.984 34.444 58.603 46.758 60.478z"/></symbol><symbol id="brush" viewBox="0 0 290.627 290.627"><path d="M276.563 103.125h14.064v-37.5c0-7.753-6.309-14.063-14.063-14.063H75.001v-9.375c0-2.583 2.1-4.688 4.688-4.688h154.688c10.341 0 18.75-8.409 18.75-18.75S244.717 0 234.376 0H56.251c-17.48 0-32.812 15.333-32.812 32.813v18.75h-9.375C6.31 51.563.001 57.872.001 65.625v37.5h14.063V187.5h32.813c5.17 0 9.375 4.205 9.375 9.375s-4.205 9.375-9.375 9.375H.001v9.375h46.875c10.341 0 18.75-8.409 18.75-18.75 0-3.431-.994-6.605-2.606-9.375h153.272c2.095 8.063 9.37 14.063 18.084 14.063h32.813c7.753 0 14.063 6.309 14.063 14.063 0 7.754-6.309 14.063-14.063 14.063H145.314c-10.341 0-18.75 8.409-18.75 18.75s8.409 18.75 18.75 18.75 18.75 8.409 18.75 18.75v4.688h9.375v-4.688c0-15.511-12.614-28.125-28.125-28.125-5.17 0-9.375-4.205-9.375-9.375s4.205-9.375 9.375-9.375h121.875c12.923 0 23.438-10.514 23.438-23.438s-10.514-23.438-23.438-23.438h-32.813c-3.455 0-6.445-1.898-8.072-4.688h50.259v-84.375zM9.376 93.75V65.625c0-2.583 2.1-4.688 4.688-4.688h18.75V32.813c0-11.062 10.027-23.438 23.438-23.438h178.125c5.17 0 9.375 4.205 9.375 9.375s-4.205 9.375-9.375 9.375H79.689c-7.753 0-14.063 6.309-14.063 14.063v9.375H51.564v9.375h225a4.693 4.693 0 0 1 4.688 4.688V93.75H9.376zm257.813 84.375h-23.438v-37.5h-9.375v37.5h-23.438v-37.5h-9.375v37.5h-79.688v-18.75h-9.374v18.75H89.064v-37.5h-9.375v37.5H56.251v-37.5h-9.375v37.5H23.439v-75h243.75v75z"/><path d="M112.501 140.625h9.375V150h-9.375zM28.126 234.375c-10.341 0-18.75 8.409-18.75 18.75s8.409 18.75 18.75 18.75 18.75-8.409 18.75-18.75-8.409-18.75-18.75-18.75zm0 28.125c-5.17 0-9.375-4.205-9.375-9.375s4.205-9.375 9.375-9.375 9.375 4.205 9.375 9.375-4.205 9.375-9.375 9.375zM103.126 201.563c-7.753 0-14.063 6.309-14.063 14.063 0 7.754 6.309 14.063 14.063 14.063s14.063-6.309 14.063-14.063c0-7.754-6.31-14.063-14.063-14.063zm0 18.75c-2.588 0-4.688-2.105-4.688-4.688s2.1-4.688 4.688-4.688 4.688 2.105 4.688 4.688-2.1 4.688-4.688 4.688zM262.501 70.313h9.375v9.375h-9.375zM243.751 70.313h9.375v9.375h-9.375z"/></symbol><symbol id="bucket" viewBox="0 0 290.626 290.626"><path d="M276.328 93.75h14.297v-37.5h-18.989c-2.395-28.823-26.578-51.563-56.011-51.563-25.003 0-39.028 15.295-44.784 23.573-.698-.042-1.383-.136-2.091-.136-13.177 0-24.534 7.823-29.747 19.055C132.741 20.194 108.553 0 79.688 0 47.668 0 21.394 24.839 18.99 56.25H0v37.5h14.18c1.134 22.917 10.603 43.631 25.345 59.344l12.037 114.361c.202 13.069 15.206 23.17 28.125 23.17h131.25c12.919 0 27.923-10.102 28.125-23.17L251.1 153.094c14.737-15.703 24.084-36.436 25.228-59.344zM252.9 135.97l4.444-42.22h9.605c-.858 15.553-5.855 30.019-14.049 42.22zM168.75 37.5c8.123 0 15.005 4.163 19.378 11.723l8.114-4.697c-3.773-6.525-9.117-11.306-15.389-13.973 5.77-7.003 16.875-16.491 34.772-16.491 24.267 0 44.278 18.534 46.636 42.188H145.786c2.18-10.682 11.648-18.75 22.964-18.75zm112.5 28.124v18.751H112.5v-4.688c0-7.753 6.309-14.063 14.063-14.063H281.25zM79.688 9.375c26.85 0 48.947 20.634 51.323 46.875h-4.448c-12.923 0-23.438 10.514-23.438 23.438v42.188c0 7.753-6.309 14.063-14.063 14.063-7.754 0-14.062-6.311-14.062-14.064V56.25H28.364C30.741 30.009 52.838 9.375 79.688 9.375zM23.564 93.75h9.717l4.43 42.061c-8.156-12.183-13.289-26.545-14.147-42.061zM9.375 84.375v-18.75h56.25v18.75H9.375zm220.336 182.326l-.023.487c0 7.242-10.561 14.063-18.75 14.063H79.688c-8.189 0-18.75-6.82-18.75-14.063L49.959 162.769c14.789 11.634 33.173 18.816 53.166 19.814v9.605H187.5v-9.614c20.006-.998 38.367-8.236 53.161-19.889l-10.95 104.016zM112.5 182.813v-9.375h65.625v9.375H112.5zm129.6-33.802c-14.208 14.048-33.375 23.016-54.6 24.188v-9.136h-84.375v9.145c-21.248-1.177-40.406-10.195-54.619-24.272L42.708 93.75h22.917v28.125c0 12.923 10.514 23.438 23.438 23.438s23.438-10.514 23.438-23.438V93.75h135.417l-5.818 55.261z"/><path d="M267.188 220.313c-12.923 0-23.438 10.514-23.438 23.438s10.514 23.438 23.438 23.438 23.438-10.514 23.438-23.438-10.515-23.438-23.438-23.438zm0 37.5c-7.753 0-14.063-6.309-14.063-14.063 0-7.754 6.309-14.063 14.063-14.063 7.754 0 14.063 6.309 14.063 14.063 0 7.754-6.31 14.063-14.063 14.063zM75 262.5h9.375v9.375H75zM93.75 262.5h9.375v9.375H93.75zM206.25 262.5h9.375v9.375h-9.375zM173.437 220.313c0 7.754 6.309 14.063 14.063 14.063 7.754 0 14.063-6.309 14.063-14.063 0-7.754-6.31-14.063-14.063-14.063s-14.063 6.31-14.063 14.063zm18.751 0c0 2.583-2.105 4.688-4.688 4.688s-4.688-2.105-4.688-4.688 2.105-4.688 4.688-4.688 4.688 2.104 4.688 4.688z"/></symbol><symbol id="cleaning" viewBox="0 0 292.532 292.532"><path d="M25.378 197.829c15.82 0 26.311-10.308 26.752-10.748l3.314-3.314-3.314-3.314c-.441-.441-10.931-10.748-26.752-10.748-11.002 0-20.967 9.652-22.064 10.748L0 183.766l3.314 3.314c1.097 1.097 11.063 10.749 22.064 10.749zm0-18.75c6.642 0 12.145 2.498 15.708 4.702-3.539 2.198-9.009 4.673-15.708 4.673-3.886 0-8.231-2.391-11.433-4.688 3.202-2.296 7.547-4.687 11.433-4.687zM58.191 146.266c10.341 0 18.75-8.409 18.75-18.75s-8.409-18.75-18.75-18.75-18.75 8.409-18.75 18.75 8.409 18.75 18.75 18.75zm0-28.125c5.17 0 9.375 4.205 9.375 9.375s-4.205 9.375-9.375 9.375-9.375-4.205-9.375-9.375 4.204-9.375 9.375-9.375zM98.034 101.735c7.753 0 14.063-6.309 14.063-14.063s-6.31-14.062-14.063-14.062-14.062 6.31-14.062 14.063 6.309 14.062 14.062 14.062zm0-18.75a4.69 4.69 0 0 1 4.688 4.688c0 2.588-2.1 4.688-4.688 4.688s-4.688-2.1-4.688-4.688a4.69 4.69 0 0 1 4.688-4.688zM11.316 272.829c0-5.17 4.205-9.375 9.375-9.375h23.438c7.753 0 14.063-6.309 14.063-14.063 0-7.753-6.309-14.063-14.063-14.063v9.375c2.588 0 4.688 2.1 4.688 4.688s-2.1 4.688-4.688 4.688H20.691c-10.341 0-18.75 8.409-18.75 18.75s8.409 18.75 18.75 18.75h93.75v-9.375h-93.75c-5.171 0-9.375-4.205-9.375-9.375z"/><path d="M86.316 263.454h32.813v9.375H86.316zM283.776 211.891h4.102v-4.688c0-6.033-3.609-18.647-17.405-23.241l-43.533-13.059v-151.2c0-10.341-8.409-18.75-18.75-18.75s-18.75 8.409-18.75 18.75v151.388l-43.669 12.919c-13.659 4.547-17.269 17.161-17.269 23.194v4.688h4.102l-8.761 74.452 9.309 1.097 8.892-75.548h4.922l-4.397 74.723 9.356.548 4.434-75.272h4.955v75h9.375v-75h4.688v75h9.375v-75h4.688v75h9.375v-75h4.688v75h9.375v-75h4.688v75h9.375v-75h4.688v75h9.375v-75h4.688v75h9.375v-75h4.955l4.43 75.277 9.356-.548-4.397-74.728h4.922l8.89 75.547 9.309-1.097-8.756-74.452zm-84.96-192.187c0-5.17 4.204-9.375 9.375-9.375 5.17 0 9.375 4.205 9.375 9.375v121.875h-18.75V19.704zm0 131.25h18.75v18.905l-18.75-.127v-18.778zm-60 51.563c1.176-3.352 3.829-7.585 9.782-9.572l46.214-13.866h26.752l46.078 13.819c6.042 2.016 8.723 6.267 9.909 9.619H138.816zM119.128 174.39c-1.059.001-26.072.184-36.713 16.149-7.922 11.883-10.059 34.045-10.144 34.978l-.473 5.123h5.142c.848 0 20.813-.122 31.439-10.748 13.013-13.013 15.328-39.314 15.422-40.43l.417-5.072h-5.09zm-17.376 38.875c-5.053 5.053-13.786 6.919-19.434 7.603 1.177-7.505 3.675-18.802 7.898-25.125 5.348-8.025 16.739-10.669 23.522-11.545-1.444 8.587-5.002 22.082-11.986 29.067zM25.378 235.329h9.375v9.375h-9.375zM25.378 216.579h9.375v9.375h-9.375z"/></symbol><symbol id="detergent" viewBox="0 0 291.783 291.783"><path d="M197.433 11.152l-3.108-1.777-9.375 9.375L152.139 0l-9.516 9.516-18.75-9.375-23.531 23.531 9.375 18.75-9.375 9.375L117.53 86.17l-25.547 25.547v34.753h4.688c11.442 0 18.75 11.105 18.75 18.75v56.489c-15.558 1.552-28.884 10.753-36.192 23.775-9.858-32.827-40.317-56.827-76.308-56.827v9.375c38.77 0 70.313 31.542 70.313 70.313h9.375c0-19.087 14.344-34.856 32.813-37.177v37.177c0 12.923 10.514 23.438 23.438 23.438h126.563c12.923 0 23.438-10.514 23.438-23.438V132.408c-.003-69.014-26.767-84.31-91.428-121.256zm-71.714.398l9.914 4.955-18.928 18.928-4.955-9.914 13.969-13.969zm-13.968 42.094l41.953-41.953 24.375 13.931-53.559 53.559-12.769-25.537zm153.67 228.764H138.858c-7.753 0-14.063-6.309-14.063-14.063V165.22c0-12.009-9.412-25.256-23.438-27.722v-21.9l27.319-27.319.309-.155-.052-.103 66.956-66.956c62.438 35.7 83.592 48.797 83.592 111.342v135.938h.002c0 7.753-6.308 14.063-14.062 14.063z"/><path d="M176.358 127.72c-12.923 0-23.438 10.514-23.438 23.437v84.375c0 12.923 10.514 23.438 23.438 23.438h46.875c12.923 0 23.438-10.514 23.438-23.438v-37.5c.001-38.77-31.543-70.312-70.313-70.312zm60.939 107.813c0 7.753-6.309 14.063-14.063 14.063h-46.875c-7.753 0-14.063-6.309-14.063-14.063v-84.375c0-7.753 6.309-14.063 14.063-14.063 33.6 0 60.938 27.338 60.938 60.938v37.5zM45.108 174.595c0 10.341 8.409 18.75 18.75 18.75s18.75-8.409 18.75-18.75-8.409-18.75-18.75-18.75-18.75 8.41-18.75 18.75zm28.125 0c0 5.17-4.205 9.375-9.375 9.375s-9.375-4.205-9.375-9.375 4.205-9.375 9.375-9.375c5.171 0 9.375 4.205 9.375 9.375zM21.671 52.72h9.375c0-10.341 8.409-18.75 18.75-18.75v-9.375c-10.341 0-18.75-8.409-18.75-18.75h-9.375c0 10.341-8.409 18.75-18.75 18.75v9.375c10.34 0 18.75 8.41 18.75 18.75zm4.687-31.345a28.355 28.355 0 0 0 7.908 7.908 28.355 28.355 0 0 0-7.908 7.908 28.355 28.355 0 0 0-7.908-7.908 28.341 28.341 0 0 0 7.908-7.908zM21.671 76.158v9.375c18.089 0 32.813 14.719 32.813 32.813h9.375c0-18.094 14.723-32.813 32.812-32.813v-9.375c-18.089 0-32.812-14.719-32.812-32.813h-9.375c-.001 18.094-14.723 32.813-32.813 32.813zm37.5-13.496a42.459 42.459 0 0 0 18.183 18.183 42.459 42.459 0 0 0-18.183 18.183 42.459 42.459 0 0 0-18.183-18.183 42.454 42.454 0 0 0 18.183-18.183zM260.733 137.095h9.375v9.375h-9.375zM260.733 263.658h9.375v9.375h-9.375zM260.733 244.908h9.375v9.375h-9.375zM260.733 118.345h9.375v9.375h-9.375z"/></symbol><symbol id="dust" viewBox="0 0 291.206 291.206"><path d="M290.92 103.405l-.586-9.356-60.647 3.792v-5.522l61.519-7.692-1.162-9.3-59.095 7.388 56.672-21.797-3.37-8.752-51.923 19.969 47.048-35.283-5.625-7.5-40.613 30.459 28.575-42.862-7.8-5.198-29.044 43.566 14.016-49.055-9.019-2.573-14.241 49.847V.29h-9.375v53.245L192.009 3.693l-9.019 2.573 14.016 49.055-29.044-43.566-7.8 5.198 28.575 42.863-40.613-30.464-5.625 7.5 47.044 35.283-51.923-19.969-3.37 8.752 56.672 21.797-59.095-7.387-1.163 9.3 61.523 7.692v5.522L131.54 94.05l-.586 9.356 61.233 3.825v5.559H131.25v9.375h60.938v4.688H131.25v9.375h60.938v4.688H131.25v9.375h60.938v5.559l-61.233 3.825.586 9.356 60.647-3.792v4.223c-15.342.769-40.556 2.939-62.222 9.127l2.573 9.019c20.363-5.817 44.667-7.95 59.653-8.733v3.938c-15.159.609-38.817 4.35-54.877 20.409l6.628 6.628c13.631-13.622 34.584-16.983 48.244-17.606v79.922c0 10.341 8.409 18.75 18.75 18.75s18.75-8.409 18.75-18.75v-79.688h60.938v-9.375h-60.938v-4.688h60.938v-9.375h-60.938v-4.688h60.938v-9.375h-60.938v-4.688h60.938v-9.375h-60.938v-4.688h60.938v-9.375h-60.938v-4.688h60.938v-9.375h-60.938v-5.559l61.233-3.824zm-70.606-4.976l-4.983.309.586 9.356 4.397-.277v4.973h-4.689v9.375h4.688v4.688h-4.688v9.375h4.688v4.688h-4.688v9.375h4.688v4.688h-4.688v9.375h4.688v4.688h-4.688v9.375h4.688v4.688h-4.688v9.375h4.688v79.688c0 5.17-4.205 9.375-9.375 9.375s-9.375-4.205-9.375-9.375v-79.973c2.559.098 4.102.253 4.177.258l1.031-9.319c-.347-.038-2.241-.23-5.203-.347v-4.288c2.878-.075 4.598-.084 4.683-.084v-9.375c-.319 0-1.997.005-4.688.07v-4.453l4.983-.309-.586-9.356-4.397.272v-4.973h4.688v-9.375h-4.688v-4.688h4.688v-9.375h-4.688v-4.688h4.688v-9.375h-4.688v-4.973l4.397.277.586-9.356-4.983-.309v-4.936l4.106.511 1.163-9.3-5.208-.652a9.325 9.325 0 0 1 4.627-7.458v3.384h9.375v-3.384a9.328 9.328 0 0 1 4.627 7.458l-5.208.652 1.163 9.3 4.106-.511v4.936zM0 286.227v4.688h9.375v-4.688c0-56.864 46.261-103.125 103.125-103.125v-9.375c-62.03 0-112.5 50.47-112.5 112.5z"/><path d="M126.563 262.79h9.375c0-20.677 16.823-37.5 37.5-37.5v-9.375c-25.847 0-46.875 21.028-46.875 46.875zM107.813 89.352v-9.375c-23.264 0-42.188-18.923-42.188-42.188H56.25c0 28.43 23.133 51.563 51.563 51.563z"/><path d="M107.813 108.102v-9.375c-51.694 0-93.75-42.056-93.75-93.75V.29H4.688v4.688c0 56.863 46.26 103.124 103.125 103.124zM23.438 126.852c0 12.923 10.514 23.437 23.438 23.437s23.438-10.514 23.438-23.437c0-12.923-10.514-23.438-23.438-23.438s-23.438 10.515-23.438 23.438zm37.5 0c0 7.753-6.309 14.062-14.063 14.062-7.754 0-14.063-6.309-14.063-14.062s6.309-14.063 14.063-14.063c7.754 0 14.063 6.31 14.063 14.063zM89.063 33.102c9.047 0 16.406-7.359 16.406-16.406S98.109.29 89.063.29 72.656 7.649 72.656 16.696s7.36 16.406 16.407 16.406zm0-23.437c3.877 0 7.031 3.155 7.031 7.031s-3.155 7.031-7.031 7.031-7.031-3.155-7.031-7.031 3.154-7.031 7.031-7.031zM60.938 244.04c-10.341 0-18.75 8.409-18.75 18.75s8.409 18.75 18.75 18.75 18.75-8.409 18.75-18.75-8.41-18.75-18.75-18.75zm0 28.125c-5.17 0-9.375-4.205-9.375-9.375s4.205-9.375 9.375-9.375 9.375 4.205 9.375 9.375-4.205 9.375-9.375 9.375zM103.125 154.977h9.375v9.375h-9.375zM103.125 136.227h9.375v9.375h-9.375z"/></symbol><symbol id="dustpan" viewBox="0 0 291.975 291.975"><path d="M164.634 131.925h-41.78l8.967-107.813c0-12.923-10.514-23.438-23.437-23.438-12.923 0-23.437 10.515-23.423 23.828l8.953 107.423h-41.78c-18.398 0-35.559 14.794-37.472 32.273L0 291.3h216.769l-14.662-127.069c-1.913-17.512-19.074-32.306-37.473-32.306zM108.385 10.05c7.754 0 14.063 6.309 14.077 13.673l-9.014 108.202h-10.125L94.322 24.113c0-7.753 6.309-14.063 14.063-14.063zM10.519 281.925l13.462-116.681C25.35 152.714 38.77 141.3 52.134 141.3h112.5c13.364 0 26.784 11.414 28.153 23.977l13.462 116.648H10.519z"/><path d="M159.947 150.675H56.822c-13.28 0-21.816 8.358-23.391 22.772l-14.063 98.437 9.277 1.327 14.081-98.592c1.434-13.059 8.733-14.569 14.095-14.569h103.125c5.363 0 12.661 1.509 14.109 14.728l14.063 98.437 9.277-1.327-14.044-98.283c-1.589-14.571-10.124-22.93-23.404-22.93zM168.544.675l10.153 65.986v13.702c0 7.753 6.309 14.063 14.063 14.063h23.536L211.509 216.3c0 11.916 6.834 18.75 18.75 18.75s18.75-6.834 18.745-18.933l-4.781-121.692h23.536c7.753 0 14.063-6.309 14.063-14.063v-13.7L291.975.676H168.544zm61.715 225c-6.745 0-9.375-2.63-9.38-9.192l4.795-122.058h9.169l4.791 121.875c0 6.745-2.63 9.375-9.375 9.375zm42.187-145.313a4.694 4.694 0 0 1-4.687 4.688h-75a4.696 4.696 0 0 1-4.688-4.688v-9.375h84.408l-.033 9.375zm.666-18.75h-47.541V28.8h-9.375v32.813h-28.842l-7.88-51.563h83.105l-4.172 41.719 9.328.933 4.266-42.656h9.042l-7.931 51.566z"/><path d="M216.197 14.738h9.375v9.375h-9.375zM234.947 42.862h9.375v9.375h-9.375zM52.134 169.425h9.375v9.375h-9.375zM145.884 263.175h9.375v9.375h-9.375zM164.634 263.175h9.375v9.375h-9.375z"/></symbol><symbol id="envelope" viewBox="0 0 1792 1792"><path d="M1792 710v794q0 66-47 113t-113 47H160q-66 0-113-47T0 1504V710q44 49 101 87 362 246 497 345 57 42 92.5 65.5t94.5 48 110 24.5h2q51 0 110-24.5t94.5-48 92.5-65.5q170-123 498-345 57-39 100-87zm0-294q0 79-49 151t-122 123q-376 261-468 325-10 7-42.5 30.5t-54 38-52 32.5-57.5 27-50 9h-2q-23 0-50-9t-57.5-27-52-32.5-54-38T639 1015q-91-64-262-182.5T172 690q-62-42-117-115.5T0 438q0-78 41.5-130T160 256h1472q65 0 112.5 47t47.5 113z"/></symbol><symbol id="facebook" viewBox="0 0 1792 1792"><path d="M1343 12v264h-157q-86 0-116 36t-30 108v189h293l-39 296h-254v759H734V905H479V609h255V391q0-186 104-288.5T1115 0q147 0 228 12z"/></symbol><symbol id="google-plus" viewBox="0 0 1792 1792"><path d="M1181 913q0 208-87 370.5t-248 254-369 91.5q-149 0-285-58t-234-156-156-234-58-285 58-285 156-234 234-156 285-58q286 0 491 192L769 546Q652 433 477 433q-123 0-227.5 62T84 663.5 23 896t61 232.5T249.5 1297t227.5 62q83 0 152.5-23t114.5-57.5 78.5-78.5 49-83 21.5-74H477V791h692q12 63 12 122zm867-122v210h-209v209h-210v-209h-209V791h209V582h210v209h209z"/></symbol><symbol id="house" viewBox="0 0 291.488 291.488"><path d="M145.745 0L92.654 33.628C85.102 28.58 80.12 19.983 80.12 10.237h-9.375c0 15.511-12.614 28.125-28.125 28.125v9.375c6.553 0 12.572 2.269 17.358 6.038L.432 92.053v57.952l28.125-17.813v37.42c0 12.923-10.514 23.438-23.438 23.438v9.375c12.923 0 23.438 10.514 23.438 23.438v65.625h234.375V132.192l28.125 17.813V92.03L145.745 0zM75.432 28.378A37.789 37.789 0 0 0 90.104 43.05a37.762 37.762 0 0 0-14.672 14.672c-1.88-3.389-4.308-6.412-7.106-9.056l-.117-.183-.052.033c-2.24-2.096-4.697-3.966-7.397-5.466a37.769 37.769 0 0 0 14.672-14.672zm-53.424 169.36a33.112 33.112 0 0 0 11.236-11.236 33.077 33.077 0 0 0 11.236 11.236 33.112 33.112 0 0 0-11.236 11.236 33.112 33.112 0 0 0-11.236-11.236zm109.674 84.375h-56.25V160.238h56.25v121.875zm121.875-.001h-112.5v-131.25h-75v131.25H37.932v-56.25c0-12.923 10.514-23.438 23.438-23.438v-9.375c-12.923 0-23.438-10.514-23.438-23.438v-43.355l107.812-68.283 30.22 19.139c-7.669 7.884-18.375 12.811-30.22 12.811V99.3c23.259 0 42.188 18.923 42.188 42.188h9.375c0-15.919 8.869-29.798 21.919-36.98l34.331 21.745v155.859zM192.62 69.211a51.9 51.9 0 0 0 25.397 25.402 51.88 51.88 0 0 0-25.397 25.402 51.9 51.9 0 0 0-25.397-25.402 51.904 51.904 0 0 0 25.397-25.402zm89.062 63.759l-51.479-32.606c2.995-.675 6.094-1.064 9.291-1.064v-9.375c-23.259 0-42.188-18.923-42.188-42.188h-9.375c0 8.034-2.297 15.525-6.211 21.923l-35.977-22.786L9.807 132.97V97.172l56.541-36.347c2.77 4.355 4.397 9.506 4.397 15.037h9.375c0-15.511 12.614-28.125 28.125-28.125v-9.375c-1.655 0-3.267-.173-4.842-.445L145.745 11.1l135.938 86.095v35.775z"/><path d="M159.807 207.113h70.313v-56.25h-70.313v56.25zm9.375-46.875h51.563v37.5h-51.563v-37.5zM112.932 221.175h9.375v9.375h-9.375z"/><path d="M201.995 169.613h9.375v9.375h-9.375zM234.807 263.362h9.375v9.375h-9.375zM216.057 263.362h9.375v9.375h-9.375zM197.307 263.362h9.375v9.375h-9.375z"/></symbol><symbol id="mop" viewBox="0 0 290.627 290.627"><path d="M131.25 262.5h9.375v9.375h-9.375zM112.5 262.5h9.375v9.375H112.5zM248.438 215.625c0 7.753 6.309 14.063 14.063 14.063 7.753 0 14.063-6.309 14.063-14.063 0-7.754-6.309-14.063-14.063-14.063-7.754.001-14.063 6.31-14.063 14.063zm14.062-4.687c2.583 0 4.688 2.1 4.688 4.688a4.693 4.693 0 0 1-4.688 4.688 4.693 4.693 0 0 1-4.688-4.688 4.693 4.693 0 0 1 4.688-4.688zM234.375 187.5c10.341 0 18.75-8.409 18.75-18.75S244.716 150 234.375 150s-18.75 8.409-18.75 18.75 8.409 18.75 18.75 18.75zm0-28.125c5.17 0 9.375 4.205 9.375 9.375s-4.205 9.375-9.375 9.375S225 173.92 225 168.75s4.205-9.375 9.375-9.375z"/><path d="M271.875 253.125h-23.438a4.693 4.693 0 0 1-4.688-4.688 4.693 4.693 0 0 1 4.688-4.688v-9.375c-7.753 0-14.063 6.309-14.063 14.063 0 7.753 6.309 14.063 14.063 14.063h23.438c5.17 0 9.375 4.205 9.375 9.375s-4.205 9.375-9.375 9.375h-98.559c2.072-2.737 3.623-5.892 4.331-9.375h42.666V262.5h-42.661c-2.18-10.683-11.644-18.75-22.964-18.75v-37.5h4.688v-4.688c0-12.923-10.514-23.438-23.438-23.438h-37.5V18.75C98.438 8.409 90.028 0 79.688 0s-18.75 8.409-18.75 18.75v159.375h-37.5C10.514 178.125 0 188.639 0 201.563v4.688h4.688v60.938c0 12.923 10.514 23.438 23.438 23.438h243.751c10.341 0 18.75-8.409 18.75-18.75s-8.411-18.752-18.752-18.752zM70.313 18.75c0-5.17 4.205-9.375 9.375-9.375s9.375 4.205 9.375 9.375v135.938h-18.75V18.75zm0 145.313h18.75v14.063h-18.75v-14.063zm-60.136 32.812c1.936-5.456 7.148-9.375 13.261-9.375h112.5c6.113 0 11.325 3.919 13.261 9.375H10.177zm144.511 84.375H28.125c-6.103 0-11.259-3.933-13.2-9.375h88.2V262.5H14.063v-56.25h18.75v28.125h9.375V206.25h103.125v51.563c0 7.753 6.309 14.063 14.063 14.063V262.5a4.693 4.693 0 0 1-4.688-4.688v-4.688c7.753 0 14.063 6.309 14.063 14.063 0 7.754-6.309 14.063-14.063 14.063z"/></symbol><symbol id="phone" viewBox="0 0 1792 1792"><path d="M1408 1193q0-11-2-16-3-8-38.5-29.5T1279 1098l-53-29q-5-3-19-13t-25-15-21-5q-18 0-47 32.5t-57 65.5-44 33q-7 0-16.5-3.5T981 1157t-17-9.5-14-8.5q-99-55-170.5-126.5T653 842q-2-3-8.5-14t-9.5-17-6.5-15.5T625 779q0-13 20.5-33.5t45-38.5 45-39.5T756 631q0-10-5-21t-15-25-13-19q-3-6-15-28.5T683 492t-26.5-47.5-25-40.5-16.5-18-16-2q-48 0-101 22-46 21-80 94.5T384 631q0 16 2.5 34t5 30.5 9 33 10 29.5 12.5 33 11 30q60 164 216.5 320.5T971 1358q6 2 30 11t33 12.5 29.5 10 33 9 30.5 5 34 2.5q57 0 130.5-34t94.5-80q22-53 22-101zm256-777v960q0 119-84.5 203.5T1376 1664H416q-119 0-203.5-84.5T128 1376V416q0-119 84.5-203.5T416 128h960q119 0 203.5 84.5T1664 416z"/></symbol><symbol id="shirt" viewBox="0 0 290.626 290.626"><path d="M257.813 28.125H222.82L204.071 0H86.555l-18.75 28.125H32.813C14.719 28.125 0 42.848 0 60.938v229.688h290.625V60.938c0-18.09-14.719-32.813-32.812-32.813zM91.571 9.375h107.484l15.68 23.522-42.15 67.439L151.8 79.547l48.53-52.941-6.914-6.337-7.195 7.856h-81.816l-7.2-7.856-6.914 6.337 48.534 52.941-20.784 20.789-42.15-67.439 15.68-23.522zm53.742 63.38L113.003 37.5h64.627l-32.317 35.255zm-18.75 208.495H9.376V60.938C9.376 48.015 19.89 37.5 32.814 37.5h34.903l48.619 77.794 10.228-10.228V281.25zm154.687 0H135.938V95.691l9.375-9.375 28.978 28.978L222.91 37.5h34.903c12.923 0 23.438 10.514 23.438 23.438V281.25z"/><path d="M140.626 93.75h9.375v9.375h-9.375zM140.626 140.625h9.375V150h-9.375zM140.626 239.063h9.375v9.375h-9.375zM140.626 192.188h9.375v9.375h-9.375zM187.501 204.459l32.813 16.406 32.813-16.406v-68.522h-65.626v68.522zm9.374-40.396h32.813v-9.375h-32.813v-9.375h46.876v9.375h-4.688v9.375h4.688v34.603l-23.438 11.719-23.438-11.719v-34.603zM23.438 51.563h9.375v9.375h-9.375zM23.438 70.313h9.375v9.375h-9.375zM84.376 126.563v-9.375c-15.511 0-28.125-12.614-28.125-28.125h-9.375c0 15.511-12.614 28.125-28.125 28.125v9.375c15.511 0 28.125 12.614 28.125 28.125h9.375c0-15.511 12.614-28.125 28.125-28.125zm-32.813 9.984a37.789 37.789 0 0 0-14.672-14.672 37.756 37.756 0 0 0 14.672-14.672 37.789 37.789 0 0 0 14.672 14.672 37.762 37.762 0 0 0-14.672 14.672zM93.751 187.5h-9.375c0 12.923-10.514 23.438-23.438 23.438v9.375c12.923 0 23.438 10.514 23.438 23.438h9.375c0-12.923 10.514-23.438 23.438-23.438v-9.375c-12.925 0-23.438-10.515-23.438-23.438zm-4.688 39.361a33.077 33.077 0 0 0-11.236-11.236 33.077 33.077 0 0 0 11.236-11.236 33.077 33.077 0 0 0 11.236 11.236 33.13 33.13 0 0 0-11.236 11.236z"/></symbol><symbol id="soap" viewBox="0 0 290.626 290.626"><path d="M290.626 89.062C290.626 39.951 250.673 0 201.563 0h-112.5a88.626 88.626 0 0 0-45.127 12.309c-3.328-1.809-7.078-2.934-11.123-2.934-12.923 0-23.438 10.514-23.438 23.438 0 4.045 1.125 7.8 2.939 11.123A88.595 88.595 0 0 0 0 89.063c0 26.836 11.986 50.883 30.82 67.223C13.069 161.269 0 177.558 0 196.875h9.375c0-17.794 14.245-32.288 31.922-32.766 13.823 8.827 30.183 14.016 47.766 14.016h89.063V225c0 7.753-6.309 14.063-14.063 14.063-7.754 0-14.063-6.31-14.063-14.063 0-20.677-16.823-37.5-37.5-37.5S75 204.323 75 225v65.625h9.375V225c0-15.511 12.614-28.125 28.125-28.125s28.125 12.614 28.125 28.125c0 12.923 10.514 23.438 23.438 23.438S187.5 237.923 187.5 225v-46.875h14.063c49.111 0 89.063-39.952 89.063-89.063zM32.813 18.75c7.753 0 14.063 6.309 14.063 14.063 0 7.754-6.309 14.063-14.063 14.063-7.754 0-14.063-6.31-14.063-14.063S25.059 18.75 32.813 18.75zm56.251 150.001c-43.942-.001-79.689-35.748-79.689-79.688a79.33 79.33 0 0 1 9.441-37.566c3.919 2.944 8.733 4.753 13.997 4.753 12.923 0 23.438-10.514 23.438-23.438 0-5.264-1.809-10.078-4.748-13.992a79.268 79.268 0 0 1 37.561-9.445h112.5c43.941 0 79.688 35.747 79.688 79.688s-35.747 79.688-79.688 79.688h-112.5z"/><path d="M37.5 89.063h-9.375c0 29.395 30.225 51.563 70.313 51.563h79.688v-9.375H98.438C63.698 131.25 37.5 113.114 37.5 89.063zM42.188 215.625c-12.923 0-23.438 10.514-23.438 23.438S29.264 262.5 42.188 262.5s23.438-10.514 23.438-23.438-10.515-23.437-23.438-23.437zm0 37.5c-7.753 0-14.063-6.309-14.063-14.063 0-7.754 6.309-14.062 14.063-14.062 7.754 0 14.063 6.309 14.063 14.063 0 7.754-6.31 14.062-14.063 14.062zM262.5 182.813c-10.341 0-18.75 8.409-18.75 18.75s8.409 18.75 18.75 18.75 18.75-8.409 18.75-18.75-8.409-18.75-18.75-18.75zm0 28.125c-5.17 0-9.375-4.205-9.375-9.375s4.205-9.375 9.375-9.375 9.375 4.205 9.375 9.375-4.205 9.375-9.375 9.375zM234.375 225c-18.089 0-32.813 14.719-32.813 32.813s14.723 32.813 32.813 32.813c18.09 0 32.813-14.719 32.813-32.813S252.464 225 234.375 225zm0 56.25c-12.923 0-23.438-10.514-23.438-23.438s10.514-23.438 23.438-23.438 23.438 10.514 23.438 23.438-10.515 23.438-23.438 23.438zM196.875 18.75h9.375v9.375h-9.375zM178.125 18.75h9.375v9.375h-9.375zM262.5 89.063h-9.375c0 24.052-26.198 42.188-60.938 42.188H187.5v9.375h4.688c40.087-.001 70.312-22.168 70.312-51.563z"/></symbol><symbol id="spray" viewBox="0 0 290.626 290.626"><path d="M230.447 0h-66.384v9.375h-18.75v32.813h18.75v9.375h26.278c-3.97 10.012-14.456 29.738-36.319 32.859l-4.022.576v17.578l4.106.511c.319.042 2.077.239 4.917.239 10.28 0 34.734-2.667 56.602-25.059v16.866c-13.533 4.045-23.438 16.598-23.438 31.43V150c0 20.639-12.98 27.628-28.003 35.719-15.441 8.311-32.934 17.733-32.934 43.969v28.125c0 18.094 14.723 32.813 32.813 32.813h89.063c18.089 0 32.813-14.719 32.813-32.813v-131.25c0-16.495-12.253-30.15-28.125-32.438v-9.352c4.331-24.619 28.584-33.103 29.606-33.45l3.206-1.069V20.058L230.447 0zm-66.384 32.813h-9.375V18.75h9.375v14.063zm-4.688 61.153v-1.003c26.784-6.061 37.767-31.866 40.969-41.4h15.281V63.98c-20.888 26.939-46.397 29.939-56.25 29.986zm117.188 32.597v131.25c0 12.923-10.514 23.438-23.438 23.438h-89.063c-12.923 0-23.438-10.514-23.438-23.438v-28.125c0-20.639 12.98-27.628 28.003-35.719 7.936-4.27 16.397-8.855 22.762-15.844H225v-9.375h-27.323c2.414-5.128 3.886-11.231 3.886-18.75v-4.688H225v-9.375h-23.438v-9.375c0-12.923 10.514-23.438 23.438-23.438h28.125c12.923.001 23.438 10.515 23.438 23.439zm4.687-82.861c-8.053 3.548-28.589 14.925-32.747 39.9l-.047 10.148H225V42.188h-51.563V9.375h55.491l52.322 17.442v16.885z"/><path d="M248.438 262.5h9.375v9.375h-9.375zM229.688 262.5h9.375v9.375h-9.375zM210.938 262.5h9.375v9.375h-9.375zM159.375 262.5h9.375v9.375h-9.375zM56.25 23.438h65.625v9.375H56.25zM18.75 23.438h9.375v9.375H18.75zM37.5 23.438h9.375v9.375H37.5zM0 23.438h9.375v9.375H0z"/><path transform="rotate(-134.999 89.063 65.624)" d="M84.375 58.996h9.375v13.256h-9.375z"/><path transform="rotate(18.432 100.778 7.032)" d="M93.368 2.342h14.822v9.375H93.368z"/><path transform="rotate(-134.999 75 79.688)" d="M70.313 73.06h9.375v13.256h-9.375z"/><path transform="scale(-1) rotate(63.435 109.979 -60.678)" d="M32.812 62.728h9.375v10.481h-9.375z"/><path transform="rotate(-134.999 103.125 51.563)" d="M98.437 44.934h9.375V58.19h-9.375z"/><path transform="scale(-1) rotate(63.435 94.81 -91.018)" d="M51.563 53.354h9.375v10.481h-9.375z"/><path transform="rotate(-26.565 75.002 49.22)" d="M69.759 44.531H80.24v9.375H69.759z"/></symbol><symbol id="sweep" viewBox="0 0 290.627 290.627"><path d="M232.032 257.813V206.25h4.688v-4.688c0-12.923-10.514-23.438-23.438-23.438h-37.5V18.75c0-10.341-8.409-18.75-18.75-18.75s-18.75 8.409-18.75 18.75v159.375h-37.5c-12.923 0-23.438 10.514-23.438 23.438v4.688h4.688v51.563c0 18.094 14.719 32.813 32.813 32.813h75v-5.541c6.708 3.497 14.77 5.541 23.438 5.541h42.188v-9.375c-12.926-.002-23.439-10.516-23.439-23.439zM147.657 18.75c0-5.17 4.205-9.375 9.375-9.375s9.375 4.205 9.375 9.375v135.938h-18.75V18.75zm0 145.313h18.75v14.063h-18.75v-14.063zM100.782 187.5h112.5c6.113 0 11.325 3.919 13.261 9.375H87.521c1.935-5.456 7.149-9.375 13.261-9.375zm14.062 93.751c-12.923-.001-23.438-10.515-23.438-23.439V206.25h23.438v51.563c0 9.178 3.797 17.475 9.891 23.438h-9.891zm98.438 0c-18.094-.001-32.813-10.515-32.813-23.439h-9.375c0 9.361 2.02 17.573 5.377 23.438h-28.814c-12.923 0-23.438-10.514-23.438-23.438V206.25h75V225h9.375v-18.75h14.063v51.563c0 9.173 3.783 17.48 9.867 23.438h-19.242z"/><path d="M199.219 234.375h9.375v9.375h-9.375zM35.157 239.063h-9.375c0 8.405 2.02 16.345 5.602 23.363-12.131-11.916-19.664-28.491-19.664-46.8H2.344c0 41.353 33.647 75 75 75v-9.375c-23.26-.001-42.187-18.929-42.187-42.188zM264.844 281.25h23.438v9.375h-23.438zM44.532 229.688c0 7.753 6.309 14.063 14.063 14.063 7.754 0 14.063-6.309 14.063-14.063 0-7.754-6.309-14.063-14.063-14.063-7.754 0-14.063 6.309-14.063 14.063zm18.75 0c0 2.583-2.105 4.688-4.688 4.688s-4.688-2.105-4.688-4.688S56.011 225 58.594 225s4.688 2.105 4.688 4.688zM44.532 173.438c10.341 0 18.75-8.409 18.75-18.75s-8.409-18.75-18.75-18.75-18.75 8.409-18.75 18.75c0 10.34 8.409 18.75 18.75 18.75zm0-28.125c5.17 0 9.375 4.205 9.375 9.375s-4.205 9.375-9.375 9.375-9.375-4.205-9.375-9.375 4.205-9.375 9.375-9.375z"/><path d="M25.782 220.313h9.375v9.375h-9.375zM2.344 196.875h9.375v9.375H2.344zM2.344 178.125h9.375v9.375H2.344z"/></symbol><symbol id="toilet" viewBox="0 0 290.627 290.627"><path d="M65.626 70.313h9.375c0-15.511 12.614-28.125 28.125-28.125v-9.375c-15.511 0-28.125-12.615-28.125-28.125h-9.375c0 15.511-12.614 28.125-28.125 28.125v9.375c15.511 0 28.125 12.614 28.125 28.125zm4.688-47.485A37.756 37.756 0 0 0 84.986 37.5a37.789 37.789 0 0 0-14.672 14.672A37.769 37.769 0 0 0 55.642 37.5a37.769 37.769 0 0 0 14.672-14.672zM290.626 159.375V18.75h-.239C289.206 8.231 280.36 0 269.532 0h-28.125c-10.828 0-19.673 8.231-20.855 18.75h-.239v101.044c-2.77-1.612-5.944-2.606-9.375-2.606h-38.602c6.881-8.559 17.414-14.063 29.227-14.063V93.75c-20.677 0-37.5-16.823-37.5-37.5h-9.375c0 20.677-16.823 37.5-37.5 37.5v9.375c11.813 0 22.35 5.503 29.227 14.063H18.751c-10.341 0-18.75 8.409-18.75 18.75 0 9.694 7.425 17.602 16.87 18.558 4.275 45.933 40.233 82.734 85.748 88.411-1.027 4.28-4.134 10.219-13.556 10.219H60.939c-11.348 0-32.813 6.858-32.813 32.813v4.688h262.5v-4.688c0-25.955-21.464-32.813-32.813-32.813-.384 0-9.375-.159-9.375-14.063V210.52c11.873-1.659 42.188-9.947 42.188-51.145zM229.688 21.094c0-6.459 5.255-11.719 11.719-11.719h28.125c6.464 0 11.719 5.259 11.719 11.719v11.719h-51.563V21.094zm-92.076 77.344a47.178 47.178 0 0 0 21.764-21.764 47.133 47.133 0 0 0 21.764 21.764 47.178 47.178 0 0 0-21.764 21.764 47.155 47.155 0 0 0-21.764-21.764zM18.751 145.313c-5.17 0-9.375-4.205-9.375-9.375s4.205-9.375 9.375-9.375h133.177a37.246 37.246 0 0 1 2.761 14.063h9.375c0-4.973.994-9.717 2.761-14.063h44.114c5.17 0 9.375 4.205 9.375 9.375s-4.205 9.375-9.375 9.375H18.751zm7.533 9.375h177.117c-4.697 44.719-42.614 79.688-88.556 79.688s-83.86-34.97-88.561-79.688zm231.529 107.813c.886 0 20.292.23 23.1 18.75H37.834c2.691-18.042 20.897-18.731 23.105-18.75h28.125c15.459 0 21.417-10.65 22.973-18.891.942.023 1.861.141 2.808.141 51.178 0 93.319-39.272 97.973-89.255 9.445-.956 16.87-8.864 16.87-18.558v-93.75h51.563v117.188c0 41.488-35.981 42.177-37.5 42.187h-4.688v37.5c0 18.539 12.263 23.438 18.75 23.438z"/><path d="M42.189 164.063h9.375v9.375h-9.375zM60.939 164.063h9.375v9.375h-9.375zM79.689 164.063h9.375v9.375h-9.375z"/></symbol><symbol id="vacuum-cleaner" viewBox="0 0 290.626 290.626"><path d="M257.813 253.126v-18.751h-9.375V51.563C248.438 23.133 225.305 0 196.875 0s-51.563 23.133-51.563 51.563v84.375a4.696 4.696 0 0 1-4.688 4.688H109.27c-7.908-2.236-16.242-3.708-24.895-4.327v-14.423H42.188v14.063h-9.375C14.719 135.938 0 150.656 0 168.75v60.938c0 12.923 10.514 23.438 23.438 23.438h26.198c5.578 13.725 19.036 23.438 34.739 23.438s29.161-9.712 34.739-23.438h40.261c12.923 0 23.438-10.514 23.438-23.438 0-24.427-10.233-46.383-27.244-62.902 10.444-4.111 17.869-14.273 17.869-26.161V51.563c0-12.923 10.514-23.438 23.438-23.438s23.438 10.514 23.438 23.438v182.813h-9.375v18.75h-32.813v37.5h112.5v-37.5h-32.813zM51.563 131.25H75v4.688H51.563v-4.688zm32.812 135.938c-15.511 0-28.125-12.614-28.125-28.125s12.614-28.125 28.125-28.125 28.125 12.614 28.125 28.125-12.614 28.125-28.125 28.125zm89.063-37.501c0 7.754-6.31 14.063-14.063 14.063h-37.823c.192-1.537.323-3.098.323-4.688 0-20.677-16.823-37.5-37.5-37.5s-37.5 16.823-37.5 37.5c0 1.589.131 3.15.323 4.688h-23.76c-7.753 0-14.063-6.309-14.063-14.063V168.75c0-12.923 10.514-23.438 23.438-23.438H75c55.2 0 98.438 37.064 98.438 84.375zM196.875 18.75c-18.094 0-32.813 14.719-32.813 32.813v89.063c0 9.83-7.627 17.827-17.264 18.6a106.11 106.11 0 0 0-14.269-9.225h8.095c7.753 0 14.063-6.309 14.063-14.063V51.563c0-23.259 18.928-42.188 42.188-42.188s42.188 18.928 42.188 42.188v182.813h-9.375V51.563c0-18.094-14.719-32.813-32.813-32.813zm23.438 225h28.125v9.375h-28.125v-9.375zm60.938 37.5H187.5V262.5h93.751v18.75z"/><path d="M159.375 281.25h9.375v9.375h-9.375zM140.625 281.25H150v9.375h-9.375zM121.875 281.25h9.375v9.375h-9.375zM18.75 159.375h9.375v9.375H18.75zM18.75 178.125h9.375v9.375H18.75zM84.375 220.313c-10.341 0-18.75 8.409-18.75 18.75s8.409 18.75 18.75 18.75 18.75-8.409 18.75-18.75-8.409-18.75-18.75-18.75zm0 28.125c-5.17 0-9.375-4.205-9.375-9.375s4.205-9.375 9.375-9.375 9.375 4.205 9.375 9.375-4.205 9.375-9.375 9.375z"/></symbol><symbol id="wash" viewBox="0 0 290.626 290.626"><path d="M290.625 126.563c0-10.341-8.409-18.75-18.75-18.75h-2.606c1.613-2.77 2.606-5.944 2.606-9.375 0-10.341-8.409-18.75-18.75-18.75h-7.219c-5.152-5.737-12.6-9.375-20.906-9.375-5.325 0-10.294 1.514-14.545 4.097.295-1.322.483-2.686.483-4.097 0-10.341-8.409-18.75-18.75-18.75h-70.313c-16.791 0-32.836 7.017-44.33 19.219-2.386-.286-4.795-.469-7.233-.469-33.6 0-60.938 27.338-60.938 60.938 0 1.631.07 3.248.197 4.852C3.544 145.552 0 156.736 0 168.75v28.125c0 32.17 25.078 58.533 56.7 60.722 2.1 10.791 11.597 18.966 22.988 18.966 11.316 0 20.784-8.067 22.964-18.75h38.475c9.159 20.03 28.847 32.813 51.061 32.813 24.628 0 45.867-15.614 53.386-38.583a27.067 27.067 0 0 0 7.552 1.083c15.511 0 28.125-12.614 28.125-28.125s-12.614-28.125-28.125-28.125c-5.977 0-11.513 1.889-16.073 5.077-2.855-4.059-5.897-7.434-9.619-10.411 1.392-2.616 2.255-5.559 2.255-8.728 0-3.431-.994-6.605-2.606-9.375h30.731c10.341 0 18.75-8.409 18.75-18.75 0-3.511-1.031-6.764-2.714-9.577 9.403-.999 16.775-8.884 16.775-18.549zm-39.141-37.5h1.641c5.17 0 9.375 4.205 9.375 9.375s-4.205 9.375-9.375 9.375h-1.641c1.045-2.939 1.641-6.084 1.641-9.375s-.599-6.436-1.641-9.375zM225 79.688c10.341 0 18.75 8.409 18.75 18.75s-8.409 18.75-18.75 18.75-18.75-8.409-18.75-18.75 8.409-18.75 18.75-18.75zm-103.125-18.75h70.313c5.17 0 9.375 4.205 9.375 9.375s-4.205 9.375-9.375 9.375h-51.563v9.375h57.891c-1.041 2.939-1.641 6.084-1.641 9.375s.6 6.436 1.641 9.375h-28.664c-6.881-8.559-17.414-14.063-29.227-14.063-6.68 0-13.106 1.838-18.731 5.086-7.744-12.281-19.608-21.333-33.262-25.659 9.248-7.814 21.004-12.239 33.243-12.239zm-51.562 18.75c18.103 0 34.809 9.6 44.077 24.858a37.827 37.827 0 0 0-2.958 3.267H60.938c-16.125 0-30.769 6.342-41.681 16.608 3.36-25.21 24.946-44.733 51.056-44.733zm9.375 187.5c-7.753 0-14.063-6.309-14.063-14.063 0-7.753 6.309-14.063 14.063-14.063 7.754 0 14.063 6.309 14.063 14.063-.001 7.753-6.31 14.063-14.063 14.063zm22.966-18.75c-2.18-10.683-11.644-18.75-22.964-18.75-11.241 0-20.644 7.964-22.903 18.539-26.494-2.128-47.409-24.323-47.409-51.352V168.75c0-28.43 23.133-51.563 51.563-51.563h70.313c5.17 0 9.375 4.205 9.375 9.375s-4.205 9.375-9.375 9.375H79.688v9.375h112.5c5.17 0 9.375 4.205 9.375 9.375s-4.205 9.375-9.375 9.375h-84.375v9.375h103.126c5.169.001 9.374 4.205 9.374 9.376 0 5.17-4.205 9.375-9.375 9.375H107.813v9.375h89.063c5.17 0 9.375 4.205 9.375 9.375s-4.205 9.375-9.375 9.375h-89.063v9.375h51.563c5.17 0 9.375 4.205 9.375 9.375s-4.205 9.375-9.375 9.375h-56.722zm127.656-39.827C226.984 213.234 225 218.883 225 225h9.375c0-10.341 8.409-18.75 18.75-18.75s18.75 8.409 18.75 18.75-8.409 18.75-18.75 18.75c-2.878 0-5.747-.727-8.522-2.166l-6.727 3.136c-4.852 21.506-23.639 36.53-45.689 36.53-17.025 0-32.288-9.005-40.561-23.438h7.748c10.341 0 18.75-8.409 18.75-18.75 0-3.431-.994-6.605-2.606-9.375h21.356c10.341 0 18.75-8.409 18.75-18.75 0-3.511-1.031-6.764-2.714-9.577 2.995-.319 5.794-1.275 8.198-2.841 3.637 2.827 6.473 5.948 9.202 10.092zm27.503-44.548h-49.481c1.612-2.77 2.606-5.944 2.606-9.375s-.994-6.605-2.606-9.375h49.481c5.17 0 9.375 4.205 9.375 9.375s-4.204 9.375-9.375 9.375zm14.062-28.125H147.393c1.612-2.77 2.606-5.944 2.606-9.375 0-10.341-8.409-18.75-18.75-18.75h-6.122c4.542-3 9.909-4.688 15.497-4.688 15.511 0 28.125 12.614 28.125 28.125h9.375c0-4.973-.994-9.717-2.761-14.063h28.73c5.152 5.737 12.6 9.375 20.906 9.375s15.75-3.638 20.906-9.375h25.969c5.17 0 9.375 4.205 9.375 9.375.001 5.17-4.203 9.376-9.374 9.376zM220.313 56.25c10.341 0 18.75-8.409 18.75-18.75s-8.409-18.75-18.75-18.75-18.75 8.409-18.75 18.75 8.409 18.75 18.75 18.75zm0-28.125c5.17 0 9.375 4.205 9.375 9.375s-4.205 9.375-9.375 9.375-9.375-4.205-9.375-9.375 4.205-9.375 9.375-9.375zM70.313 56.25c15.511 0 28.125-12.614 28.125-28.125S85.823 0 70.313 0 42.188 12.614 42.188 28.125 54.802 56.25 70.313 56.25zm0-46.875c10.341 0 18.75 8.409 18.75 18.75s-8.409 18.75-18.75 18.75-18.75-8.409-18.75-18.75 8.409-18.75 18.75-18.75z"/><path d="M18.75 201.563h9.375v9.375H18.75zM18.75 182.813h9.375v9.375H18.75zM196.875 262.5v9.375c12.923 0 23.438-10.514 23.438-23.438h-9.375c0 7.754-6.31 14.063-14.063 14.063z"/></symbol><symbol id="window" viewBox="0 0 290.625 290.625"><path d="M0 0v290.625h290.625V0H0zm281.25 281.25H9.375V9.375H281.25V281.25z"/><path d="M267.188 154.688V23.438H108.089a41.983 41.983 0 0 1-.277-4.688h-9.375c0 1.584-.103 3.145-.277 4.688H23.438v243.75h243.75v-112.5zm-9.376-121.875v93.75h-25.963c-8.423-9.802-15.113-20.616-20.381-31.402l30.909-30.909-6.628-6.628-28.416 28.416c-9.595-22.734-13.303-43.884-14.569-53.227h65.048zm-154.687 7.41a51.9 51.9 0 0 0 25.397 25.402 51.88 51.88 0 0 0-25.397 25.402 51.896 51.896 0 0 0-25.397-25.402 51.88 51.88 0 0 0 25.397-25.402zm-70.312-7.41h63.164C90.169 49.172 74.578 60.938 56.25 60.938v9.375c10.472 0 20.044 3.858 27.427 10.2-4.964 12.347-13.383 32.264-24.98 46.05H32.813v-93.75zm0 103.125H56.25v9.375H32.813v-9.375zm-.001 18.75H57.68c2.245 6.136 7.552 21.159 12.909 39.97l-37.777 37.777v-77.747zm.001 103.125v-12.122l40.636-40.636c4.378 16.575 8.419 35.119 10.42 52.758H32.813zm107.811-81.33c-2.939 1.041-6.084 1.641-9.375 1.641v9.375c3.291 0 6.436.6 9.375 1.641v68.672H93.3c-2.231-20.517-7.097-41.986-12.164-60.445l39.366-39.366-6.629-6.628-35.672 35.672c-5.794-19.669-11.208-34.294-12.577-37.913v-16.238c11.362-13.392 19.697-31.716 25.045-44.709 4.875 6.881 7.767 15.258 7.767 24.314h9.375c0-20.039 14.053-36.82 32.813-41.1v105.084zm.001-116.633c-14.138-3.225-25.566-13.556-30.352-27.037h30.352V59.85zM150 257.814v-63.095c5.737 5.152 9.375 12.6 9.375 20.906h9.375c0-15.511 12.614-28.125 28.125-28.125v-9.375c-15.511 0-28.125-12.614-28.125-28.125h-9.375c0 8.302-3.638 15.75-9.375 20.906V32.813h33.281c1.186 9.713 5.156 34.27 16.856 60.422l-32.358 32.358 6.628 6.628 30.028-30.028c5.414 10.542 12.164 21.084 20.559 30.788v16.158c-2.78 7.373-22.448 60.656-27.67 108.675H150zm-.609-75.001a37.762 37.762 0 0 0 14.672-14.672 37.789 37.789 0 0 0 14.672 14.672 37.762 37.762 0 0 0-14.672 14.672 37.769 37.769 0 0 0-14.672-14.672zm108.421 74.995h-51.055c4.839-42.697 21.684-90.797 26.188-103.12h4.917c-1.734 7.931-4.917 23.738-8.128 46.209l9.277 1.327c3.445-24.098 6.914-40.673 8.456-47.541h10.345v103.125zm.001-112.495h-23.438v-9.375h23.438v9.375z"/><path transform="rotate(-45.001 171.095 100.782)" d="M161.151 96.092h19.889v9.375h-19.889z"/><path transform="rotate(-134.999 110.154 208.597)" d="M105.467 192.024h9.375v33.145h-9.375z"/></symbol><symbol id="wipe" viewBox="0 0 290.626 290.626"><path d="M248.438 0H42.188C18.928 0 0 18.928 0 42.188v150c0 12.45 5.456 23.625 14.063 31.355v67.083h9.375v-60.703c5.658 2.827 12.009 4.453 18.75 4.453h65.625v37.5h9.375v-37.5h9.375v46.875h9.375v-46.875h4.927c2.409 31.411 28.678 56.25 60.698 56.25h28.125c33.6 0 60.938-27.337 60.938-60.938v-187.5C290.625 18.928 271.697 0 248.438 0zm32.812 229.688c0 28.43-23.133 51.563-51.563 51.563h-28.125c-28.43 0-51.563-23.133-51.563-51.563v-70.313c0-5.17 4.205-9.375 9.375-9.375s9.375 4.205 9.375 9.375v51.563h9.375v-112.5c0-5.17 4.205-9.375 9.375-9.375s9.375 4.205 9.375 9.375v84.375h9.375V79.688c0-5.17 4.205-9.375 9.375-9.375S225 74.517 225 79.688v103.125h9.375V93.75c0-5.17 4.205-9.375 9.375-9.375s9.375 4.205 9.375 9.375v89.063h9.375V131.25c0-5.17 4.205-9.375 9.375-9.375s9.375 4.205 9.375 9.375v98.438zm.001-114.581c-2.77-1.612-5.944-2.606-9.375-2.606s-6.605.994-9.375 2.606V93.75c0-10.341-8.409-18.75-18.75-18.75-3.511 0-6.764 1.031-9.577 2.719-.998-9.403-8.883-16.781-18.548-16.781-10.341 0-18.75 8.409-18.75 18.75v2.606c-2.77-1.612-5.944-2.606-9.375-2.606-10.341 0-18.75 8.409-18.75 18.75v44.794c-2.77-1.613-5.944-2.606-9.375-2.606-10.342-.001-18.751 8.408-18.751 18.749V225H68.644c9.581-7.739 15.731-19.566 15.731-32.813V56.25c0-18.094-14.719-32.813-32.813-32.813-15.511 0-28.125 12.614-28.125 28.125V93.75h9.375V51.563c0-10.341 8.409-18.75 18.75-18.75C64.486 32.813 75 43.327 75 56.25v135.938C75 210.277 60.281 225 42.188 225c-18.093 0-32.813-14.723-32.813-32.812v-150c0-18.094 14.719-32.813 32.813-32.813h206.25c18.094 0 32.813 14.719 32.813 32.813v72.919z"/><path d="M93.75 28.125h9.375V37.5H93.75zM112.5 28.125h9.375V37.5H112.5zM131.25 28.125h9.375V37.5h-9.375zM248.438 28.125h9.375V37.5h-9.375zM229.688 28.125h9.375V37.5h-9.375zM46.875 257.813h9.375v32.813h-9.375zM107.813 281.25h9.375v9.375h-9.375z"/></symbol></svg>