<svg xmlns="http://www.w3.org/2000/svg" viewBox="0 0 236.321 325.579"><title>Ahorro de energía</title><defs><clipPath id="b"><path d="M0 1981.714h1397.833V0H0v1981.714z"/></clipPath><clipPath id="a"><path d="M0 1981.714h1397.833V0H0v1981.714z"/></clipPath></defs><g clip-path="url(#a)" transform="matrix(1.25 0 0 -1.25 -142.88 1972.81)"><path fill="#ededed" d="M303.36 1329.968c0-6.728-42.32-12.183-94.528-12.183-52.206 0-94.528 5.455-94.528 12.183s42.322 12.183 94.528 12.183c52.207 0 94.53-5.45 94.53-12.18"/></g><g clip-path="url(#b)" transform="matrix(1.25 0 0 -1.25 -142.88 1972.81)"><path fill="#449a5d" d="M251.65 1578.247s-25.768.332-34.886-10.518c-9.12-10.86 1.172-29.61 1.172-29.61s20.237-6.91 29.357 3.94c9.12 10.85 4.358 36.17 4.358 36.17m-74.63-19.686s18.83 1.57 26.06-5.9c7.23-7.466.67-21.707.67-21.707s-14.44-6.1-21.68 1.37c-7.22 7.47-5.05 26.24-5.05 26.24"/><path fill="#254e33" d="M207.176 1491.492s5.09 30.155-12.142 47.787c0 0 12.086-3.91 14.986-14.96 0 0 7.34 29.12 23.002 32.78 0 0-25.846-23.61-15.272-65.61h-10.574z"/><path fill="#4b4b4a" d="M210.58 1464.992h-1.56v9.7h1.56v-9.7z"/><path fill="#636362" d="M211.727 1476.18c0-.898-.863-1.626-1.93-1.626-1.064 0-1.927.728-1.927 1.625 0 .89.863 1.62 1.928 1.62 1.066 0 1.93-.73 1.93-1.63"/><path fill="#818180" d="M214.997 1478.16H204.6s1.137-2.358 5.03-2.49v-.014c.058 0 .11.006.168.007.058 0 .11-.007.17-.007v.013c3.892.13 5.03 2.49 5.03 2.49"/><path fill="#fff" d="M227.308 1521.482H192.29s-5.92.815-4.93-5.994c.992-6.808 2.68-17.96 12.59-21.034l9.872-.428c2.832-.04 9.827.428 9.827.428 9.9 3.074 11.59 14.226 12.58 21.034.99 6.81-4.93 5.994-4.93 5.994"/><path fill="#e4e4e4" d="M219.444 1493.512l-10.348-1.196-8.943 1.196s-.906-16.494 4.487-16.17h10.318c5.393-.324 4.487 16.17 4.487 16.17"/><path fill="#fff" d="M209.767 1494.526l-9.794.425c-9.62 3.03-11.22 14.04-12.18 20.61-.276 1.91-.015 3.34.777 4.25.907 1.05 2.323 1.21 3.087 1.21.296 0 .487-.02.503-.02h35.086c.082.008.273.03.57.03.763 0 2.18-.154 3.086-1.202.793-.915 1.054-2.344.777-4.246-.96-6.58-2.57-17.586-12.19-20.61-.66-.046-6.54-.43-9.36-.43h-.37"/><path fill="#ddd" d="M227.815 1521.512c-.35 0-.57-.03-.57-.03h-35.018s-.22.03-.57.03c-1.458 0-5.158-.53-4.358-6.024.99-6.808 2.68-17.96 12.58-21.034l9.87-.428c.11-.002.24-.003.37-.003 3.03 0 9.45.43 9.45.43 9.904 3.074 11.592 14.227 12.583 21.035.8 5.494-2.9 6.024-4.36 6.024m0-1c.68 0 1.933-.134 2.71-1.032.693-.8.915-2.096.66-3.848-.94-6.45-2.51-17.23-11.784-20.188-.89-.06-6.53-.42-9.265-.42h-.337l-9.74.423c-9.267 2.963-10.835 13.737-11.774 20.185-.253 1.752-.03 3.047.66 3.85.778.896 2.03 1.03 2.71 1.03.264 0 .434-.02.434-.02l.07-.01h35.16l.06.008c.003 0 .173.022.44.022"/><path fill="#ddd" d="M194.19 1519.444c0 .686.034 1.364.08 2.038h-2.044s-5.92.814-4.927-5.994c.99-6.808 2.67-17.96 12.58-21.034l9.83-.427c-9.22 4.74-15.53 14.338-15.53 25.417m31.09 0c0 .686-.04 1.364-.08 2.038h2.04s5.92.814 4.924-5.994c-.99-6.808-2.68-17.96-12.588-21.034l-9.838-.427c9.22 4.74 15.53 14.338 15.53 25.417"/><path fill="#efefef" d="M194.316 1519.444c0 .686.033 1.364.08 2.038h-2.045s-5.91.814-4.92-5.994c.99-6.808 2.68-17.96 12.59-21.034l9.84-.427c-9.22 4.74-15.53 14.338-15.53 25.417m31.09 0c0 .686-.03 1.364-.08 2.038h2.05s5.92.814 4.93-5.994c-.99-6.808-2.68-17.96-12.587-21.034l-9.834-.427c9.22 4.74 15.53 14.338 15.53 25.417"/><path fill="#bebebd" d="M199.805 1493.512v1.942s12.394-1.205 19.848 0l.14-1.942s-9.29-2.813-19.988 0"/><path fill="#449a5d" d="M264.104 1464.76c-.167-.053-.316-.14-.484-.152-12.262-.756-20.364-4.644-25.336-8.186 13.66-9.255 22.64-24.9 22.64-42.64 0-28.427-23.047-51.475-51.476-51.475-28.425 0-51.472 23.048-51.472 51.475 0 17.86 9.1 33.59 22.91 42.82-4.992 3.492-13.034 7.263-25.087 8.006-.17.01-.32.1-.49.153 0 0-8.3-22.12 2.77-36.4-3.58-7.44-4.94-15.79-4.94-24.6 0-16.01 6.9-30.47 17.9-40.82v-26.25l7 4.7 7-4.69v16.067c7-3.79 16.06-5.933 25.15-5.933 8.97 0 17.845 2.08 24.845 5.775v-15.91l7.5 4.692 7.5-4.692v25.957c11 10.365 16.952 24.95 16.952 41.12 0 8.65-2.25 16.85-5.706 24.196 11.56 14.257 2.8 36.807 2.8 36.807"/><path fill="#4aad68" d="M229.112 1431.69c1.905 0 3.45-1.542 3.45-3.45 0-.64-.19-1.234-.494-1.748-.35 1.22-1.332 2.175-3.063 2.175-1.39 0-2.448-.64-3.146-1.532-.12.35-.2.718-.2 1.104 0 1.9 1.54 3.45 3.45 3.45m-19.67-57.49c-17.74 0-32.13 10.26-32.13 22.91s14.39 22.91 32.13 22.91c17.75 0 32.13-10.26 32.13-22.91 0-12.66-14.39-22.92-32.14-22.92m-16.05 54.03c0-.495-.11-.957-.29-1.376-.38 1.156-1.35 2.04-3.02 2.04-1.55 0-2.69-.78-3.37-1.83-.13.365-.22.753-.22 1.162 0 1.906 1.545 3.45 3.45 3.45 1.903 0 3.445-1.544 3.445-3.45m-35.42-14.46c0-28.428 23.045-51.476 51.47-51.476 28.43 0 51.475 23.05 51.475 51.474 0 17.74-8.98 33.388-22.64 42.64-8.224 5.576-18.15 8.83-28.834 8.83-10.564 0-20.385-3.19-28.56-8.65-13.81-9.23-22.91-24.96-22.91-42.816"/><path fill="#bfda9c" d="M223.228 1391.766c-2.956 0-5.35 2.398-5.35 5.356 0 2.953 2.394 5.35 5.35 5.35 2.958 0 5.354-2.397 5.354-5.35 0-2.958-2.396-5.356-5.354-5.356m-27.56 0c-2.95 0-5.35 2.398-5.35 5.356 0 2.953 2.4 5.35 5.35 5.35 2.96 0 5.356-2.397 5.356-5.35 0-2.958-2.397-5.356-5.355-5.356m45.91 5.355c0 12.66-14.39 22.92-32.14 22.92-17.74 0-32.13-10.26-32.13-22.91s14.39-22.91 32.13-22.91c17.75 0 32.13 10.26 32.13 22.92"/><path fill="#254e33" d="M195.67 1402.47c-2.954 0-5.352-2.396-5.352-5.348 0-2.958 2.398-5.357 5.35-5.357 2.96 0 5.356 2.4 5.356 5.357 0 2.952-2.397 5.35-5.355 5.35m27.55-.002c-2.96 0-5.35-2.396-5.35-5.348 0-2.958 2.39-5.357 5.35-5.357 2.96 0 5.35 2.4 5.35 5.357 0 2.952-2.4 5.35-5.36 5.35m-36.72 25.768c0-.41.084-.798.216-1.164.682 1.053 1.822 1.83 3.37 1.83 1.67 0 2.64-.883 3.02-2.04.182.42.29.882.29 1.373 0 1.9-1.543 3.45-3.45 3.45-1.9 0-3.448-1.55-3.448-3.45m42.503.42c1.733 0 2.715-.96 3.064-2.18.304.51.493 1.11.493 1.75 0 1.91-1.54 3.45-3.44 3.45s-3.45-1.54-3.45-3.45c0-.39.083-.76.197-1.11.7.89 1.756 1.53 3.147 1.53"/></g></svg>