<svg xmlns="http://www.w3.org/2000/svg" id="Capa_1" xmlns:xlink="http://www.w3.org/1999/xlink" viewBox="0 0 568.6 483.5">
  <defs id="defs4678"><symbol id="XMLID_2912_"><g id="XMLID_2913_"><path id="XMLID_3303_" fill="#fff" d="M188.8 228.4h-50.6v-26.6l25.3-25.3 25.3 25.3z" class="st15"/><g id="XMLID_3296_"><g id="XMLID_3300_"><g id="XMLID_3301_"><path id="XMLID_3302_" fill="#cf9c4e" d="M159.1 212.4h8.3v15.8h-8.3z" class="st21"/></g></g><g id="XMLID_3297_"><g id="XMLID_3298_"><path id="XMLID_3299_" fill="#fdd274" d="M159.8 213h7.6v15.2h-7.6z" class="st22"/></g></g></g><g id="XMLID_3291_"><g id="XMLID_3292_"><path id="XMLID_3295_" fill="#aa1737" d="M193.1 202.12l-2.54 2.55L162 176.1l2.54-2.55z" class="st23"/><path id="XMLID_3294_" fill="#eb6477" d="M193.64 201.5l-2.55 2.54-28.6-28.56 2.53-2.55z" class="st24"/><path id="XMLID_3293_" fill="#e3566c" d="M164.55 170.3l2.54 2.55-31.3 31.25-2.55-2.55z" class="st10"/></g></g><g id="XMLID_3277_"><g id="XMLID_3284_"><path id="XMLID_3290_" fill="#e5e6e7" d="M152.5 199.2h8.5v8.2h-8.5z" class="st14"/><path id="XMLID_3289_" fill="#c4c09c" d="M153 199.6h3.5v7.4H153z" class="st25"/><path id="XMLID_3288_" fill="#c4c09c" d="M157 199.6h3.5v7.4H157z" class="st25"/><g id="XMLID_3285_" fill="#73c8de"><path id="XMLID_3287_" d="M153.2 199.7h3.2v7.2h-3.2z" class="st26"/><path id="XMLID_3286_" d="M157.2 199.7h3.2v7.2h-3.2z" class="st26"/></g></g><path id="XMLID_3279_" fill="#4fbdce" d="M153.2 199.7h1.5l-1.5 7.2z" class="st27"/><path id="XMLID_3278_" fill="#4fbdce" d="M157.2 199.7h1.5l-1.5 7.2z" class="st27"/></g><g id="XMLID_3267_"><g id="XMLID_3270_"><path id="XMLID_3276_" fill="#e6e4d2" d="M145.8 212.4h8.5v9.5h-8.5z" class="st28"/><path id="XMLID_3275_" fill="#c4c09c" d="M146.3 212.8h3.5v8.6h-3.5z" class="st25"/><path id="XMLID_3274_" fill="#c4c09c" d="M150.3 212.8h3.5v8.6h-3.5z" class="st25"/><g id="XMLID_3271_" fill="#73c8de"><path id="XMLID_3273_" d="M146.5 213h3.2v8.4h-3.2z" class="st26"/><path id="XMLID_3272_" d="M150.5 213h3.2v8.4h-3.2z" class="st26"/></g></g><path id="XMLID_3269_" fill="#4fbdce" d="M146.5 213h1.5l-1.5 8.4z" class="st27"/><path id="XMLID_3268_" fill="#4fbdce" d="M150.5 213h1.5l-1.5 8.4z" class="st27"/></g><g id="XMLID_2925_"><g id="XMLID_2928_"><path id="XMLID_3266_" fill="#e6e4d2" d="M172.6 212.4h8.5v9.5h-8.5z" class="st28"/><path id="XMLID_3265_" fill="#c4c09c" d="M173.1 212.8h3.5v8.6h-3.5z" class="st25"/><path id="XMLID_3264_" fill="#c4c09c" d="M177.1 212.8h3.5v8.6h-3.5z" class="st25"/><g id="XMLID_2929_" fill="#73c8de"><path id="XMLID_2931_" d="M173.3 213h3.2v8.4h-3.2z" class="st26"/><path id="XMLID_2930_" d="M177.3 213h3.2v8.4h-3.2z" class="st26"/></g></g><path id="XMLID_2927_" fill="#4fbdce" d="M173.3 213h1.5l-1.5 8.4z" class="st27"/><path id="XMLID_2926_" fill="#4fbdce" d="M177.3 213h1.5l-1.5 8.4z" class="st27"/></g><g id="XMLID_2915_"><g id="XMLID_2918_"><path id="XMLID_2924_" fill="#e5e6e7" d="M165.9 199.2h8.5v8.2h-8.5z" class="st14"/><path id="XMLID_2923_" fill="#c4c09c" d="M166.4 199.6h3.5v7.4h-3.5z" class="st25"/><path id="XMLID_2922_" fill="#c4c09c" d="M170.4 199.6h3.5v7.4h-3.5z" class="st25"/><g id="XMLID_2919_" fill="#73c8de"><path id="XMLID_2921_" d="M166.5 199.7h3.2v7.2h-3.2z" class="st26"/><path id="XMLID_2920_" d="M170.6 199.7h3.2v7.2h-3.2z" class="st26"/></g></g><path id="XMLID_2917_" fill="#4fbdce" d="M166.5 199.7h1.5l-1.5 7.2z" class="st27"/><path id="XMLID_2916_" fill="#4fbdce" d="M170.6 199.7h1.5l-1.5 7.2z" class="st27"/></g><path id="XMLID_2914_" fill="#e5e6e7" d="M163.5 176.5l-25.3 25.3v1.9l25.3-25.3 21.8 21.8v28.2h3.5v-26.6z" class="st14"/></g></symbol><symbol id="XMLID_2676_"><g id="XMLID_2680_"><ellipse id="XMLID_2686_" cx="92.3" cy="233" fill="#d5d5d7" class="st29" rx="7" ry="1.6"/><g id="XMLID_2681_"><g id="XMLID_2682_"><g id="XMLID_2683_"><path id="XMLID_2685_" fill="#9a6015" d="M90.6 207.8h-2.5l-.4 25.5h4.5z" class="st30"/><path id="XMLID_2684_" fill="#542a10" d="M92.2 233.3h-2.6v-25.5h1z" class="st31" opacity=".4"/></g></g></g></g><g id="XMLID_92_"><circle id="XMLID_105_" cx="89.6" cy="192.6" r="19.9" fill="#45ac64" class="st4"/><g id="XMLID_106_"><path id="XMLID_146_" fill="#3d9758" d="M89.6 172.8H89c6.7 1.8 11.7 7.9 11.7 15.2 0 8.7-7 15.7-15.7 15.7-7.3 0-13.4-5-15.2-11.7v.6c0 11 8.9 19.9 19.9 19.9 11 0 19.9-8.9 19.9-19.9-.1-10.9-9-19.8-20-19.8z" class="st5"/></g></g></symbol><symbol id="XMLID_2645_"><g id="XMLID_2696_"><path id="XMLID_2702_" fill="#e5e6e7" d="M112.85 151.46l-21.6-5.6.46-1.75 21.6 5.66z" class="st14"/><path id="XMLID_2701_" fill="#efa70c" d="M103.5 149v.1c-.6 2.1-2.7 3.4-4.9 2.9l-4.5-1.2c-2.1-.6-3.4-2.7-2.9-4.9v-.1l12.3 3.2z" class="st2"/><path id="XMLID_2699_" fill="#e5e6e7" d="M113.63 149.73l21.58-5.6.5 1.74-21.6 5.6z" class="st14"/><path id="XMLID_2698_" fill="#efa70c" d="M123.4 149v.1c.6 2.1 2.7 3.4 4.9 2.9l4.5-1.2c2.1-.6 3.4-2.7 2.9-4.9v-.1l-12.3 3.2z" class="st2"/></g><path id="XMLID_2695_" fill="#fff" d="M109.7 209.1h7.5V227h-7.5z" class="st15"/><path id="XMLID_2694_" fill="#fff" d="M111.9 141.5h3v66.3h-3z" class="st15"/><path id="XMLID_2693_" fill="#e5e6e7" d="M109.7 206.4h7.5v2.8h-7.5z" class="st14"/><path id="XMLID_2692_" fill="#e5e6e7" d="M110.5 165.7h5.8v2.8h-5.8z" class="st14"/><path id="XMLID_2691_" fill="#e5e6e7" d="M117.8 225.4h-8.7c-1.7 0-3 1.3-3 3h14.8c-.1-1.6-1.4-3-3.1-3z" class="st14"/><path id="XMLID_2690_" fill="#e5e6e7" d="M109.8 143.3h7.3c1 0 1.8-.8 1.8-1.8H108c0 1 .8 1.8 1.8 1.8z" class="st14"/><g id="XMLID_2646_"><path id="XMLID_2689_" fill="#e5e6e7" d="M101 117.4h24.9v24.1H101z" class="st14"/><g id="XMLID_2647_" fill="#3eabdd"><g id="XMLID_2677_"><path id="XMLID_2688_" d="M103 119.3h4.2v4.2H103z" class="st16"/><path id="XMLID_2687_" d="M108.6 119.3h4.2v4.2h-4.2z" class="st16"/><path id="XMLID_2679_" d="M114.1 119.3h4.2v4.2h-4.2z" class="st16"/><path id="XMLID_2678_" d="M119.7 119.3h4.2v4.2h-4.2z" class="st16"/></g><g id="XMLID_2671_"><path id="XMLID_2675_" d="M103 124.7h4.2v4.2H103z" class="st16"/><path id="XMLID_2674_" d="M108.6 124.7h4.2v4.2h-4.2z" class="st16"/><path id="XMLID_2673_" d="M114.1 124.7h4.2v4.2h-4.2z" class="st16"/><path id="XMLID_2672_" d="M119.7 124.7h4.2v4.2h-4.2z" class="st16"/></g><g id="XMLID_2666_"><path id="XMLID_2670_" d="M103 130.1h4.2v4.2H103z" class="st16"/><path id="XMLID_2669_" d="M108.6 130.1h4.2v4.2h-4.2z" class="st16"/><path id="XMLID_2668_" d="M114.1 130.1h4.2v4.2h-4.2z" class="st16"/><path id="XMLID_2667_" d="M119.7 130.1h4.2v4.2h-4.2z" class="st16"/></g><g id="XMLID_2648_"><path id="XMLID_2665_" d="M103 135.5h4.2v4.2H103z" class="st16"/><path id="XMLID_2664_" d="M108.6 135.5h4.2v4.2h-4.2z" class="st16"/><path id="XMLID_2650_" d="M114.1 135.5h4.2v4.2h-4.2z" class="st16"/><path id="XMLID_2649_" d="M119.7 135.5h4.2v4.2h-4.2z" class="st16"/></g></g></g></symbol><symbol id="XMLID_1325_"><path id="XMLID_1423_" fill="#e5e6e7" d="M197.7 15.2h-.4C196 6.6 188.7 0 179.7 0c-8.2 0-15.1 5.6-17.2 13.1-1.5-.8-3.2-1.4-5.1-1.4-5.8 0-10.4 4.7-10.4 10.4 0 .6.1 1.3.2 1.9-.5-.1-.9-.1-1.4-.1-5.8 0-10.4 4.7-10.4 10.4 0 5.8 4.7 10.4 10.4 10.4 2 0 3.8-.6 5.4-1.5 12.9 8.7 41.4 5.9 43.2.1 1.1.3 2.2.4 3.3.4 7.9 0 14.3-6.4 14.3-14.3 0-7.8-6.4-14.2-14.3-14.2z" class="st14"/></symbol></defs>
  <style id="style4137">
    #XMLID_3416_ {
      transform-origin: 272.5px 127.6px;
      animation: rotate 4s linear infinite;
    }
    @keyframes rotate {
      from {
        transform: rotate(0deg);
      }
      to {
        transform: rotate(360deg);
      }
    }
    #XMLID_245_ {
      transform-origin: 259.8px 58.7px;
      animation: shine 5s cubic-bezier(.49,.05,.32,1.04) infinite alternate;
    }
    @keyframes shine {
      from {
        transform: scale(1);
      }
      to {
        transform: scale(1.2);
      }
    }
    
    .st0{fill:url(#XMLID_69_);} .st1{fill:url(#XMLID_73_);} .st2{fill:#EFA70C;} .st3{fill:url(#XMLID_75_);} .st4{fill:#45AC64;} .st5{fill:#3D9758;} .st6{fill:#327F49;} .st7{fill:#31AC6A;} .st8{fill:#BED899;} .st9{fill:#98C260;} .st10{fill:#E3566C;} .st11{fill:#2D2D2D;} .st12{fill:#FDFDFC;} .st13{fill:#F4F3F4;} .st14{fill:#E5E6E7;} .st15{fill:#FFFFFF;} .st16{fill:#3EABDD;} .st17{fill:#D0D2D3;} .st18{fill:#9BD3D6;} .st19{fill:#76C6CE;} .st20{fill:#7DBA47;} .st21{fill:#CF9C4E;} .st22{fill:#FDD274;} .st23{fill:#AA1737;} .st24{fill:#EB6477;} .st25{fill:#C4C09C;} .st26{fill:#73C8DE;} .st27{fill:#4FBDCE;} .st28{fill:#E6E4D2;} .st29{fill:#D5D5D7;} .st30{fill:#9A6015;} .st31{opacity:0.4;fill:#542A10;} .st32{fill:#C24B5D;} .st33{fill:#FFFDF5;} .st34{fill:#F9B510;} .st35{fill:#A07741;} .st36{fill:#7B573C;} .st37{fill:#DA9F58;}
  </style>
  <g id="XMLID_3461_"><radialGradient id="XMLID_69_" cx="284.49" cy="453.37" r="289.17" gradientTransform="matrix(.9697 0 0 .1194 8.448 394.84)" gradientUnits="userSpaceOnUse"><stop id="stop4141" offset="0" stop-color="#221E20"/><stop id="stop4143" offset=".06" stop-color="#27272F" stop-opacity=".94"/><stop id="stop4145" offset=".19" stop-color="#313749" stop-opacity=".81"/><stop id="stop4147" offset=".34" stop-color="#39435E" stop-opacity=".66"/><stop id="stop4149" offset=".5" stop-color="#3F4C6D" stop-opacity=".5"/><stop id="stop4151" offset=".69" stop-color="#425175" stop-opacity=".31"/><stop id="stop4153" offset="1" stop-color="#435378" stop-opacity="0"/></radialGradient><ellipse id="XMLID_3503_" cx="284.3" cy="449" class="st0" rx="284.3" ry="34.5"/><g id="XMLID_3462_"><linearGradient id="XMLID_73_" x1="284.32" x2="284.32" y1="230.48" y2="454.86" gradientUnits="userSpaceOnUse"><stop id="stop4158" offset="0" stop-color="#38456B"/><stop id="stop4160" offset=".29" stop-color="#323D60"/><stop id="stop4162" offset=".79" stop-color="#212841"/><stop id="stop4164" offset="1" stop-color="#191E33"/></linearGradient><path id="XMLID_3502_" d="M48.6 229.1c0 121.7 105.5 220.3 235.7 220.3S520 350.7 520 229.1H48.6z" class="st1"/><g id="XMLID_3464_"><g id="XMLID_3465_"><defs id="defs4169"><path id="XMLID_3466_" d="M48.6 229.1c0 121.7 105.5 220.3 235.7 220.3S520 350.7 520 229.1H48.6z"/></defs><clipPath id="XMLID_74_"><use id="use4173" xlink:href="#XMLID_3466_" overflow="visible"/></clipPath></g></g></g><g id="XMLID_67_"><path id="XMLID_68_" d="M465.7 369.2l-.4-3-.8 1.3.4-1.3-.8 1.3-1.3-1.7-.4 2.1-.4-2.5-.4 1.7-3.8-.9-.4 1.7-2.5.4-2.1 5.5h1.7l-1.3 1.7-.8-1.7-3.8 8 .9-4.6-4.6 3.8 6.3-5.8 2.1-8.4-7.9 3.4-2.1 6.3V374l-1.7 3.4-.4-2.9-1.7 3.8 1.7-6.3 5.8-10.5-.8.4.8-3.4-3.8-.8-3-11.7-.8-.4-.4 2.1-3.4-3.8-8.8-2.1-13.8 5.8-6.3-4.2-1.7 3.6.8-6.3-3.4-2.5-5-2.1-1.3-.4-2.9 1.7-.8-5.5-4.2-1.3-3.4 1.7-1.3-.8-2.1-2.1 5.1-3.8-12.2 4.2 3.4.4-7.1 4.6-6.7-1.7-10.5 3.8-1.7-3.8-7.1-.4-2.5-3.8-.8 3.8 2.1-.8.4 1.7-2.1-.4-7.5 6.7 2.5 4.6 1.3 1.3v2.9l-3.8 2.1-2.5-4.2.4-1.3 2.1-5-3-5 4.6-4.2-3.4-1.7-8.4 9.2-5 .8-.8 2.5H315l-2.1 2.1-2.1 5v.8l.4 3.4-7.2 7.1 1.3 3.8-7.1-6.3-7.1-1.7h-3.8l-2.1 1.7-6.7 5.1-5-1.7.8 1.3h-2.9l-4.6-5.8-6.3-7.2 2.9-20.1-1.7-5.9-10.1-3.4-19.2 3.8-5-.8 4.2-7.5v-9.2H230l1.7-3 1.7 4.2 2.1-9.6-2.1-.4 5-11.3-8.4-1.3-12.6 5-2.1 11.3-5 6.3-4.6-1.2-13 4.6-4.6-4.2-4.2.4-12.6-21.8-.4-3.8-.4-12.6.4-4.6 2.5-1.3 1.3-3.8-1.7-8.4h-2l2.1-.4 1.2-5.5 4.6-2.1-1.7-1.7 3.8.4-1.3.8 6.3-3.8.4-4.2 2.9.8-1.7 1.3 5.4-2.1-.4-2.1.4 1.7 8.8.9 2.5-2.1 5.8 4.6 2.1-2.1 2.1 1.3-.8-2.9 2.5.4 2.5 3.8 2.1-2.1-4.2-2.1 2.5-2.1-2.5-.8-4.2-.9 8.1-1.1H86.5l.3 1.1 1.3 5.1-1.3 1.2 1.3 1.7v-2.8l.4 1.6 5.5 7.5 3.4.4-.4 3.8 7.5 7.5-1.7 3.8 7.5 4.6v2.5L122 279l4.2 9.6-2.1 4.6 1.7 1.3-2.9.8 1.2 2.5 12.2 11.7 9.6 2.5 5.4 4.6 6.7 2.5 21.8 8 14.3-3.8 19.2 13 18 3.8-1.7-.4 8.4-1.7.8 2.9-2.5.4 13.4 10.5-1.7 1.3 1.7.8v5.4l3.8 1.7 1.7-1.7-1.3-1.3-1.7-1.3 2.9 1.3h.4l7.5 5 .4 3.8h1.7l-.9-2.1 3.4 4.2 1.3-2.1h5.8l1.7 2.9 2.5-1.7 1.3 4.2 2.9-.4 2.5-2.1v-.4l-2.9-3.8 2.5-2.1 5.5-4.2 4.2 3.8 2.5-.8-2.1 3.4 7.1 7.1-.8 15.1 2.9 1.2-.4 1.7-3.7 6.7-4.6 2.1v4.2l-2.9 1.3.8 3.4-6.7 2.5-.8.4.8 2.1.4 1.3-.4.4-3.4 3.3 1.7 1.7-4.2 2.5v7.5l4.2 2.1.1-.2.7 1.4.4-.8.8-.8h-1.8l1.4-2.1.4-1.3 1.3 2.1-2.1 5-7.9 6.3 2.4 7.3h3.4c74.2 0 140.4-32.1 183.6-82.2l-.5-1.8-1.8 4.1z" class="st2"/><path id="XMLID_70_" d="M69.6 229.7l8 9.7-1.7 3.3 1.7 1.7-6.3-1.3 7.6 7.6 2.4-1.3 5.1 6.3-.4 8.4 10 9.2 1.7 4.6 3.3-1.7-1.6-5.8-5.1-2.6-3.3-14.6-6.3-8.4-.4-4.6-8.3-11.1h-6.7z" class="st2"/><path id="XMLID_71_" d="M244.1 229.1h-4.4l1.2 1.9z" class="st2"/><path id="XMLID_72_" d="M256.4 234.3v6.7l2.1-.8-.9 3.4 2.1 3.3 2.1-.8 2.5 6.7 4.2 1.6v3.4l3-.8v1.2l1.2-12.5-7.8-16.6h-14.1z" class="st2"/></g></g><radialGradient id="XMLID_75_" cx="284.33" cy="1766.51" r="238.81" gradientTransform="matrix(.9697 0 0 .1056 8.448 42.96)" gradientUnits="userSpaceOnUse"><stop id="stop4181" offset="0" stop-color="#92CBC3"/><stop id="stop4183" offset=".88" stop-color="#45AC64"/></radialGradient><ellipse id="XMLID_1992_" cx="284.2" cy="229.4" class="st3" rx="235.3" ry="21.9"/><g id="arriba">
<circle id="XMLID_528_" cx="259.8" cy="58.7" r="23.3" class="st2"/><g id="XMLID_245_"><path id="XMLID_1086_" d="M276.3 81.3l14.3 8.2-8.1-14.4z" class="st2"/><path id="XMLID_951_" d="M243.4 36l-14.3-8.1 8.1 14.3z" class="st2"/><path id="XMLID_946_" d="M229.1 89.5l14.3-8.2-6.2-6.2z" class="st2"/><path id="XMLID_944_" d="M290.6 27.9L276.3 36l6.2 6.2z" class="st2"/><path id="XMLID_627_" d="M259.8 15.1L255.4 31h8.9z" class="st2"/><path id="XMLID_547_" d="M259.8 102.2l4.5-15.9h-8.9z" class="st2"/><path id="XMLID_396_" d="M232.2 54.3l-15.9 4.4 15.9 4.4z" class="st2"/><path id="XMLID_368_" d="M287.5 63.1l15.9-4.4-15.9-4.4z" class="st2"/></g><g id="XMLID_3446_"><path id="XMLID_3460_" d="M506.3 222.2l-93.9-103.1-24.2 28.9-88.6-135.5-64.3 92.5-31.1-23-57.5 93.5-82.5 46.7z" class="st4"/><path id="XMLID_3459_" d="M60.4 223l222.1-27.1-6.7 10.5 43.2 6.9 187.3 8.9z" class="st5"/><path id="XMLID_3458_" d="M299.6 12.5l18.8 64.9 18.7 65 17.3-31.9 19.3 111.9 132.6-.2-93.9-103.1-24.2 28.9z" class="st5"/><path id="XMLID_3457_" d="M412.4 119l93.9 103.2-82-70.6-17.2 6.1z" class="st6"/><path id="XMLID_3456_" d="M232.3 153.4l67.3-140.9-64.3 92.5-31-22.7-57.5 93L60.4 223l110.2-41.6 49.2-73.1z" class="st7"/><g id="XMLID_3453_"><path id="XMLID_3455_" d="M266.2 60.5l33.4-48.2 40.8 62.4L308 55.3l-6.9 20.1-17.4-19.3z" class="st8"/><path id="XMLID_3454_" d="M301.1 75.4l-1.5-63.1 40.8 62.4L308 55.3z" class="st9"/></g><g id="XMLID_3450_"><path id="XMLID_3452_" d="M235.3 105l-31.1-23-26 42.3 15.4-14.8 7.6 17 15.1-25.9z" class="st8"/><path id="XMLID_3451_" d="M201.2 126.5l3-44.5 31.1 23-19-4.4z" class="st9"/></g><g id="XMLID_3447_"><path id="XMLID_3449_" d="M388.2 148l24.2-29 37.3 40.8-32.7-17.7-9.9 15.6-4.5-14.1z" class="st8"/><path id="XMLID_3448_" d="M407.1 157.7l5.3-38.7 37.3 40.8-32.7-17.7z" class="st9"/></g></g><g id="XMLID_186_"><g id="XMLID_2722_"><path id="XMLID_2911_" d="M376.4 173.4c1 .4 1.9.9 2.9 1.3s1.9.9 2.9 1.3c.1.1.3 0 .4-.1.1-.1.2-.2.2-.3.1-.1.1-.1.1-.2s.1-.2.1-.4-.1-.3-.2-.4c-1-.4-1.9-.9-2.9-1.3s-1.9-.9-2.9-1.3c-.1-.1-.3 0-.4.1-.3.3-.4.5-.4.9 0 .2.1.3.2.4z" class="st10"/><path id="XMLID_3280_" d="M383.5 175.6l-.2-.1c0 .1-.1.2-.1.2l.2.1v.1l-.7 1.5-.1.1-4-.8c-.2 0-.3.1-.4.2l-.4.9-.2-.1-.4-.2-.1.3.2.1-.3.7c.6.1 1 .2 1.3.3l.2-.5.2.1.1-.3-.4-.2-.2-.1.4-.9.1-.1 4 .8c.2 0 .3-.1.4-.2l.7-1.5c-.1-.1-.2-.3-.3-.4z" class="st11"/></g><g id="XMLID_1561_"><path id="XMLID_1560_" d="M375.8 182.5c.2.3.5.5.9.4.4-.2.5-.5.4-.9-.1-.6-.3-1.1 0-1.7.3-.6.7-.8 1.3-.7.3 0 .2.2.2.4-.1 1-.3 2-.4 3-.2 1.8-.5 3.5-.7 5.3 0 .3-.1.4-.4.3h-5.7c-.3 0-.4-.1-.4-.4l-.9-6.7c-.1-.5-.1-1.1-.2-1.6 0-.1-.1-.2 0-.3.1-.1.2 0 .3.1.6.3.9 1.3.7 2-.1.3-.2.6-.2.9 0 .5.3.9.8.9.3 0 .7-.5.6-.9 0-.3-.1-.5-.2-.8-.2-.6 0-1.2.3-1.7.1-.2.3-.3.4 0 .5.7.7 1.5.5 2.4-.1.4-.2.8-.2 1.2 0 .6.4 1 .9 1s.9-.5.9-1.1c0-.2-.1-.4-.1-.6v-.1c0-.2-.1-.3-.1-.5v-.1c-.1-.5-.1-.9.1-1.3v-.1c0-.2.1-.3.2-.5.2 0 .2-.1.1-.3.1-.2.2-.4.5-.4.3.1.4.3.5.6.1.1.1.2.1.3v.1c.1.2.1.3 0 .5v.3c0 .1 0 .1-.1.2 0 .1-.1.3-.1.4v.3c-.1 0-.1.1 0 .1z" class="st12"/><path id="XMLID_1538_" d="M374.1 179.4h-4.5c-.3 0-.5 0-.5-.4s.2-.4.5-.4h8.9c.3 0 .5.1.5.4 0 .4-.2.4-.5.4h-4.4z" class="st13"/><path id="XMLID_1537_" d="M372.6 179.6h2.3c-.3.3-.5.7-.6 1-.3.6-.3 1.3-.1 2 .1.3.2.7.2 1.1 0 .4-.3.7-.7.7-.4 0-.7-.3-.7-.7 0-.2 0-.5.1-.7.5-1.2.3-2.3-.5-3.4z" class="st10"/><path id="XMLID_1524_" d="M370.5 179.6h1.7c-.1.2-.2.3-.3.5-.3.6-.4 1.1-.2 1.7.1.2.1.4.1.6 0 .3 0 .5-.2.6-.2.1-.4.1-.5 0-.2-.2-.3-.4-.2-.7.1-.3.2-.7.2-1 0-.5-.2-1.1-.6-1.7z" class="st10"/><path id="XMLID_1519_" d="M375.7 179.6h1.5l-.3.6c-.3.5-.2 1.1 0 1.7.1.3.2.6-.1.8-.2.1-.3.1-.5 0-.3-.2-.2-.5-.1-.8.1-.9 0-1.6-.5-2.3z" class="st10"/></g></g><use id="use9105" width="100%" height="100%" xlink:href="#XMLID_2645_" transform="translate(341.913 -.028)"/><g id="XMLID_2576_"><use id="use8909" xlink:href="#XMLID_2645_"/></g><use id="use8854" width="100%" height="100%" xlink:href="#XMLID_1325_" transform="translate(25.963 51.3) scale(.5057)"/><use id="use8886" width="100%" height="100%" xlink:href="#XMLID_1325_" transform="translate(243.494 24.772) scale(.8106)"/><g id="XMLID_3406_"><g id="XMLID_3410_">
<path id="XMLID_3415_" d="M269.4 221.3h6.1l-2-92.4h-2.1z" class="st15"/><path id="XMLID_3414_" d="M269.4 221.3h2.3l.5-92.4h-.8z" class="st17"/>
<g id="XMLID_3416_"><g id="XMLID_3423_"><path id="XMLID_3425_" d="M263.4 97.4l9.3 30.5s3-19.7-9.3-30.5z" class="st14"/><path id="XMLID_3424_" d="M263.4 97.4l9.3 30.5s-13.5-14.7-9.3-30.5z" class="st15"/></g><g id="XMLID_3420_"><path id="XMLID_3422_" d="M250.9 149.9l21.9-23.2c.1.1-6 19-21.9 23.2z" class="st14"/><path id="XMLID_3421_" d="M250.9 149.9l21.9-23.2c.1.1-18.5 7.1-21.9 23.2z" class="st15"/></g><g id="XMLID_3417_"><path id="XMLID_3419_" d="M303.3 134.4l-31-7.5c-.1 0 19.4-4.1 31 7.5z" class="st14"/><path id="XMLID_3418_" d="M303.3 134.4l-31-7.5c-.1 0 15.3 12.6 31 7.5z" class="st15"/></g></g>
<path id="XMLID_3413_" d="M269 127.6c0 1.9 1.5 3.4 3.4 3.4s3.4-1.5 3.4-3.4-1.5-3.4-3.4-3.4c-1.8.1-3.4 1.6-3.4 3.4z" class="st15"/><path id="XMLID_3412_" d="M269.9 127.6c0 1.4 1.1 2.6 2.6 2.6 1.4 0 2.6-1.1 2.6-2.6 0-1.4-1.1-2.6-2.6-2.6-1.5.1-2.6 1.2-2.6 2.6z" class="st18"/><path id="XMLID_3411_" d="M271.5 125.3c-.5.5-.9 1.1-.9 1.9 0 1.4 1.1 2.6 2.6 2.6.3 0 .6-.1.9-.2-.4.4-1 .6-1.6.6-1.4 0-2.6-1.1-2.6-2.6 0-1.1.7-2 1.6-2.3z" class="st19"/></g><g id="XMLID_3407_"><path id="XMLID_3409_" d="M264.4 223c0-2.5 3.6-4.5 8-4.5s8 2 8 4.5h-16z" class="st14"/><path id="XMLID_3408_" d="M272.4 218.5c.4 0 .8 0 1.2.1-3.8.3-6.7 2.2-6.7 4.4h-2.4c-.1-2.5 3.5-4.5 7.9-4.5z" class="st17"/></g></g><path id="XMLID_3365_" d="M109 228.4c0-11.9 79.9-21.6 178.5-21.6S466 216.5 466 228.4H109z" class="st20"/><use id="use8918" width="100%" height="100%" xlink:href="#XMLID_1325_" transform="translate(314.677 53.263) scale(.7844)"/><g id="XMLID_3497_"><path id="XMLID_3498_" d="M428.9 216.2v1c0 .3-.3.6-.6.6h-2.9c-.3 0-.6-.3-.6-.6v-1c0-.3.2-.5.5-.6v-1.1c0-.2-.2-.4-.4-.4h-.1c-.5 1-1.6 1.6-2.7 1.6s-2.1-.6-2.7-1.6H415c-.3 0-.6-.3-.6-.6v-1.9c0-.3.3-.6.6-.6h4.5c.4-.6.9-1.1 1.6-1.3v-.8h-1.6c-.3 0-.6-.3-.6-.6v-.8c0-.3.3-.6.6-.6h1.6v-.1c0-.3.3-.6.6-.6h.9c.3 0 .6.3.6.6v.1h1.6c.3 0 .6.3.6.6v.8c0 .3-.3.6-.6.6h-1.6v.8c.7.2 1.2.7 1.6 1.3h1.1c1.4 0 2.5 1.1 2.5 2.5v2.1c.3 0 .5.3.5.6zm-.6 5.6" class="st14"/></g><g id="XMLID_217_"><path id="XMLID_226_" d="M332.9 139.6c-1 .8-1.1 2.2-.3 3.2l21.7 26.2c.8 1 2.2 1.1 3.2.3s1.1-2.2.3-3.2l-21.7-26.2c-.8-.9-2.2-1.1-3.2-.3z" class="st14"/><path id="XMLID_238_" d="M333.5 141.8c-.6-.7-.7-1.7-.3-2.4.9-.5 2.1-.3 2.8.5l21.7 26.2c.2.3.4.6.4.9-.1.2-.3.4-.5.6-1 .8-2.4.7-3.2-.3l-20.9-25.5z" class="st16"/><circle id="XMLID_185_" cx="334.1" cy="141" r="5.6" class="st14"/></g><use id="use8727" width="100%" height="100%" xlink:href="#XMLID_2676_" transform="translate(389.595 -.28)"/><use id="use8989" width="100%" height="100%" xlink:href="#XMLID_2912_" transform="matrix(1.634 0 0 1.6518 52.642 -148.742)"/><use id="use8861" width="100%" height="100%" xlink:href="#XMLID_2912_" transform="translate(227.835 .192)"/><use id="use8789" width="100%" height="100%" xlink:href="#XMLID_2676_" transform="translate(260.354 11.34)"/><use id="use8851" width="100%" height="100%" xlink:href="#XMLID_2676_" transform="translate(189.366 -2.668)"/><use id="use8673" xlink:href="#XMLID_2912_"/><g id="XMLID_2643_"><g id="XMLID_2024_"><path id="XMLID_230_" d="M185.2 205.5h91v35.3h-91z" class="st15"/><g id="XMLID_1256_"><g id="XMLID_1276_"><path id="XMLID_1616_" d="M223.4 211.8h15.2v17h-15.2z" class="st28"/><path id="XMLID_1558_" d="M224.4 212.6h6.2V228h-6.2z" class="st25"/><path id="XMLID_1312_" d="M231.5 212.6h6.2V228h-6.2z" class="st25"/><g id="XMLID_1277_"><path id="XMLID_1310_" d="M224.6 212.8h5.7v15h-5.7z" class="st26"/><path id="XMLID_1291_" d="M231.8 212.8h5.7v15h-5.7z" class="st26"/></g></g><path id="XMLID_1263_" d="M224.6 212.8h2.7l-2.7 15z" class="st27"/><path id="XMLID_1260_" d="M231.8 212.8h2.7l-2.7 15z" class="st27"/></g><g id="XMLID_1974_"><g id="XMLID_1978_"><path id="XMLID_2006_" d="M250.2 211.8h15.2v17h-15.2z" class="st28"/><path id="XMLID_2004_" d="M251.1 212.6h6.2V228h-6.2z" class="st25"/><path id="XMLID_1985_" d="M258.3 212.6h6.2V228h-6.2z" class="st25"/><g id="XMLID_1980_"><path id="XMLID_1983_" d="M251.4 212.8h5.7v15h-5.7z" class="st26"/><path id="XMLID_1982_" d="M258.6 212.8h5.7v15h-5.7z" class="st26"/></g></g><path id="XMLID_1977_" d="M251.4 212.8h2.7l-2.7 15z" class="st27"/><path id="XMLID_1976_" d="M258.6 212.8h2.7l-2.7 15z" class="st27"/></g><path id="XMLID_3305_" d="M194.8 240.6h-1.4v-1.2h1.4v1.2zm20.5-1.2h-1.4v1.2h1.4v-1.2zm1.4-24.5v23.4c0 .4-.3.7-.7.7h-23.4c-.4 0-.7-.3-.7-.7v-23.4c0-.4.3-.7.7-.7H216c.4.1.7.4.7.7zm-2.1 11.8c0-5.7-4.6-10.3-10.3-10.3-5.7 0-10.3 4.6-10.3 10.3 0 5.7 4.6 10.3 10.3 10.3 5.7-.1 10.3-4.7 10.3-10.3zm-1.3.1c-.1.6-.5 1-1 1-1.9-.1-3.8-.1-5.6-.4-.1.2-.1.4-.2.5 1.6 1 3.2 1.6 5.2 2 .5.1.8.5.6 1-.8 2.5-2.6 3.7-5 4.4-.6.1-1.2-.2-1.3-.7-.6-1.9-1.1-3.7-1.5-5.6h-.5c-.4 1.9-.4 3.7-.2 5.7.1.5-.3.8-.8.8-2.2-.2-4.5-1.1-5.8-2.9-.3-.5-.2-1.1.2-1.5 1.6-1.3 3.2-2.5 4.9-3.5-.1-.1-.1-.3-.1-.5-2 .2-3.8.8-5.6 1.7-.5.3-.9.1-1-.5-.4-2.3.1-4.7 1.4-6.6.3-.4.9-.5 1.3-.2 1.7 1.1 3.3 2.2 4.7 3.6.1-.1.3-.2.5-.3-.8-1.8-2-3.3-3.5-4.8-.4-.4-.5-.9 0-1.2 2.1-1.3 4.9-1.3 7.1-.5.5.2.8.7.6 1.2-.6 1.8-1.2 3.6-2 5.4.2.1.3.2.5.4 1.4-1.3 2.5-2.7 3.5-4.5.2-.5.7-.7 1.1-.4 2 1.3 2.8 4 2.5 6.4zm-7.8.4c.1-.2.1-.3.1-.5 0-.4-.2-.7-.4-.9l-.1-.1c-.2-.2-.5-.3-.8-.3-.2 0-.5.1-.6.2h-.1c-.3.2-.5.6-.5 1v.2c.1.5.5.9 1 .9h.2c.6.2 1 0 1.2-.5 0 .1 0 .1 0 0zm-.7-1.1c-.1-.1-.3-.1-.4-.1-.1 0-.2 0-.3.1 0 0-.1 0-.1.1-.2.1-.3.3-.3.5v.2c.1.2.2.3.4.4.1 0 .1 0 .2.1h.1c.2 0 .4-.1.6-.3l.1-.1c0-.1.1-.2.1-.3 0-.2-.1-.4-.2-.5-.1 0-.1 0-.2-.1zM216 241h-23.4c-.4 0-.7.3-.7.7v.6c0 .4.3.7.7.7H216c.4 0 .7-.3.7-.7v-.6c0-.4-.3-.7-.7-.7z" class="st16"/></g><path id="XMLID_1990_" d="M185.2 205.5h91v4.1h-91z" class="st14"/><g id="XMLID_3339_"><g id="XMLID_3340_"><g id="XMLID_3345_"><path id="XMLID_3359_" d="M281.4 202.6H180l2.9 4.1h95.6z" class="st32"/><path id="XMLID_255_" d="M283.1 199.9c.7 1.5-.1 2.6-1.7 2.6H180c-1.6 0-2.4-1.2-1.7-2.6l17.8-38.7c.7-1.5 2.5-2.6 4.1-2.6H261c1.6 0 3.5 1.2 4.1 2.6l18 38.7z" class="st10"/><path id="XMLID_3360_" d="M274.5 196.8c.6 1.2-.1 2.2-1.4 2.2h-84.8c-1.3 0-2-1-1.4-2.2l14.9-32.4c.6-1.2 2.1-2.2 3.5-2.2h50.8c1.3 0 2.9 1 3.5 2.2l14.9 32.4z" class="st14"/><g id="XMLID_3346_"><path id="XMLID_3358_" d="M231.7 180.3H247l-1.8-8.2h-13.5z" class="st16"/><path id="XMLID_3357_" d="M229.7 180.3v-8.2h-13.3l-1.7 8.2z" class="st16"/><path id="XMLID_3356_" d="M231.7 170.1h13.1l-1.2-5.7h-11.9z" class="st16"/><path id="XMLID_3355_" d="M229.7 194v-11.7h-15.4l-2.4 11.7z" class="st16"/><path id="XMLID_3354_" d="M201.6 172.1l-3.6 8.2h14.7l1.7-8.2z" class="st16"/><path id="XMLID_3353_" d="M229.7 164.4h-11.6l-1.2 5.7h12.8z" class="st16"/><path id="XMLID_3352_" d="M214.8 170.1l1.2-5.7h-11l-2.5 5.7z" class="st16"/><path id="XMLID_3351_" d="M247.4 182.3h-15.7V194h18.1z" class="st16"/><path id="XMLID_3350_" d="M246.9 170.1h12l-2.5-5.7h-10.7z" class="st16"/><path id="XMLID_3349_" d="M212.3 182.3h-15.2L192 194h17.8z" class="st16"/><path id="XMLID_3348_" d="M249 180.3h14.4l-3.6-8.2h-12.5z" class="st16"/><path id="XMLID_3347_" d="M264.3 182.3h-14.9l2.5 11.7h17.5z" class="st16"/></g></g></g></g><path id="XMLID_1994_" d="M270.8 209.6h5.4v31.6h-5.4z" class="st14"/></g><g id="XMLID_3549_"><path id="XMLID_3626_" d="M446.1 204.3h.6v18.5h-.6z" class="st4"/><path id="XMLID_3625_" d="M452.6 211.9s-1.8-1.2-3.6-.7c-1.7.5-2.5 2.6-2.5 2.6s1.9 1.3 3.6.7c1.7-.5 2.5-2.6 2.5-2.6z" class="st4"/><path id="XMLID_3624_" d="M446.4 213.2s-.4-1.8-1.6-2.4c-1.3-.7-2.9.1-2.9.1s.4 1.8 1.6 2.4c1.3.7 2.9-.1 2.9-.1z" class="st4"/><g id="XMLID_3590_"><g id="XMLID_3592_"><g id="XMLID_3609_"><g id="XMLID_3617_"><g id="XMLID_3621_"><ellipse id="XMLID_3623_" cx="444.1" cy="198.4" transform="rotate(-34.596 444.114 198.423)" class="st2" rx="1.5" ry="3.9"/><ellipse id="XMLID_3622_" cx="448.6" cy="204.9" transform="rotate(-34.596 448.593 204.906)" class="st2" rx="1.5" ry="3.9"/></g><g id="XMLID_3618_"><ellipse id="XMLID_3620_" cx="443.1" cy="203.9" transform="rotate(-124.596 443.127 203.905)" class="st2" rx="1.5" ry="3.9"/><ellipse id="XMLID_3619_" cx="449.6" cy="199.4" transform="rotate(-124.596 449.61 199.435)" class="st2" rx="1.5" ry="3.9"/></g></g><g id="XMLID_3610_"><g id="XMLID_3614_"><ellipse id="XMLID_3616_" cx="442.5" cy="201" transform="rotate(-79.596 442.492 200.953)" class="st2" rx="1.5" ry="3.9"/><ellipse id="XMLID_3615_" cx="450.3" cy="202.4" transform="rotate(-79.596 450.236 202.375)" class="st2" rx="1.5" ry="3.9"/></g><g id="XMLID_3611_"><ellipse id="XMLID_3613_" cx="445.7" cy="205.5" transform="rotate(-169.596 445.653 205.537)" class="st2" rx="1.5" ry="3.9"/><ellipse id="XMLID_3612_" cx="447.1" cy="197.8" transform="rotate(-169.596 447.073 197.797)" class="st2" rx="1.5" ry="3.9"/></g></g></g><g id="XMLID_3593_"><g id="XMLID_3601_"><g id="XMLID_3606_"><ellipse id="XMLID_3608_" cx="445.6" cy="197.8" transform="rotate(-10.948 445.54 197.784)" class="st33" rx="1.5" ry="3.9"/><ellipse id="XMLID_3607_" cx="447.1" cy="205.5" transform="rotate(-10.948 447.093 205.534)" class="st33" rx="1.5" ry="3.9"/></g><g id="XMLID_3602_"><ellipse id="XMLID_3604_" cx="442.5" cy="202.4" transform="rotate(-100.947 442.515 202.423)" class="st33" rx="1.5" ry="3.9"/><ellipse id="XMLID_3603_" cx="450.2" cy="200.9" transform="rotate(-100.947 450.24 200.93)" class="st33" rx="1.5" ry="3.9"/></g></g><g id="XMLID_3594_"><g id="XMLID_3598_"><ellipse id="XMLID_3600_" cx="443.1" cy="199.5" transform="rotate(-55.944 443.136 199.464)" class="st33" rx="1.5" ry="3.9"/><ellipse id="XMLID_3599_" cx="449.6" cy="203.9" transform="rotate(-55.944 449.662 203.873)" class="st33" rx="1.5" ry="3.9"/></g><g id="XMLID_3595_"><ellipse id="XMLID_3597_" cx="444.2" cy="204.9" transform="rotate(-145.945 444.18 204.932)" class="st33" rx="1.5" ry="3.9"/><ellipse id="XMLID_3596_" cx="448.6" cy="198.4" transform="rotate(-145.945 448.592 198.404)" class="st33" rx="1.5" ry="3.9"/></g></g></g></g><circle id="XMLID_3591_" cx="446.4" cy="201.7" r="2.8" class="st34"/></g></g><g id="XMLID_3551_"><path id="XMLID_3589_" d="M435.8 208.4h.4v11.7h-.4z" class="st4"/><path id="XMLID_3588_" d="M439.9 213.3s-1.2-.8-2.2-.5c-1.1.3-1.6 1.7-1.6 1.7s1.2.8 2.2.5c1.1-.4 1.6-1.7 1.6-1.7z" class="st4"/><path id="XMLID_3587_" d="M436 214.1s-.2-1.1-1-1.5c-.8-.4-1.9.1-1.9.1s.2 1.1 1 1.5c.9.3 1.9-.1 1.9-.1z" class="st4"/><g id="XMLID_3552_"><g id="XMLID_3554_"><g id="XMLID_3571_"><g id="XMLID_3580_"><g id="XMLID_3584_"><ellipse id="XMLID_3586_" cx="434.6" cy="204.7" transform="rotate(-34.596 434.564 204.722)" class="st2" rx=".9" ry="2.5"/><ellipse id="XMLID_3585_" cx="437.4" cy="208.8" transform="rotate(-34.596 437.398 208.82)" class="st2" rx=".9" ry="2.5"/></g><g id="XMLID_3581_"><ellipse id="XMLID_3583_" cx="434" cy="208.2" transform="rotate(-124.596 433.947 208.188)" class="st2" rx=".9" ry="2.5"/><ellipse id="XMLID_3582_" cx="438.1" cy="205.4" transform="rotate(-124.596 438.043 205.363)" class="st2" rx=".9" ry="2.5"/></g></g><g id="XMLID_3572_"><g id="XMLID_3577_"><ellipse id="XMLID_3579_" cx="433.6" cy="206.3" transform="rotate(-79.596 433.544 206.32)" class="st2" rx=".9" ry="2.5"/><ellipse id="XMLID_3578_" cx="438.5" cy="207.2" transform="rotate(-79.596 438.438 207.22)" class="st2" rx=".9" ry="2.5"/></g><g id="XMLID_3573_"><ellipse id="XMLID_3575_" cx="435.6" cy="209.2" transform="rotate(-169.596 435.542 209.217)" class="st2" rx=".9" ry="2.5"/><ellipse id="XMLID_3574_" cx="436.5" cy="204.3" transform="rotate(-169.596 436.438 204.328)" class="st2" rx=".9" ry="2.5"/></g></g></g><g id="XMLID_3555_"><g id="XMLID_3564_"><g id="XMLID_3568_"><ellipse id="XMLID_3570_" cx="435.5" cy="204.3" transform="rotate(-10.948 435.444 204.31)" class="st33" rx=".9" ry="2.5"/><ellipse id="XMLID_3569_" cx="436.5" cy="209.2" transform="rotate(-10.948 436.445 209.216)" class="st33" rx=".9" ry="2.5"/></g><g id="XMLID_3565_"><ellipse id="XMLID_3567_" cx="433.6" cy="207.3" transform="rotate(-100.947 433.565 207.254)" class="st33" rx=".9" ry="2.5"/><ellipse id="XMLID_3566_" cx="438.5" cy="206.3" transform="rotate(-100.947 438.443 206.312)" class="st33" rx=".9" ry="2.5"/></g></g><g id="XMLID_3556_"><g id="XMLID_3561_"><ellipse id="XMLID_3563_" cx="433.9" cy="205.4" transform="rotate(-55.944 433.963 205.382)" class="st33" rx=".9" ry="2.5"/><ellipse id="XMLID_3562_" cx="438.1" cy="208.2" transform="rotate(-55.944 438.088 208.168)" class="st33" rx=".9" ry="2.5"/></g><g id="XMLID_3557_"><ellipse id="XMLID_3559_" cx="434.6" cy="208.8" transform="rotate(-145.945 434.618 208.838)" class="st33" rx=".9" ry="2.5"/><ellipse id="XMLID_3558_" cx="437.4" cy="204.7" transform="rotate(-145.945 437.407 204.71)" class="st33" rx=".9" ry="2.5"/></g></g></g></g><circle id="XMLID_3553_" cx="436" cy="206.8" r="1.8" class="st34"/></g></g><g id="XMLID_3550_"><path id="XMLID_3548_" d="M360.8 240v-9.6c0-.6-.5-1.2-1.2-1.2-.6 0-1.2.5-1.2 1.2v9.6h2.4z" class="st35"/><path id="XMLID_3547_" d="M379.5 240v-9.6c0-.6-.5-1.2-1.2-1.2-.6 0-1.2.5-1.2 1.2v9.6h2.4z" class="st35"/><path id="XMLID_3546_" d="M357.4 239.5v5.9h2.1v-3h19.4v3h2v-5.9z" class="st36"/><path id="XMLID_3545_" d="M384.6 238.6c0 .6-.5 1.2-1.2 1.2H355c-.6 0-1.2-.5-1.2-1.2 0-.6.5-1.2 1.2-1.2h28.5c.5.1 1.1.6 1.1 1.2z" class="st37"/><path id="XMLID_3544_" d="M383.6 231.7c0 .6-.5 1.2-1.2 1.2h-26.6c-.6 0-1.2-.5-1.2-1.2 0-.6.5-1.2 1.2-1.2h26.6c.7.1 1.2.6 1.2 1.2z" class="st37"/><circle id="XMLID_3543_" cx="359.6" cy="231.7" r=".6" class="st35"/><circle id="XMLID_3542_" cx="378.4" cy="231.7" r=".6" class="st35"/><path id="XMLID_3541_" d="M383.6 235.3c0 .6-.5 1.2-1.2 1.2h-26.6c-.6 0-1.2-.5-1.2-1.2 0-.6.5-1.2 1.2-1.2h26.6c.7 0 1.2.5 1.2 1.2z" class="st37"/><circle id="XMLID_3540_" cx="359.6" cy="235.3" r=".6" class="st35"/><circle id="XMLID_3326_" cx="378.4" cy="235.3" r=".6" class="st35"/></g><use id="use8549" xlink:href="#XMLID_2676_"/><use id="use8725" xlink:href="#XMLID_1325_"/></g></svg>