<svg
	xmlns="http://www.w3.org/2000/svg"
	xmlns:xlink="http://www.w3.org/1999/xlink"
	viewBox="0 0 900 300"
	preserveAspectRatio="xMidYMax slice">
	<defs>
		<path id="star2" d="M2.395,0.409 C2.026,0.973 1.744,1.285 1.370,1.835 C0.997,2.385 0.428,3.258 0.961,4.330 C1.494,5.402 2.083,6.024 2.395,6.421 C2.706,6.819 3.298,8.543 4.607,8.226 C5.916,7.909 7.818,7.104 7.693,5.389 C7.569,3.673 8.052,2.750 7.030,1.944 C6.008,1.137 5.871,0.105 4.712,0.392 C3.552,0.679 2.764,-0.154 2.395,0.409 Z"></path>
		<path id="burst" d="M6.092,4.816 L1.661,3.4 L5.261,6.658 L0,7.933 L5.123,9.208 L2.215,11.9 L6.092,11.05 L4.846,14.875 L8.169,12.75 L9.553,17 L10.523,12.325 L13.430,16.291 L12.046,11.616 L16.753,13.033 L13.292,9.633 L18.276,9.35 L13.153,8.075 L16.2,4.675 L12.323,6.091 C12.323,6.091 13.846,1.416 13.430,1.558 C13.153,1.841 11.215,4.958 11.215,4.958 L9.692,0 L8.861,4.391 L6.369,0.708 L6.092,4.816 L6.092,4.816 Z"></path>
		<path id="steeler" d="M3.231,6.211 L0,5.830 L3.394,5.448 C4.477,5.327 5.637,4.371 5.985,3.314 L7.077,0 L6.747,3.314 C6.642,4.371 7.393,5.327 8.424,5.448 L11.655,5.830 L8.261,6.211 C7.178,6.332 6.017,7.288 5.669,8.345 L4.578,11.660 L4.907,8.345 C5.012,7.288 4.262,6.332 3.231,6.211 Z"></path>
		<path id="star" d="M 0,0 3.262,3.613 3.014,-1.248 7.876,-1 4.262,-4.262 7.876,-7.524 3.014,-7.276 3.262,-12.138 0,-8.525 l -3.262,-3.613 0.248,4.862 -4.862,-0.248 3.614,3.262 L -7.876,-1 -3.014,-1.248 -3.262,3.613 0,0 Z"></path>
	</defs>
	<style type="text/css">
		@-webkit-keyframes steeler {
		  0% {
		    opacity: 1.0;
		    fill: rgba(73, 88, 122, 0.8);
		    -webkit-transform: scale(1);
		            transform: scale(1);
		    -webkit-transform-origin: center center;
		            transform-origin: center center; }
		  40% {
		    opacity: 0.9;
		    fill: #95a8b1;
		    -webkit-transform: scale(0.7);
		            transform: scale(0.7);
		    -webkit-transform-origin: center center;
		            transform-origin: center center; }
		  70% {
		    opacity: 0.9;
		    fill: rgba(73, 88, 122, 0.8);
		    -webkit-transform: scale(1.1);
		            transform: scale(1.1);
		    -webkit-transform-origin: center center;
		            transform-origin: center center; }
		  100% {
		    opacity: 1.0;
		    fill: rgba(149, 168, 177, 0.3);
		    -webkit-transform: scale(0.9);
		            transform: scale(0.9);
		    -webkit-transform-origin: center center;
		            transform-origin: center center; } }
		@keyframes steeler {
		  0% {
		    opacity: 1.0;
		    fill: rgba(73, 88, 122, 0.8);
		    -webkit-transform: scale(1);
		            transform: scale(1);
		    -webkit-transform-origin: center center;
		            transform-origin: center center; }
		  40% {
		    opacity: 0.9;
		    fill: #95a8b1;
		    -webkit-transform: scale(0.7);
		            transform: scale(0.7);
		    -webkit-transform-origin: center center;
		            transform-origin: center center; }
		  70% {
		    opacity: 0.9;
		    fill: rgba(73, 88, 122, 0.8);
		    -webkit-transform: scale(1.1);
		            transform: scale(1.1);
		    -webkit-transform-origin: center center;
		            transform-origin: center center; }
		  100% {
		    opacity: 1.0;
		    fill: rgba(149, 168, 177, 0.3);
		    -webkit-transform: scale(0.9);
		            transform: scale(0.9);
		    -webkit-transform-origin: center center;
		            transform-origin: center center; } }
		.steeler {
		  fill: rgba(73, 88, 122, 0.8);
		  -webkit-animation: steeler 2s linear infinite;
		          animation: steeler 2s linear infinite; }
		.ad-1 {
		  -webkit-animation-delay: 0.1s;
		          animation-delay: 0.1s; }
		
		.ad-2 {
		  -webkit-animation-delay: 0.2s;
		          animation-delay: 0.2s; }
		
		.ad-3 {
		  -webkit-animation-delay: 0.3s;
		          animation-delay: 0.3s; }
		
		.ad-4 {
		  -webkit-animation-delay: 0.4s;
		          animation-delay: 0.4s; }
		
		.ad-5 {
		  -webkit-animation-delay: 0.5s;
		          animation-delay: 0.5s; }
		
		.ad-6 {
		  -webkit-animation-delay: 0.6s;
		          animation-delay: 0.6s; }
		
		.ad-7 {
		  -webkit-animation-delay: 0.7s;
		          animation-delay: 0.7s; }
		
		.ad-8 {
		  -webkit-animation-delay: 0.8s;
		          animation-delay: 0.8s; }
		
		.ad-9 {
		  -webkit-animation-delay: 0.9s;
		          animation-delay: 0.9s; }
		
		.ad-10 {
		  -webkit-animation-delay: 1s;
		          animation-delay: 1s; }
		
		.ad-11 {
		  -webkit-animation-delay: 1.1s;
		          animation-delay: 1.1s; }
		
		.ad-12 {
		  -webkit-animation-delay: 1.2s;
		          animation-delay: 1.2s; }
		
		.ad-13 {
		  -webkit-animation-delay: 1.3s;
		          animation-delay: 1.3s; }
		
		.ad-14 {
		  -webkit-animation-delay: 1.4s;
		          animation-delay: 1.4s; }
		
		.ad-15 {
		  -webkit-animation-delay: 1.5s;
		          animation-delay: 1.5s; }
		
		.ad-16 {
		  -webkit-animation-delay: 1.6s;
		          animation-delay: 1.6s; }
		
		.ad-17 {
		  -webkit-animation-delay: 1.7s;
		          animation-delay: 1.7s; }
		
		.ad-18 {
		  -webkit-animation-delay: 1.8s;
		          animation-delay: 1.8s; }
		
		.ad-19 {
		  -webkit-animation-delay: 1.9s;
		          animation-delay: 1.9s; }
	</style>
	<g id="stars"></g>
	<g id="bursts"></g>
	<g id="steelers"></g>
	<script type="text/javascript"><![CDATA[
		/* SCRIPT */
		var xmlns = "http://www.w3.org/2000/svg",
				xlinkns = "http://www.w3.org/1999/xlink";
		var width  = 900,
				height = 300;
		var steelers = document.getElementById("steelers");
		function randomBase(min, max) { return Math.random() * (max - min) + min; }
		function randomPos(max) { return Math.floor(randomBase(0, max+0)); }
		function randomAnimationDelay(max) { return Math.floor(randomBase(1,20)); }
		function randomScale(min, max) { return parseFloat(randomBase(min, max).toFixed(2)); }
		function randomScaleNamed(name) {
			var scale;
			switch(name) {
			case 'steeler': scale = randomScale(1.1, 2.0); break;
			default: scale = 1.0; }
			return scale;
		}
		function addElement(name) {
			var p   = eval(name + 's');
					g   = document.createElementNS(xmlns, "g"),
					use = document.createElementNS(xmlns, "use"),
					gt  = 'translate(' + randomPos(width) + ',' + randomPos(height) + ') ' +
								'scale(' + randomScaleNamed(name) + ')';
					uc  = name + ' ad-' + randomAnimationDelay();
			use.setAttributeNS(null, "class", uc);
			use.setAttributeNS(xlinkns, "xlink:href", "#" + name);
			g.setAttributeNS(null, "transform", gt);
			g.appendChild(use);
			p.appendChild(g);
		}
		function addElements(name, count) {
			while (count -= 1) { addElement(name); }
		}
		function init() {
			addElements('steeler', 15);
		}
		init();
		/* END SCRIPT */
	]]></script>
</svg>