<svg xmlns="http://www.w3.org/2000/svg" viewBox="0 0 386.618 324.699"><defs><clipPath id="a"><path d="M0 2372.79h1397.833V0H0v2372.79z"/></clipPath><clipPath id="b"><path d="M0 2372.79h1397.833V0H0v2372.79z"/></clipPath></defs><g clip-path="url(#a)" transform="matrix(1.25 0 0 -1.25 -142.88 2469.54)"><path fill="#ededed" d="M423.598 1735.805c0-11.007-69.238-19.93-154.647-19.93-85.4 0-154.64 8.923-154.64 19.93 0 11.008 69.24 19.93 154.65 19.93 85.41 0 154.65-8.922 154.65-19.93"/></g><g clip-path="url(#b)" transform="matrix(1.25 0 0 -1.25 -142.88 2469.54)"><path fill="#28a3b2" d="M163.75 1784.765l-.403 8.207c-.362 5.162-.69 10.326-1.096 15.484-.29 3.795-.73 7.58-1.03 11.374-.23 2.89-.09 5.787-.31 8.692-.68 8.977-1.1 17.975-1.62 26.965.47.478 1.08.608 1.7.6 3.08-.043 6.17.268 9.24-.244.43-.072.86-.107 1.29-.09 5.68.226 11.33-.363 17-.465 3.38-.06 6.77-.26 10.16-.306.62-.008 1.23-.097 1.78-.424.21-.136.36-.316.48-.53.4-.918.58-1.906.61-2.878.16-4.673.51-9.336.68-14.008.01-.246-.07-.486-.15-.718-.5-.99-1.46-1.003-2.38-1.123-3.43-.44-6.88-.67-10.31-1.08-1.78-.21-1.99-.41-1.7-2.22.81-5 1.75-9.98 2.61-14.97.05-.3.11-.61.16-.91.51-3.32.12-3.58-3.26-3.9-3.82-.35-7.65-.11-11.46-.6-1.39-.17-2-.55-1.74-2.07.48-2.81.28-5.67.36-8.5.19-6.54.81-13.07.5-19.62-.05-.23-.17-.42-.35-.59-1.55-.83-3.22-.43-4.85-.47-1.1.23-2.22.12-3.33.14-2.8.05-3.79 1.73-2.52 4.29"/><path fill="#744e48" d="M158.23 1875.17l-.154 3.558c.658.87 1.63.8 2.54.79 8.834-.104 17.655.663 26.49.367 1.67-.056 3.3.607 4.973.182 1.57-.678 3.2-.302 4.76-.107 4.45.555 8.9.29 13.35.3 13.49.034 26.97.32 40.45.517 8.41.123 16.83-.156 25.23.308 8.53.473 17.08-.09 25.6.377 8.85.485 17.7-.11 26.53.384 6.18.346 12.36.015 18.54.44 4.51-.173 9.01-.224 13.53.11 4.81.353 9.65.07 14.47.11 2.54.02 5.07-.066 7.61.057 1.11.054 1.97-.18 2.18-1.452.24-1.48.45-2.96-.46-4.32-.63-.46-1.35-.57-2.1-.6-.25-.01-.5-.01-.75-.01-21.6.17-43.19-.65-64.79-.37-.62.01-1.24-.02-1.86 0-1.43.06-1.98-.62-1.99-2.02-.03-3.28.16-6.56-.11-9.83.24-3.97.08-7.94.09-11.91 0-.68-.13-1.34-.58-1.89-1.41-.96-2.84-.93-4.28-.1-.79.87-.67 1.95-.7 2.99-.15 4.58.61 9.14.38 13.73-.06 1.05-.04 2.1-.17 3.15-.01 1.61.19 3.21.16 4.82-.02 1.22-.46 1.86-1.75 1.83-6.99-.15-13.98.35-20.96-.28-1.85-.17-3.71-.1-5.57-.07-14.6.26-29.2-.58-43.8-.39-2.06.03-2.14-.2-2.29-2.21-.17-2.24.63-4.42.26-6.65.15-3.87.16-7.75.48-11.62.06-.85.01-1.73-.53-2.48-1.42-.98-2.75-.54-4.05.27-.97 1.36-.69 2.99-.8 4.48-.27 3.61-.35 7.23-.44 10.85-.16.93-.12 1.86-.13 2.78-.03 2.18-.2 2.38-2.32 2.38-3.77-.01-7.54-.04-11.32-.28-4.63-.29-9.29.05-13.93-.1-9.22-.29-18.45-.27-27.67-.42-3.71-.05-7.42-.32-11.14-.29-2.66.02-2.79.14-3.08 2.7"/><path fill="#1d5172" d="M200.686 1853.882l-.242.377c-.568.65-.62 1.45-.637 2.26-.015.68.003 1.36-.096 2.03-.39 2.7-.76 3.15-3.53 3.09-6.24-.14-12.48.23-18.69.52-5.54.25-11.12-.15-16.64.62-1.2.16-2.2.39-2.24 1.87.01.71.01 1.43.02 2.14.67.82 1.62.84 2.55.81 5.26-.2 10.5.32 15.74.46 6.97.18 13.94.45 20.91.72 7.03.27 14.06.61 21.1.71 1.66.02 3.31.48 4.99.32 1-.09 2.01-.17 2.41-1.35.08-.42.27-.83.25-1.26-.19-3.86.45-7.69.4-11.55-.01-.92.01-1.85-.62-2.63-1.12-.91-2.45-.75-3.71-.56-1.47.21-2.94.28-4.41.24-5.11-.14-10.19.61-15.3.4-.79-.04-1.62.01-2.19.72"/><path fill="#657fab" d="M225.88 1868.3c-.135.85-.766.834-1.408.81-8.47-.325-16.938-.65-25.406-.97-4.02-.152-8.04-.315-12.06-.444-9.463-.303-18.928-.59-28.392-.883.063 2.794-.59 5.556-.383 8.357.05-1.81 1.11-1.975 2.68-1.948 17.9.317 35.79.55 53.69.82 4.03.062 8.05.135 12.07.294 1.31.05 1.77-.383 1.71-1.67-.07-1.42.01-2.846.02-4.27-.81-.737-1.64-.787-2.5-.097m-67.28-3.63c.28-.6.42-1.23 1.36-1.24 1.79-.01 3.58-.23 5.37-.28 10.45-.29 20.9-.55 31.35-.84 3.15-.09 3.15-.13 3.64-3.25.25-1.6.2-3.21.14-4.82l-41.16 1.23c-.62 3.03-.26 6.13-.68 9.18"/><path fill="#f2b281" d="M154.77 1881.812c-.407.803-.248 1.666-.27 2.51.485.556 1.128.762 1.83.76 11.254-.002 22.51.147 33.763-.066 3.237.72 6.522.443 9.79.46 6.132.03 12.268-.118 18.396.032 17.02.42 34.06.03 51.07.448 12.88.316 25.76-.165 38.62.337 13.13.51 26.25.114 39.37.293 1.24.017 2.45.413 3.69.243.73.11 1.47.14 2.21.14 10.42-.01 20.83 0 31.25-.01 1.04 0 2.11.11 3.03-.56 1.06-1.96.95-3.17-.38-4.34-.27.17-.5.4-.57.71-.3 1.4-1.24 1.64-2.49 1.55-10.97-.76-21.96-.16-32.94-.34-.44-.01-.86.12-1.29.12-3.9-.08-7.79-.45-11.68-.48-11.09-.08-22.18.24-33.26-.09-14.67-.45-29.35.1-44-.39-13.44-.45-26.87.05-40.29-.34-8.73-.26-17.45-.3-26.17-.33-1.18-.01-2.35.02-3.52.14-.49-.09-.98-.15-1.47-.14-10.3.25-20.59-.6-30.88-.37-1.3.02-2.59-.05-3.86-.32"/><path fill="#df7357" d="M190.16 1884.46l-35.66-.138c-.247 2.058-.427 4.128-.766 6.173-.25 1.518.174 2.177 1.77 1.94.473-.07.972.024 1.46.042.087-.05.13-.127.13-.228.524-.52 1.178-.26 1.765-.26 6.74-.02 13.48-.13 20.22.03 3.58.08 7.16-.01 10.74.24.47.15.94.15 1.41 0 .15-.19.38-.38.38-.62-.06-2.49-.25-4.95-1.46-7.2m-35.39-2.65c.04.72.35 1.13 1.15 1.09.86-.04 1.73 0 2.59-.01 10.8-.17 21.58.62 32.38.3.82-.7 1.53-1.55 2.73-1.72.62-.09 1.21-.52 1.1-1.25-.12-.84-.89-.63-1.47-.71-.46-.07-.96.34-1.38-.12-6.46-.53-12.93-.18-19.4-.4-4.8-.16-9.61-.2-14.41-.29-.06 0-.13.01-.19.01-2.95.04-2.95.04-3.13 3.07"/><path fill="#873b34" d="M160.396 1746.455c.017 1.628-.044 3.25-.354 4.854 2.093.68 4.272.03 6.385.41.673.7 1.555.69 2.423.68 14.295-.04 28.59.1 42.885-.07 7.175-.09 14.333.61 21.51.45.865-.02 1.73 0 2.59-.13.922.13 1.85.12 2.776.12 17.37 0 34.74.03 52.11-.02 4.45-.02 8.88.61 13.33.36.74-.04 1.49.07 2.22-.09.89.01 1.8.2 2.62-.33.58-.02-.09-.76.35-.71 4.48.46 8.96.6 13.41-.15.9-.16 1.3.27 1.66.93.93.47 1.93.37 2.91.37 10.38.01 20.75.08 31.12-.03 5.07-.06 10.1.54 15.16.41.8-.02 1.61.01 2.4-.13 3.08.02 6.18.51 9.23-.29.44-.26.61-.67.69-1.14.06-.32.07-.64.05-.96.06-.69.08-1.38-.07-2.07-.04-.28-.11-.55-.18-.82-.11-.44-.23-.88-.58-1.2-.04-.4-.07-.79-.11-1.19-.55-.74-1.37-.78-2.18-.78-18.59-.03-37.19-.03-55.78-.01-.37 0-.73.09-1.1.1-.8-.1-1.6-.12-2.4-.12-3.21.01-6.43-.02-9.65.01-31.97.23-63.93-.64-95.91-.38-1.54.01-3.09 0-4.62.16-.55-.07-1.1-.14-1.66-.16-11.31-.47-22.62-.25-33.92-.42-4.87-.08-9.75-.38-14.63-.3-.92.01-1.88-.09-2.58.72l-.04 1.87"/><path fill="#5a302c" d="M400.38 1745.414c1.1.187.878-.464.723-1.112-.458-1.92-.946-3.837-1.33-5.773-.26-1.32-.87-1.78-2.27-1.78-12.76.06-25.52.03-38.282.03-.86 0-1.74.13-2.54-.34-.72-.59-1.61-.73-2.46-.6-2.22.33-4.45.18-6.67.18-52.83.02-105.66 0-158.5.02-1.27 0-2.63-.3-3.72.71-13.87.01-27.74.05-41.6-.02-1.9-.01-2.76.5-2.68 2.48.04.96-.17 1.98-.47 2.91-.53 1.65.28 1.84 1.58 1.65.41-.07.83-.35 1.2.09 7.22-.2 14.45.33 21.66-.34.93-.09 1.86-.06 2.79-.05 8.29.09 16.56-.58 24.84-.87 6.19-.23 12.37-.15 18.56-.21 1.9-.02 3.8.52 5.72.12 2.28.26 4.57.21 6.86.21 7.37 0 14.74.04 22.1-.01 25.51-.16 51.01.66 76.51.38.87-.01 1.73.11 2.6.16 1.49.24 2.95-.23 4.43-.17 19.47.74 38.95.16 58.43.43 2.87.04 5.8.15 8.57 1.24 1.25.49 2.63.65 3.99.62"/><path fill="#a66f63" d="M216.88 1741.914c-5.377-.086-10.76-.368-16.132-.218-12.477.35-24.947.916-37.42 1.378-4.695.175-9.39.318-14.087.453-1.97.057-3.95.01-5.91.36.42.34.93.278 1.42.29 5.23.138 10.47.275 15.7.41 14 .14 27.99.187 41.98.483 3.59.077 7.17.215 10.76.17.89-.66 1.98-.884 2.94-1.383.78-.403 1.55-.89.78-1.943m183.5 3.5c-5.21-2.3-10.71-2.62-16.32-2.61-15.53.028-31.06-.038-46.59-.162-4.14-.033-8.27-.38-12.41.003-.73 1.26 0 2.155.76 3.047 18.83.007 37.65.013 56.48.023.87 0 1.73.03 2.6.047 4.57-.024 9.14-.04 13.71-.08.6-.007 1.24.214 1.77-.268"/><path fill="#ee7d54" d="M236.015 1752.05c-6.544-.106-13.087-.276-19.63-.306-16.1-.072-32.197-.08-48.295-.108-.554 0-1.108.055-1.662.084l-.855 11.833c-.933 1.145-.755 2.44-.506 3.744.423 1.38 1.583 1.68 2.78 1.744 5.62.31 11.22.85 16.833 1.24 7.276.5 14.546 1.09 21.815 1.69 5.607.47 11.22.84 16.833 1.22 1.85.13 3.683.49 5.548.43.904-.02 1.512.44 1.9 1.23.38.78.833 1.53.98 2.4-.39 6.97-.51 13.94-1.023 20.9-.222 3.02-.204 6.05-.33 9.07-.174 4.13-.384 8.27-.547 12.4-.274 6.97-.465 13.94-.97 20.9-.244 3.39.027 6.8-.44 10.18-.092.67-.003 1.36.3 2 .117.22.286.39.505.5l3.54-.17c.22-.11.39-.28.51-.5.56-2.66.68-5.4.66-8.08-.04-6.55.38-13.08.52-19.63.17-7.58.42-15.17.75-22.76.18-3.95.16-7.9.34-11.84.03-.24.03-.48.03-.71.33-8.38.49-16.76.75-25.13.1-3.26.25-6.52.28-9.79.01-.87-.01-1.73-.58-2.47m-45.86 132.4c-.1 2.67 1.01 5.17 1.08 7.81.55.04 1.11.12 1.66.12 52.59.04 105.17.07 157.76.1.19 0 .37-.03.56-.04.75-2.1 1.19-4.2-.15-6.25-12.55-.73-25.12.01-37.67-.42-13.43-.46-26.86.07-40.28-.39-11.63-.39-23.27-.01-34.89-.32-14.97-.4-29.95-.27-44.92-.37-1.04 0-2.08-.14-3.12-.22"/><path fill="#df7357" d="M351.06 1886.19l.153 6.253c10.35.027 20.7.05 31.05.082.862.003 1.723.05 2.584.075.237-.024.485-.104.71-.064 1.852.326 2.624-.43 2.34-2.283-.156-1.346-.31-2.69-.467-4.036-12.123-.01-24.247-.018-36.37-.027"/><path fill="#ee7d54" d="M189.828 1892.27c-.45-.588-1.1-.473-1.708-.474-9.775-.003-19.55-.003-29.326.01-.592 0-1.262-.193-1.7.443 10.546.04 21.092.09 31.638.13.365 0 .73-.08 1.096-.12"/><path fill="#1f8694" d="M174.506 1781.36c-.326.347-.36.782-.34 1.218.214 4.644-.4 9.263-.417 13.903-.02 4.63-.23 9.26-.68 13.87-.12 1.24.07 1.92 1.61 1.96 4.69.14 9.37.48 14.05.67 1.18.05 1.44.41 1.22 1.59-1.12 6.13-2.08 12.29-3.23 18.41-.32 1.67.41 1.86 1.71 1.96 4.24.35 8.47.77 12.7 1.18.17.02.32.17.48.26.54.6 1.26.74 2.02.76 5.49.2 10.88 1.35 16.35 1.69 2.24.14 4.49.95 6.76.12 1.52-2.12 1.07-4.36.39-6.61-.73-.73-1.68-.73-2.61-.71-8.05.2-16.07-.58-24.12-.41-2.9.06-5.79-.49-8.71-.36-.41.02-1.03.07-1.08-.45-.08-.74.64-.58 1.08-.64.73-.08 1.48-.08 2.13-.54.99-1.06.71-2.44.82-3.68.34-3.78 1.11-7.52.99-11.34-.14-.77-.96-.83-1.42-1.32.3-.63 1.21-.53 1.46-1.21.73-1.55.56-3.25.8-4.88.3-2.13.28-4.29.78-6.4.14-.6.09-1.22-.24-1.78-.69-.8-1.65-.74-2.55-.71-1.97.06-3.91-.22-5.86-.4-.41-.03-.86 0-1.14-.42.37-.63 1.14-.52 1.54-.99.41-.58.33-1.13-.09-1.65-1.12-.83-2.5-.96-3.76-1.42-1.46-.53-2.83-1.19-3.99-2.23-2.23-2-1.92-4.04.77-5.32.91-.44 2.06-.52 2.58-1.62.27-.84.29-1.66-.23-2.44-.42-.42-.95-.54-1.51-.57-.33.01-.66-.01-.98-.05-.45-.05-.89-.03-1.34.05-1.33.14-2.66.03-3.99.07-.72.02-1.47-.05-2.05.51"/><path fill="#206071" d="M226.624 1838.7c-5.635-.53-11.28-.945-16.882-1.818-2.673-.416-5.39-.546-8.105-.518l-.952 17.52c6.645-.136 13.29-.22 19.933-.438 1.834-.06 3.66-.43 5.51-.315l.286-.21c.77-1.08.45-2.37.642-3.56.478-2.98.21-5.99.206-8.98 0-.61-.126-1.22-.638-1.66"/><path fill="#fdf4e3" d="M180.94 1781.344l.952.013c.29-.156.58-.176.865.013l1.456.078c.52.506 1.17.71 1.866.674 3.46-.182 6.89.49 10.35.403 6.54-.167 13.07.39 19.61.47 3.5.044 7.02.223 10.54.26.92.01 1.87.064 2.64-.613.56-1.143-.15-1.633-1.07-1.866-1.2-.304-2.42-.535-3.67-.49-6.49.238-12.97-.305-19.45-.455-7.9-.18-15.8-.38-23.69-.75-5.8-.27-11.61-.08-17.39-.63-.98-.09-2-.09-2.78.73-.28 1.15.19 1.54 1.34 1.54 2.4-.01 4.81-.3 7.19.25l4.78.13c2.13.36 4.29-.11 6.43.26"/><path fill="#4d9ba9" d="M180.94 1781.344c-2.13-.454-4.283-.275-6.43-.258.003.092.002.184-.004.276 2.144-.007 4.29-.012 6.433-.018"/><path fill="#ee7d54" d="M191.883 1879.406c.385.496.935.476 1.485.505.386.03.985-.14.983.48 0 .51-.54.67-.95.6-1.79-.31-2.32.74-2.49 2.22 2.79.02 5.57.01 8.36.06 19.31.39 38.62.12 57.92.48 13.68.26 27.36-.11 41.02.34 13.99.46 27.97.05 41.95.37 3.27.08 6.54.3 9.82.21.7-1.23-.16-1.64-1.07-1.93-.81-.26-1.65-.42-2.17-1.19-2.72-.06-5.44-.14-8.17-.18-11.01-.15-22.02-.28-33.04-.44-17.02-.24-34.04-.51-51.06-.75-18.07-.25-36.14-.48-54.22-.73-2.78-.04-5.55-.39-8.33-.01"/><path fill="#657fab" d="M383.604 1876.888l-.447-8.195c-2.227.562-4.48.858-6.784.804-7.85-.18-15.692.33-23.538.46-8.21.132-16.423.395-24.63.713-3.58.14-7.157.27-10.74.322-1.507.022-2.083-.55-2.093-2.07-.012-1.698.436-3.478-.558-5.08-1.054-.74-2.074-.81-3.037.162.008 3.59.058 7.18.002 10.766-.03 1.362.43 1.79 1.82 1.788 11.94-.006 23.89-.02 35.84.138 11.39.15 22.77.222 34.16.192"/><path fill="#ee7d54" d="M309.02 1752.27l-2.55.11c-.717.735-.747 1.664-.738 2.603.14 14.602.328 29.203.49 43.804.065 5.992.24 11.996.217 17.992-.04 10.33.67 20.65.41 30.99-.02.68 0 1.36.34 1.99.13.21.32.37.55.48 1.25-.03 2.49-.05 3.74-.08.24-.07.43-.21.56-.42.34-.62.39-1.3.33-1.98-.7-7.89.01-15.81-.37-23.7-.46-9.38-.24-18.76-.34-28.15-.01-1.13-.21-2.21-.56-3.27-.61-1.42-.61-1.42-2.11-2.21.73.09 1.42-.01 1.9-.71.51-1.22.42-2.44-.04-3.64-.56-.79-.7-1.68-.7-2.63 0-7.84-.01-15.68.01-23.52 0-2.09.25-2.3 2.36-2.36.31-.01.62.01.92-.02 1.15-.12 2.45-.02 2.67-1.65.19-1.45-.65-2.98-2.05-3.35-1.66-.44-3.36-.79-5.09-.33"/><path fill="#657fab" d="M232.53 1866.946c-.125 2.594-.184 5.194-.402 7.78-.12 1.422.38 1.802 1.747 1.8 6.623-.002 13.246.066 19.87.14 9.96.113 19.924.25 29.886.383 7.43.1 14.86.16 22.28.36 1.76.04 2.26-.52 2.1-2.19-.17-1.78-.14-3.59-.2-5.38-1.4-.76-2.8-1-4.18.07-.21.31-.32.66-.39 1.03-.48 2.62-.48 2.59-3.07 2.63-7.17.1-14.33-.35-21.5-.49-4.57-.09-9.14-.07-13.71-.28-8.89-.41-17.78-.71-26.68-.71-1.54 0-2.11-.62-2.04-2.11.05-1.1.15-2.25-.6-3.22-1.07-.74-2.1-.75-3.08.16"/><path fill="#df7357" d="M346.704 1881.53c-.27 1.223.142 1.835 1.473 1.725.994-.083 1.842.105 1.775 1.404 9.778.03 19.556.08 29.334.11 1.545 0 3.075.08 4.618.26 3.186.37 3.203.29 3.28-2.82-.598-.39-1.273-.21-1.91-.22-.757-.02-1.24-.3-1.414-1.05.035.95-.48 1.01-1.304.99-11.462-.22-22.924-.39-34.387-.56-.49-.01-.98.08-1.47.13"/><path fill="#4d9ba9" d="M303.926 1869.794c1.292-.13 2.574.5 3.872.057.35-5.3-.114-10.6-.106-15.9.002-1.23.033-2.46.05-3.7-.06-.03-.118-.07-.174-.11-1.28-.95-2.56-.89-3.84.01-.575.73-.593 1.6-.595 2.47-.012 4.88-.016 9.76.003 14.64.004.92-.07 1.89.79 2.55m-71.396-2.85l2.963-.08c.846-.6.996-1.54 1.036-2.45.14-3.31.08-6.63.03-9.94-.01-.61-.15-1.22-.56-1.72-1.04-.79-2.06-.85-3.07.07-.06.06-.11.12-.17.18l-.25 13.96m-6.65 1.35c.83.03 1.67.07 2.5.1l.86-15.24c-.05-.04-.11-.09-.16-.14-.96-.64-1.89-.72-2.79.12h-.18c.31 5.06-.48 10.1-.25 15.17m85.89-4.29l2.77-.12c.68-.39.81-1.08.81-1.76-.01-3.62-.44-7.23-.43-10.86 0-.43-.2-.83-.48-1.18-.92-.74-1.86-.65-2.82-.09-.05.05-.1.11-.14.17l.29 13.84"/><path fill="#e6d0c0" d="M232.946 1852.81l2.936.082c.19-.144.338-.325.443-.54.588-2.29.664-4.63.657-6.98-.006-2.09.383-2.463 2.38-2.162 1.538.232 3.075.288 4.62.257 9.7-.19 19.39.355 29.085.493 5.55.08 11.122-.037 16.663.32 3.83.246 7.65.302 11.477.296 1.452-.003 1.987.61 1.943 2.013-.035 1.1-.16 2.23.258 3.3.09.22.227.41.413.56l3.75-.32c.2-10.21-.23-20.4-.31-30.61-.13-16.58-.25-33.15-.54-49.72-.1-5.81-.12-11.63-.24-17.44-6.05-.08-12.11-.22-18.16-.24-17.06-.08-34.12-.12-51.19-.17-.37 0-.74.05-1.1.07-.15 4.33-.31 8.66-.45 12.99-.26 8.17-.51 16.34-.77 24.5.1.14.09.28-.01.42-.42 14.52-.83 29.05-1.25 43.57-.18 6.42-.38 12.85-.58 19.27"/><path fill="#ee7d54" d="M376.685 1764.675l-.883-11.842c-9.592-.35-19.19-.335-28.785-.384-7.68-.04-15.358-.1-23.037-.14-1.553-.56-5.467.29-6.496 1.46-.674.76-1.105 1.7-.8 2.71.34 1.11 1.42 1 2.32 1.06 1.224.09 2.448 0 3.665-.08.26.05.49.17.62.43.04.18.09.35.13.53.25 1.38.42 2.76.59 4.15.1.85.18 1.72 1.11 2.15 1.81.54 3.67.25 5.51.28 2.77.05 5.55.04 8.32 0 1.28-.02 2.16.25 2.2 1.77.04 1.66-1.24 1.52-2.19 1.56-3.27.13-6.54.01-9.8.07-1.35.02-2.74-.01-3.85.98-.47.92-.22 1.65.54 2.27.85.49 1.78.43 2.71.43h45.79c.92 0 1.86.06 2.68-.51.84-2.36.78-4.68-.37-6.93"/><path fill="#b06356" d="M325.816 1745.692c.35-1.164-.792-1.96-.753-3.047-.772-.318-1.585-.23-2.386-.233-13.682-.046-27.366.078-41.044-.17-20.487-.37-40.974-.18-61.46-.306-1.096-.007-2.194-.427-3.29-.022.114 1.13-.637 1.364-1.523 1.602-.94.253-2.09.36-2.193 1.726 10.332.046 20.664.1 30.996.138 5.57.02 11.14-.102 16.706.046 20.78.557 41.56.17 62.34.3.86.006 1.73-.022 2.6-.034"/><path fill="#59494a" d="M323.973 1757.624l-.08-.39c-.07-.122-.172-.2-.307-.235-1.544-.04-3.09-.02-4.63-.12-.657-.04-1.87.4-1.858-.44.013-1.01-.065-2.49 1.48-2.86 1.798-.44 3.6-.86 5.4-1.28.507-.49 1.354-.07 2.174-1.05-6.253.35-12.145.45-18.527.36l1.395.64c1.637.3 3.272.6 4.91.89.648.11 1.114.36 1.37 1.05.895 2.42.736 2.67-1.856 2.67-3.864 0-3.87 0-3.907 3.91-.072 7.9-.13 15.81-.214 23.71-.01.97-.062 1.9 1.286 1.93.72.47 1.5.52 2.32.39.92.06 1.81.35 2.73.47.58.07.85.42.84 1.02-.01.62-.38.87-.94.92-.87.08-1.74.05-2.6.12-.85-.12-1.66-.14-2.33.51l-2.92.17c.85 1.07 2.16 1.26 2.97 2.1.58 1.02 1.54 1.01 2.52.95.21 0 .43.01.64.03 3.5-.38 7.01-.19 10.52-.27 1.68-.04 3.08-.8 4.41-1.73.35-.25.76-.57.67-1.03-.11-.56-.67-.68-1.15-.75-1.6-.25-3.2-.09-4.8-.13-.62-.02-1.24 0-1.85-.03-.64-.04-1.32-.1-1.31-.95 0-.87.7-.88 1.33-.92 1.11-.06 2.22 0 3.33-.04 2.76-.11 3.44-1.24 2.35-3.85-.12-.18-.28-.32-.46-.43-1.88-.52-3.68.19-5.48.45-2.79.39-5.39-.45-8.06-.87-.88-.14-.96-.81-1.01-1.53-.13-1.8.25-3.57.32-5.35.1-2.84.13-5.69 0-8.53-.09-1.94.69-3.07 2.3-4.02 3.03-1.79 6.14-3.45 8.97-5.55"/><path fill="#267680" d="M385.23 1752.73c.597-.252.434-.658.216-1.075l-.216 1.076"/><path fill="#59494a" d="M385.193 1748.7l-.188-.5.188.5"/><path fill="#e6d0c0" d="M226.31 1853.132l2.785-.115c.26-5.062.555-10.122.772-15.186.56-13.09 1.058-26.19 1.64-39.29.24-5.43.584-10.86.665-16.3.027-1.78.44-3.55.274-5.35-1.99-1.08-4.226-1.02-6.33-.99-7.298.09-14.58-.36-21.87-.51-8.888-.19-17.777-.52-26.668-.75-3.33-.08-6.663-.24-9.998-.27-.92 0-1.877-.08-2.613.67-3.833.06-3.833.06-3.78 4.16 5.74-.03 11.47.31 17.203.47 7.762.21 15.526.46 23.287.73 7.824.27 15.643.66 23.474.71 1.04.01 2.08.24 3.12.35.91.09.85.73.81 1.36-.95.82-1.01 1.97-.98 3.07.15 5-.32 9.98-.5 14.96-.14 4.05-.07 8.13-.49 12.17.03.76.08 1.52.02 2.29-.28 3.62-.71 7.24-.49 10.88.24.95.13 1.88-.16 2.79-.12.42-.05.85-.07 1.28-.13.79-.04 1.53.53 2.14-.02 2.13.16 4.26-.28 6.37l-.31 14.43"/><path fill="#b06356" d="M164.966 1775.007c20.64.55 41.282 1.1 61.923 1.655 1.85.05 3.7.144 5.55.217-.13-.35-.25-.7-.39-1.05-1.16-2.91-1.17-2.79-4.25-3-5.91-.4-11.8-.95-17.7-1.42-3.51-.28-7.02-.51-10.52-.78-7.81-.6-15.62-1.22-23.44-1.81-2.71-.21-5.43-.3-8.14-.51-.93-.07-2.06.16-2.52-1.07l-.55 7.75"/><path fill="#f2b281" d="M216.706 1756.875c-4.265 0-7.24.064-10.21-.024-1.745-.05-1.513 1.09-1.447 2.11.06.97-.6 2.27 1.35 2.38 7.57.43 15.14.97 22.71 1.48 1.1.08 2.2.23 3.31.35 1.87.22 1.75-1.19 1.47-2.17-.36-1.26 1.48-3.66-1.44-3.69-5.69-.04-11.37-.74-15.77-.42"/><path fill="#df7357" d="M180.88 1760.582c6.8.164 13.594.542 20.4.377 1.913-.05 3.015-1.89 2.14-3.58-.298-.58-.81-.53-1.282-.5-3.84.23-7.643-.59-11.48-.39-4.83.25-9.633-.4-14.455-.38-1.86.01-3.358 2.18-2.703 3.91.233.61.767.54 1.248.54 2.044.01 4.088 0 6.132 0"/><path fill="#f39f82" d="M234.78 1789.97c.038-.096.087-.19.105-.29.007-.036-.06-.086-.092-.13l-.012.42"/><path fill="#1d5172" d="M314.24 1850.09l.306 13.792c.04 2.104.12 4.21.1 6.312-.01 1.047.213 1.607 1.428 1.566 7.235-.245 14.472-.44 21.71-.652.308-.01.617-.036.926-.043 8.232-.166 16.464-.298 24.695-.507 6.06-.153 12.118-.425 18.18-.597.937-.02 1.573-.18 1.57-1.26l-.177-3.29c-.05-1.34-.888-1.8-2.078-1.82-2.844-.03-5.66-.48-8.518-.43-5.564.11-11.114-.51-16.687-.39-2.747.07-3.31-.58-3.463-3.37-.142-2.59.063-5.19-.158-7.78-.135-3.93-.278-7.86-.337-11.79-.007-.49-.207-.96-.567-1.33-.676-.53-1.48-.59-2.286-.57-10.616.26-21.22-.58-31.835-.38-.99.02-1.99-.07-2.85.59-.12.15-.28.27-.31.45-.63 3.64-.48 7.3-.08 10.95.02.23.25.42.42.59"/><path fill="#28a3b2" d="M350.922 1838.668c.235 4.342-.03 8.706.582 13.03.5.716 1.268.92 2.06 1.104 8.825 2.04 17.657 4.04 26.496 6.015.82.182 1.68.503 2.5-.054-.333-5.05-.668-10.102-1-15.153-.602-9.178-1.205-18.356-1.8-27.534-.262-4.005-.527-8.01-.753-12.016-.28-4.932-.52-9.866-.776-14.8-.5-1.433-.38-2.924-.38-4.403-2.05-1.437-4.18-1.04-6.33-.275-.76.795-.69 1.81-.72 2.795-.12 3.223.24 6.428.34 9.64.13 4.457.05 8.92.03 13.38-.01 1.8.15 3.58.33 5.368.21 2.072-.15 2.396-2.2 2.427-1.73.026-3.47-.067-5.2.042-1.92.122-2.41.814-2.36 2.76.12 5.01.54 10.006.59 15.02.02 1.526-.53 1.94-1.93 1.9-2.29-.066-4.58-.04-6.87-.007-.91.013-1.88-.08-2.56.76"/><path fill="#657fab" d="M382.56 1858.764l-24.556-5.6c-2.166-.492-4.334-.978-6.5-1.467.056 3.332-.086 6.663.296 9.992.126 1.1.435 1.52 1.532 1.5.794-.02 1.59.21 2.387.23 6.72.17 13.45.3 20.18.48 1.84.04 3.69.27 5.53.27.96 0 1.3.47 1.54 1.22l-.42-6.64"/><path fill="#fdf4e3" d="M371.595 1784.67l6.252.187c.744-.527 2.476.928 2.42-1.205.068-.507-.02-.947-.516-1.213-1-.59-2.12-.69-3.23-.66-6.81.2-13.61-.32-20.41-.47-8.34-.18-16.69-.64-25.04-.68-1.39-.01-2.81-.72-4.16.2-.64.8-.65 1.59.06 2.36l.09.03c.53.64 1.26.75 2.01.75 1.8-.01 3.58.33 5.35.31 6.3-.08 12.57.68 18.87.43.66-.1 1.31-.19 2-.09 3.82.61 7.67.5 11.52.45 1.48-.38 3.03.04 4.51-.34l.31-.09"/><path fill="#267680" d="M226.993 1830.026l.1-1.025c.1-.84-.086-1.7.12-2.54l.445-11.57c-2.45-1.54-3.73-.87-4.576 2.36-.394 3.2-.393 3.19-3.667 2.79-5.7-.7-11.41-1.32-17.116-1.97-1.45-.16-2.11-.66-1.88-2.19.12-.84.06-1.75-.69-2.4-1.51-.58-3-.83-4.4.27-.64 5.07-1.34 10.14-1.49 15.26.95.99 2.24 1.03 3.44 1.06 8.93.21 17.84 1.04 26.78.8 1.04-.03 2.12.07 2.92-.81"/><path fill="#267680" d="M227.625 1813.362c.48-10.2.963-20.397 1.444-30.596-6-.205-11.99-.436-17.98-.61-8.96-.257-17.93-.474-26.89-.71l-.01 2.578c.72.794 1.7.625 2.6.612 2.04-.03 4.06.124 6.06.563.66.14 1.33.27 1.95.54 1.73.75 3.46 1.55 3.51 3.81.05 2.25-1.68 2.98-3.35 3.67-1.49.61-3.05.95-4.69.87-.56-.03-1.26-.29-1.61.48.33.38.34.84.35 1.31.36.58.94.86 1.55.89 3.26.18 6.51.78 9.79.52.5-.04.97-.18 1.37-.51 1.39-2.36 1.03-5.04 1.32-7.58.46-4.1.32-4.11 4.44-4.11 4.76 0 9.52-.02 14.28.01 1.97.01 2.29.19 2.13 2.1-.41 5.05-.2 10.11-.57 15.17-.26 3.44-.37 6.9.1 10.35 1.16 1.55 2.32 1.72 4.16.61"/><path fill="#becad1" d="M188.683 1794.578c2.703.408 5.308.145 7.74-1.188 1.463-.802 2.69-1.816 2.757-3.663.07-1.936-1.137-3.087-2.64-3.943-2.258-1.287-4.788-1.637-7.326-1.786-1.663-.1-3.34.01-5.008.027-.928.32-1.897.554-2.777.975-2.77 1.318-3.15 3.82-.92 5.938 2.28 2.168 5.22 2.915 8.17 3.64"/><path fill="#28a3b2" d="M226.993 1830.026c-8.1.25-16.184-.062-24.268-.584-2.956-.19-5.93-.075-8.88-.452-.99-.003-1.984.03-2.972-.02-.976-.046-1.486.235-1.49 1.34-.002 1.18.66 1.274 1.56 1.263 5.625-.07 11.24.33 16.864.45 6.365.133 12.73.28 19.097.313l.09-2.31"/><path fill="#267680" d="M196.86 1798.533c-.48 3.937-.963 7.874-1.43 11.813-.058.484-.032.978-.044 1.468 1.537 1.233 3.16.966 4.81.28.768-.755.81-1.785.92-2.74.325-2.806.52-5.627.814-8.437.077-.742.002-1.48-.458-2.12-1.486-.965-3-1.49-4.613-.264"/><path fill="#4d9ba9" d="M196.86 1798.533c1.504-.193 2.965.237 4.452.31.836-.643 1.077-1.36.268-2.204-4.205.12-8.374-.34-12.546-.75-.183 0-.37-.02-.55.01-.8.13-2.013-.47-2.036 1.09-.024 1.56 1.188 1.02 1.996 1.12 2.794.35 5.604.41 8.416.42m3.24 13.34l-4.714-.06c-.24.02-.482.03-.722.05-.616.06-1.48-.2-1.473.84.01.89.71 1 1.42 1.01h.73c1.51.01 3.01.03 4.52.04 1.02-.51.89-1.17.24-1.89m-17.34-30.51c-.28-.18-.57-.17-.86-.01l.87.01"/><path fill="#e6d0c0" d="M314.24 1850.09l.067-11.743c.674-.776.683-1.683.528-2.625-.48-1.41-.374-2.863-.313-4.314.21-3.157.236-6.312-.023-9.467-.81-3.34-.28-6.73-.36-10.11.2-4.87.28-9.75-.05-14.63-.64-1.49-.01-3.2-.82-4.66-.86-.17-1.76.04-2.58-.38.19 12.49.37 24.97.55 37.45.1 6.8-.04 13.6.36 20.39l2.61.09m-1.12-63.67l-2.52.03.04 3.44 2.56.04c.82-1.19.95-2.36-.09-3.5"/><path fill="#267680" d="M235.882 1852.89c-.122 4.66.248 9.33-.39 13.975.006 1.422.088 2.85-.008 4.266-.09 1.35.477 1.66 1.726 1.68 7.91.1 15.822.16 23.727.43 9.694.33 19.39.52 29.084.79 3.95.11 7.91.1 11.86.31 1.52.08 2.18-.35 2-1.94-.09-.85.03-1.73.06-2.59l-.1-19.34c-.01-.06-.04-.11-.07-.17-.21-.34-.55-.53-.92-.54-1.07-.04-1.43-.63-1.58-1.64-.3-2.08-.97-2.61-3.03-2.74-.18-.01-.37-.02-.55-.01-11.56.27-23.1-.57-34.66-.35-6.86.14-13.7-.53-20.56-.39-.74.02-1.48-.03-2.21.15-.7.17-1.37.5-1.48 1.24-.31 2.24-.66 4.49.03 6.73.71.77 1.65.87 2.58.72 4.24-.65 8.53-.32 12.78-.52 5.31-.25 10.64-.36 15.94-.57 8.28-.33 16.57-.32 24.83-1.01 4.42-.36 4.35-.33 4.59 4.01.19 3.34.43 6.66.19 10 .21 1.54.1 3.09.14 4.64.03 1.12-.4 1.78-1.61 1.76-2.84-.07-5.69.22-8.53-.2-.61-.09-1.23-.16-1.85-.14-8.79.24-17.57-.37-26.35-.45-6.49-.06-12.99-.31-19.49-.34-2.86-.01-3.13-.39-3.12-3.28.01-.99.03-1.98.19-2.96.17-3.1.63-6.19.55-9.3-.02-.8-.05-1.59-.68-2.21-.98-.85-1.97-.94-2.96-.02l-.04.1z"/><path fill="#cda993" d="M289.007 1753.88c-15.528.48-31.06.37-46.593.37-1.63 0-2.09.536-2.15 2.137-.293 7.894-.64 15.79-1.12 23.674-.286 4.69-.372 9.39-.76 14.06-.557 6.7-.236 13.45-1.39 20.1-.01.06-.01.13-.01.19.283 7.74-.698 15.43-.79 23.16-.015 1.35.33 1.87 1.757 1.84 7.05-.12 14.1.31 21.15.45 9.27.19 18.54.43 27.8.76 4.64.17 9.27.2 13.91.26 1.15.02 2.51 1 3.36.02.74-.85.08-2.23.07-3.38-.07-7.11-.12-14.22-.41-21.32-.34-8.34-.45-16.68-.75-25.01-.32-9.08-.58-18.16-.76-27.24-.05-2.77-.3-5.55-.26-8.33.02-1.28-.39-1.74-1.7-1.71-3.77.07-7.55.03-11.33.03m-50.16 98.91c.44-1.95.37-3.94.4-5.92.01-1.06.28-1.54 1.47-1.51 12.5.25 25 .46 37.51.64 6.81.1 13.62.15 20.43.19 1.06.01 1.73.09 1.76 1.45.06 3.12.13 3.12 3.35 2.66.56-6.42.56-6.31-5.73-6.47-7.28-.18-14.58-.14-21.85-.45-5.44-.22-10.88.03-16.29-.32-6.23-.4-12.47-.23-18.7-.34h-.2c-4.74-.3-4.79-.3-4.74 4.56.02 1.86-.58 3.67-.31 5.53l2.92-.01z"/><path fill="#b06356" d="M377.436 1778.097l-.482-6.777-51.172.066c-1.037 1.825-.632 5.264.788 6.7.693.32 1.43.357 2.175.345 14.876-.23 29.742.63 44.617.38.68-.01 1.36.01 2.038-.01.747-.02 1.49-.07 2.036-.69"/><path fill="#744e48" d="M326.456 1777.66c-.367-2.076-.7-4.156-.674-6.274-.09-.644-.177-1.288-.266-1.932.793-1.8.5-3.493-.496-5.12-.35-2.236-.698-4.473-1.047-6.71-1.33-.222-2.155.738-3.14 1.33-2.48 1.495-4.96 2.994-7.455 4.467-.796.47-1.336 1.02-1.33 2.04.02 5.37.084 10.73-.377 16.09-.1 1.26.44 1.52 1.63 1.83 4.6 1.17 9.12 1.01 13.66-.16l-.04-2.17c.51-1.21.57-2.36-.45-3.36"/><path fill="#f39f82" d="M349.02 1762.812c4.665 0 7.95-.067 11.23.032 1.363.04 2.106-.353 2.228-1.742.33-3.72 1.532-3.434-2.873-3.483-7.61-.09-15.205.64-22.816.38-1.78-.06-3.5-.08-5.28.29-2.24.46-1.01 2.22-1.39 3.29-.41 1.15.92.82 1.54.82 6.25-.06 12.48.73 17.35.4"/><path fill="#f2b281" d="M325.02 1764.335c-.102 1.733.265 3.42.496 5.12 4.122-.61 8.272-.236 12.408-.357.433-.012.868.013 1.3-.013 2.798-.173 3.698-1.725 2.47-4.226-.373-.77-1.06-.51-1.63-.52-5.015-.02-10.03-.01-15.044-.01"/><path fill="#744e48" d="M323.586 1757c.103.077.205.156.307.234-.002-.21-.1-.292-.307-.235"/><path fill="#267680" d="M353.327 1784.068l-26.294-.837c.508 3.38.508 3.38-2.98 3.37-.866 0-1.73.01-2.596-.01-1.07-.02-2.045-.18-2.054 1.51-.008 1.69.73 1.91 2.132 1.86 2.405-.09 4.817-.03 7.226-.03.12 0 .23.07.59.17-1.8 1.05-3.29 2.16-5.42 2.13-3.45-.05-6.91-.17-10.35.37-.03.06-.08.11-.09.16-.48 3.55-.35 3.75 3.15 3.71 9.5-.1 18.99-.48 28.49-.63 2.7-.04 5.42-.25 8.13-.3.69-.01 1.36-.1 1.94-.51.87-.91.8-2.05.67-3.14-.21-1.78-.34-3.55-.31-5.34.04-1.51-.48-2.52-2.2-2.44"/><path fill="#4d9ba9" d="M355.145 1794.755c-6.72.15-13.453.1-20.157.505-6.096.37-12.2.124-18.293.567-3.374.246-3.196.783-3.13-3.245l-.13-.06-.143.015c.012 1.508-.253 3.03.222 4.515.532.477 1.168.69 1.87.686 5.003-.026 10.006.164 15.005-.096 1.13.027 2.26.218 3.39-.027.43-.018.87.014 1.3-.027 1.7.12 3.4-.243 5.11.023 4.67.36 9.33.14 13.99-.33 1.59.2 3.19.18 4.77.04.98-.08 1.83-.48 1.79-1.67-.04-1.08-.85-1.46-1.75-1.52-1.33-.09-2.72-.36-3.87.65"/><path fill="#267680" d="M313.123 1786.42c.03 1.167.062 2.333.093 3.5.736.006 1.48-.06 2.205.036 1.68.224 1.95-.667 1.88-2.06-.04-.903-.28-1.363-1.26-1.346-.97.017-1.94-.08-2.91-.13"/><path fill="#4d9ba9" d="M227.625 1813.362c-1.235-.3-2.736.756-3.737-.734-1.343 1.212-1.43 3.093-.22 4.818.668-2.688.668-2.688 3.99-2.564l-.033-1.52"/><path fill="#28a3b2" d="M227.213 1826.458c-.397.83-.233 1.688-.12 2.543.287-.83.183-1.69.12-2.54"/><path fill="#1f8694" d="M355.145 1794.755l4.044.03c.59.003 1.11.085 1.15.852.04.865-.51.993-1.2 1-1.72.017-3.43.048-5.15.074-.72.65-.69 1.58-.84 2.41-.25 1.33-.86 2-2.29 1.68-.48-.11-.98-.14-1.48-.15-1.11-.01-1.89.54-1.86 1.62.09 2.95-.03 5.92.66 8.82 1.04 1.04 2.38.64 3.61.73 1.32.09 1.82.55 1.02 1.8-.21 2.78.17 5.54.29 8.3.02.43.17.85.15 1.29-.03.84.22 1.86-.86 2.22-1.12.38-2.33.44-3.44-.03-.59-.25-.5-.93-.52-1.48-.04-1.3.02-2.6-.04-3.89-.08-1.91-.65-2.68-1.88-2.64-1.2.04-1.77.86-1.76 2.76 0 1.98.34 3.93.45 5.91.06 1.23.25 2.46.3 3.69.04.95.24 1.85 1.01 2.5.89.56 1.9.46 2.88.48 2.76.06 5.53-.05 8.29.22-1.94.2-3.89.32-5.81.09-1.79-.22-3.57-.3-5.36-.26-9.71.2-19.39-.4-29.09-.47-3.93-.03-3.47.32-3.31 3.52l.13 2.58 36.61.32c3.59-.01 7.18-.05 10.77-.01 1.29.01 1.59-.3 1.48-1.72-.35-4.3-.4-8.63-.57-12.95-.05-1.17.08-2.34-.25-3.51-.33-1.12.19-1.56 1.34-1.54 2.35.06 4.7-.02 7.05.04 1.12.03 1.62-.37 1.51-1.5-.8-7.95.04-15.94-.65-23.9-.26-2.94-.03-5.93-.02-8.9l-.02.02c-1.48-.36-3 .08-4.48-.25l-13.77-.38c1.06.28 1.53.83 1.52 2.06-.02 2.88.18 5.75.3 8.63"/><path fill="#e6d0c0" d="M326.456 1777.66c.106 1.128.008 2.284.457 3.365l53.136 1.83c0-.73.02-1.46-.01-2.187-.09-2.434-.17-2.502-2.61-2.572-12.42-.128-24.84-.266-37.27-.383-4.57-.043-9.15-.037-13.72-.053"/><path fill="#28a3b2" d="M367.095 1784.447c1.47.527 2.983.216 4.48.246-1.47-.512-2.98-.28-4.48-.246"/><path fill="#e6d0c0" d="M223.668 1817.447c-.03-1.61-.162-3.227.22-4.82.28-8.77.524-17.544.875-26.313.063-1.57-.392-1.958-1.924-1.936-6.06.087-12.12.067-18.18.013-1.31-.01-1.97.17-2.06 1.74-.21 3.51-.67 7.01-1.02 10.52.1.76-.07 1.49-.27 2.21l-1.22 13.03c.03.65.1 1.3-.25 1.89-.02.5-.03.99-.06 1.49-.21 3.18-.21 3.21 3 3.59 6.45.77 12.91 1.46 19.36 2.24 1.05.13 1.5-.12 1.44-1.21-.04-.8.03-1.61.05-2.41"/><path fill="#267680" d="M346.613 1831.934c-.692-1.77-.267-3.658-.573-5.487-.393-2.352-.38-4.773-.532-7.164-.05-.81.06-1.478 1.144-1.462 1.113.02 1.092.76 1.09 1.53 0 1.79.07 3.58-.02 5.37-.068 1.34.482 1.66 1.73 1.68 4.865.07 4.966-.11 4.326-4.94-.354-2.67-.317-5.39-.457-8.09-.12-.91-.88-1.01-1.51-1.02-4.85-.11-9.71-.14-14.56.04-.31.01-.59.15-.86.3-.8.57-.8 1.47-.91 2.32-.11.86-.25 1.71-.32 2.57-.25 3.55-1.19 4.31-4.75 4-.97-.09-1.23-.62-1.25-1.47-.04-1.6.01-3.2-.04-4.8-.02-.85.02-1.74-.64-2.44-.63-.4-1.27-.4-1.91-.03-.79.78-.65 1.8-.68 2.77-.03 1.12.27 2.2.32 3.3.05 1.08-.39 1.6-1.5 1.59-1.29-.01-2.59-.02-3.87.14-1.01.13-1.3-.4-1.32-1.28-.03-1.41.02-2.83-.04-4.24-.04-.85-.02-1.74-.79-2.36-1.24-.59-2.54-.2-3.81-.2-.82 0-1.14.57-1.11 1.38.09 2.7-.13 5.4.12 8.1l.12 9.62c.99.88 2.26.69 3.37.67 8.85-.15 17.68.61 26.53.41.97-.02 2.01.15 2.75-.74"/><path fill="#267680" d="M348.506 1811.164c-.02-2.84-.003-5.68-.374-8.51-.153-1.16.193-1.666 1.583-1.374 3.664.77 4.296.177 4.335-3.644.003-.31-.03-.618-.046-.926-4.688.412-9.39.22-14.084.318-.635.664-.516 1.46-.44 2.273.21 2.29.057 4.58.11 6.86.043 1.87-1.265 1.6-2.413 1.71-1.313.13-1.713-.48-1.75-1.72-.062-2.17.504-4.3.377-6.47-.054-.91.075-1.87-.678-2.61h-1.166c-1.08 1.28-.492 2.82-.69 4.24-.115.82.434 2.19-.872 2.25-1.565.08-.91-1.4-1.04-2.25-.215-1.41.386-2.96-.694-4.24h-17.15l.147 14.73c.61.88 1.54.68 2.37.65 9.31-.4 18.62-.07 27.92-.18 1.05-.01 2.09-.07 3.12-.33.55-.14 1.08-.27 1.44-.75"/><path fill="#28a3b2" d="M346.613 1831.934c-10.887.263-21.763-.45-32.65-.336-.018 1.393-.102 2.79.217 4.165.235-2.88.235-2.88 3.124-2.726.124.006.248.002.372.004 10.386.14 20.774.18 31.156.45 3.018.08 6.04.31 9.065.29.67 0 1.653.32 1.675-.87.022-1.19-.953-.91-1.634-.92-3.775-.03-7.55-.04-11.325-.05"/><path fill="#4d9ba9" d="M348.506 1811.164c-9.636.685-19.29.224-28.933.387-1.974.04-3.926.58-5.912.24-.12 3.4-.24 6.8.19 10.19.02-2.39.11-4.79.04-7.19-.04-1.34.33-1.95 1.76-1.81 1.04.11 2.09.04 3.14.05 2.58 1.13 5.16 1.09 7.75.04l1.92-.01c2.58 1.09 5.17 1.07 7.75.02l15.92-.03c.44 0 .87 0 1.22.32.99-.23.77-1 .65-1.63-.12-.62-.73-.55-1.21-.55-1.41 0-2.83.01-4.24.01"/><path fill="#206071" d="M300.2 1865.34c.94-4.613-.317-9.22-.05-13.834.048-.85-.575-.993-1.256-.966-5.293.218-10.585.44-15.878.66-.308.013-.616.055-.924.062-5.86.135-11.725.152-17.577.43-7.083.335-14.163.633-21.253.763-1.46.027-2.933.334-4.415.324h-.003c.25 3.84-.515 7.66-.383 11.5.58 1.39 1.69 1.88 3.11 1.86.13-.01.25 0 .37 0 10.87-.25 21.73.61 32.59.3 7.78-.22 15.55-.25 23.33-.32.86-.01 1.76.02 2.35-.8"/><path fill="#1d5172" d="M300.2 1865.34c-.186.015-.37.046-.556.042-11.07-.245-22.135.633-33.193.312-8.46-.246-16.93-.27-25.39-.25-1.17 0-1.68-.893-2.59-1.16-.42 1.19-.4 2.428-.38 3.667.07 3.75-.47 2.59 3.05 3.38.24.06.5.02.74.03 9.84.14 19.69.09 29.52.48 5.7.23 11.39 0 17.07.38 3.41.23 6.8.15 10.2.31 1.41.07 2.11-.31 1.92-1.85-.22-1.76.29-3.58-.36-5.32"/><path fill="#267680" d="M270.718 1776.1c-.505 4.496-.208 9.01-.293 13.515-.19 10.14-.3 20.285-.455 30.428-.018 1.147.162 2.526-1.75 2.195-.84.68-.743 1.654-.753 2.567-.035 3.157.01 6.314-.023 9.47-.02 1.95-.182 2.16-2.148 2.13-7.787-.127-15.575-.25-23.354-.704-1.504-.08-1.712-.78-1.547-2.05.496-3.8.72-7.69.517-11.46-.312-5.84.694-11.6.335-16.71-.175 1.31.015 3.33-.13 5.35-.2 2.77-.24 5.55-.392 8.33-.038.71-.426 1.92 1.13 1.66.35-.31.485-.73.463-1.16-.125-2.53.42-5.02.444-7.56.06-6.58.525-13.16.805-19.74.136-3.2.297-6.39.16-9.59-.437-.72-.722-1.48-.636-2.36.06-.6.02-1.21-.57-1.6-.59 3.49-.22 7.03-.62 10.53-.23 2.09-.22 4.2-.36 6.3-.06 1 .41 2.28-1.38 2.42-.49.04-.42.95-.45 1.49-.53 9.33-1.05 18.65-1.58 27.98-.15 2.66-.21 5.32-.5 7.96-.14 1.3.07 1.72 1.46 1.77 8.16.28 16.32.67 24.48 1.01 11.81.5 23.61.99 35.42 1.47 2.65.11 2.63.08 2.56-2.52l-.75-28.76c-.07-2.72-.17-5.44-.27-8.16-.02-.54.1-1.31-.71-1.24-1.62.13-1.56-.87-1.6-1.98-.12-3.33-.29-6.67-.45-10-.55-.41-1.11-.53-1.71-.1-.61.67-.46 1.5-.48 2.29-.15 9.14.55 18.27.45 27.42-.02 2.19.23 4.43.4 6.64.07.23.18.43.35.6 1.74.33 2.07.12 1.94-1.75-.32-4.56-.04-9.12-.19-13.55.02-.38.43-.12.19-.17-.03-.01-.05.02-.06.08-.22 2.15-.13 4.31-.07 6.46.18 6.8-.36 13.58-.2 20.38.01.19-.01.37 0 .56.06 1.35-.69 1.78-1.88 1.57-2.46-.44-4.94-.27-7.41-.28-5.44-.02-10.87-.57-16.32-.41-1.9.06-2.2-.38-2.25-2.33-.09-3.29.084-6.56.35-9.83.08-1.03.58-1.57 1.42-1.96.19-.14.34-.323.45-.54.36-1.46.21-2.95.17-4.42-.244-9.93.6-19.84.39-29.763-.02-.867.04-1.73-.074-2.59-.04-.23-.13-.44-.256-.636-1.07-.62-1.42-1.55-1.37-2.766.06-1.28.05-2.57-.02-3.86-.04-.72-.03-1.49-.77-1.953"/><path fill="#1d5172" d="M241.77 1820.787c-1.084-.308-.67-1.212-.667-1.866.022-4.45.504-8.89.318-13.34-.02-.58 0-1.17-.14-1.76-.32 2.52-.35 5.04-.51 7.55-.44 6.9-.59 13.83-.84 20.74-.04 1.34-1 2.92-.06 3.94.91 1 2.61.15 3.91.46 1.41.33 2.83.26 4.25.29 6.06.13 12.12.23 18.18.42 1.52.05 2.06-.38 2.03-1.96-.08-4.33 0-8.66.01-13-.03-.08-.07-.16-.12-.23-.69-.76-1.44-.72-2.23-.15-.58.69-.44 1.52-.45 2.31 0 3.09.01 6.17-.35 9.25-.15 1.27-.68 1.83-1.88 1.7-6.22-.67-12.47-.17-18.71-.4-2.48-.09-2.68-.52-2.53-3.03.18-2.95-.13-5.93.39-8.88.1-.59.08-1.24-.3-1.79l-.26-.21"/><path fill="#293a49" d="M297.113 1764.254c-.046-2.528-.122-5.057-.123-7.585 0-1.01-.326-1.41-1.39-1.4-7.778.03-15.554.03-23.33 0-1.072-.01-1.392.38-1.373 1.4.045 2.4.003 4.81-.003 7.21.54.61 1.195.62 1.904.38.21-.1.38-.25.512-.44.5-1.31.216-2.68.258-4.02.045-1.43.6-2.19 2.14-2.03 5.753.57 11.55.12 17.302.74 1.297.13 1.798.71 1.795 2.02-.002 1.26-.362 2.59.403 3.79.66.51 1.295.49 1.905-.09"/><path fill="#214552" d="M268.407 1763.91c.037-2.475.054-4.95.123-7.422.024-.86-.26-1.22-1.16-1.217-7.55.03-15.1.01-22.648.02-.403 0-1.008-.12-1.055.47-.206 2.62-.914 5.21-.45 7.86.386.27.796.46 1.287.38.35-.06.644-.22.87-.49.69-1.12.503-2.39.497-3.61 0-1.3.46-1.92 1.84-1.92 5.24.02 10.49.02 15.73 0 1.39-.01 1.83.61 1.81 1.91-.01 1.28-.2 2.6.38 3.83.18.3.43.5.74.62.53.15 1.05.2 1.58-.01.19-.09.35-.23.47-.41"/><path fill="#267680" d="M265.978 1822.012l2.12-.008c.057-10.694.13-21.388.155-32.083.005-1.84.496-3.69-.002-5.53-.54-.41-1.1-.5-1.69-.09-.66.82-.77 1.78-.77 2.79.01 2.47-.06 4.94.02 7.4.25 8.2-.52 16.38-.38 24.57.02.8-.06 1.61.14 2.4.09.24.23.42.43.57"/><path fill="#206071" d="M297.113 1764.254c-.56-.014-1.12-.03-1.68-.043-.212.11-.37.27-.477.48-.56 1.68.243 3.3.216 4.96-.07 4.27-.006 8.54-.034 12.8-.01 1.37.085 2.72.482 4.03.08.22.21.41.39.56l1.707-.02c.05-.1.024-.17-.076-.22.16-1.1.18-2.2 0-3.29.01-6.42-.14-12.83-.52-19.24m-24.41-.27l-1.8-.09-.17 12.21c.02 2.27.13 4.54.04 6.8-.05 1.44.38 2.1 1.86 1.84.59-.42.57-1.06.58-1.67.03-5.78.02-11.56.01-17.35 0-.61 0-1.24-.5-1.72m-6.11 20.49l1.66-.08c.04-.1.04-.2 0-.3.1-.17.1-.35 0-.53v-.59c.15-.36.18-.72.05-1.1.25-2.15.14-4.31.07-6.48-.09-3.81.25-7.63-.18-11.43l-1.42-.05c-.73.68-.59 1.58-.6 2.44-.01 4.46-.06 8.91.03 13.36.03 1.48-.74 2.91-.17 4.4.13.23.32.35.57.39m-22.18-20.91l-1.19.06-.7 15.15c.47 1.22-.83 2.83.83 3.79.26.06.46-.03.6-.25.26-.45.27-.94.26-1.43-.13-4.54.67-9.06.37-13.6-.08-1.24.91-2.53-.16-3.71"/><path fill="#267680" d="M268.187 1763.954c.14 3.81-.237 7.63.184 11.435.2-3.83.24-7.66.04-11.48-.08-.01-.15 0-.22.04m29.45 19.54l.01 3.29c.39-1.1.35-2.2-.01-3.3m-29.33-1.63l-.05 1.09c.21-.36.25-.73.05-1.1m-.05 1.68v.53c.16-.18.16-.36 0-.53"/><path fill="#206071" d="M335.127 1797.058c.203 3.214-.365 6.396-.413 9.6-.022 1.52.234 2.265 2.098 1.962 3.465-.564 3.487-.438 3.482-4.03-.004-2.527.08-5.058-.373-7.562-1.6-.63-3.19.02-4.79.03m-4.46-.006c0 2.026.04 4.054-.02 6.078-.04 1.295.74 1.317 1.68 1.32.94.006 1.71-.025 1.68-1.317-.06-2.024-.02-4.052-.02-6.078-1.1 0-2.19-.002-3.29-.003"/><path fill="#f39f82" d="M221.734 1815.904c0-.557-.024-1.116.004-1.672.042-.843-.3-1.213-1.177-1.266-5.54-.34-11.09-.69-16.64-1.107-1.28-.1-1.87.28-2.13 1.59-.64 3.22-.71 3.3 2.54 3.72 5.08.66 10.17 1.21 15.27 1.74 2.14.22 2.15.14 2.15-3.02"/><path fill="#cda993" d="M207.365 1805.95c-1.05 0-2.102.013-3.153-.006-.69-.012-.94.335-1.09.98-.21.92.45.838.95.957.42.1.845.23 1.27.24 4.868.06 9.727.3 14.58.73.727.07 1.7.33 1.773-.98.07-1.26-.79-1.13-1.606-1.18-4.24-.26-8.48-.54-12.72-.82l-.01.09m8.07-.79c.74 0 1.48.01 2.21 0 .51-.01 1.04-.05 1.01-.76-.03-.58-.49-.62-.93-.66-1.71-.12-3.43-.38-5.14-.34-1.87.05-3.67-.37-5.51-.41-.86-.01-1.57.24-1.56 1.15.01.96.9.66 1.43.64 2.83-.12 5.64.28 8.46.4"/><path fill="#206071" d="M336.185 1813.06l-7.75-.014c-.005 2.533.032 5.068-.032 7.6-.03 1.16.3 1.76 1.56 1.63 1.53-.155 3.064-.266 4.597-.375.613-.04.84-.37.907-.94.31-2.62.734-5.24.717-7.89m-9.67 0l-7.747-.04c0 2.41.015 4.81-.014 7.22-.012.95.375 1.48 1.32 1.22 1.705-.47 3.433-.3 5.147-.27 1.276.02 1.81-.37 1.697-1.69-.185-2.14-.535-4.27-.402-6.43"/><path fill="#1d5172" d="M272.27 1822.352c-1.844-.428-2.225.38-2.315 2.147-.187 3.64-.197 7.28-.313 10.93-.048 1.52.67 1.96 1.94 2.06.184.01.37.01.556.01 6.925.13 13.85.26 20.775.42 1.6.04 3.2.21 4.8.32.9.06 1.39-.25 1.372-1.25-.166-9.95-.312-19.89-.766-29.84 0 4.93-.03 9.86.01 14.8.01 1.15-.12 2-1.58 1.75-.63.59-.48 1.37-.48 2.09-.03 2.47.01 4.95-.02 7.42-.03 1.93-.36 2.36-2.31 2.22-6.36-.44-12.72-.34-19.08-.34-1.55 0-2.06-.74-2.04-2.18.03-2.85.02-5.69 0-8.54-.01-.73.14-1.51-.56-2.06"/><path fill="#657fab" d="M272.27 1822.352c.016 3.77.102 7.543.012 11.312-.036 1.516.52 1.937 1.93 1.906 2.47-.055 4.946.002 7.42.054 4.507.095 9.016.184 13.522.358 1.324.052 1.713-.406 1.68-1.693-.087-3.53-.06-7.05-.08-10.58-.042-.08-.073-.16-.095-.24-.39-.06-.67.1-.89.4-.86 2.4-.35 4.88-.41 7.33-.1 3.52.53 3.54-3.41 3.29-5.43-.34-10.85-.32-16.27-.31-1.47 0-1.97-.58-1.93-1.99.05-2.41.02-4.82 0-7.22-.01-.86.04-1.74-.46-2.51-.25-.29-.54-.43-.9-.2l-.13.05z"/><path fill="#28a3b2" d="M243.587 1782.428c-.077.048-.157.09-.24.126-.41 10.716-.77 21.434-1.273 32.145-.096 2.02-.21 4.05-.304 6.08l.106.05c.388.18.688.05.944-.26.755-2.51.757-5.12.804-7.69.137-7.35.783-14.68.85-22.03.02-1.96.354-3.94.298-5.92-.023-.81-.01-1.62-.535-2.31-.18-.18-.396-.26-.65-.23m52.606 41.3l.467-.26c.442-3.33-.197-6.64-.22-9.97-.065-8.82-.276-17.65-.43-26.47h-.05c-.38-.31-.657-.11-.918.18-.36.54-.456 1.15-.44 1.78.095 4.07-.192 8.15.258 12.23.338 3.06.168 6.18.067 9.27-.122 3.78.41 7.53.418 11.3 0 .5.097.98.33 1.43.122.22.295.38.518.49m-23.798-1.43l.543.04.3-.21c.445-.57.52-1.24.523-1.92.02-7.02.03-14.03 0-21.05 0-.31-.09-.61-.13-.91-.11-2.31-.02-4.63-.05-6.94-.06-1.32.03-2.62.35-3.91-.02-.77.16-1.57-.35-2.26-.29-.24-.6-.28-.9-.02-.02 5 .15 10-.11 14.99-.35 6.72-.12 13.44-.25 20.15-.01.67.06 1.35.1 2.02"/><path fill="#1f8694" d="M272.665 1785.13c.207.004.414.01.62.015.578-.322.662-.888.638-1.448-.134-3.09.408-6.176.078-9.268.29-2.92.12-5.84.11-8.76 0-.55-.13-1.09-.47-1.55-.17-.2-.39-.28-.64-.25-.1.03-.19.07-.29.11-.02 6.91-.05 13.82-.08 20.74l.05.4"/><path fill="#657fab" d="M242.39 1820.792l-.515.048c-.23 4.12-.446 8.243-.702 12.363-.065 1.053.036 1.652 1.383 1.794 2.59.272 5.177.19 7.764.23 4.563.073 9.13-.005 13.685.354 1.193.1 1.53-.34 1.627-1.55.32-4 .123-8.01.347-12.01-.01 0-.14-.07-.14-.07-.19-.15-.4-.19-.63-.12-.19.13-.33.3-.43.51-.6 2.69-.17 5.42-.29 8.12-.03.68 0 1.36-.04 2.04-.06 1.1-.58 1.72-1.74 1.71-.87 0-1.74.09-2.6-.01-4.99-.62-10-.23-14.99-.34-2.51-.05-2.45-.07-2.36-2.48.13-3.38.32-6.76.12-10.14-.12-.2-.29-.34-.51-.41"/><path fill="#206071" d="M272.99 1763.874l.356.106c.086-.06.17-.122.258-.182.712-1.055.483-2.264.498-3.413.015-1.144.417-1.668 1.624-1.69 5.606-.107 11.19.61 16.798.407.926-.034 1.3.487 1.334 1.383.04 1.104-.043 2.222.276 3.306.07.21.177.39.32.54.295.2.586.21.87-.02l.11-.09c-.04-1.6-.126-3.2-.105-4.8.01-1.02-.36-1.4-1.4-1.44-3.39-.13-6.76-.38-10.15-.37-2.89.01-5.79-.12-8.67-.36-1.8-.15-2.26.57-2.13 2.21.11 1.47 0 2.96-.01 4.44"/><path fill="#293a49" d="M265.947 1763.9c.006-1.672-.036-3.344.033-5.012.05-1.163-.306-1.667-1.564-1.658-5.816.044-11.633.04-17.45-.01-1.387-.01-1.877.554-1.822 1.887.06 1.482.003 2.97-.003 4.454l.24.27c.53.37 1.15.45 1.77.46 5.36.02 10.73-.04 16.08.38.86.07 1.74.05 2.5-.48.08-.09.15-.18.23-.27"/><path fill="#1f8694" d="M266.373 1784.327c.61-6.8.19-13.622.388-20.43-.27 0-.54 0-.81.002l.06.07c-.55.48-.75 1.12-.75 1.81 0 2.81-.17 5.63.1 8.44-.14 3.13.06 6.26.14 9.39.05.23.15.44.29.63.19.19.39.22.62.07m-22.79-1.9l.46.09.26-.23c.66-1.12.63-2.41.68-3.61.18-4.56.7-9.12.55-13.69-.02-.51-.03-1-.43-1.37l.04-.07h-.73c-.48 6.28-.65 12.57-.82 18.87"/><path fill="#28a3b2" d="M266.373 1784.327c-.13.02-.257.04-.386.062-.962 1.6-.887 3.45-.89 5.17-.006 5.56-.124 11.12-.32 16.68-.15 4.32-.328 8.64-.296 12.96.01.97-.13 2.01.83 2.7l.54.02c.04-.43.11-.86.11-1.29.15-11.02.28-22.03.43-33.04.02-1.05.14-2.1.21-3.14-.07-.05-.14-.09-.21-.15"/><path fill="#1f8694" d="M295.322 1764.307c-.21.03-.42.058-.63.086-.6.442-.49 1.098-.48 1.7.12 6.24-.304 12.49.374 18.72.074.677.072 1.362.493 1.948l.27.23.6.06c-.55-7.57.07-15.17-.64-22.73"/><path fill="#1d5172" d="M296.193 1823.73c-.064-.094-.127-.19-.188-.285-.528-.63-1.26-.763-2.01-.763-2.163 0-4.317-.27-6.466-.32-4.26-.1-8.5-.543-12.76-.56-.64-.003-1.24.027-1.72.5l-.12.046c-.01 3.65.02 7.3-.03 10.95-.02 1.17.32 1.645 1.57 1.66 6.74.083 13.48.21 20.21.398 1.44.04 1.66-.36 1.57-1.797-.21-3.27-.08-6.56-.09-9.83"/><path fill="#267680" d="M265.31 1821.918c-.315-6.414.226-12.816.267-19.225.04-6.103-.02-12.21.41-18.304l-.05-.4c-.4-.72.075-1.57-.313-2.29-1.25.23-1.038 1.29-1.014 2.06.13 4.03-.587 8.02-.428 12.05.022.57.274 1.37-.423 1.66-.53.21-1.03-.33-1.48-.65-1.79-1.27-3.33-2.75-4.37-4.73-1.14-2.16-1.12-4.25-.03-6.4.34-.69 1.01-1.31.64-2.22-.16-.15-.34-.27-.54-.34-3.96-.75-7.99-.75-11.96-1.27-.67-.09-1.37-.01-1.87.59l-.13.04c-.32 11.28-.81 22.56-1.45 33.84-.08 1.47-.14 2.95-.21 4.43l.13.06c1.25 1 2.75 1.01 4.22 1.04 4.79.08 9.58.35 14.36.7 1.38.1 2.84.4 4.08-.6l.11-.07zm7.743.384c7.64.57 15.29.97 22.952 1.142-.217-9.806-.444-19.612-.644-29.42-.04-2.345 0-4.692 0-7.038l-.13-.033c-.4-.52-.98-.765-1.59-.827-3.6-.365-7.2-.693-10.82-.935-.42-.02-.85.08-1.25.26-.69.34-.67.94-.61 1.59.49 5.16-1.57 8.46-6.41 10.32-.34.13-.7.23-1.02.43-.15.12-.28.26-.39.41l-.06 24.13"/><path fill="#1d5172" d="M273.433 1774.33c-.05 3.604-.098 7.21-.147 10.815l.1 2.27c.214.078.4.036.563-.122.76-1.16.39-2.47.5-3.72.06-.717-.07-1.458.23-2.146.35-.555.23-1.31.73-1.908 1.58.91 2.31 2.34 2.83 3.94.59.76 1.14 1.61 2.34 1.27.44-.51.49-1.13.41-1.74-.5-4.09-2.9-6.8-6.37-8.71-.39-.22-.82-.28-1.21.05"/><path fill="#267680" d="M273.742 1787.363c-.12.013-.238.03-.356.05-.41 1.195-.295 2.426-.27 3.65.452 1.477-.45 3.1.493 4.523.43-.192.66-.562.72-.99.27-2.112.27-4.232 0-6.345-.05-.36-.27-.67-.59-.88"/><path fill="#1f8694" d="M273.432 1795.523c-.2-1.48.26-3.006-.315-4.46v7.108l.32-.05c.686-.86.77-1.73-.005-2.59"/><path fill="#206071" d="M273.433 1774.33c4.742 2.144 7.15 5.784 6.974 10.54-.066.553.026.993.72 1 4.724.038 9.395.775 14.098 1.084l-.533-22.56c-.05-.042-.095-.086-.138-.134-.432-.528-1.045-.64-1.665-.675-5.8-.317-11.59-.53-17.39-.393-.76.018-1.49.105-2.05.684l-.11.104.08 10.35"/><path fill="#1d5172" d="M265.195 1821.987c-6.334-.28-12.667-.567-19.002-.83-1.23-.05-2.42-.53-3.67-.303-.68 3.977-.12 8.027-.718 12.01-.2 1.318.447 1.73 1.702 1.717 3.214-.03 6.43 0 9.644.06 3.28.07 6.55.13 9.81.34 1.63.11 2.27-.5 2.26-2.05-.02-3.64-.01-7.29-.02-10.94"/><path fill="#293a49" d="M273.452 1763.876c7.034.13 14.068.257 21.102.385.014-1.65.036-3.31.038-4.96 0-.6-.337-.9-.932-.91-.185 0-.37-.02-.556-.01-5.944.21-11.867-.42-17.807-.43-1.42 0-2.066.34-1.927 1.87.123 1.35.062 2.72.082 4.08"/><path fill="#206071" d="M244.172 1782.48l13.978 1.156c.636-.57.803-1.355.945-2.138.55-3.034 2.264-5.08 5.168-6.122.64-.23 1.248-.508 1.68-1.065.018-3.44.038-6.89.058-10.33-6.96-.21-13.93-.62-20.9-.35-.09.42-.25.84-.25 1.26-.07 5.33-.33 10.64-.78 15.95-.04.54.07 1.1.11 1.65"/><path fill="#1d5172" d="M265.942 1774.31c-5.047.965-7.33 3.697-7.792 9.327l.417.053c.9.16 1.397-.37 1.812-1.047.35-1.31.72-2.623 1.92-3.457.45-.312.95-.714 1.51-.438.56.278.23.878.25 1.34.01.31.03.612.16.897.27.53.86.52 1.29.773.24.727-.2 1.574.39 2.24v-9.687"/><path fill="#f1d392" d="M260.028 1782.545c-.487.38-.974.762-1.46 1.144-2.89 3.6-2.867 7.2.117 10.75 1.567 1.86 3.48 3.29 5.877 4.42l.982-17.11c.018-.79-.586-.67-1.064-.73-1.82-.48-3.262.14-4.452 1.51m21.098 3.32l-.72-1-1.813-1.59c-.99-1.43-2.34-2.18-4.096-2.16-.912.2-.575.96-.606 1.49-.09 1.58-.1 3.16-.14 4.74-.04 2.72.34 5.46-.31 8.16l.01 2.59c4.76-.54 10.24-6.26 7.69-12.25"/><path fill="#206071" d="M274.497 1781.124c1.365.72 2.73 1.438 4.096 2.157-.076-2.03-1.46-3.26-2.83-4.47-.607-.53-1.14-.42-1.22.5-.05.61-.033 1.22-.046 1.83m-14.47 1.42l4.453-1.51c.022-.24.02-.49.07-.72.182-.81.74-1.86-.064-2.36-.78-.48-1.784.17-2.502.69-1.29.95-2.025 2.25-1.956 3.92"/><path fill="#267680" d="M263.396 1791.103c.545-2.05.24-4.164.48-6.238.083-.735-.284-1.013-.985-.92-1.44.188-2.75.603-3.6 1.91.17 1.716.9 3.17 2.06 4.417.55.586 1.12 1.183 2.06.83"/><path fill="#1d5172" d="M263.396 1791.103c-1.62-.686-2.47-2.05-3.155-3.568-.26-.588-.23-1.352-.95-1.68-.43.396-.72.865-.77 1.46-.05 3.043 1.83 5.087 3.71 7.126h.01c.37.2.73.26 1.07-.05.04-1.09.07-2.19.11-3.28"/><path fill="#267680" d="M262.22 1794.44c-.198-1.347-1.32-2.166-1.885-3.303-.627-1.264-1.216-2.547-1.82-3.822-1.103 3.135.328 5.886 3.705 7.126m1.073-.05l-1.068.05c.79.71.816.71 1.068-.05m15.68-7.79c-.055-.11-.084-.24-.168-.32-.958-.86-2.026-2.2-3.22-1.76-.88.33-.275 2-.326 3.07-.06 1.29.03 2.59.05 3.89 2.1-.52 3.42-2.28 3.65-4.87"/><path fill="#1d5172" d="M278.973 1786.598c-.974 1.808-1.8 3.726-3.657 4.87-.01.968-.02 1.934-.032 2.9 1.89-.012 2.596-1.57 3.458-2.8.716-1.024 1.273-2.204 1.02-3.558-.076-.575-.338-1.046-.79-1.412"/><path fill="#267680" d="M279.762 1788.01c-.82 2.594-2.232 4.77-4.478 6.36-.048.39-.323.95.484.77 2.755-.61 4.817-4.308 3.994-7.13"/><path fill="#ebe9e9" d="M376.84 1887.115c-14.558-5.925-30.266 6.143-44.65-2.836-.743-.47-2.146-1.04-2.56-.7-12.445 9.97-27.202 2.12-40.148 2.74-12.664.61-27.06 5.19-40.19-.73-1.228-.56-2.84-1.27-3.96-.91-23.315 7.44-47.732-5.29-71.038 3.87-2.5.98-6.158-.99-9.277-1.59-.747 1.28-1.495 2.56-2.255 3.83 2.954 3.02 7.657 4.76 7.505 10.1l2.217 2.69c9.424-1.14 18.738-1.17 27.662 2.74l.713-2.74c-.19-7.9 5-11.67 11.53-12.92 8.02-1.54 12.09 4.7 16.06 10.34.79-.03 1.59-.06 2.38-.1 7.08-11.99 15.05-11.75 25.34.75.71-.25 1.38-.58 2.02-.98 8.31-14.15 17.11-14.11 25.31.1.61.29 1.25.43 1.92.41 8.97 3.75 18.47 1.87 27.73 2.57 7.79-17.32 16.58-18.19 28.53-2.82 8.75 4.72 18.3 1.7 27.43 2.86.59.01 1.18.03 1.77.07-1.07-5.8 3.11-8.81 6.51-12.22l-.6-4.6"/><path fill="#d15943" d="M172.483 1903.61c-.74-.896-1.478-1.792-2.217-2.69-4.103 3.76-9.196 2.522-13.995 2.774-4.31.227-9.27-.89-10.86 5.12l25.23 63.856 18.91.055 3.17-.24c-5.64-23.28-15.82-45.228-20.22-68.875m198.55 69.128l25.31-63.977c-6.92-9.76-16.95-3.18-25.42-4.83-.59-.04-1.18-.06-1.77-.07-4.23 23.61-14.57 45.43-20.03 68.68l21.91.22z"/><path fill="#c05345" d="M370.922 1903.925c8.464 1.656 18.496-4.927 25.417 4.836 2.85-13.71-3.34-19.29-18.9-17.05-3.41 3.42-7.59 6.42-6.52 12.22m-225.51 4.89c1.59-6.01 6.54-4.89 10.86-5.12 4.8-.25 9.89.99 13.99-2.77.15-5.34-4.55-7.08-7.51-10.1-15.8.23-20.17 4.75-17.35 18"/><path fill="#d25b44" d="M258.654 1972.987l24.19-.24c.87-23.84 1.74-47.678 2.608-71.516-.674.02-1.315-.12-1.925-.41-8.455 4.45-16.894 4.51-25.316-.09-.63.4-1.31.73-2.02.98.34.77.19 1.44-.44 2 1.84 22.99 3.44 45.99 2.8 69.08l.12.22z"/><path fill="#d25b44" d="M215.007 1972.69c14.565-2.162 29.05 7.344 43.648.298l-.114-.217c-21.2.99-21.32 1-24.2-19.15-2.37-16.63-4.44-33.31-6.64-49.97l-26.84-.03-.71 2.74 14.86 66.34"/><path fill="#fdfaf9" d="M285.453 1901.23l-2.61 71.516 22.123-.24 9.055-68.932-.83.224c-9.26-.697-18.75 1.178-27.73-2.567m-57.75 2.42c2.2 16.66 4.27 33.34 6.64 49.98 2.88 20.16 3 20.14 24.2 19.16.65-23.08-.95-46.08-2.79-69.07-8.28-1.1-17.07 2.49-24.9-2.74l-2.38.09c-.2.88-.46 1.75-.77 2.6m-12.69 69.05l-14.86-66.34c-8.92-3.91-18.24-3.88-27.66-2.74 4.4 23.65 14.58 45.6 20.22 68.88l21.47.81.84-.6zm131.26 1.03l2.86-1.19c5.46-23.25 15.8-45.07 20.03-68.67-9.12-1.17-18.68 1.86-27.43-2.87l-.75 2.74L327 1972.8l.442.364 18.825.552"/><path fill="#c05345" d="M340.97 1903.72l.75-2.74c-11.953-15.368-20.75-14.5-28.536 2.818l.837-.224 26.95.146m-113.27-.078c.31-.852.57-1.72.77-2.6-3.97-5.64-8.05-11.88-16.07-10.345-6.53 1.25-11.73 5.017-11.54 12.918l26.84.027m30.52-2.92c8.42 4.603 16.86 4.546 25.32.097-8.2-14.21-17-14.24-25.31-.1"/><path fill="#f0f0f0" d="M230.848 1900.95c7.823 5.238 16.62 1.638 24.9 2.745.628-.558.774-1.223.438-1.994-10.283-12.5-18.253-12.73-25.338-.75"/><path fill="#d25b44" d="M340.97 1903.72l-26.95-.147-9.055 68.934 22.037.294 13.967-69.08"/></g></svg>