<svg xmlns="http://www.w3.org/2000/svg" width="771.294" height="703.104" viewBox="0 0 771.294 703.104"><defs><filter id="a" width="1.08" height="1.24" x="-.04" y="-.12" color-interpolation-filters="sRGB"><feGaussianBlur stdDeviation="11.87"/></filter></defs><path d="M169.86 507.87c-20.78 77.13-51.8 144.5-72.65 221.61 2.1 4.67 8.87 1.05 12.72 2.19 233.25-.08 466.56.17 699.78-.12 4.3-2.59-1.12-8.65-1.01-12.49-20.23-74.16-48.44-142.55-68.69-216.7-196.02 0-373.71 4.04-569.73 4.04l-.27.96zm576.59-9.29l62.93 230.64m-62.93-230.64l62.93 230.64m-62.93-230.64l62.93 230.64" filter="url(#a)" transform="translate(-68.644 -56.844)"/><path fill="#dcd3ba" d="M677.806 441.736l62.93 230.64c.06.24-.24.44-.53.44H31.266c-.29 0-.59-.2-.53-.44l62.07-230.64z"/><path fill="#89d375" d="M658.086 670.606c0-1.11-3.32-4.22-5.07-4.73-2.32-.69-9.22-4.82-9.22-5.52 0-.31-.4-.58-.89-.59-2.66-.09-10.24-9.28-11.92-14.45-.65-1.99-1.6-3.06-3.65-4.11-1.52-.78-3.27-1.41-3.88-1.41-.61 0-2.79-.89-4.85-1.98-2.06-1.09-5.67-2.57-8.02-3.29-6.71-2.05-10.02-3.91-14.7-8.25-3.34-3.1-4.65-4.93-5.69-7.94-.74-2.15-1.36-4.42-1.37-5.05-.01-.63-.95-2.42-2.08-3.98-1.13-1.56-2.28-3.54-2.55-4.39-.27-.86-.79-1.56-1.16-1.56-.37 0-.67-.63-.67-1.4 0-1.9-6.76-8.34-10.71-10.21-1.77-.83-3.47-1.94-3.79-2.45-.31-.51-1.76-.93-3.21-.93-4.63 0-20.86-4.91-20.86-6.31 0-.32-.96-1.65-2.13-2.96s-2.34-3.04-2.59-3.84c-.25-.8-1.7-3.48-3.23-5.97-2.68-4.38-2.77-4.72-2.78-11.11-.01-6.09-.73-9.77-2.5-12.79-.39-.66-3.27-2.44-6.41-3.96s-6.62-3.37-7.73-4.11c-1.69-1.12-4.09-1.42-14.64-1.85-13.36-.55-19.64-1.85-23.82-4.94-1.08-.8-2.23-1.45-2.56-1.45-.33 0-1.01-1.12-1.5-2.5s-1.37-2.5-1.93-2.5c-.56 0-1.03-.31-1.03-.7 0-.92-7.8-8.59-8.74-8.59-.62 0-8.47-3.76-13.05-6.24-.79-.43-3.36-1.15-5.71-1.6-4.77-.92-10.32-3.37-10.87-4.8-.2-.51-.72-.93-1.17-.93-1.4 0-4.5-4.52-5.02-7.33-.28-1.48-.53-7.88-.56-14.22-.05-11.37-.08-11.58-2.06-14.69-1.1-1.74-3.39-4.57-5.09-6.29-1.7-1.72-4.62-4.71-6.48-6.64-1.86-1.93-4.83-4.83-6.59-6.45l-2.79-3.84h275l31.09 115.19c16.88 62.53 29.84 114.01 29.86 114.11.02.1-18.12.18-40.32.18s-40.36-.27-40.36-.61z" opacity=".49"/><path fill="#f7fd9f" d="M520.806 441.736h45l9.93 231.08h-65z"/><g fill="#fff"><path d="M712.806 566.776l10 40h-590l10-35zm-560-125"/><path d="M152.806 441.776h40l-36.07 165.08h-50z"/></g><path fill="none" d="M677.806 441.736l62.93 230.64c.06.24-.24.44-.53.44H31.266c-.29 0-.59-.2-.53-.44l62.07-230.64zm0 0l62.93 230.64m-62.93-230.64l62.93 230.64m-62.93-230.64l62.93 230.64"/><path fill="none" stroke="#000" stroke-width="10" d="M677.806 441.736l62.93 230.64c.06.24-.24.44-.53.44H31.266c-.29 0-.59-.2-.53-.44l62.07-230.64z" opacity=".8"/><g transform="translate(-68.644 -56.844)"><path fill="#71a3d8" d="M451.602 56.844c-111.816 0-201.953 88.996-201.953 198.53 0 176.852 201.95 349.186 201.95 349.186s201.953-175.757 201.953-349.186c0-109.534-90.137-198.53-201.954-198.53z"/><circle cx="451.602" cy="266.374" r="148.327" fill="#fff"/></g></svg>