<svg xmlns="http://www.w3.org/2000/svg" xmlns:xlink="http://www.w3.org/1999/xlink" viewBox="0 0 552.92821 216.43012">
  <style>.verde { fill:#2f6536; } .cyan { fill:#3facd4; } .naranja { fill:#f7ae2c; } .morado { fill:#6e0023; }</style>
  <use xlink:href="#jr" />
  <symbol id="jr" viewBox="0 0 552.92821 216.43012">
    <path class="naranja" d="M482.883 9.304c4.33-3.246 9.675-5.466 14.524-8.053 6.47-2.48 13.652-.77 20.123.85 13.64 4.33 25.87 15.85 28.09 30.37 1.575 10.57-4.606 20.55-12.654 26.91-16.822 13.58-39.18 21.02-60.782 17.49-13.172-2.13-27.094-4.97-37.727-13.58-7.21-5.61-10.55-15.35-8.443-24.22C429.09 25.38 440.398 15.1 452.4 8.8c6.09-2.835 12.72-5.777 19.56-5.26 4.75 3.695-4.87 7.558-7.48 9.86-9.55 6.98-18.58 16.723-19.84 28.99-.96 8.22 2.57 17.378 10.34 21.09 13.92 7.52 31.42 8.24 45.7 1.238 9.133-4.442 17.916-10.364 24.09-18.544 3.7-6.436 3.183-14.47 1.754-21.506-1.14-6.887-6.94-12.03-13.59-13.52-9.79-2.508-20.03-1.775-30.04-1.83z"/>
    <path class="verde" d="M85.8 18.593c-15.645.017-31.445 1.48-46.49 5.926-2.5 1.51 4.687-.15 6.15-.01 6.475-.58 13.012-.76 19.425-1.06 14.193-.02 28.42-.21 42.538 1.51 15.365 1.43 30.616 4.09 45.597 7.83 4.6 1.1 9.19 2.25 13.785 3.37-18.51-9.88-39.43-14.27-60.13-16.51-6.93-.69-13.9-1.06-20.872-1.08z"/>
    <path class="verde" d="M226.433 24.44c-9.775.512-20.698 1.133-28.668 7.425-6.742 9.106-10.68 20.527-19.856 27.78-11.19 8.96-24.82 16.26-39.61 14.99-25.23-1.584-48.17-14.37-68.64-28.314C51.74 34.4 28.4 26 7.29 34.5c-2.682 1.02-12.033 5.435-4.284 2.774 21-5.31 44.314-1.29 61.524 12.178 22.244 16.53 47.364 33.44 76.254 32.776 22.874-1.102 47.173-14.023 55.51-36.33.29-10.555 10.66-14.59 19.715-16.56 7.76-1.3 17.01-3.094 23.75 2.054.37 5.445 10.26 11.23 9.27 2.58-3.1-8.317-13.92-8.6-21.49-9.497l-1.13-.03zM180.2 57.737l-.678.643.68-.642z"/>
    <path class="cyan" d="M108.243 106.027c-32.707-7.16-46.627-41.853-75.555-55.355-6.333-3.282-20.002-7.174-5.037-5.693C61.74 51.12 79.16 88.91 113.61 95c28.804 6.91 55.07-10.942 76.328-28.146 15.754-13.526 42.807-20.627 57.914-2.426 12.86 23.887 44.867 38.02 69.714 23.837 21.47-14.688 41.32-36.575 69.32-36.962 22.86-.584 33.7 24.816 55.3 28.525 32.38 8.587 72.68 12.063 98.625-13.46 5.23-5.077 17.6-19.815 9.38-4.58-17.2 31.64-57.57 39.49-90.33 32.765-26.18-2.505-44.87-24.773-70.26-28.965-30 1.368-48.26 31.064-76.68 37.68-25.82 8.28-54.62-1.52-71.94-21.964-10.89-20.99-36.18-14.023-49.34.25-22.81 18.974-53.5 32.214-83.38 24.474z"/>
    <path class="verde" d="m 249.843,154.507 c 0.252,-1.79 1.56,-2.858 3.386,-2.81 2.04,-0.167 4.55,-0.098 5.97,1.61 0.01,1.58 -1.23,2.815 -1.87,4.174 -0.61,1.16 -1.85,3.09 -0.34,4.06 1.3,0.45 3.04,0.87 2.46,2.65 0.27,1.72 -0.87,3.21 -2.68,2.92 -1.92,0.15 -4.04,-0.27 -5.75,0.85 -0.51,1.55 -1.45,3.04 -1.2,4.74 l 0,3.67 c 3.14,3.86 10.27,3.33 12.53,-1.2 0.17,-1.93 2.45,-1.3 3.85,-1.48 1.22,0.13 3.42,0 3.74,1.39 -0.33,3.45 -3.32,5.92 -6.43,6.96 -4.63,1.57 -9.81,1.45 -14.39,-0.21 -2.29,-1.15 -4.09,-3.1 -5.61,-5.12 -1.18,-1.82 -1.26,-4.2 -0.57,-6.2 -0.11,-1.38 0.76,-2.56 0.11,-3.71 -1.21,-1.04 -3.19,-1.07 -3.95,-2.62 -0.73,-1.99 1.61,-3.01 3.23,-2.83 1.84,-0.1 3.76,0.12 5.53,-0.53 0.99,-1.41 1.44,-3.15 1.95,-4.7 0.01,-0.51 -0.13,-1.02 -0.04,-1.53 z m 139.92,21.84 c -0.134,-7.92 -0.403,-15.84 -0.24,-23.76 2.68,-0.75 5.57,-1.017 8.3,-0.39 0.78,0.22 1.862,0.473 1.8,1.496 0.08,1.24 -0.404,2.45 -0.26,3.693 -0.504,2.768 -0.494,5.595 -0.48,8.4 -0.58,1.204 0.02,2.612 -0.478,3.84 0.164,1.025 -0.283,1.99 -0.3,3 -0.09,1.162 -0.485,2.277 -0.66,3.418 0.114,1.975 -1.762,3.436 -3.567,3.71 -1.534,0.33 -3.46,-0.295 -3.936,-1.93 -0.16,-0.476 -0.187,-0.98 -0.18,-1.477 z m 78.72,-18.48 c 1.74,-2.352 4.228,-4.396 7.238,-4.685 1.03,-0.117 2.07,-0.058 3.09,0.125 1.99,1.644 2.18,4.708 1.11,6.92 -0.27,0.87 -1.47,1.333 -0.94,2.326 0.27,1.214 0.46,2.502 0.08,3.714 0.06,1.142 -0.44,2.246 -0.48,3.4 -0.19,1.503 -0.54,2.993 -0.71,4.495 -0.22,0.973 -0.09,2.277 -0.47,3.052 -1.4,0.88 -3.2,1.414 -4.81,0.813 -1.13,-3.095 -0.99,-6.46 -0.82,-9.7 0.09,-1.33 0.21,-2.655 0.34,-3.98 0.83,-0.86 2.38,-1.07 2.64,-2.4 -1.24,-0.91 -2.88,-0.808 -4.31,-1.2 -0.93,-0.723 -1.9,-1.605 -1.92,-2.88 z m -321.6,14.4 c -0.327,-3.85 -0.632,-8.07 1.44,-11.52 1.852,-2.555 4.4,-4.543 7.054,-6.21 2.236,-1.524 5.073,-1.22 7.62,-0.96 3.525,0.398 7.136,1.44 9.782,3.922 1.58,1.46 3.03,3.22 3.69,5.28 0.4,1.92 1.08,3.89 0.82,5.87 -0.49,1.03 -0.39,2.95 -1.47,3.37 -1.44,0 -2.87,0 -4.29,-0.01 -0.57,0.43 -1.34,0.18 -2.03,0.25 -1.49,0 -2.98,0 -4.46,-0.01 -1.16,0.58 -2.61,0.13 -3.89,0.21 -1.1,0.1 -2.94,-0.34 -3.11,1.16 -0.72,1.56 0.4,3.29 2.03,3.55 3.54,0.93 7.28,0.1 10.83,1.01 1.35,0.18 1.97,1.99 0.8,2.82 -2.18,1.62 -5.09,1.59 -7.69,1.67 -4.53,0.03 -9.21,-1.08 -12.8,-3.96 -1.61,-1.05 -3.71,-2.04 -4.01,-4.18 0.05,-0.81 -0.46,-1.52 -0.35,-2.3 z m 10.32,-6.96 c -0.034,1.267 0.62,3.078 1.966,3.29 2.89,0.536 5.98,1.038 8.83,0.07 1.53,-2.603 0.82,-6.11 -1.4,-8.088 -1.33,-1.65 -3.48,-1.35 -5.29,-0.89 -1.95,0.46 -4.01,1.79 -4.4,3.86 -0.02,0.58 -0.08,1.25 0.28,1.74 z m 115.2,5.28 c 0.59,-2.032 0.06,-4.165 0.24,-6.24 2.953,-4.624 8.645,-7.01 14.026,-6.663 1.62,0.143 3.39,0.22 4.7,1.313 1.2,0.942 2.44,1.896 3.39,3.102 1.29,2.17 1.31,4.86 0.93,7.29 -0.31,0.83 -0.19,2.43 -1.31,2.48 -1.18,0.32 -2.39,0.09 -3.59,0.15 -1.42,0.01 -2.84,0.13 -4.25,-0.01 -1.71,-0.04 -3.58,-0.33 -5.11,0.59 -0.43,0.86 0.48,2.05 1.36,2.38 2.73,1.06 5.81,0.06 8.55,1.11 0.63,0.98 0.4,2.42 -0.69,2.97 -2.09,1.13 -4.55,1.11 -6.87,1.12 -1.25,-0.13 -2.75,0.09 -3.83,-0.43 -1.2,-1.79 -3.52,-2.04 -5.18,-3.19 0.14,-1.33 -0.83,-2.33 -1.62,-3.25 -0.55,-0.77 -0.87,-1.82 -0.79,-2.75 z m 17.52,-2.64 c 0.403,-1.32 0.376,-2.716 0.48,-4.08 -0.965,-2.12 -3.412,-2.974 -5.59,-3.067 -1.18,-0.07 -2.363,0.013 -3.53,0.187 -1.31,0.84 -1.187,2.608 -1.488,3.956 0.148,0.823 -1.243,1.866 -0.052,2.084 1.122,0.59 0.913,2.695 2.437,2.435 2.186,0.16 4.537,0.685 6.612,-0.284 0.404,-0.274 1.17,-0.663 1.13,-1.23 z m 86.88,-6.96 c 3.296,-0.24 7.038,0.81 8.843,3.783 1.423,2.35 1.52,5.65 -0.348,7.8 -2.092,2.8 -5.5,4.114 -8.8,4.832 -5.178,1.088 -10.65,1.306 -15.796,-0.055 -2.505,-0.712 -5.313,-2.078 -6.1,-4.777 -0.79,-3.065 0.965,-6.144 3.155,-8.178 2.636,-2.556 6.447,-3.17 9.97,-3.306 3.023,-0.166 6.05,-0.076 9.077,-0.1 z m -5.52,3.36 c -2.158,0.77 -4.56,1.66 -5.817,3.708 -0.73,1.24 -0.433,2.806 0.296,3.973 3,1.113 6.32,0.94 9.424,0.4 0.986,-0.315 2.348,-0.323 2.982,-1.194 0.897,-1.607 0.28,-3.646 -1.08,-4.79 -1.452,-1.26 -3.26,-2.575 -5.292,-2.318 -0.183,0.038 -0.363,0.107 -0.513,0.222 z m 30,5.76 c 1.773,-3.62 4.568,-7.02 8.517,-8.312 2.473,-0.9 5.133,-0.89 7.726,-0.808 l 5.596,0 c 3.205,-0.842 6.94,0.124 8.964,2.854 2.09,2.63 2.24,6.71 0.133,9.37 -0.96,1.16 -2.88,1.43 -3.29,3.03 -0.17,1.28 -2.35,0.69 -3.39,1.14 -5.61,0.76 -11.42,1.35 -16.97,-0.05 -3.08,-0.77 -6.13,-2.68 -7.22,-5.8 -0.16,-0.44 -0.04,-0.94 -0.07,-1.4 z m 24.72,-1.68 c -0.42,-2.97 -3.422,-4.874 -6.244,-5.065 -1.34,-0.21 -2.6,0.334 -3.69,1.06 -1.54,0.974 -3.09,2 -4.34,3.33 -0.58,1.173 -0.56,2.987 -0.07,4.038 2.68,1.834 6.13,2.112 9.29,1.822 1.68,-0.202 3.39,-0.622 4.81,-1.584 -0.06,-1.26 0.98,-2.488 0.24,-3.6 z m -190.56,6.24 c -1.82,-0.213 -2.93,1.567 -4.44,2.237 -2.51,1.06 -5.296,1.147 -7.982,1.277 -3.57,0.05 -7.21,-0.02 -10.66,-1.04 -2.49,-0.94 -4.69,-3.2 -5,-5.93 -0.19,-1.62 1.01,-2.94 1.86,-4.19 1.32,-1.67 2.7,-3.51 4.83,-4.16 4.1,-1.45 8.5,-1.88 12.83,-1.79 2.6,0.15 5.42,0.36 7.6,1.95 3.26,2.56 4.18,7.83 1.48,11.11 -0.15,0.2 -0.32,0.39 -0.49,0.57 z m -5.28,-8.16 c -1.33,-0.27 -2.07,-1.915 -3.408,-1.89 -1.99,0.08 -4.208,-0.514 -5.968,0.717 -1.154,0.727 -2.358,1.424 -3.344,2.373 -0.717,1.24 -0.392,2.718 -0.48,4.08 1.647,1.97 4.4,2.49 6.846,2.494 2.35,-0.05 5.03,-0.67 6.43,-2.73 1.01,-1.52 0.66,-3.49 -0.09,-5.04 z m 87.84,-5.28 c 1.245,-0.092 2.44,0.324 3.6,0.72 -0.027,1.38 -0.903,2.527 -1.2,3.84 -3.42,0.66 -7.028,0 -10.343,1.268 -1.137,0.45 -2.4,0.82 -3.27,1.72 -0.47,0.925 -0.18,2.183 0.783,2.664 1.864,1.01 4.077,0.81 6.072,1.37 0.797,0.43 1.565,0.98 2.5,1.07 1.528,0.35 3.2,0.18 4.617,0.92 0.973,0.56 0.672,2.07 -0.383,2.34 -2.08,0.81 -4.37,0.69 -6.56,0.65 -2.63,-0.15 -5.27,-0.35 -7.82,-0.98 -1.09,-0.49 -1.85,-1.51 -2.95,-1.99 -1.79,-0.99 -3.5,-2.12 -4.98,-3.53 -0.51,-1.21 0.32,-2.4 1.14,-3.23 1.37,-1.32 1.82,-3.41 3.54,-4.38 2.69,-1.63 5.93,-1.74 8.97,-2.12 1.41,-0.13 2.81,-0.44 4.23,-0.36 l 2.051,0 z m 138,22.08 c -0.614,-1.74 -0.84,-5.168 -3.205,-5.018 -4.89,0.01 -10.045,0.28 -14.612,-1.77 -1.33,-0.69 -2.863,-1.57 -3.026,-3.22 -0.686,-2.18 0.132,-4.64 1.978,-5.99 1.712,-1.31 3.56,-2.43 5.274,-3.73 2.714,-1.45 5.91,-1.36 8.9,-1.57 2.045,-0.08 4.105,-0.29 6.083,-0.8 1.12,0.03 2.25,-0.06 3.355,-0.01 1.386,0.55 1.423,2.26 1.854,3.45 0.473,1.82 0.513,3.81 0.774,5.7 0.692,6.2 0.836,12.45 0.785,18.68 -0.152,1.6 -1.16,3.11 -2.12,4.43 -3.07,4.12 -8.54,5.99 -13.542,5.13 -1.19,0.18 -1.24,-0.63 -1.13,-1.54 l 0,-2.03 c 2.89,-0.78 6.31,-1.22 8.21,-3.79 1.56,-2.28 1.03,-5.24 0.4,-7.72 l 0.04,-0.25 z m -12,-11.04 c 0.302,2.19 2.917,2.716 4.762,2.467 1.943,-0.226 4.34,-1.227 4.598,-3.428 -0.71,-1.205 -1.18,-3.27 -2.923,-3.185 -2.193,-0.1 -4.993,0.19 -6.167,2.33 -0.274,0.56 -0.346,1.21 -0.27,1.82 z m 52.08,-7.92 c -1.766,0.066 -2.074,2.123 -2.197,3.502 -0.137,1.31 -0.32,3.41 -2.126,3.18 -1.846,0.16 -3.717,-0.02 -5.517,-0.45 -0.91,-1.88 -0.987,-4.34 0.497,-5.95 2.1,-2.29 5.292,-3.04 8.25,-3.48 4.275,-0.53 8.697,-0.37 12.834,0.89 1.407,0.45 2.852,1.15 3.6,2.49 0.95,1.48 2.173,2.93 2.323,4.76 0.442,3.4 -0.24,6.81 -0.864,10.15 -4.874,0.61 -9.854,-0.96 -14.672,0.34 -0.86,0.26 -1.8,0.08 -2.7,0.13 -3.11,-0.1 -6.37,-0.79 -8.78,-2.88 -0.31,-1.36 0.72,-2.58 2.03,-2.82 1.46,-0.16 2.58,-1.21 3.96,-1.39 4.17,-0.49 8.48,0.17 12.55,-1.03 1.25,-0.2 2.01,-1.03 1.58,-2.29 -0.18,-2.19 -1.71,-4.2 -3.74,-4.99 -2.27,-0.38 -4.79,-1.24 -7,-0.21 z m -1.44,12.24 c 1.423,1.1 3.37,1.106 5.086,0.99 1.38,-0.183 3.12,-0.51 3.73,-1.948 -0.35,-0.91 -1.98,-0.98 -2.94,-1.22 -1.73,-0.21 -3.71,-0.34 -5.19,0.73 -0.44,0.34 -0.7,0.89 -0.7,1.44 z m -167.28,-10.32 c 0.018,-1.41 0.32,-3.02 1.47,-3.954 1.474,-0.968 3.24,-0.222 4.696,0.377 1.33,0.61 2.87,0.604 4.22,0.016 1.64,-0.687 3.34,-1.39 5.16,-1.342 2.77,-0.116 5.77,0.99 7.22,3.49 1.24,2.067 1.37,4.602 0.99,6.932 -0.53,1.036 -0.09,2.32 -0.53,3.396 -0.16,1.533 -0.42,3.063 -0.92,4.524 -1.8,0.656 -3.91,0.77 -5.68,-0.027 -1.5,-0.64 -0.29,-2.41 -0.45,-3.61 0.13,-2.14 0.26,-4.6 -1.17,-6.37 -0.73,-0.99 -2.03,-1.08 -3.04,-1.47 -1.13,-0.4 -2.22,0.18 -3.07,0.88 -1.73,1.64 -1.93,4.17 -2.41,6.38 -0.34,1.62 -0.66,3.34 -1.71,4.68 -1.76,0.38 -3.73,0.24 -5.28,-0.72 -0.12,-0.87 -0.31,-1.58 -0.08,-2.51 0.35,-2.59 0.65,-5.2 0.55,-7.82 l 0,-2.88 z m -130.32,0.48 c -2.035,0.323 -4.194,-0.234 -6.152,0.55 -0.94,0.583 -1.81,1.332 -2.45,2.237 -0.37,1.272 0.84,2.258 1.88,2.7 2.98,1.28 6.26,1.51 9.42,2.04 0.95,0.163 1.92,0.293 2.83,0.632 -0.1,1.295 0.86,2.582 0.24,3.84 -5.43,-0.68 -10.89,-1.194 -16.32,-1.92 -1.44,-2.216 -4.46,-2.507 -6.11,-4.502 -0.79,-0.93 -0.77,-2.314 -0.12,-3.314 1.3,-2.122 3.32,-3.718 5.43,-4.972 3.4,-1.773 7.32,-2.114 11.08,-2.216 1.78,-0.033 3.56,0.024 5.33,0.124 0.92,1.043 1.08,2.51 0.96,3.84 -0.69,0.264 -1.3,0.82 -2.07,0.72 -1.07,-0.018 -2.14,0.06 -3.21,-0.036 -0.25,0.01 -0.56,0.04 -0.71,0.277 z"/>
    <path class="morado" d="m 104.883,118.747 4.08,0 c 0.677,0.338 1.62,0.805 1.078,1.715 -0.37,1.642 -1.86,2.635 -3.18,3.5 -0.72,0.528 -1.24,1.163 -2.18,1.075 -0.84,0.374 -1.75,0.132 -2.62,0.158 -0.76,0.244 -1.55,0.376 -2.34,0.594 -1.37,0.43 -2.56,1.28 -3.8,1.99 -1.11,0.63 -2.17,1.32 -3.25,2 -0.66,-0.09 -1.85,0.65 -1.69,-0.61 0.08,-0.86 -0.19,-1.83 0.31,-2.58 0.35,-0.69 0.85,-1.4 1.65,-1.56 2.4,-0.94 4.08,-2.98 5.98,-4.62 1.42,-0.32 2.73,-1.05 4.19,-1.21 0.62,-0.12 1.24,-0.24 1.82,-0.47 z m -11.517,19.44 c 4.224,-1.824 1.497,4.257 -1.448,3.486 -4.71,1.83 -3.59,8.78 -8.217,10.756 -1.81,3.35 -2.46,7.92 -4.01,11.67 -1.14,3.04 -2,6.22 -2.75,9.36 -0.48,2.69 -1.28,5.37 -1.08,8.15 -0.24,3.04 -0.35,6.09 -1.8,8.94 -1.38,3.74 -2.59,7.6 -5.15,10.75 -4.51,6.3 -10.5,11.74 -17.47,15.11 -3.3,-0.03 -6.61,0.13 -9.86,-0.39 -2.69,-2.22 2.42,-3.09 4.17,-2.89 3.63,-0.4 8.12,0.4 10.66,-2.89 1.99,-2.44 3.18,-5.52 5.07,-7.96 2.34,-4.96 2.71,-10.59 4.08,-15.78 0.38,-3.23 1.28,-6.38 1.82,-9.59 0.66,-3.34 1.66,-6.6 2.27,-9.97 1.24,-3.15 2.08,-6.51 3.36,-9.6 1.62,-5.81 7.56,-9.3 8.64,-15.36 3.75,-1.72 7.93,-2.33 11.76,-3.84 z m 28.077,2.16 c 2.024,-0.626 5.448,-1.07 5.976,1.667 0.63,3.958 -2.76,7.376 -6.38,8.33 -3.44,1.183 -7.75,1.275 -9.97,4.615 -1.99,2.94 -2.92,6.45 -4.82,9.44 -0.75,1.84 -1.58,3.71 -1.86,5.7 -0.82,2.09 -1.37,4.29 -2.12,6.45 -0.72,2.4 -1.48,4.77 -2.29,7.14 -0.62,2.32 -1.62,4.56 -2.22,6.9 -1.09,2.74 -1.96,6.51 -5.29,7.24 -2.95,1.12 -4.2,-2.01 -3.06,-4.3 0.74,-2.05 1.51,-4.03 2.3,-6.06 0.9,-2.42 1.67,-4.87 2.68,-7.26 0.64,-2.4 1.69,-4.71 1.9,-7.17 0.92,-4.4 1.14,-8.92 1.71,-13.36 0.25,-2.11 0.24,-4.14 0.63,-6.14 -0.23,-1.48 1.13,-4.49 -1.24,-3.46 -1.04,0.52 -4.41,0.51 -2.46,-1.19 2.54,-3.35 5.2,-7.39 9.68,-8.13 1.71,-0.34 4.31,-0.8 3.31,1.85 0.42,2.08 0.23,4.23 0.28,6.37 1.38,3.08 4.01,-1.3 4.8,-2.87 2.18,-2.68 5.25,-4.48 8.39,-5.82 z"/>
  </symbol>
</svg>