<svg xmlns="http://www.w3.org/2000/svg" xmlns:xlink="http://www.w3.org/1999/xlink" viewBox="0 0 552.92821 216.43012">
  <style>.verde { fill:#2f6536; } .cyan { fill:#3facd4; } .naranja { fill:#f7ae2c; }</style>
  <use xlink:href="#jr" />
  <symbol id="jr" viewBox="0 0 552.92821 216.43012">
    <path class="naranja" d="M482.883 9.304c4.33-3.246 9.675-5.466 14.524-8.053 6.47-2.48 13.652-.77 20.123.85 13.64 4.33 25.87 15.85 28.09 30.37 1.575 10.57-4.606 20.55-12.654 26.91-16.822 13.58-39.18 21.02-60.782 17.49-13.172-2.13-27.094-4.97-37.727-13.58-7.21-5.61-10.55-15.35-8.443-24.22C429.09 25.38 440.398 15.1 452.4 8.8c6.09-2.835 12.72-5.777 19.56-5.26 4.75 3.695-4.87 7.558-7.48 9.86-9.55 6.98-18.58 16.723-19.84 28.99-.96 8.22 2.57 17.378 10.34 21.09 13.92 7.52 31.42 8.24 45.7 1.238 9.133-4.442 17.916-10.364 24.09-18.544 3.7-6.436 3.183-14.47 1.754-21.506-1.14-6.887-6.94-12.03-13.59-13.52-9.79-2.508-20.03-1.775-30.04-1.83z"/>
    <path class="verde" d="M85.8 18.593c-15.645.017-31.445 1.48-46.49 5.926-2.5 1.51 4.687-.15 6.15-.01 6.475-.58 13.012-.76 19.425-1.06 14.193-.02 28.42-.21 42.538 1.51 15.365 1.43 30.616 4.09 45.597 7.83 4.6 1.1 9.19 2.25 13.785 3.37-18.51-9.88-39.43-14.27-60.13-16.51-6.93-.69-13.9-1.06-20.872-1.08z"/>
    <path class="verde" d="M226.433 24.44c-9.775.512-20.698 1.133-28.668 7.425-6.742 9.106-10.68 20.527-19.856 27.78-11.19 8.96-24.82 16.26-39.61 14.99-25.23-1.584-48.17-14.37-68.64-28.314C51.74 34.4 28.4 26 7.29 34.5c-2.682 1.02-12.033 5.435-4.284 2.774 21-5.31 44.314-1.29 61.524 12.178 22.244 16.53 47.364 33.44 76.254 32.776 22.874-1.102 47.173-14.023 55.51-36.33.29-10.555 10.66-14.59 19.715-16.56 7.76-1.3 17.01-3.094 23.75 2.054.37 5.445 10.26 11.23 9.27 2.58-3.1-8.317-13.92-8.6-21.49-9.497l-1.13-.03zM180.2 57.737l-.678.643.68-.642z"/>
    <path class="cyan" d="M108.243 106.027c-32.707-7.16-46.627-41.853-75.555-55.355-6.333-3.282-20.002-7.174-5.037-5.693C61.74 51.12 79.16 88.91 113.61 95c28.804 6.91 55.07-10.942 76.328-28.146 15.754-13.526 42.807-20.627 57.914-2.426 12.86 23.887 44.867 38.02 69.714 23.837 21.47-14.688 41.32-36.575 69.32-36.962 22.86-.584 33.7 24.816 55.3 28.525 32.38 8.587 72.68 12.063 98.625-13.46 5.23-5.077 17.6-19.815 9.38-4.58-17.2 31.64-57.57 39.49-90.33 32.765-26.18-2.505-44.87-24.773-70.26-28.965-30 1.368-48.26 31.064-76.68 37.68-25.82 8.28-54.62-1.52-71.94-21.964-10.89-20.99-36.18-14.023-49.34.25-22.81 18.974-53.5 32.214-83.38 24.474z"/>
    <path class="verde" d="M104.883 118.747h4.08c.677.338 1.62.805 1.078 1.715-.37 1.642-1.86 2.635-3.18 3.5-.72.528-1.24 1.163-2.18 1.075-.84.374-1.75.132-2.62.158-.76.244-1.55.376-2.34.594-1.37.43-2.56 1.28-3.8 1.99-1.11.63-2.17 1.32-3.25 2-.66-.09-1.85.65-1.69-.61.08-.86-.19-1.83.31-2.58.35-.69.85-1.4 1.65-1.56 2.4-.94 4.08-2.98 5.98-4.62 1.42-.32 2.73-1.05 4.19-1.21.62-.12 1.24-.24 1.82-.47zm-11.517 19.44c4.224-1.824 1.497 4.257-1.448 3.486-4.71 1.83-3.59 8.78-8.217 10.756-1.81 3.35-2.46 7.92-4.01 11.67-1.14 3.04-2 6.22-2.75 9.36-.48 2.69-1.28 5.37-1.08 8.15-.24 3.04-.35 6.09-1.8 8.94-1.38 3.74-2.59 7.6-5.15 10.75-4.51 6.3-10.5 11.74-17.47 15.11-3.3-.03-6.61.13-9.86-.39-2.69-2.22 2.42-3.09 4.17-2.89 3.63-.4 8.12.4 10.66-2.89 1.99-2.44 3.18-5.52 5.07-7.96 2.34-4.96 2.71-10.59 4.08-15.78.38-3.23 1.28-6.38 1.82-9.59.66-3.34 1.66-6.6 2.27-9.97 1.24-3.15 2.08-6.51 3.36-9.6 1.62-5.81 7.56-9.3 8.64-15.36 3.75-1.72 7.93-2.33 11.76-3.84zm28.077 2.16c2.024-.626 5.448-1.07 5.976 1.667.63 3.958-2.76 7.376-6.38 8.33-3.44 1.183-7.75 1.275-9.97 4.615-1.99 2.94-2.92 6.45-4.82 9.44-.75 1.84-1.58 3.71-1.86 5.7-.82 2.09-1.37 4.29-2.12 6.45-.72 2.4-1.48 4.77-2.29 7.14-.62 2.32-1.62 4.56-2.22 6.9-1.09 2.74-1.96 6.51-5.29 7.24-2.95 1.12-4.2-2.01-3.06-4.3.74-2.05 1.51-4.03 2.3-6.06.9-2.42 1.67-4.87 2.68-7.26.64-2.4 1.69-4.71 1.9-7.17.92-4.4 1.14-8.92 1.71-13.36.25-2.11.24-4.14.63-6.14-.23-1.48 1.13-4.49-1.24-3.46-1.04.52-4.41.51-2.46-1.19 2.54-3.35 5.2-7.39 9.68-8.13 1.71-.34 4.31-.8 3.31 1.85.42 2.08.23 4.23.28 6.37 1.38 3.08 4.01-1.3 4.8-2.87 2.18-2.68 5.25-4.48 8.39-5.82zm128.4 14.16c.252-1.79 1.56-2.858 3.386-2.81 2.04-.167 4.55-.098 5.97 1.61.01 1.58-1.23 2.815-1.87 4.174-.61 1.16-1.85 3.09-.34 4.06 1.3.45 3.04.87 2.46 2.65.27 1.72-.87 3.21-2.68 2.92-1.92.15-4.04-.27-5.75.85-.51 1.55-1.45 3.04-1.2 4.74v3.67c3.14 3.86 10.27 3.33 12.53-1.2.17-1.93 2.45-1.3 3.85-1.48 1.22.13 3.42 0 3.74 1.39-.33 3.45-3.32 5.92-6.43 6.96-4.63 1.57-9.81 1.45-14.39-.21-2.29-1.15-4.09-3.1-5.61-5.12-1.18-1.82-1.26-4.2-.57-6.2-.11-1.38.76-2.56.11-3.71-1.21-1.04-3.19-1.07-3.95-2.62-.73-1.99 1.61-3.01 3.23-2.83 1.84-.1 3.76.12 5.53-.53.99-1.41 1.44-3.15 1.95-4.7.01-.51-.13-1.02-.04-1.53zm139.92 21.84c-.134-7.92-.403-15.84-.24-23.76 2.68-.75 5.57-1.017 8.3-.39.78.22 1.862.473 1.8 1.496.08 1.24-.404 2.45-.26 3.693-.504 2.768-.494 5.595-.48 8.4-.58 1.204.02 2.612-.478 3.84.164 1.025-.283 1.99-.3 3-.09 1.162-.485 2.277-.66 3.418.114 1.975-1.762 3.436-3.567 3.71-1.534.33-3.46-.295-3.936-1.93-.16-.476-.187-.98-.18-1.477zm78.72-18.48c1.74-2.352 4.228-4.396 7.238-4.685 1.03-.117 2.07-.058 3.09.125 1.99 1.644 2.18 4.708 1.11 6.92-.27.87-1.47 1.333-.94 2.326.27 1.214.46 2.502.08 3.714.06 1.142-.44 2.246-.48 3.4-.19 1.503-.54 2.993-.71 4.495-.22.973-.09 2.277-.47 3.052-1.4.88-3.2 1.414-4.81.813-1.13-3.095-.99-6.46-.82-9.7.09-1.33.21-2.655.34-3.98.83-.86 2.38-1.07 2.64-2.4-1.24-.91-2.88-.808-4.31-1.2-.93-.723-1.9-1.605-1.92-2.88zm-321.6 14.4c-.327-3.85-.632-8.07 1.44-11.52 1.852-2.555 4.4-4.543 7.054-6.21 2.236-1.524 5.073-1.22 7.62-.96 3.525.398 7.136 1.44 9.782 3.922 1.58 1.46 3.03 3.22 3.69 5.28.4 1.92 1.08 3.89.82 5.87-.49 1.03-.39 2.95-1.47 3.37-1.44 0-2.87 0-4.29-.01-.57.43-1.34.18-2.03.25-1.49 0-2.98 0-4.46-.01-1.16.58-2.61.13-3.89.21-1.1.1-2.94-.34-3.11 1.16-.72 1.56.4 3.29 2.03 3.55 3.54.93 7.28.1 10.83 1.01 1.35.18 1.97 1.99.8 2.82-2.18 1.62-5.09 1.59-7.69 1.67-4.53.03-9.21-1.08-12.8-3.96-1.61-1.05-3.71-2.04-4.01-4.18.05-.81-.46-1.52-.35-2.3zm10.32-6.96c-.034 1.267.62 3.078 1.966 3.29 2.89.536 5.98 1.038 8.83.07 1.53-2.603.82-6.11-1.4-8.088-1.33-1.65-3.48-1.35-5.29-.89-1.95.46-4.01 1.79-4.4 3.86-.02.58-.08 1.25.28 1.74zm115.2 5.28c.59-2.032.06-4.165.24-6.24 2.953-4.624 8.645-7.01 14.026-6.663 1.62.143 3.39.22 4.7 1.313 1.2.942 2.44 1.896 3.39 3.102 1.29 2.17 1.31 4.86.93 7.29-.31.83-.19 2.43-1.31 2.48-1.18.32-2.39.09-3.59.15-1.42.01-2.84.13-4.25-.01-1.71-.04-3.58-.33-5.11.59-.43.86.48 2.05 1.36 2.38 2.73 1.06 5.81.06 8.55 1.11.63.98.4 2.42-.69 2.97-2.09 1.13-4.55 1.11-6.87 1.12-1.25-.13-2.75.09-3.83-.43-1.2-1.79-3.52-2.04-5.18-3.19.14-1.33-.83-2.33-1.62-3.25-.55-.77-.87-1.82-.79-2.75zm17.52-2.64c.403-1.32.376-2.716.48-4.08-.965-2.12-3.412-2.974-5.59-3.067-1.18-.07-2.363.013-3.53.187-1.31.84-1.187 2.608-1.488 3.956.148.823-1.243 1.866-.052 2.084 1.122.59.913 2.695 2.437 2.435 2.186.16 4.537.685 6.612-.284.404-.274 1.17-.663 1.13-1.23zm86.88-6.96c3.296-.24 7.038.81 8.843 3.783 1.423 2.35 1.52 5.65-.348 7.8-2.092 2.8-5.5 4.114-8.8 4.832-5.178 1.088-10.65 1.306-15.796-.055-2.505-.712-5.313-2.078-6.1-4.777-.79-3.065.965-6.144 3.155-8.178 2.636-2.556 6.447-3.17 9.97-3.306 3.023-.166 6.05-.076 9.077-.1zm-5.52 3.36c-2.158.77-4.56 1.66-5.817 3.708-.73 1.24-.433 2.806.296 3.973 3 1.113 6.32.94 9.424.4.986-.315 2.348-.323 2.982-1.194.897-1.607.28-3.646-1.08-4.79-1.452-1.26-3.26-2.575-5.292-2.318-.183.038-.363.107-.513.222zm30 5.76c1.773-3.62 4.568-7.02 8.517-8.312 2.473-.9 5.133-.89 7.726-.808h5.596c3.205-.842 6.94.124 8.964 2.854 2.09 2.63 2.24 6.71.133 9.37-.96 1.16-2.88 1.43-3.29 3.03-.17 1.28-2.35.69-3.39 1.14-5.61.76-11.42 1.35-16.97-.05-3.08-.77-6.13-2.68-7.22-5.8-.16-.44-.04-.94-.07-1.4zm24.72-1.68c-.42-2.97-3.422-4.874-6.244-5.065-1.34-.21-2.6.334-3.69 1.06-1.54.974-3.09 2-4.34 3.33-.58 1.173-.56 2.987-.07 4.038 2.68 1.834 6.13 2.112 9.29 1.822 1.68-.202 3.39-.622 4.81-1.584-.06-1.26.98-2.488.24-3.6zm-190.56 6.24c-1.82-.213-2.93 1.567-4.44 2.237-2.51 1.06-5.296 1.147-7.982 1.277-3.57.05-7.21-.02-10.66-1.04-2.49-.94-4.69-3.2-5-5.93-.19-1.62 1.01-2.94 1.86-4.19 1.32-1.67 2.7-3.51 4.83-4.16 4.1-1.45 8.5-1.88 12.83-1.79 2.6.15 5.42.36 7.6 1.95 3.26 2.56 4.18 7.83 1.48 11.11-.15.2-.32.39-.49.57zm-5.28-8.16c-1.33-.27-2.07-1.915-3.408-1.89-1.99.08-4.208-.514-5.968.717-1.154.727-2.358 1.424-3.344 2.373-.717 1.24-.392 2.718-.48 4.08 1.647 1.97 4.4 2.49 6.846 2.494 2.35-.05 5.03-.67 6.43-2.73 1.01-1.52.66-3.49-.09-5.04zm87.84-5.28c1.245-.092 2.44.324 3.6.72-.027 1.38-.903 2.527-1.2 3.84-3.42.66-7.028 0-10.343 1.268-1.137.45-2.4.82-3.27 1.72-.47.925-.18 2.183.783 2.664 1.864 1.01 4.077.81 6.072 1.37.797.43 1.565.98 2.5 1.07 1.528.35 3.2.18 4.617.92.973.56.672 2.07-.383 2.34-2.08.81-4.37.69-6.56.65-2.63-.15-5.27-.35-7.82-.98-1.09-.49-1.85-1.51-2.95-1.99-1.79-.99-3.5-2.12-4.98-3.53-.51-1.21.32-2.4 1.14-3.23 1.37-1.32 1.82-3.41 3.54-4.38 2.69-1.63 5.93-1.74 8.97-2.12 1.41-.13 2.81-.44 4.23-.36H318zm138 22.08c-.614-1.74-.84-5.168-3.205-5.018-4.89.01-10.045.28-14.612-1.77-1.33-.69-2.863-1.57-3.026-3.22-.686-2.18.132-4.64 1.978-5.99 1.712-1.31 3.56-2.43 5.274-3.73 2.714-1.45 5.91-1.36 8.9-1.57 2.045-.08 4.105-.29 6.083-.8 1.12.03 2.25-.06 3.355-.01 1.386.55 1.423 2.26 1.854 3.45.473 1.82.513 3.81.774 5.7.692 6.2.836 12.45.785 18.68-.152 1.6-1.16 3.11-2.12 4.43-3.07 4.12-8.54 5.99-13.542 5.13-1.19.18-1.24-.63-1.13-1.54v-2.03c2.89-.78 6.31-1.22 8.21-3.79 1.56-2.28 1.03-5.24.4-7.72l.04-.25zm-12-11.04c.302 2.19 2.917 2.716 4.762 2.467 1.943-.226 4.34-1.227 4.598-3.428-.71-1.205-1.18-3.27-2.923-3.185-2.193-.1-4.993.19-6.167 2.33-.274.56-.346 1.21-.27 1.82zm52.08-7.92c-1.766.066-2.074 2.123-2.197 3.502-.137 1.31-.32 3.41-2.126 3.18-1.846.16-3.717-.02-5.517-.45-.91-1.88-.987-4.34.497-5.95 2.1-2.29 5.292-3.04 8.25-3.48 4.275-.53 8.697-.37 12.834.89 1.407.45 2.852 1.15 3.6 2.49.95 1.48 2.173 2.93 2.323 4.76.442 3.4-.24 6.81-.864 10.15-4.874.61-9.854-.96-14.672.34-.86.26-1.8.08-2.7.13-3.11-.1-6.37-.79-8.78-2.88-.31-1.36.72-2.58 2.03-2.82 1.46-.16 2.58-1.21 3.96-1.39 4.17-.49 8.48.17 12.55-1.03 1.25-.2 2.01-1.03 1.58-2.29-.18-2.19-1.71-4.2-3.74-4.99-2.27-.38-4.79-1.24-7-.21zm-1.44 12.24c1.423 1.1 3.37 1.106 5.086.99 1.38-.183 3.12-.51 3.73-1.948-.35-.91-1.98-.98-2.94-1.22-1.73-.21-3.71-.34-5.19.73-.44.34-.7.89-.7 1.44zm-167.28-10.32c.018-1.41.32-3.02 1.47-3.954 1.474-.968 3.24-.222 4.696.377 1.33.61 2.87.604 4.22.016 1.64-.687 3.34-1.39 5.16-1.342 2.77-.116 5.77.99 7.22 3.49 1.24 2.067 1.37 4.602.99 6.932-.53 1.036-.09 2.32-.53 3.396-.16 1.533-.42 3.063-.92 4.524-1.8.656-3.91.77-5.68-.027-1.5-.64-.29-2.41-.45-3.61.13-2.14.26-4.6-1.17-6.37-.73-.99-2.03-1.08-3.04-1.47-1.13-.4-2.22.18-3.07.88-1.73 1.64-1.93 4.17-2.41 6.38-.34 1.62-.66 3.34-1.71 4.68-1.76.38-3.73.24-5.28-.72-.12-.87-.31-1.58-.08-2.51.35-2.59.65-5.2.55-7.82v-2.88zm-130.32.48c-2.035.323-4.194-.234-6.152.55-.94.583-1.81 1.332-2.45 2.237-.37 1.272.84 2.258 1.88 2.7 2.98 1.28 6.26 1.51 9.42 2.04.95.163 1.92.293 2.83.632-.1 1.295.86 2.582.24 3.84-5.43-.68-10.89-1.194-16.32-1.92-1.44-2.216-4.46-2.507-6.11-4.502-.79-.93-.77-2.314-.12-3.314 1.3-2.122 3.32-3.718 5.43-4.972 3.4-1.773 7.32-2.114 11.08-2.216 1.78-.033 3.56.024 5.33.124.92 1.043 1.08 2.51.96 3.84-.69.264-1.3.82-2.07.72-1.07-.018-2.14.06-3.21-.036-.25.01-.56.04-.71.277z"/>
  </symbol>
</svg>