<svg xmlns="http://www.w3.org/2000/svg" xmlns:xlink="http://www.w3.org/1999/xlink" id="Capa_1" viewBox="0 0 249.3 294"><style>.st3{fill:#efa70c}</style><g id="XMLID_3463_"><ellipse id="XMLID_4790_" cx="124" cy="274.6" fill="#ececec" rx="122.4" ry="15.8"/><g id="XMLID_73_"><g id="XMLID_4750_"><g id="XMLID_5059_"><defs><path id="XMLID_4738_" d="M220.6 4.6s-60.4-.8-81.8 24.7c-21.4 25.4 2.7 69.4 2.7 69.4s47.5 16.2 68.8-9.2C231.8 64 220.6 4.6 220.6 4.6z"/></defs><use fill="#45ac64" overflow="visible" xlink:href="#XMLID_4738_"/><clipPath id="XMLID_81_"><use overflow="visible" xlink:href="#XMLID_4738_"/></clipPath></g><g id="XMLID_5041_"><defs><path id="XMLID_4665_" d="M45.6 50.7s44.2-3.7 61.1 13.8c17 17.5 1.6 50.9 1.6 50.9s-33.9 14.3-50.8-3.2c-17-17.4-11.9-61.5-11.9-61.5z"/></defs><use fill="#45ac64" overflow="visible" xlink:href="#XMLID_4665_"/><clipPath id="XMLID_82_"><use overflow="visible" xlink:href="#XMLID_4665_"/></clipPath></g><g id="XMLID_5160_"><path id="XMLID_5161_" fill="#98c260" d="M135.4 167.7c-3.3-72 41.5-115.5 41.5-115.5-36.7 8.6-53.9 78.2-53.9 78.2-6.8-25.9-35.1-36-35.1-36 21 21.5 27.9 50.4 29.6 73.2 3-.3 6-.5 9-.5 3 .1 5.9.3 8.9.6z"/></g></g><g id="XMLID_3651_"><g id="XMLID_3652_"><path id="XMLID_5018_" fill="#fff" stroke="#c6c6c5" stroke-miterlimit="10" stroke-width="1.42" d="M187 249.5H59.3V193l63.8-63.8L187 193z"/><g id="XMLID_5009_"><g id="XMLID_5012_"><g id="XMLID_5013_"><path id="XMLID_5014_" d="M107.1 184.5h32.4v65h-32.4z" class="st3"/></g></g></g><g id="XMLID_4995_"><g id="XMLID_5004_"><path id="XMLID_5007_" d="M155.5 108.4h9.1v102.1h-9.1z" class="st3" transform="rotate(135.01 160.07 159.45)"/><path id="XMLID_5005_" d="M85.2 100.4h9.1v111.5h-9.1z" class="st3" transform="rotate(45.01 89.74 156.13)"/></g></g></g></g></g></g></svg>