<svg xmlns="http://www.w3.org/2000/svg" id="Capa_1" viewBox="0 0 147.9 133.9"><style>.st2{fill:#fff}</style><ellipse id="XMLID_2579_" cx="74.2" cy="120.8" fill="#ececec" rx="72" ry="9.3"/><g id="XMLID_1021_"><circle id="XMLID_1870_" cx="74.2" cy="59.9" r="56.7" fill="#eb5893"/></g><g id="XMLID_8_"><path id="XMLID_12_" d="M88 46.2c-1.8-6.9-4.7-13.4-7.9-19.7-1.1-2.1-2.3-4.2-3.5-6.3h-.1c-6.6 5.5-11.3 12.3-14.9 20-1.6 3.4-2.9 6.9-3.8 10.5-.3 1.2-.5 2.4-.6 3.6 0 .1 0 .3-.1.4V59c.2.1.1.3.1.4.3 2.9 1.1 5.7 2.5 8.3 2.2 4.2 5.3 7.6 9.2 10.4.7.5 1.4 1 2.2 1.4.1-.1 0-.2 0-.3-1.4-4.3-1.9-8.6-1.6-13.1.2-3.8.9-7.6 2-11.2.1-.5.2-1 .5-1.4.1.3 0 .6 0 .9-.1 1.2-.3 2.5-.4 3.7-.3 3.7-.2 7.4.2 11.1.4 3.4 1 6.7 2.1 10 .1.4.3.5.7.3 2.5-.9 4.7-2.5 6.6-4.3 2.8-2.7 4.9-6 6.4-9.6 1.1-2.5 1.8-5.1 2-7.9 0-3.9-.6-7.7-1.6-11.5zm-16.2 7.2v-.2h.1c0 .1 0 .2-.1.2z" class="st2"/><path id="XMLID_13_" d="M86.3 82.2l-3.2.3c-4.3.4-8.6.9-12.9 1.3-3.5.3-6.9.7-10.4 1-1.2.1-2 1.1-1.9 2.3.1 1.1 1.1 2 2.2 1.9 2.3-.2 4.5-.4 6.8-.7 3.4-.3 6.9-.7 10.3-1l9.4-.9c1.1-.1 1.9-1 1.9-2.1 0-1.3-1-2.2-2.2-2.1z" class="st2"/><path id="XMLID_14_" d="M86.2 87.6c-4.3.4-8.5.8-12.8 1.3-4.4.4-8.9.9-13.3 1.3-.5.1-1 .1-1.4.5-.7.6-.9 1.5-.6 2.5.4.9 1.2 1.3 2.2 1.2 2.6-.3 5.3-.5 7.9-.8l15.4-1.5 2.9-.3c1.3-.2 2.1-1.1 1.9-2.3 0-1.3-1-2-2.2-1.9z" class="st2"/><path id="XMLID_158_" d="M86.2 92.9c-2.3.2-4.7.4-7 .7l-9.5.9c-3.4.3-6.7.7-10.1 1-.7.1-1.2.5-1.6 1.1-.6 1.2.2 3.2 2.1 3 1.2-.1 2.3-.3 3.5-.4 2.4-.2 4.8-.5 7.3-.7 2.8-.3 5.6-.6 8.5-.8 2.4-.2 4.8-.5 7.2-.7 1.3-.1 2-1.1 1.8-2.4 0-1-1-1.8-2.2-1.7z" class="st2"/></g><g id="XMLID_162_" opacity=".13"><path id="XMLID_168_" d="M76.7 20.3c1.2 2.1 2.4 4.1 3.4 6.2 3.2 6.3 6.1 12.8 7.9 19.7 1 3.8 1.6 7.6 1.4 11.5-.1 2.8-.9 5.4-2 7.9-1.5 3.6-3.6 6.9-6.4 9.6-1.8 1.7-6.4 4-7.2 4l9.2 3.4 3.2-.3c1.3-.1 2.3.8 2.3 2.1 0 1.1-.7 2-1.9 2.1l-9.4.9c-3.4.3-6.9.7-10.3 1-2.3.2-4.5.5-6.8.7h-.2l-.3 1.2c.1 0 .3 0 .4-.1 4.4-.4 8.9-.9 13.3-1.3 4.3-.4 8.5-.8 12.8-1.3 1.3-.1 2.3.7 2.4 1.8.1 1.3-.6 2.2-1.9 2.3l-2.9.3-15.4 1.5c-2.6.3-5.3.5-7.9.8-.6.1-1.1-.1-1.6-.4l-.7 2.8c.3-.7.9-1.1 1.6-1.1 3.4-.4 6.7-.7 10.1-1l9.5-.9c2.3-.2 4.7-.5 7-.7 1.2-.1 2.2.7 2.3 1.8.1 1.2-.6 2.2-1.8 2.4-2.4.3-4.8.5-7.2.7-2.8.3-5.6.6-8.5.8-2.4.2-4.8.5-7.3.7-.6.1-1.2.1-1.7.2l22.5 16.1c26.4-4.9 46.3-28 46.3-55.7 0-2.8-54.2-39.7-54.2-39.7z"/></g></svg>