<svg xmlns="http://www.w3.org/2000/svg" viewBox="0 0 179.96 158.66">
  <defs>
    <clipPath id="a">
      <path d="M661.3 689.05h93.64V609.3H661.3v79.75z"/>
    </clipPath>
  </defs>
  <path fill="#ededed" d="M179.96 147.06c0 6.4-40.3 11.6-89.98 11.6-49.7 0-89.98-5.2-89.98-11.6 0-6.4 40.3-11.6 89.98-11.6 49.7 0 89.98 5.2 89.98 11.6"/>
  <path fill="#90c257" d="M159.62 70.87c0 39.14-31.73 70.86-70.87 70.86-39.13 0-70.86-31.72-70.86-70.86S49.6 0 88.7 0s70.87 31.73 70.87 70.87"/>
  <g clip-path="url(#a)" transform="matrix(1.25 0 0 -1.25 -784.06 900.55)" opacity=".13">
    <path fill="#2b2b2a" d="M752.57 679.98l-16.9 9.07v-5.56l-16.5-16.5v-19.6h-4.5V667l-16.43 16.45L681.8 667v-19.54h-4.48V667l-1.32 1.33-.76-1.43v-19.43h-4.5l2.32-7.67-9.9 4.6v-6.8h-1.85l52.8-28.3c23.6 6.84 40.9 28.62 40.9 54.45 0 5.64-.8 11.1-2.4 16.23"/>
  </g>
  <path fill="#fff" fill-rule="evenodd" d="M125.04 96.1h3.82v7.46h2.8V96.1h3.8v-1.7h-10.42v1.7zm-4.24 7.46h2.8V94.4h-2.8v9.16zm-19.32-9.16l-4.56 9.16h3.12l3.1-6.44h.04l3.06 6.44h3.1l-4.44-9.16h-3.42zm11.77 6.44h-.04l-3.1-6.44h-3.2l4.7 9.16h3.5l4.77-9.16h-3.23l-3.2 6.44zm-20.14-.3l-5.3-6.14H85v9.16h2.62v-6.13h.04l5.3 6.13h2.8V94.4H93.1v6.14zm-13-.4c-.1.37-.3.7-.6 1-.2.28-.6.5-1 .7-.4.16-.9.25-1.6.25-.6 0-1.1-.1-1.6-.3-.4-.2-.8-.4-1-.7-.23-.3-.43-.6-.6-1-.1-.4-.2-.8-.2-1.1 0-.4.1-.8.2-1.2.1-.4.3-.7.6-1 .3-.3.6-.6 1.1-.7.44-.2.97-.3 1.6-.3.63 0 1.17.1 1.6.2.44.2.8.4 1.07.7.28.3.48.6.6 1 .1.35.2.74.2 1.15 0 .4-.07.8-.2 1.15m1.3-4.56c-.5-.47-1.2-.8-1.94-1.06-.77-.26-1.65-.38-2.64-.38-.95 0-1.83.1-2.6.35s-1.45.6-2 1.04c-.5.42-.93.93-1.2 1.52-.3.6-.44 1.23-.44 1.9 0 .7.15 1.3.44 1.9.27.55.7 1.05 1.2 1.5.55.4 1.2.75 2 1 .75.24 1.63.36 2.6.36 1 0 1.86-.1 2.63-.36s1.44-.6 1.97-1c.5-.44.9-.94 1.2-1.5.3-.6.42-1.2.42-1.9 0-.67-.15-1.3-.44-1.9-.3-.6-.7-1.1-1.2-1.53m-20.9 7.95h2.8v-3.8h5.3v-1.5h-5.4V96h6.16v-1.7h-9v9.14zm-5.1-3.05h-.05l-5.3-6.1h-2.8v9.15H50v-6.1l5.3 6.13h2.8v-9.1h-2.63v6.12zm-13.4 3.06h2.8v-9.1h-2.8v9.16zm70-41.9L88.78 38.3 65.4 61.67 42 38.25v7.94l20.6 20.6v24.4h5.6V66.8l20.57-20.57 20.55 20.57v24.43h5.6V66.8l20.6-20.6v-7.95l-23.4 23.42zm.04-7.5c4.5 0 8.1-3.63 8.1-8.1 0-4.5-3.6-8.12-8.1-8.12s-8.1 3.67-8.1 8.1c0 4.5 3.6 8.16 8.1 8.16m-46.8 0c4.46 0 8.1-3.62 8.1-8.1 0-4.5-3.64-8.1-8.1-8.1-4.5 0-8.1 3.64-8.1 8.1 0 4.5 3.6 8.13 8.1 8.13m52.14 12.5v24.6h5.6V69l12.37-12.4v-7.93l-17.2 17.18-.8.82zM42 48.7v7.92L54.35 69v22.23h5.6V66.67l-.8-.82-17.2-17.18zm64.4 42.54V66.67l-.8-.82L88.75 49 71.93 65.86l-.82.82v24.57h5.7V69l12-12.05 12 12.05v22.23h5.7z"/>
</svg>
