<svg xmlns="http://www.w3.org/2000/svg" viewBox="0 0 179.96 158.66">
  <defs>
    <clipPath id="a">
      <path d="M1065.75 690.14h87.64V608.8h-87.7v81.34z"/>
    </clipPath>
  </defs>
  <path fill="#ededed" d="M179.96 147.06c0 6.4-40.3 11.6-89.98 11.6-49.7 0-89.98-5.2-89.98-11.6 0-6.4 40.3-11.6 89.98-11.6 49.7 0 89.98 5.2 89.98 11.6"/>
  <path fill="#f1a068" d="M157.82 70.87c0 39.14-31.73 70.86-70.87 70.86-39.13 0-70.86-31.72-70.86-70.86S47.8 0 86.9 0s70.87 31.73 70.87 70.87"/>
  <g clip-path="url(#a)" transform="matrix(1.25 0 0 -1.25 -1283.91 900.55)" opacity=".13">
    <path fill="#2b2b2a" d="M1134.62 687.06c.63-6.4 1.2-12.78 1.78-19.16.5-5.4 1.06-10.77 1.52-16.16.16-1.88.56-3.76.28-5.66-.4-2.7-2.54-4.57-5.24-4.8-6.56-.6-13.12-1.25-19.68-1.87-4.8-.4-9.6-.8-14.4-1.3-5.27-.4-10.54-.9-15.8-1.4-5.74-.5-11.5-1-17.23-1.6h-.1l44.93-26.2c24.55 6.26 42.7 28.5 42.7 54.98 0 5.6-.82 11-2.34 16.14l-17.55 10.24c.6-.83 1-1.87 1.1-3.07"/>
  </g>
  <path fill="#fff" d="M47.1 57.7l82.2-8.18-.3-2.95c-.28-2.82-1.37-3.72-4.15-3.45l-74.7 7.44c-.35.03-.7.05-1.06.12-1.5.32-2.5 1.5-2.4 3 0 1.32.2 2.63.4 4.02m83.6 7.77l-82.2 8.18.1 1.1 2.3 22.8c.2 2.38 1.4 3.34 3.8 3.1l75.2-7.5c2.4-.23 3.4-1.44 3.1-3.88l-2.3-22.7-.1-1.1m5.52 33.98l-86.47 8.6c-.26-.08-.5-.18-.78-.25-2.5-.7-4.3-2.7-4.55-5.28-1.9-18.86-3.1-33-5-51.86-.3-3.27 2.06-6.16 5.34-6.48 28-2.8 56-5.58 83.96-8.36 2.54-.26 4.8 1 6 3.3.12.28.3.54.45.8 1.95 19.7 3.26 34.66 5.2 54.35-.56 2.4-1.93 4.18-4.23 5.18"/>
  <path fill="#fff" d="M97.44 79.17c.1 1.14.2 2.2.32 3.3L56.8 86.55l-.32-3.3c13.6-1.35 27.24-2.7 40.96-4.08m14.8 8.76l-1-10.15 13.56-1.35 1 10.15-13.56 1.35m-34.67.14c.1 1.13.22 2.2.33 3.3L57.5 93.4c-.12-1.06-.23-2.15-.34-3.3l20.4-2.03"/>
</svg>
