<svg xmlns="http://www.w3.org/2000/svg" viewBox="0 0 179.96 158.66">
  <defs>
    <clipPath id="a">
      <path d="M278.46 690h59v-76.1h-59V690z"/>
    </clipPath>
  </defs>
  <path fill="#ededed" d="M179.96 147.06c0 6.4-40.3 11.6-89.98 11.6-49.7 0-89.98-5.2-89.98-11.6 0-6.4 40.28-11.6 89.98-11.6s89.98 5.2 89.98 11.6"/>
  <path fill="#eb5c95" d="M160.84 70.87c0 39.14-31.72 70.86-70.86 70.86S19.1 110 19.1 70.87 50.85 0 90 0s70.86 31.73 70.86 70.87"/>
  <path fill="#fff" d="M93.46 93.46c2.32-.44 4.2-1.5 5.67-3.23 1.45-1.72 2.18-3.74 2.18-6.06 0-2.07-.6-3.86-1.8-5.36-1.2-1.5-3.2-2.6-6-3.4v18.1zm-6.73-49.4c-1.83.6-3.28 1.66-4.37 3.15-1.08 1.5-1.62 3.2-1.62 5 0 1.7.5 3.2 1.48 4.6 1 1.4 2.5 2.6 4.5 3.5V44.1zm0 48.75V73.4c-6.07-1.75-10.53-4.37-13.35-7.9-2.83-3.5-4.25-7.77-4.25-12.8 0-5.06 1.6-9.32 4.8-12.77 3.2-3.45 7.47-5.43 12.8-5.96v-4.6h6.73v4.6c4.92.6 8.84 2.27 11.75 5.04 3 2.8 4.8 6.5 5.6 11.2l-11.7 1.5c-.7-3.6-2.5-6.1-5.5-7.4v18.1c7.45 2 12.5 4.66 15.2 7.86 2.7 3.2 4.05 7.3 4.05 12.33 0 5.6-1.7 10.3-5.1 14.15-3.4 3.84-8.1 6.2-14.1 7.06v8.68h-6.8V104c-5.35-.65-9.7-2.65-13.04-6-3.35-3.33-5.5-8.05-6.4-14.15l12.1-1.3c.5 2.48 1.43 4.6 2.8 6.4 1.35 1.8 2.87 3.1 4.54 3.9"/>
  <g clip-path="url(#a)" transform="matrix(1.25 0 0 -1.25 -260.99 900.55)" opacity=".13">
    <path fill="#2b2b2a" d="M337.45 664.35L292.12 690c.3-.24.57-.48.83-.73 2.33-2.22 3.82-5.18 4.46-8.9l-9.4-1.23c-.5 2.93-2 4.9-4.4 5.95v-14.6c6-1.6 10-3.7 12.2-6.3 2.2-2.6 3.3-5.9 3.3-9.9 0-4.5-1.34-8.3-4.05-11.38-2.7-3.06-6.47-4.94-11.3-5.63v-6.95h-5.1l29.36-16.6c17.66 9.6 29.64 28.3 29.64 49.8v.6"/>
  </g>
</svg>
