<?xml version="1.0" standalone="no"?>
<!DOCTYPE svg PUBLIC "-//W3C//DTD SVG 20010904//EN"
 "http://www.w3.org/TR/2001/REC-SVG-20010904/DTD/svg10.dtd">
<svg version="1.0" xmlns="http://www.w3.org/2000/svg"
 width="16.000000pt" height="16.000000pt" viewBox="0 0 16.000000 16.000000"
 preserveAspectRatio="xMidYMid meet">
<metadata>
Created by potrace 1.11, written by Peter Selinger 2001-2013
</metadata>
<g transform="translate(0.000000,16.000000) scale(0.002094,-0.002094)"
fill="#000000" stroke="none">
<path d="M1698 6565 c-2 -2 -44 -7 -93 -10 -257 -18 -338 -35 -425 -90 -99
-62 -129 -140 -125 -321 1 -71 5 -140 8 -154 4 -14 9 -45 12 -70 13 -106 34
-206 51 -238 8 -15 14 -31 14 -35 0 -11 51 -79 70 -93 8 -7 26 -22 40 -33 58
-52 187 -88 305 -85 224 4 447 98 609 257 178 174 217 378 114 587 -18 36 -35
67 -38 70 -3 3 -19 23 -35 45 -60 81 -142 142 -217 162 -25 7 -284 13 -290 8z"/>
<path d="M2713 6520 c-2 -3 -9 -6 -14 -6 -5 -1 -11 -3 -14 -4 -3 -1 -8 -3 -12
-4 -89 -24 -182 -133 -217 -256 -18 -61 -27 -185 -17 -214 14 -39 -10 -139
-52 -216 -23 -41 -45 -79 -49 -85 -5 -5 -27 -36 -49 -68 -22 -33 -68 -99 -102
-149 -209 -303 -246 -411 -176 -510 11 -14 19 -31 19 -37 0 -6 4 -11 9 -11 9
0 34 -56 87 -195 33 -86 57 -121 96 -141 67 -35 147 -3 328 131 63 47 151 109
195 138 44 28 82 54 85 57 3 3 30 21 60 40 30 19 57 37 60 40 3 3 25 19 50 35
153 102 215 192 234 342 5 37 13 69 26 98 5 11 31 72 58 135 62 145 74 193 71
297 -3 138 -31 236 -95 336 -114 176 -268 258 -482 254 -51 -1 -96 -4 -99 -7z"/>
<path d="M5758 6336 c-1 -2 -43 -6 -93 -9 -49 -4 -99 -8 -110 -11 -111 -24
-204 -67 -252 -118 -30 -31 -70 -107 -78 -146 -1 -9 -8 -35 -13 -57 -6 -22
-13 -60 -16 -85 -3 -25 -8 -56 -11 -69 -4 -24 -12 -104 -21 -231 -6 -86 -12
-193 -29 -515 -5 -99 -10 -148 -21 -195 -2 -14 -6 -62 -8 -107 -6 -146 46
-229 190 -299 38 -19 79 -36 90 -38 10 -3 69 -18 129 -34 61 -17 126 -33 145
-38 19 -4 40 -9 45 -10 6 -2 21 -5 35 -8 14 -3 36 -8 50 -11 14 -3 50 -11 80
-16 30 -6 60 -12 65 -13 9 -2 44 -8 140 -22 75 -11 207 -16 248 -10 57 9 104
51 142 125 26 53 71 210 80 281 2 19 7 52 11 73 18 112 28 353 28 682 0 339
-3 384 -31 470 -63 193 -190 306 -399 356 -134 32 -155 35 -289 45 -44 3 -85
7 -92 9 -6 2 -13 2 -15 1z"/>
<path d="M4285 6298 c-22 -4 -56 -10 -75 -14 -78 -14 -196 -68 -309 -142 -60
-39 -246 -219 -307 -297 -21 -27 -41 -52 -44 -55 -16 -15 -84 -127 -105 -173
-26 -55 -52 -158 -49 -193 9 -128 17 -139 369 -469 76 -71 157 -148 180 -170
133 -126 176 -154 268 -178 54 -14 193 -17 214 -4 5 3 21 8 36 11 28 5 198 82
207 94 3 4 24 20 47 36 152 103 311 316 369 496 18 56 24 218 11 285 -9 44
-67 208 -78 220 -5 5 -9 17 -9 26 0 9 -7 22 -15 29 -9 7 -13 15 -10 18 2 3 -5
21 -17 41 -33 54 -119 183 -132 197 -175 188 -272 241 -456 248 -30 1 -73 -1
-95 -6z"/>
<path d="M1387 5344 c-77 -20 -118 -44 -177 -103 -108 -109 -154 -256 -154
-496 0 -132 5 -186 30 -297 3 -15 5 -29 5 -30 -3 -7 60 -182 67 -187 4 -3 18
-28 32 -55 13 -27 47 -73 75 -101 93 -96 213 -137 379 -130 126 5 165 13 243
48 43 19 93 75 119 131 39 85 38 159 -6 391 -11 61 -23 126 -26 145 -4 19 -10
43 -15 52 -5 9 -9 27 -9 41 0 13 -3 27 -7 31 -5 4 -8 11 -9 14 -1 19 -28 98
-36 107 -4 5 -8 15 -8 22 0 21 -60 144 -105 213 -112 172 -249 243 -398 204z"/>
<path d="M3167 4903 c-3 -2 -23 -6 -44 -8 -21 -2 -50 -8 -65 -14 -16 -6 -28
-7 -28 -4 0 4 -5 2 -12 -5 -7 -7 -18 -12 -26 -12 -30 0 -164 -75 -216 -121
-71 -64 -115 -127 -153 -219 -50 -120 -58 -168 -56 -365 2 -264 21 -368 89
-481 62 -103 163 -179 299 -224 91 -30 275 -33 375 -6 77 21 162 56 172 70 4
6 8 7 8 3 0 -13 111 69 156 115 86 88 214 325 284 523 30 86 34 99 45 146 2
11 7 29 10 39 35 112 37 234 4 305 -47 100 -213 199 -384 230 -16 3 -59 10
-95 16 -68 12 -354 22 -363 12z"/>
<path d="M4487 4495 c-1 -2 -34 -5 -72 -8 -102 -9 -170 -34 -207 -75 -27 -32
-30 -40 -25 -84 7 -55 47 -120 128 -208 58 -63 81 -104 113 -199 22 -66 59
-128 108 -182 40 -44 169 -124 215 -132 10 -2 38 -9 63 -16 25 -7 54 -15 65
-17 81 -17 419 -26 448 -12 11 6 17 5 17 -2 0 -6 3 -9 8 -6 4 2 43 7 87 11 44
3 91 8 105 10 28 4 104 16 135 20 84 13 277 63 335 87 19 8 40 16 45 17 6 0
37 15 71 31 127 64 221 181 208 260 -13 78 -79 152 -179 203 -31 15 -150 52
-195 61 -14 2 -36 7 -50 10 -14 3 -42 8 -64 11 -21 3 -41 7 -45 9 -3 2 -44 7
-91 10 -46 4 -93 9 -105 11 -11 2 -49 6 -85 9 -243 20 -440 55 -542 95 -16 6
-28 8 -28 5 0 -4 -6 -2 -12 3 -7 6 -26 14 -43 18 -16 5 -34 10 -40 11 -89 30
-175 45 -263 48 -56 1 -103 2 -105 1z"/>
<path d="M1830 3944 c-112 -33 -327 -137 -405 -197 -5 -4 -28 -21 -50 -38
-167 -127 -226 -251 -168 -347 34 -55 107 -137 171 -192 35 -30 70 -61 77 -67
8 -7 17 -13 20 -13 4 0 27 -13 51 -30 94 -63 264 -102 379 -88 58 7 100 15
100 18 0 1 9 3 19 5 32 6 159 72 196 102 168 135 243 256 249 399 4 111 -65
263 -158 345 -60 53 -62 54 -107 77 -111 56 -238 65 -374 26z"/>
<path d="M4316 3603 c-1 -1 -17 -5 -36 -8 -19 -3 -46 -7 -60 -10 -14 -3 -36
-7 -50 -9 -14 -2 -57 -11 -95 -20 -39 -8 -82 -17 -95 -19 -14 -3 -36 -8 -50
-11 -14 -3 -38 -8 -55 -11 -118 -19 -230 -80 -263 -145 -21 -40 -23 -55 -19
-130 3 -47 7 -95 10 -106 13 -53 57 -171 100 -264 55 -123 65 -147 81 -200 9
-30 19 -72 22 -93 3 -21 7 -44 8 -50 2 -7 6 -34 11 -61 15 -92 69 -175 161
-245 21 -16 277 -91 311 -91 20 0 74 15 122 34 99 39 126 48 161 52 14 1 52 7
85 13 33 5 76 12 95 15 88 12 118 17 140 21 14 3 41 8 60 11 50 9 114 41 140
69 17 18 23 37 24 73 1 40 -10 70 -66 182 -37 74 -86 169 -109 210 -80 147
-143 266 -182 345 -21 44 -43 88 -48 98 -9 17 -54 133 -59 152 -31 121 -90
177 -200 192 -31 4 -141 9 -144 6z"/>
<path d="M5780 3574 c-66 -11 -124 -21 -155 -28 -65 -14 -264 -84 -275 -96 -3
-3 -18 -12 -34 -20 -50 -25 -134 -109 -179 -177 -23 -35 -42 -67 -43 -71 0 -4
-4 -14 -7 -22 -37 -89 -46 -200 -22 -290 14 -53 62 -158 82 -178 7 -7 13 -16
13 -20 0 -13 105 -117 145 -144 51 -34 121 -66 188 -83 50 -13 245 -15 292 -2
11 3 41 10 66 16 122 28 315 118 464 216 104 68 139 102 167 161 36 74 30 134
-26 274 -26 63 -48 126 -50 140 -23 160 -74 243 -179 294 -95 46 -277 58 -447
30z"/>
<path d="M3028 3340 c-141 -44 -246 -147 -293 -285 -50 -148 -54 -342 -10
-525 3 -14 8 -34 10 -45 11 -48 47 -133 84 -194 111 -183 237 -249 491 -257
104 -3 139 0 210 18 175 45 261 137 263 283 1 42 -10 133 -17 157 -3 7 -7 27
-9 43 -12 77 -63 258 -99 349 -90 226 -200 370 -334 436 -55 27 -78 32 -152
35 -63 2 -103 -2 -144 -15z"/>
<path d="M1403 2912 c-18 -11 -26 -83 -28 -277 -3 -180 -9 -245 -26 -277 -5
-10 -7 -18 -3 -18 3 0 2 -6 -4 -12 -9 -12 -43 -147 -57 -228 -18 -102 -28
-233 -29 -360 0 -119 11 -307 19 -319 2 -4 6 -19 9 -33 12 -69 99 -198 134
-198 6 0 12 -4 12 -9 0 -19 161 -57 277 -66 37 -3 78 -7 90 -9 74 -15 524 -23
663 -12 112 8 190 43 240 105 14 17 30 37 35 44 12 14 105 259 105 276 0 6 4
11 8 11 4 0 15 15 23 33 8 17 31 62 51 98 20 37 40 82 44 100 11 47 11 48 14
57 3 11 -1 83 -6 116 -7 41 -66 160 -104 209 -21 26 -100 106 -139 140 -40 35
-191 138 -191 131 0 -3 -13 4 -28 15 -29 20 -271 143 -437 221 -234 111 -289
135 -407 185 -120 51 -218 85 -242 85 -6 0 -16 -4 -23 -8z"/>
<path d="M6258 2415 c-2 -2 -23 -5 -48 -8 -39 -5 -201 -34 -295 -52 -16 -3
-127 -26 -245 -51 -221 -46 -261 -54 -295 -59 -11 -2 -63 -13 -115 -25 -52
-12 -105 -24 -118 -26 -13 -3 -76 -16 -140 -30 -64 -14 -128 -28 -142 -31 -44
-9 -55 -11 -55 -13 0 -1 -9 -3 -20 -5 -11 -1 -33 -5 -50 -9 -16 -3 -40 -8 -53
-10 -13 -3 -31 -7 -40 -10 -9 -3 -33 -8 -52 -11 -19 -2 -66 -12 -105 -21 -38
-8 -82 -17 -97 -19 -26 -4 -124 -21 -163 -29 -85 -18 -154 -88 -169 -172 -3
-16 -9 -49 -14 -74 -9 -52 -9 -161 2 -241 15 -114 99 -208 230 -254 28 -10 88
-38 134 -61 46 -24 87 -43 91 -42 3 1 20 -1 36 -5 67 -15 209 -34 306 -42 42
-3 87 -8 100 -10 13 -3 69 -8 124 -11 55 -3 129 -8 165 -10 269 -18 711 -18
825 0 71 11 82 14 115 31 33 17 140 120 140 134 0 5 9 19 21 32 11 13 31 42
44 64 23 40 84 202 91 240 2 11 15 61 29 110 14 50 28 104 31 120 3 17 9 46
14 65 5 19 11 53 14 75 3 22 9 58 13 80 4 22 8 85 8 140 0 89 -3 104 -24 133
-28 40 -84 77 -140 92 -37 10 -147 20 -153 15z"/>
<path d="M3528 1995 c-2 -1 -21 -5 -44 -8 -85 -12 -293 -111 -357 -171 -59
-55 -80 -88 -108 -171 -24 -73 -26 -81 -33 -130 -3 -16 -5 -32 -6 -35 -8 -21
3 -90 20 -125 34 -69 111 -125 225 -163 311 -104 627 45 708 333 11 39 16 140
7 140 -1 0 -3 13 -5 30 -17 130 -198 286 -347 298 -31 3 -58 4 -60 2z"/>
</g>
</svg>
