<svg xmlns="http://www.w3.org/2000/svg" viewBox="0 0 141.732 141.732"><path d="M97.063 102.327c-.033-.164-.08-.32-.14-.47l-4.02-12.803c-.35-1.127-1.395-1.892-2.577-1.892-1.18 0-2.226.765-2.578 1.892l-4.08 12.993c-.02.065-.038.13-.052.195-.216.686-.326 1.39-.326 2.1 0 3.882 3.158 7.037 7.036 7.037 3.88 0 7.035-3.157 7.035-7.038 0-.68-.1-1.36-.296-2.016m2.812-25.956v4.593c0 1.494-1.21 2.704-2.704 2.704H83.83c-1.494 0-2.703-1.21-2.703-2.704V76.37c0-1.308.93-2.4 2.165-2.648v-5.17c0-.924-.75-1.674-1.672-1.674h-.55c-2.487 4.475-7.175 7.278-12.405 7.278-5.233 0-9.92-2.803-12.407-7.278H35.733c-1.493 0-2.704-1.21-2.704-2.702V55.25c0-1.493 1.21-2.702 2.702-2.702h20.8c1.712-2.802 4.333-4.896 7.37-5.98V43.21c0-.184.02-.366.055-.54h-7.255C55.21 42.67 54 41.46 54 39.968v-3.87c0-1.494 1.21-2.704 2.703-2.704h7.2v-.336c0-1.493 1.212-2.704 2.703-2.704h4.11c1.492 0 2.703 1.21 2.703 2.704v.336h7.2c1.493 0 2.702 1.21 2.702 2.703v3.87c0 1.495-1.21 2.705-2.703 2.705h-7.257c.035.174.055.356.055.54v3.358c3.038 1.084 5.658 3.178 7.37 5.98h5.2c6.366 0 11.544 5.176 11.544 11.54v9.608c1.32.178 2.34 1.306 2.34 2.675"/></svg>