<svg xmlns="http://www.w3.org/2000/svg" viewBox="0 0 141.732 141.732"><path d="M38.356 84.737l6.94-26.617h49.297l8.784 26.617h-65.02zm56.766-28.563h-50.36c-1.46 0-2.66.726-2.66 1.622l-6.925 27.266c0 .893 1.188 1.62 2.65 1.62h66.08c1.46 0 2.648-.727 2.648-1.62L97.77 57.796c0-.896-1.19-1.622-2.648-1.622M73.704 88.58h-5.84v11.615H60.99v3.952h19.75v-3.952h-7.036V88.58zm-34.292-29.8l.218-.858c-1.514-.873-2.504-2.24-2.504-3.797v-2.783c0-2.23 2.007-4.098 4.72-4.63.166-.057.335-.108.506-.155h-1.51c-3.475 0-6.292 2.142-6.292 4.785v2.783c0 2.268 2.077 4.163 4.862 4.655m61.48-12.223h-1.51c.17.047.34.1.504.156 2.712.53 4.72 2.4 4.72 4.63v2.78c0 2.058-1.716 3.793-4.11 4.47l.1.316h.296c3.474 0 6.29-2.15 6.29-4.79v-2.78c0-2.65-2.816-4.79-6.29-4.79M69.06 35.08h3.234c.083-.01.155-.047.2-.11.058-.055.065-.136.046-.21l-1.616-6c-.062-.23-.43-.23-.494-.002l-1.606 5.993c-.027.08-.01.16.035.22.05.08.12.11.2.11m12.83 4.78c.05.06.13.09.21.09.08-.01.15-.06.19-.14l3.09-5.37c.12-.19-.15-.46-.35-.34l-5.38 3.094c-.078.04-.12.12-.13.205-.02.074.02.146.07.203l2.285 2.28zm-22.46.33c.03.07.11.11.19.12.07.02.15-.01.2-.07l2.28-2.28c.05-.05.09-.13.08-.21-.01-.08-.058-.15-.13-.18l-5.39-3.1c-.19-.12-.458.145-.35.35l3.11 5.39zm20.93 3.75c-.51-1.01-1.18-1.97-2.03-2.81-4.24-4.23-11.11-4.23-15.347 0-.847.85-1.5 1.81-2.01 2.82h19.38z"/><path d="M70.71 59.516c-1.766 0-3.196 1.43-3.196 3.195v17.44c0 1.77 1.43 3.2 3.195 3.2 1.76 0 3.19-1.43 3.19-3.19V62.71c0-1.763-1.43-3.194-3.2-3.194m-9.7.004c-1.77-.094-3.27 1.253-3.37 3.015l-.96 17.433c-.1 1.762 1.25 3.27 3.01 3.367.06.003.12.005.17.005 1.685 0 3.095-1.32 3.19-3.02L64 62.888c.098-1.763-1.25-3.27-3.013-3.368m-8.796.064c-1.723-.36-3.42.746-3.78 2.472L44.78 79.49c-.36 1.726.746 3.42 2.473 3.78.22.047.44.07.658.07 1.48 0 2.81-1.035 3.13-2.54l3.65-17.434c.36-1.727-.74-3.42-2.47-3.782m28.51-.064c-1.76.098-3.11 1.605-3.01 3.368l.96 17.432c.1 1.7 1.51 3.02 3.19 3.02.06 0 .12-.002.18-.005 1.77-.097 3.12-1.605 3.02-3.367l-.96-17.433c-.095-1.762-1.61-3.112-3.363-3.015m8.794.064c-1.726.36-2.833 2.055-2.47 3.782L90.7 80.8c.317 1.505 1.645 2.54 3.125 2.54.22 0 .44-.023.66-.07 1.73-.36 2.838-2.054 2.477-3.78l-3.65-17.434c-.36-1.727-2.06-2.83-3.782-2.472m-49.9-8.244v2.785c0 .756.24 1.47.65 2.106.84-1.11 2.53-1.88 4.49-1.88h50.36c2.65 0 4.83 1.41 5.03 3.18l.016.05c1.193-.87 1.94-2.09 1.94-3.45v-2.79c0-2.64-2.814-4.78-6.29-4.78h-49.91c-3.474 0-6.29 2.15-6.29 4.79"/></svg>