<svg xmlns="http://www.w3.org/2000/svg" viewBox="0 0 141.732 141.732"><path d="M58.535 110.164c.03-5.48.1-10.963.034-16.443-.01-.58-.81-1.15-1.52-2.11V71.6h9.32v20.768l-1.81.305v17.49h-6.03zm18.07 0c-.086-2.527-.207-5.055-.247-7.583-.044-2.67-.05-5.35.007-8.02.027-1.225.013-2.292-1.642-2.17V71.62h9.32v20.73l-1.815.363v17.45h-5.623zM50.712 68.662c.87-1.968-1.173-4.46 1.838-5.86 0-3.975-.084-8.12.02-12.258.186-7.62 3.367-13.552 10.316-17.043 11.346-5.7 25.04 1.85 26.136 14.3.392 4.45.254 8.95.367 13.42.02 1.1-.45 2.56 1.63 2.07v5.38H50.71z"/></svg>