<svg xmlns="http://www.w3.org/2000/svg" viewBox="0 0 141.732 141.732"><path d="M37.952 110.965h65.83v-9.828h-65.83v9.828zm11.84-48.188c0-2.344 1.917-4.263 4.262-4.263H87.68c2.343 0 4.262 1.92 4.262 4.263v25.337c0 2.344-1.92 4.26-4.263 4.26l-33.63.002c-2.345 0-4.26-1.918-4.26-4.262V62.777zm-11.84 35.876h65.83V51.527h-65.83v47.126zm53.812-54.82c-2.55 0-4.618-2.067-4.618-4.617s2.068-4.618 4.618-4.618c2.55 0 4.617 2.068 4.617 4.618 0 2.55-2.062 4.617-4.612 4.617m-13.933 0c-2.55 0-4.615-2.067-4.615-4.617s2.065-4.618 4.615-4.618c2.553 0 4.62 2.068 4.62 4.618 0 2.55-2.067 4.617-4.62 4.617m-13.93 0c-2.55 0-4.616-2.067-4.616-4.617s2.064-4.618 4.614-4.618 4.618 2.068 4.618 4.618c0 2.55-2.066 4.617-4.617 4.617m-13.93 0c-2.55 0-4.62-2.067-4.62-4.617s2.07-4.618 4.62-4.618c2.55 0 4.616 2.068 4.616 4.618 0 2.55-2.066 4.617-4.616 4.617M93.01 29.388v-1.184H78.33v1.184H63.41v-1.184H48.725v1.184H37.95v19.655h65.83V29.388H93.007z"/></svg>