<svg xmlns="http://www.w3.org/2000/svg" width="191.32" height="151.17" baseProfile="tiny">
  <path fill="#A46C55" d="M161.54 92.94c-.17-.37-.35-.73-.5-1.1-.98-2.13-.7-4.58-2.02-6.68-1.22-1.92-3.06-3-5.26-3.46-4.98-1.04-11.36.13-16.14 1.67-2.25.73-5.03 1.9-6.73 3.62-4.6 4.6-5.9 10.2-2.6 15.9 3.2 5.5 8.4 8.1 14.9 7.4 4.3-.5 8.5-2.2 12.3-4.4 2.7-1.6 6.5-3.5 7.3-6.8.5-2.2-.4-4.3-1.4-6.2z"/>
  <path fill="#716060" d="M86.82 40.07c-5.7-6.48 3.62-16.1 7.9-20.22 4.55-4.4 12.43-7.93 18.82-5.88 7.43 2.38 13.18 13.16 14.33 20.36 1.88 11.75-16.8 28.8-27 19.03-4.66-4.45-9.5-8.75-14.05-13.3z"/>
  <path fill="#A46C55" d="M66.3 79c-.82-1.44-1.4-3.12-1.64-5.04-.84-6.56-1.27-14.36 3.27-19.82 3.3-3.96 8.73-5.77 13.97-5.83 5.9 0 19.04 1.3 19.15 9.3.08 5.8-5.02 18.3-9.03 22.5-7.14 7.5-20.82 7.4-25.7-1.1z"/>
  <path fill="#846266" d="M133.87 59.32c5.54 1.87 22.1 5.8 25.56 4.13 6.3-3.02 5.5-26.58 5.57-34.13.06-7.38-2.9-12.88-9.24-14.9-6.15-1.98-19.4-3.32-23.6 2.3-3.63 4.85-2.92 25.76-4.05 31.9-.3 1.6-.5 3.26-.2 4.86.6 3.24 3.5 4.97 6 5.84zM82.65 30.85c.84-1.7 1.75-3.36 2.07-5.3.6-3.6-.03-7.7-1.86-10.87C79.68 9.18 74.1 7.02 68.28 8c-5.72.97-7.96 7.25-7.17 12.94.5 3.26-3.5 7.86-5.1 10.36-1.7 2.77-8 10.24-6.2 13.64 1 1.75 2.1 2.98 2.7 4.98 1.1 3.54 2.3 7.37 6.6 5.38 3-1.4 5.3-3.72 8-5.5l7.2-4.8c4.3-2.87 6.1-4.44 6.8-9.73.3-1.6.9-3 1.6-4.4zM33.17 79.4c4.13-3.74 10.9-6.75 14.3-7.36 6.18-1.1 11.03 2.22 13.26 6.83 2.18 4.5 1.27 9.27-3.5 13.5-4.6 4.1-9.84 5.48-15 4-4.46-1.27-8.12-4.43-10.84-7.68-.8-.9-1.4-1.8-1.7-2.9-.5-2.3 1.4-4.7 3.4-6.4zm56.43 40.02c-4.65 1.8-11.14.93-14.06-.6-5.32-2.76-8-9.97-8.1-17-.1-6.9 2.34-12.05 7.67-14 5.2-1.88 9.9-.1 13.4 5.1 3.1 4.52 4.9 10.75 5.9 16.48.3 1.48.5 3.03.3 4.52-.4 3.03-2.8 4.67-5 5.5zm26.1-60.74c3.48.07 7.04 1.7 10.33 2.64 7.04 2.02 14.34 1.7 21.48 3.04 3.2.6 7 1.46 9.4 3.76 4.8 4.6-1.3 9.13-5.3 10.56-5.4 1.93-11.3 3.07-17 3.4-3.4.2-7 .22-10.5-.08-6.4-.58-10.2-3.17-12.2-6.35-1.5-2.34-1.1-4.28-3.1-6.6-2.03-2.4-5.3-5.33-3.8-7.9 1.26-2.2 5.9-2.57 10.88-2.47z"/>
  <path fill="#D72E00" d="M65.12 143.15c1.7-.86 3.13-2.22 3.96-4.13.73-1.72 1.14-3.6 1.9-5.3 1.2-2.7 3.23-5.02 3.62-7.97.62-4.74-3-9-6.15-11.67-2.58-2.17-5.5-3.78-8.45-5.3-1.7-.85-23.17-11.58-24.84-10.65-1.23.7-.42 11.3-.93 12.7-2.52 6.9-3.23 14.7-2.63 22.03.34 4.13 1 6.88 4.5 9.04 3.08 1.92 25.6 2.97 29.02 1.25z"/>
  <path fill="#846266" d="M46.3 71.55c-4.2 1.9-10.03.97-12.66-.65-4.78-2.95-7.2-10.63-7.3-18.12-.1-7.33 2.08-12.8 6.87-14.87 4.7-2 8.9 0 12.1 5.5 2.8 4.8 4.4 11.5 5.3 17.6.3 1.6.5 3.2.3 4.8-.4 3.28-2.5 5-4.5 5.9zm30.33 67.62c1.97 1.76 5.06 2.7 7.34 2.97 4.08.48 8.42-.72 11.35-3.68 5.48-5.53 4.43-13.16-2.76-16.5-3.94-1.8-7.46-.07-11.1 1.73-1.56.7-3.1 1.6-4.17 3-1.1 1.3-1.6 2.9-2.1 4.6-.4 1.5-.8 3.1-.6 4.6.2 1.3.9 2.3 1.9 3.2z"/>
  <path fill="#716060" d="M26.78 22.3c.2 1.5.45 2.95.68 4.28 3.2 19.05 42.8 3.23 27.52-15.83-3.7-4.6-7.48-4.22-12.52-3.8-5.42.48-15.18 0-16.02 7.3-.27 2.43-.04 5.3.34 8.04zm83.9 119c3.36 2.47 39.43 4.45 43.75 2.1 2.1-1.18 4.46-4.44 5.65-6.64 1-1.83 3.6-11.23 3.85-13.36.3-2.58 1.36-6.18.7-8.76-.8-3.08-4.37-3.86-7.05-3.9-4.83-.05-45.68 9.5-50.48 10-5.7.6-6.05 4.88-6.05 10.18s2.28 7.52 6.95 8.96c.94.3 1.82.8 2.67 1.43zM98.9 114.95c.83.66 1.83 1.16 3 1.43 1.9.45 3.76 1.52 5.74 1.5 2.13-.04 3.9-1.47 5.92-1.92 2.3-.5 4.63-.75 6.94-1.1 3.88-.62 9.78-1.02 7.3-6.46-3.15-6.86-7.37-13.2-10.3-20.16-.75-1.76-1.17-4.56-2.66-5.87-3.05-2.66-10.67-.67-14.12.1-3.56.82-10.46 1.27-10.84 6.08-.54 6.87 5.1 12.74 5.66 19.42.23 2.75 1.3 5.36 3.35 6.98z"/>
  <path fill="none" d="M0 0h191.32v151.17H0z"/>
</svg>
