<?xml version="1.0" standalone="no"?>
<!DOCTYPE svg PUBLIC "-//W3C//DTD SVG 20010904//EN"
 "http://www.w3.org/TR/2001/REC-SVG-20010904/DTD/svg10.dtd">
<svg version="1.0" xmlns="http://www.w3.org/2000/svg"
 width="700.000000pt" height="700.000000pt" viewBox="0 0 700.000000 700.000000"
 preserveAspectRatio="xMidYMid meet">
<metadata>
Created by potrace 1.11, written by Peter Selinger 2001-2013
</metadata>
<g transform="translate(0.000000,700.000000) scale(0.100000,-0.100000)"
fill="#000000" stroke="none">
<path d="M4888 6900 c-37 -10 -82 -21 -100 -24 -18 -3 -86 -23 -150 -44 -122
-41 -121 -40 -257 -173 -57 -55 -166 -132 -239 -169 -93 -46 -118 -69 -144
-128 -23 -52 -29 -209 -7 -222 14 -9 86 -1 114 13 11 5 90 52 175 105 198 122
270 157 355 177 6 2 37 10 70 18 33 8 89 14 125 13 36 -1 79 1 95 6 17 4 41 9
55 12 23 5 142 88 238 165 66 54 121 179 94 216 -4 6 -21 21 -39 33 -29 20
-42 22 -175 21 -105 -1 -161 -6 -210 -19z"/>
<path d="M4115 5548 c-44 -16 -188 -61 -320 -99 -249 -73 -380 -116 -437 -143
-30 -14 -36 -24 -51 -85 -34 -132 -125 -291 -279 -486 -172 -218 -242 -335
-303 -505 -21 -58 -42 -116 -48 -130 -46 -116 -192 -565 -208 -640 -11 -52
-22 -102 -24 -110 -1 -8 -8 -35 -15 -60 -7 -25 -14 -56 -17 -70 -2 -14 -17
-77 -33 -140 -16 -63 -41 -173 -55 -245 -14 -71 -36 -182 -50 -245 -13 -63
-26 -126 -29 -140 -18 -106 -65 -350 -95 -490 -11 -52 -22 -106 -25 -120 -2
-14 -11 -59 -20 -100 -8 -41 -18 -91 -21 -110 -32 -197 -150 -545 -204 -605
-10 -11 -65 -99 -121 -195 -131 -224 -162 -270 -228 -342 -58 -62 -157 -118
-237 -134 -22 -4 -42 -8 -45 -9 -36 -10 -196 -21 -429 -30 -130 -5 -239 -23
-284 -46 -68 -35 -84 -84 -44 -130 32 -38 143 -51 460 -54 l258 -3 97 53 c94
50 245 141 288 174 12 9 32 23 44 31 168 112 409 334 590 545 98 114 246 306
295 385 38 60 117 220 149 300 144 367 202 538 215 645 7 50 14 104 17 120 2
17 6 93 9 170 8 198 18 271 64 495 43 206 106 437 172 630 68 195 110 327 194
600 31 102 72 217 90 256 28 62 40 77 87 107 92 58 152 151 243 371 59 145 98
211 160 272 54 52 109 78 160 75 105 -6 249 170 200 245 -21 33 -67 31 -170
-8z"/>
<path d="M6165 5421 c-172 -43 -443 -208 -585 -355 -25 -25 -70 -86 -100 -135
-63 -101 -90 -135 -141 -174 -47 -36 -90 -36 -124 0 -14 15 -25 30 -26 33 -1
5 -5 162 -11 452 -2 64 -8 121 -13 127 -31 30 -108 32 -235 6 -68 -13 -86 -19
-148 -47 -145 -66 -272 -186 -460 -433 -12 -17 -43 -57 -67 -89 -38 -50 -44
-62 -32 -73 32 -33 128 -37 209 -8 54 19 63 19 82 0 11 -12 14 -31 10 -78 -2
-34 -7 -96 -9 -137 -2 -41 -7 -85 -9 -97 -5 -26 -12 -97 -31 -313 -5 -59 -20
-203 -30 -290 -2 -19 -6 -57 -9 -85 -14 -135 -17 -162 -21 -185 -2 -14 -7 -52
-10 -85 -6 -62 -9 -83 -25 -175 -5 -30 -12 -71 -15 -90 -3 -19 -7 -46 -10 -60
-3 -14 -7 -41 -10 -60 -20 -124 -96 -374 -180 -595 -30 -77 -76 -203 -104
-280 -27 -77 -86 -237 -131 -355 -84 -221 -97 -279 -78 -349 13 -45 46 -89 81
-108 75 -38 227 5 309 88 33 33 108 140 108 153 0 3 11 29 24 58 34 76 44 103
65 166 72 218 278 854 316 977 94 300 117 371 140 435 13 36 28 90 34 120 13
64 47 171 67 209 8 14 14 30 14 34 0 12 27 74 57 127 25 46 118 238 155 320
141 314 211 405 365 484 51 25 183 72 228 80 54 10 256 67 316 90 214 80 370
249 396 429 19 132 -9 213 -86 256 -58 32 -175 37 -276 12z"/>
</g>
</svg>
