<?xml version="1.0" encoding="UTF-8" standalone="no"?>
<svg id="svg13714" xmlns:rdf="http://www.w3.org/1999/02/22-rdf-syntax-ns#" xmlns="http://www.w3.org/2000/svg" height="15.931mm" width="27.773mm" version="1.1" xmlns:cc="http://creativecommons.org/ns#" xmlns:dc="http://purl.org/dc/elements/1.1/" viewBox="0 0 98.40875 56.449999">
 <g id="layer1" transform="translate(0 -995.91)">
  <path id="path8790" d="m22.11 1050c0 1.3313-1.0775 2.4075-2.4088 2.4075h-16.854c-1.3288 0-2.4062-1.0762-2.4062-2.4075v-6.4787c0-1.3313 1.0775-2.4075 2.4062-2.4075h16.854c1.3312 0 2.4088 1.0762 2.4088 2.4075v6.4787" fill="#98a8a8"/>
  <path id="path8792" d="m43.779 1050c0 1.3313-1.0775 2.4075-2.4075 2.4075h-16.854c-1.33 0-2.4075-1.0762-2.4075-2.4075v-6.4787c0-1.3313 1.0775-2.4075 2.4075-2.4075h16.854c1.33 0 2.4075 1.0762 2.4075 2.4075v6.4787" fill="#b22222"/>
  <path id="path8794" d="m65.448 1050c0 1.3313-1.0775 2.4075-2.4075 2.4075h-16.854c-1.33 0-2.4075-1.0762-2.4075-2.4075v-6.4787c0-1.3313 1.0775-2.4075 2.4075-2.4075h16.854c1.33 0 2.4075 1.0762 2.4075 2.4075v6.4787" fill="#839396"/>
  <path id="path8796" d="m87.118 1050c0 1.3313-1.0775 2.4075-2.4075 2.4075h-16.855c-1.3288 0-2.4075-1.0762-2.4075-2.4075v-6.4787c0-1.3313 1.0788-2.4075 2.4075-2.4075h16.855c1.33 0 2.4075 1.0762 2.4075 2.4075v6.4787" fill="#5f7278"/>
  <path id="path8798" d="m22.11 1027.4c0 1.33-1.0775 2.4063-2.4088 2.4063h-16.854c-1.3288 0-2.4062-1.0763-2.4062-2.4063v-6.4775c0-1.3312 1.0775-2.41 2.4062-2.41h16.854c1.3312 0 2.4088 1.0788 2.4088 2.41v6.4775" fill="#5f7278"/>
  <path id="path8800" d="m43.779 1027.4c0 1.33-1.0775 2.4063-2.4075 2.4063h-16.854c-1.33 0-2.4075-1.0763-2.4075-2.4063v-6.4775c0-1.3312 1.0775-2.41 2.4075-2.41h16.854c1.33 0 2.4075 1.0788 2.4075 2.41v6.4775" fill="#98a8a8"/>
  <path id="path8802" d="m65.448 1027.4c0 1.33-1.0775 2.4063-2.4075 2.4063h-16.854c-1.33 0-2.4075-1.0763-2.4075-2.4063v-6.4775c0-1.3312 1.0775-2.41 2.4075-2.41h16.854c1.33 0 2.4075 1.0788 2.4075 2.41v6.4775" fill="#b22222"/>
  <path id="path8804" d="m87.118 1027.4c0 1.33-1.0775 2.4063-2.4075 2.4063h-16.855c-1.3288 0-2.4075-1.0763-2.4075-2.4063v-6.4775c0-1.3312 1.0788-2.41 2.4075-2.41h16.855c1.33 0 2.4075 1.0788 2.4075 2.41v6.4775" fill="#98a8a8"/>
  <path id="path8806" d="m22.11 1004.8c0 1.3287-1.0775 2.4075-2.4088 2.4075h-16.854c-1.3288 0-2.4062-1.0788-2.4062-2.4075v-6.4763c0-1.3312 1.0775-2.41 2.4062-2.41h16.854c1.3312 0 2.4088 1.0788 2.4088 2.41v6.4763" fill="#98a8a8"/>
  <path id="path8808" d="m1.885 1005.7v-6.2262c0-1.2763 1.0362-2.3138 2.315-2.3138h15.539c-0.35875-0.2737-0.80125-0.4425-1.2875-0.4425h-14.906c-1.175 0-2.1288 0.9525-2.1288 2.1288v5.73c0 0.5125 0.18875 0.9775 0.49125 1.345l-0.0225-0.2213" fill="#839396"/>
  <path id="path8810" d="m32.944 1038.7c0 1.3275-1.0775 2.4075-2.4075 2.4075h-16.854c-1.33 0-2.4075-1.08-2.4075-2.4075v-6.48c0-1.33 1.0775-2.41 2.4075-2.41h16.854c1.33 0 2.4075 1.08 2.4075 2.41v6.48" fill="#5f7278"/>
  <path id="path8812" d="m54.612 1038.7c0 1.3275-1.0775 2.4075-2.4062 2.4075h-16.855c-1.33 0-2.4075-1.08-2.4075-2.4075v-6.48c0-1.33 1.0775-2.41 2.4075-2.41h16.855c1.3288 0 2.4062 1.08 2.4062 2.41v6.48" fill="#839396"/>
  <path id="path8814" d="m76.282 1038.7c0 1.3275-1.0788 2.4075-2.4075 2.4075h-16.854c-1.33 0-2.4088-1.08-2.4088-2.4075v-6.48c0-1.33 1.0788-2.41 2.4088-2.41h16.854c1.3288 0 2.4075 1.08 2.4075 2.41v6.48" fill="#5f7278"/>
  <path id="path8816" d="m97.951 1038.7c0 1.3275-1.0775 2.4075-2.4075 2.4075h-16.854c-1.33 0-2.4075-1.08-2.4075-2.4075v-6.48c0-1.33 1.0775-2.41 2.4075-2.41h16.854c1.33 0 2.4075 1.08 2.4075 2.41v6.48" fill="#839396"/>
  <path id="path8818" d="m32.944 1016.1c0 1.3313-1.0775 2.4075-2.4075 2.4075h-16.854c-1.33 0-2.4075-1.0762-2.4075-2.4075v-6.4787c0-1.3313 1.0775-2.41 2.4075-2.41h16.854c1.33 0 2.4075 1.0787 2.4075 2.41v6.4787" fill="#b22222"/>
  <g fill="#839396">
   <path id="path8820" d="m54.612 1016.1c0 1.3313-1.0775 2.4075-2.4062 2.4075h-16.855c-1.33 0-2.4075-1.0762-2.4075-2.4075v-6.4787c0-1.3313 1.0775-2.41 2.4075-2.41h16.855c1.3288 0 2.4062 1.0787 2.4062 2.41v6.4787"/>
   <path id="path8822" d="m97.951 1016.1c0 1.3313-1.0775 2.4075-2.4075 2.4075h-16.854c-1.33 0-2.4075-1.0762-2.4075-2.4075v-6.4787c0-1.3313 1.0775-2.41 2.4075-2.41h16.854c1.33 0 2.4075 1.0787 2.4075 2.41v6.4787"/>
   <path id="path8824" d="m11.291 1016c0 1.355-1.0962 2.4487-2.4488 2.4487h-6.3938c-1.3522 0.1-2.4484-1-2.4484-2.4v-6.3913c0-1.355 1.0962-2.4512 2.4488-2.4512h6.3938c1.3525 0 2.4488 1.0962 2.4488 2.4512v6.3913"/>
  </g>
  <path id="path8826" d="m98.409 1027.3c0 1.3525-1.0962 2.4488-2.4488 2.4488h-6.395c-1.3512 0-2.4475-1.0963-2.4475-2.4488v-6.3937c0-1.3525 1.0962-2.4488 2.4475-2.4488h6.395c1.3525 0 2.4488 1.0963 2.4488 2.4488v6.3937" fill="#5f7278"/>
  <g fill="#b22222">
   <path id="path8828" d="m98.409 1049.9c0 1.3525-1.0962 2.4462-2.4488 2.4462h-6.395c-1.3512 0-2.4475-1.0937-2.4475-2.4462v-6.3938c0-1.355 1.0962-2.4487 2.4475-2.4487h6.395c1.3525 0 2.4488 1.0937 2.4488 2.4487v6.3938"/>
   <path id="path8830" d="m98.409 1004.8c0 1.3525-1.0962 2.4463-2.4488 2.4463h-6.395c-1.3512 0-2.4475-1.0938-2.4475-2.4463v-6.3962c0-1.35 1.0962-2.4463 2.4475-2.4463h6.395c1.3525 0 2.4488 1.0963 2.4488 2.4463v6.3962"/>
   <path id="path8832" d="m11.291 1038.6c0 1.3525-1.0962 2.45-2.4488 2.45h-6.3938c-1.3522 0.1-2.4484-1-2.4484-2.4v-6.3938c0-1.3525 1.0962-2.4487 2.4488-2.4487h6.3938c1.3525 0 2.4488 1.0962 2.4488 2.4487v6.3938"/>
  </g>
  <path id="path8834" d="m23.472 1028.5v-6.2262c0-1.2763 1.0375-2.3138 2.315-2.3138h15.539c-0.35875-0.2737-0.80125-0.4425-1.2875-0.4425h-14.905c-1.1762 0-2.13 0.955-2.13 2.1288v5.73c0 0.5125 0.18875 0.9775 0.49125 1.345l-0.0225-0.2213" fill="#839396"/>
  <path id="path8836" d="m1.885 1051v-6.2238c0-1.2787 1.0362-2.3162 2.315-2.3162h15.539c-0.35875-0.2738-0.80125-0.4425-1.2875-0.4425h-14.906c-1.175 0-2.1288 0.9525-2.1288 2.1287v5.73c0 0.5125 0.18875 0.9763 0.49125 1.345l-0.0225-0.2212" fill="#839396"/>
  <path id="path8838" d="m13.418 1017.2v-6.2238c0-1.2762 1.0375-2.3137 2.315-2.3137h15.539c-0.36-0.2738-0.8025-0.445-1.2875-0.445h-14.906c-1.1762 0-2.13 0.955-2.13 2.1287v5.7325c0 0.5125 0.19 0.9763 0.49375 1.345l-0.02375-0.2237" fill="#f00"/>
  <path id="path8840" d="m45.139 1028.5v-6.2262c0-1.2763 1.0362-2.3138 2.3138-2.3138h15.539c-0.35875-0.2737-0.80125-0.4425-1.2875-0.4425h-14.905c-1.1762 0-2.13 0.955-2.13 2.1288v5.73c0 0.5125 0.19 0.9775 0.4925 1.345l-0.0225-0.2213" fill="#f00"/>
  <g fill="#98a8a8">
   <path id="path8842" d="m1.885 1028.5v-6.2262c0-1.2763 1.0362-2.3138 2.315-2.3138h15.539c-0.35875-0.2737-0.80125-0.4425-1.2875-0.4425h-14.906c-1.175 0-2.1288 0.955-2.1288 2.1288v5.73c0 0.5125 0.18875 0.9775 0.49125 1.345l-0.0225-0.2213"/>
   <path id="path8844" d="m56.074 1039.8v-6.2263c0-1.2787 1.0388-2.3137 2.315-2.3137h15.539c-0.35875-0.2738-0.8-0.4425-1.2875-0.4425h-14.905c-1.1762 0-2.13 0.9525-2.13 2.1262v5.7325c0 0.5138 0.19 0.9775 0.4925 1.345l-0.02375-0.2212"/>
   <path id="path8846" d="m12.752 1039.8v-6.2263c0-1.2787 1.0362-2.3137 2.315-2.3137h15.539c-0.36-0.2738-0.80125-0.4425-1.2875-0.4425h-14.906c-1.1762 0-2.1288 0.9525-2.1288 2.1262v5.7325c0 0.5138 0.18875 0.9775 0.49125 1.345l-0.0225-0.2212"/>
  </g>
  <path id="path8848" d="m23.472 1051.1v-6.225c0-1.2762 1.0375-2.315 2.315-2.315h15.539c-0.35875-0.2725-0.80125-0.4412-1.2875-0.4412h-14.905c-1.1762 0-2.13 0.9525-2.13 2.1262v5.7325c0 0.5125 0.18875 0.9763 0.49125 1.345l-0.0225-0.2225" fill="#f00"/>
  <path id="path8850" d="m66.795 1051.1v-6.225c0-1.2762 1.0375-2.315 2.315-2.315h15.539c-0.36-0.2725-0.80125-0.4412-1.2875-0.4412h-14.906c-1.1762 0-2.1288 0.9525-2.1288 2.1262v5.7325c0 0.5125 0.18875 0.9763 0.4925 1.345l-0.02375-0.2225" fill="#98a8a8"/>
  <path id="path8852" d="m66.795 1028.5v-6.2262c0-1.2763 1.0375-2.3138 2.315-2.3138h15.539c-0.36-0.2737-0.80125-0.4425-1.2875-0.4425h-14.906c-1.1762 0-2.1288 0.955-2.1288 2.1288v5.73c0 0.5125 0.18875 0.9775 0.4925 1.345l-0.02375-0.2213" fill="#839396"/>
  <path id="path8854" d="m8.73 1030.8h-5.5762c-1.1762 0-2.13 0.9525-2.13 2.1262v5.7325c0 0.5138 0.19 0.9775 0.49375 1.345l-0.025-0.2212v-6.2263c0-1.2787 1.0375-2.3137 2.315-2.3137h4.9675c-0.01625-0.1463-0.045-0.2888-0.045-0.4425" fill="#f00"/>
  <path id="path8856" d="m95.985 1019.5h-5.5762c-1.1762 0-2.1288 0.955-2.1288 2.1288v5.73c0 0.5125 0.18875 0.9775 0.4925 1.345l-0.02375-0.2213v-6.2262c0-1.2763 1.0362-2.3138 2.315-2.3138h4.9662c-0.015-0.1462-0.045-0.2887-0.045-0.4425" fill="#98a8a8"/>
  <path id="path8858" d="m8.73 1008.2h-5.5762c-1.1762 0-2.13 0.955-2.13 2.1287v5.7325c0 0.5125 0.19 0.9763 0.49375 1.345l-0.025-0.2237v-6.2238c0-1.2762 1.0375-2.3137 2.315-2.3137h4.9675c-0.01625-0.1475-0.045-0.2888-0.045-0.445" fill="#98a8a8"/>
  <path id="path8860" d="m95.985 996.96h-5.5762c-1.1762 0-2.1288 0.9525-2.1288 2.1288v5.73c0 0.5125 0.18875 0.9787 0.4925 1.345l-0.02375-0.2225v-6.2225c0-1.28 1.0362-2.315 2.315-2.315h4.9662c-0.015-0.1488-0.045-0.29-0.045-0.4438" fill="#f00"/>
  <g fill="#98a8a8">
   <path id="path8862" d="m77.81 1017.2v-6.2238c0-1.2762 1.0362-2.3137 2.315-2.3137h15.538c-0.36-0.2738-0.80125-0.445-1.2862-0.445h-14.908c-1.175 0-2.1288 0.955-2.1288 2.1287v5.7325c0 0.5125 0.19 0.9763 0.4925 1.345l-0.022-0.2"/>
   <path id="path8864" d="m34.34 1017.2v-6.2238c0-1.2762 1.0362-2.3137 2.315-2.3137h15.539c-0.35875-0.2738-0.8025-0.445-1.2875-0.445h-14.906c-1.1762 0-2.1288 0.955-2.1288 2.1287v5.7325c0 0.5125 0.19 0.9763 0.4925 1.345l-0.024-0.2"/>
   <path id="path8866" d="m34.34 1039.8v-6.2263c0-1.2787 1.0362-2.3137 2.315-2.3137h15.539c-0.35875-0.2738-0.8025-0.4425-1.2875-0.4425h-14.906c-1.1762 0-2.1288 0.9525-2.1288 2.1262v5.7325c0 0.5138 0.19 0.9775 0.4925 1.345l-0.024-0.2"/>
   <path id="path8868" d="m45.572 1051v-6.2238c0-1.2787 1.0362-2.3162 2.315-2.3162h15.538c-0.3575-0.2738-0.8-0.4425-1.2862-0.4425h-14.906c-1.1762 0-2.1288 0.9525-2.1288 2.1287v5.73c0 0.5125 0.18875 0.9763 0.49125 1.345l-0.0225-0.2212"/>
   <path id="path8870" d="m77.81 1039.8v-6.2263c0-1.2787 1.0362-2.3137 2.315-2.3137h15.538c-0.36-0.2738-0.80125-0.4425-1.2862-0.4425h-14.908c-1.175 0-2.1288 0.9525-2.1288 2.1262v5.7325c0 0.5138 0.19 0.9775 0.4925 1.345l-0.022-0.2"/>
  </g>
  <path id="path8872" d="m95.985 1042h-5.5762c-1.1762 0-2.1288 0.9525-2.1288 2.1287v5.73c0 0.5125 0.18875 0.9763 0.4925 1.345l-0.02375-0.2212v-6.2238c0-1.2787 1.0362-2.3162 2.315-2.3162h4.9662c-0.015-0.1475-0.045-0.2888-0.045-0.4425" fill="#f00"/>
 </g>
</svg>
