<?xml version="1.0" encoding="UTF-8" standalone="no"?>
<svg id="svg18316" xmlns:rdf="http://www.w3.org/1999/02/22-rdf-syntax-ns#" xmlns="http://www.w3.org/2000/svg" height="24.045mm" width="29.269mm" version="1.1" xmlns:cc="http://creativecommons.org/ns#" xmlns:dc="http://purl.org/dc/elements/1.1/" viewBox="0 0 103.70796 85.197474">
 <g id="layer1" transform="translate(0 -967.16)">
  <path id="path8332" d="m54.402 1026.3-2.085-4.3663 11.962-5.6962c0.46375-0.1775 4.7125-1.965 4.5212-7.4038-0.11875-3.405-0.26-5.0425-0.34125-6.0212-0.11-1.3025-0.13625-1.7813 0.05625-3.1425 0.64-4.5962 3.455-8.6038 8.3575-11.904l2.7 4.015c-3.765 2.535-5.8162 5.3338-6.2675 8.5575-0.125 0.89-0.1175 0.98-0.02375 2.0675 0.085 1.0213 0.22875 2.7313 0.35625 6.2563 0.25125 7.1837-4.7812 11.008-7.5862 12.079l-11.65 5.5588" fill="#5f7278"/>
  <path id="path8334" d="m53.472 1023 11.962-5.6975c0.46375-0.1763 4.7125-1.9625 4.5212-7.4025-0.11875-3.4075-0.25875-5.0413-0.34125-6.0213-0.1075-1.3012-0.135-1.7812 0.05625-3.1437 0.6275-4.4988 3.3538-8.4313 8.0688-11.689l-0.86625-1.29c-4.9025 3.3-7.7175 7.3075-8.3575 11.904-0.1925 1.3612-0.16625 1.84-0.05625 3.1425 0.08125 0.9787 0.2225 2.6162 0.34125 6.0212 0.19125 5.4388-4.0575 7.2263-4.5212 7.4038l-11.962 5.6962 2.085 4.3663 0.5225-0.2463-1.4525-3.0437" fill="#839396"/>
  <path id="path8336" d="m0.35413 1050.3c-4.1137-5.8075 28.809-39.328 36.78-40.488 9.435-1.3712 49.118 21.214 46.94 28.39-2.5775 8.495-79.209 18.468-83.72 12.098" fill="#839396"/>
  <path id="path8338" d="m38.335 1015.2c6.84-0.995 28.812 10 41.008 19.382-7.0462-8.6162-34.531-23.45-41.934-22.371-6.8862 1.0012-33.857 28.056-34.399 36.085 8.445-12.542 29.111-32.191 35.325-33.096" fill="#5f7278"/>
  <path id="path8340" d="m80.869 995.59c-2.9812 2.375-7.32 1.8838-9.695-1.0938-2.3738-2.9788-1.8825-7.3162 1.0938-9.69l20.244-16.14c2.9788-2.3725 7.3175-1.8825 9.69 1.095 2.3788 2.9775 1.885 7.315-1.0912 9.6888l-20.241 16.14" fill="#b22222"/>
  <path id="path8342" d="m75.832 989.39c-0.85625 0.6825-2.1375 0.5025-2.8612-0.405-0.7225-0.90625-0.6125-2.195 0.245-2.8788l20.832-16.608c0.85625-0.68125 2.1362-0.50125 2.8562 0.405 0.725 0.9075 0.615 2.1962-0.23875 2.88l-20.834 16.606" fill="#ff2a2a"/>
  <g fill="#aabbbc">
   <path id="path8344" d="m7.6141 1048.3s11.497 1.605 35.811-2.1138c26.376-4.0337 34.314-7.9037 34.314-7.9037s-10.95 3.655-34.636 7.0162c-22.746 3.2263-35.489 3.0013-35.489 3.0013"/>
   <path id="path8346" d="m35.327 1037.8c0.35875 1.5962-1.7575 3.4312-4.7262 4.0937-2.9662 0.6638-5.6588-0.095-6.0175-1.6925-0.36-1.5962 1.7575-3.43 4.7262-4.0912 2.9662-0.6663 5.6612 0.092 6.0175 1.69"/>
   <path id="path8348" d="m45.007 1033.4c0.25625 1.1387-1.2525 2.4475-3.3688 2.9187-2.1162 0.4725-4.0375-0.066-4.2938-1.2062-0.255-1.1375 1.2538-2.445 3.3738-2.9175 2.1138-0.4725 4.0325 0.066 4.2888 1.205"/>
   <path id="path8350" d="m35.998 1030.4c0.205 0.8938-0.98125 1.9225-2.6488 2.295-1.6625 0.37-3.1738-0.054-3.3738-0.95-0.2-0.895 0.98625-1.9212 2.6512-2.2937 1.6625-0.3725 3.1762 0.051 3.3712 0.9487"/>
   <path id="path8352" d="m42.478 1027.8c0.085 0.385-0.4275 0.8313-1.145 0.99-0.7175 0.16-1.3725-0.024-1.4575-0.4087-0.0875-0.3888 0.425-0.8325 1.1425-0.9913 0.72-0.1612 1.3725 0.024 1.46 0.41"/>
   <path id="path8354" d="m40.872 1039.4c0.115 0.5387-0.59625 1.1587-1.595 1.38-1 0.225-1.9088-0.032-2.0288-0.5688-0.12125-0.54 0.59375-1.155 1.595-1.3787 0.99625-0.225 1.9062 0.03 2.0288 0.5675"/>
  </g>
 </g>
</svg>
