<?xml version="1.0" encoding="UTF-8" standalone="no"?>
<svg id="svg9248" xmlns:rdf="http://www.w3.org/1999/02/22-rdf-syntax-ns#" xmlns="http://www.w3.org/2000/svg" height="45.303mm" width="46.632mm" version="1.1" xmlns:cc="http://creativecommons.org/ns#" xmlns:dc="http://purl.org/dc/elements/1.1/" viewBox="0 0 165.23131 160.52253">
 <g id="layer1" transform="translate(0 -891.84)">
  <g fill-rule="evenodd">
   <path id="path8676" d="m74.271 967.06h16.046v-16.405h-16.046v16.405z" fill="#dcc9a2"/>
   <path id="path8678" d="m106.11 930.74c-0.31838 0-0.62113 0.1625-0.90188 0.45125l-0.066-0.29875c-0.0415-0.19125-0.082-0.38375-0.12687-0.5725-0.0479-0.1925-0.10163-0.38-0.15525-0.5675-0.0474-0.17625-0.0929-0.3525-0.14513-0.5275-0.0585-0.1975-0.12587-0.39-0.18937-0.585-0.0547-0.1625-0.1035-0.32625-0.15975-0.48625-0.0722-0.20375-0.15038-0.40375-0.2275-0.60375-0.0581-0.1475-0.10988-0.29625-0.17188-0.4425-0.0815-0.2075-0.17425-0.41-0.26462-0.61625-0.0601-0.135-0.11625-0.2725-0.17725-0.40375-0.0962-0.21-0.20263-0.41625-0.30513-0.62125-0.0611-0.12625-0.12062-0.25125-0.18562-0.3725-0.11088-0.21625-0.2295-0.425-0.34763-0.635l-0.18362-0.33c-0.1265-0.2175-0.26213-0.43125-0.3955-0.64375l-0.17913-0.28875c-0.14025-0.22-0.28962-0.43375-0.438-0.64875l-0.17587-0.2525c-0.15763-0.22125-0.31975-0.43625-0.48575-0.65125l-0.1685-0.22c-0.17338-0.21875-0.354-0.43375-0.53375-0.64625l-0.16113-0.19125c-0.188-0.21625-0.38175-0.42875-0.57862-0.63875l-0.14888-0.16c-0.20262-0.21625-0.415-0.42625-0.62738-0.63375l-0.13525-0.1325c-0.22275-0.21125-0.44825-0.4175-0.68025-0.62125l-0.11475-0.1025c-0.23925-0.2075-0.48338-0.40875-0.73238-0.6075l-0.09625-0.0788c-0.25538-0.2025-0.51412-0.39875-0.78025-0.5875l-0.0805-0.0625c-0.271-0.1925-0.54688-0.38-0.82675-0.5625l-0.062-0.0412c-0.28712-0.185-0.57612-0.3625-0.87062-0.535l-0.04975-0.0312c-0.30025-0.1725-0.6055-0.33875-0.91162-0.5l-0.03562-0.0187c-0.3125-0.16125-0.62988-0.31625-0.95075-0.465l-0.022-0.009c-0.32613-0.15-0.65575-0.28875-0.98775-0.42375l-0.01125-0.005c-2.0259-0.8125-4.1952-1.33-6.4575-1.5088l-0.0034-0.001c-0.376-0.03-0.753-0.0475-1.1319-0.0588h-0.0069c-0.205-0.006-0.41062-0.0175-0.61813-0.0175-10.77 0-19.78 7.7225-22.091 18.075-0.15238-0.0762-0.31012-0.11875-0.47275-0.11875-1.3241 0-2.4009 2.7362-2.4009 6.1125 0 3.375 1.0768 6.1125 2.4009 6.1125 0.28125 0 0.54688-0.1275 0.79738-0.3525 2.7432 9.7 11.448 16.792 21.766 16.792 0.2075 0 0.41312-0.013 0.61813-0.018h0.0069c0.37888-0.01 0.75588-0.03 1.1319-0.058h0.0034c2.2622-0.1787 4.4316-0.6962 6.4575-1.5087h0.01125c0.332-0.135 0.66162-0.275 0.98775-0.4238l0.022-0.01c0.32088-0.1475 0.63825-0.3025 0.95075-0.4637l0.03562-0.02c0.30612-0.1613 0.61137-0.3275 0.91162-0.5l0.04975-0.03c0.2945-0.1725 0.5835-0.3513 0.87062-0.535l0.062-0.041c0.27988-0.1825 0.55575-0.37 0.82675-0.5637l0.0805-0.061c0.26612-0.19 0.52488-0.385 0.78025-0.5875l0.09625-0.079c0.249-0.1988 0.49312-0.4 0.73238-0.6075l0.11475-0.1025c0.232-0.205 0.4575-0.4113 0.68025-0.6238l0.13525-0.1312c0.21238-0.2088 0.42475-0.4175 0.62738-0.6325l0.14888-0.1588c0.19688-0.2113 0.39062-0.4225 0.57862-0.6413l0.16113-0.19c0.17975-0.2125 0.36037-0.4262 0.53375-0.6475l0.1685-0.22c0.166-0.2137 0.32812-0.43 0.48575-0.65l0.17587-0.2525c0.14838-0.215 0.29775-0.43 0.438-0.65l0.17913-0.2875c0.13337-0.2125 0.269-0.4275 0.3955-0.645l0.18362-0.33c0.11813-0.21 0.23675-0.4187 0.34763-0.6325 0.065-0.1237 0.1245-0.25 0.18562-0.3737 0.1025-0.205 0.20888-0.4125 0.30513-0.6225 0.061-0.1313 0.11712-0.2675 0.17725-0.405 0.0904-0.205 0.18312-0.40753 0.26462-0.61503 0.062-0.14625 0.11375-0.295 0.17188-0.44125 0.0771-0.20125 0.15525-0.40125 0.2275-0.60375 0.0563-0.16125 0.105-0.325 0.15975-0.4875 0.0635-0.195 0.13087-0.3875 0.18937-0.58375 0.0523-0.17625 0.0978-0.35375 0.14513-0.52875l0.0707-0.2625c0.34912 0.50125 0.751 0.79125 1.1792 0.79125 1.3271 0 2.4022-2.7375 2.4022-6.1125 0-3.3762-1.0751-6.1125-2.4022-6.1125" fill="#f9e1b2"/>
   <path id="path8680" d="m135.38 1018.5c0-19.96-7.7662-40.058-18.486-46.395-6.3532-4.1825-17.715-7.0962-34.271-7.0962-16.475 0-28.738 2.8875-35.135 7.0375-10.792 6.2675-17.629 26.43-17.629 46.454v5.5563h19.159v-5.5563c0-13.18 4.2544-21.39 6.913-25.521v31.078h53.149v-29.951c2.9311 4.4188 7.1425 12.321 7.1425 24.395v5.5563h19.158v-5.5563" fill="#1a1f1e"/>
   <path id="path8682" d="m104.85 929.73c-0.0722-0.2625-0.16512-0.5125-0.24712-0.76875-0.11813-0.37875-0.228-0.75875-0.36225-1.1275-0.12213-0.32625-0.26613-0.63875-0.399-0.9575-0.11963-0.28625-0.2295-0.5775-0.36125-0.8575-0.17-0.36625-0.36625-0.72-0.55475-1.075-0.11475-0.21625-0.21925-0.44-0.34038-0.6525-0.227-0.395-0.476-0.775-0.72262-1.1538-0.1025-0.1575-0.19875-0.32375-0.30513-0.48-0.28325-0.41125-0.58837-0.805-0.896-1.1962l-0.25387-0.335c-0.34525-0.42125-0.708-0.82375-1.0801-1.2212l-0.1855-0.20375c-0.40438-0.42125-0.82762-0.81875-1.2612-1.2062l-0.10988-0.1025c-0.46238-0.41-0.94338-0.79375-1.4365-1.1638l-0.03562-0.0275c-3.7305-2.7725-8.3043-4.4175-13.258-4.4175-12.198 0-22.142 9.9075-22.646 22.321 1.4346-1.6325 2.3012-3.9375 3.6905-5.54 2.3241-2.68 5.2831-4.5475 7.875-6.9375 1.7905-1.6525 4.8081-1.9262 6.5625 0 1.3706 1.5038 3.1586 2.95 5.1366 4.0612l0.001 0.001c0.65188 0.365 1.3209 0.68875 2.0054 0.97l0.22025 0.0875c0.207 0.0825 0.42088 0.165 0.63238 0.23625l0.1205 0.04c0.376 0.125 0.752 0.23625 1.1329 0.32875 0.15962 0.04 0.32075 0.0763 0.48338 0.11 0.15388 0.0325 0.30762 0.065 0.46238 0.09 0.28862 0.05 0.57762 0.0862 0.86575 0.11375 0.1245 0.0113 0.248 0.0188 0.37112 0.0263 0.23925 0.0125 0.48088 0.02 0.72025 0.0175l0.27825-0.001c0.31738-0.009 0.63238-0.0412 0.94875-0.0812l0.272-0.0438c0.29288-0.0475 0.5835-0.11 0.8715-0.1875l0.1255-0.0312c0.32375-0.09 0.64262-0.2075 0.95612-0.33875l0.23188-0.1025c0.31988-0.145 0.63725-0.30375 0.94825-0.49125 2.2085-1.3412 5.0274-0.44875 6.3481 1.665 0.61625 0.98625 2.1446 1.8462 3.6499 2.5975-0.1245-0.665-0.27587-1.3225-0.454-1.965" fill="#4f2c15"/>
   <path id="path8684" d="m107.76 923.53c-0.0293-0.18625-0.0697-0.37125-0.13175-0.56375-0.40675-1.3012-1.4844-5.1688-1.4844-6.58 0-10.986-10.281-19.895-22.961-19.895-12.683 0-22.962 8.9088-22.962 19.895 0 1.2375-1.1148 5.0212-1.8994 7.1438h49.438" fill="#e59139"/>
   <path id="path8686" d="m82.837 903.71c3.2685 0 5.9336-2.665 5.9336-5.935 0-3.2688-2.6651-5.935-5.9336-5.935-3.2715 0-5.939 2.6662-5.939 5.935 0 3.27 2.6675 5.935 5.939 5.935" fill="#e59139"/>
  </g>
  <g fill="#c07e32" fill-rule="evenodd">
   <path id="path8688" d="m69.626 900.33c2.0665-1.3125 4.398-2.3312 6.9092-2.9875 0.1635 0.4075 0.25238 0.85125 0.25238 1.315v15.97c0 1.9688-1.6099 3.5812-3.58 3.5812-1.9718 0-3.5816-1.6125-3.5816-3.5812v-14.298"/>
   <path id="path8690" d="m89.2 897.19c2.4721 0.57875 4.7792 1.5075 6.8448 2.7212v14.718c0 1.9688-1.6114 3.5812-3.5815 3.5812-1.9702 0-3.5806-1.6125-3.5806-3.5812v-15.97c0-0.5225 0.11225-1.02 0.31738-1.4688"/>
   <path id="path8692" d="m109.18 923.85c0 1.0562-0.83262 1.9162-1.857 1.9162h-48.569c-1.0229 0-1.8554-0.86-1.8554-1.9162 0-1.0575 0.8325-1.915 1.8554-1.915h48.569c1.0244 0 1.857 0.8575 1.857 1.915"/>
  </g>
  <g fill-rule="evenodd">
   <path id="path8694" d="m72.25 965.4 10.343 32.9 9.5948-32.955s-1.4966-0.3487-9.086-0.3487-10.852 0.4037-10.852 0.4037" fill="#fff"/>
   <path id="path8696" d="m87.987 964.91c0 1.6987-2.3056 3.0725-5.1538 3.0725-2.8491 0-5.1562-1.3738-5.1562-3.0725 0-1.6975 2.3071-3.0738 5.1562-3.0738 2.8481 0 5.1538 1.3763 5.1538 3.0738" fill="#3a929d"/>
   <path id="path8698" d="m81.456 966.5-2.2769 20.956 3.4136 10.836 3.292-10.778-1.1964-20.954-3.2324-0.061" fill="#3a929d"/>
   <path id="path8700" d="m90.655 1005.2h13.73v-7.3437h-13.73v7.3437z" fill="#fff"/>
  </g>
  <g fill="#111513" fill-rule="evenodd">
   <path id="path8702" d="m92.188 965.34 8.308 8.3475-17.903 24.608 9.5948-32.955"/>
   <path id="path8704" d="m72.28 965.38-7.1411 8.3688 17.494 24.645-10.352-33.014"/>
   <path id="path8706" d="m81.77 1024.1h1.5962v-26.045h-1.5962v26.045z"/>
  </g>
  <g>
   <path id="path8708" d="m165.23 1052.4h-165.23l18.502-37.925h128.23l18.501 37.925" fill="#eaebea"/>
   <path id="path8710" d="m48.695 1045c-0.14888 0-0.27738-0.062-0.32075-0.1688l-0.0064-0.13h-0.3125l-0.01812 0.065c-0.07363 0.1413-0.26512 0.2338-0.45162 0.2338-0.02688 0-0.05325-0.001-0.07963-0.01l-13.691-2.395c-0.17575-0.03-0.26025-0.1538-0.22062-0.2913h-14.281c-2.6621-0.075-1.4536-1.87-1.4536-1.87h3.0698l4.6475-14.441 0.03763-0.07c-0.72175-0.1313-1.124-0.6713-0.91562-1.3188 0.20275-0.6425 0.93362-1.1762 1.7261-1.3137l0.228-0.7325-0.40038-0.2375-0.05325-0.043c-0.1635-0.1775-0.20888-0.4125-0.13075-0.6638 0.0795-0.25 0.27188-0.485 0.54825-0.665 0.28325-0.18 0.6075-0.2737 0.90338-0.2737 0.29788 0 0.56488 0.094 0.73338 0.2762 0.11138 0.115 0.05125 0.305-0.12938 0.4213-0.08987 0.059-0.19288 0.087-0.28762 0.087-0.09475 0-0.18062-0.029-0.23488-0.087-0.0615-0.066-0.15912-0.1-0.26662-0.1-0.10738 0-0.225 0.034-0.32762 0.1l-0.19925 0.2412 0.03088 0.2188 0.51212 0.305 0.09675 0.2537-0.27838 0.8988c0.70462 0.1375 1.1025 0.6712 0.90575 1.3137-0.19775 0.6475-0.93988 1.1863-1.7446 1.3188l-0.0034 0.07-4.607 14.441h22.977l0.52875-2.1675h1.5718l-0.018 0.075h4.9101l-0.46388 2.0925h4.9449c4.3506 0 3.6801 0.9188 3.6801 0.9188l-1.0288 0.013c0.05463 0.145-0.06112 0.3162-0.26862 0.385l-9.6768 3.215c-0.061 0.021-0.123 0.03-0.18162 0.03m-12.886-2.6913 11.879 2.0775 0.25738-3.0287-2.811 0.9512h-9.3252m22.014-0.925-7.9232 0.1025-1.0108 2.8663 8.934-2.9688m-31.202-17.528c-0.51662 0-1.0439 0.3375-1.1758 0.7525-0.13188 0.415 0.1855 0.7525 0.70462 0.7525 0.521 0 1.0492-0.3375 1.1768-0.7525 0.12788-0.415-0.1885-0.7525-0.70562-0.7525" fill="#777f7d"/>
   <path id="path8712" d="m53.061 1038.3h-6.2818l0.018-0.075 1.2238-5.1925h1.0605l-0.023 0.1013h4.0494l0.0215-0.1013h1.0585l-1.1269 5.2675" fill="#888b8c"/>
   <path id="path8714" d="m53.108 1033.2h-4.0494l0.023-0.1013 2.7275-12.1-0.01125 0.051h3.8755l0.01075-0.051h0.0005l-2.5551 12.1-0.0215 0.1013" fill="#777f7d"/>
   <path id="path8716" d="m55.673 1021h-3.8755l0.01125-0.051 0.59425-2.7025-2.2754-1.2413h8.8208l-2.7782 1.5825-0.48638 2.3613-0.01075 0.051" fill="#888b8c"/>
   <path id="path8718" d="m142.76 1041-1.5938-3.6475h4.4612l1.6375 3.6475h-4.505zm-5.0162 0-1.545-3.6475h4.46l1.59 3.6475h-4.505zm-5.0188 0-1.495-3.6475h4.4612l1.54 3.6475h-4.5062zm-10.035 0-1.3938-3.6475h4.4588l1.4425 3.6475h-4.5075zm-2.9225-7.7025h4.4112l1.4288 3.6762h-4.4538l-1.3862-3.6762zm-1.49-4.0288h4.36l1.3938 3.65h-4.4038l-1.35-3.65zm-1.4562-3.9937h4.3138l1.3612 3.6175h-4.3588l-1.3162-3.6175zm-1.4419-4.025h4.2619l1.3525 3.6487h-4.31l-1.3044-3.6487zm13.758 0 1.45 3.6487h-4.305l-1.4075-3.6487h4.2625zm4.7475 0 1.5012 3.6487h-4.3075l-1.455-3.6487h4.2612zm4.7488 0 1.5525 3.6487h-4.31l-1.505-3.6487h4.2625zm3.2712 7.6425h-4.3562l-1.5162-3.6175h4.3125l1.56 3.6175zm1.7562 4.0262h-4.4062l-1.5488-3.65h4.3625l1.5925 3.65zm-9.1575 0.3788h4.4125l1.5788 3.6762h-4.4538l-1.5375-3.6762zm-4.91 0h4.41l1.5288 3.6762h-4.4538l-1.485-3.6762zm-2.0988-4.0288 1.445 3.65h-4.405l-1.4-3.65h4.36zm-0.1475-0.3762h-4.3562l-1.3662-3.6175h4.3125l1.41 3.6175zm4.8512 0h-4.3562l-1.415-3.6175h4.3138l1.4575 3.6175zm0.49625 0-1.465-3.6175h4.3125l1.51 3.6175h-4.3575zm1.1538 4.0262h-4.4075l-1.45-3.65h4.3625l1.495 3.65zm18.481 8.0813h-4.5525l-1.645-3.6475h4.2638l-0.0712-0.3788h-4.3612l-1.6338-3.6762h4.0425l-0.0687-0.3788h-4.1412l-1.5988-3.65h4.1838l-0.0687-0.3762h-4.2788l-1.5625-3.6175h3.9888l-0.0662-0.3763h-4.0862l-1.555-3.6487h3.81l-0.065-0.3775h-3.9025l-1.17-2.775-0.44875 0.077 1.1325 2.6975h-4.2588l-1.13-2.775-0.44875 0.077 1.0938 2.6975h-4.2562l-1.0938-2.775-0.45125 0.077 1.0588 2.6975h-4.2588l-1.0538-2.775-0.45125 0.077 1.0212 2.6975h-4.2588l-1.0162-2.775-0.45375 0.077 0.985 2.6975h-4.2575l-0.978-2.775-0.455 0.077 0.94863 2.6975h-2.4086l0.0318 0.3775h2.5112l1.3012 3.6487h-2.3012l0.0318 0.3763h2.4032l1.3138 3.6175h-2.18l0.0343 0.3762h2.2808l1.3475 3.65h-2.3938l0.0362 0.3788h2.4975l1.3788 3.6762h-2.2438l0.0375 0.3788h2.35l1.3912 3.6475h-2.13l0.0387 0.3775h2.2325l1.3362 3.45 0.4875-0.078-1.3088-3.3725h4.5088l1.38 3.45 0.49-0.078-1.3562-3.3725h4.51l1.4275 3.45 0.48625-0.078-1.4025-3.3725h4.51l1.4762 3.45 0.485-0.078-1.45-3.3725h4.5112l1.5212 3.45 0.48625-0.078-1.4925-3.3725h4.5075l1.57 3.45 0.48375-0.078-1.5412-3.3725h4.4525l-0.07-0.3775" fill="#6f7377"/>
  </g>
  <g fill="#e56a28">
   <path id="path8720" d="m109.07 1021.2c0.4785 2.3687-2.544 4.29-6.7588 4.29-4.2129 0-7.6929-1.9213-7.775-4.29-0.0805-2.37 2.9459-4.29 6.7652-4.29 3.8174 0 7.2934 1.92 7.7685 4.29"/>
   <path id="path8722" d="m112.21 1031.4c0.50288 2.3662-2.6016 4.2875-6.9351 4.2875-4.3359 0-7.9273-1.9213-8.0249-4.2875-0.09613-2.37 3.0117-4.2913 6.9409-4.2913 3.9298 0 7.5196 1.9213 8.0191 4.2913"/>
   <path id="path8724" d="m115.48 1041.6c0.52738 2.3688-2.6562 4.29-7.1128 4.29-4.4561 0-8.1608-1.9212-8.2715-4.29-0.11375-2.3675 3.0738-4.2925 7.1166-4.2925 4.0425 0 7.7428 1.925 8.2676 4.2925"/>
  </g>
  <g fill="#acb1b1">
   <path id="path8726" d="m122.68 1029.8 19.482 11.912 0.6525-1.0675-19.482-11.911"/>
   <path id="path8728" d="m124.3 1021.7 19.169 11.91 0.66-1.0613-19.169-11.911"/>
   <path id="path8730" d="m135.09 1024.7-3.0162 4.1525 1.0112 0.7338 3.0162-4.1513"/>
   <path id="path8732" d="m130.34 1036.9-3.2175 4.15 0.98875 0.7662 3.2162-4.1512"/>
   <path id="path8734" d="m119.11 1020.7-3.1578 4.1512 0.99525 0.7575 3.1575-4.1525"/>
   <path id="path8736" d="m133.48 1020.4-2.985 4.1512 1.0138 0.73 2.9862-4.1512"/>
   <path id="path8738" d="m138.46 1032.7-3.0762 4.15 1.0038 0.745 3.0762-4.15"/>
   <path id="path8740" d="m117.68 1029.7 6.3512 4.0088 0.6675-1.0575-6.3512-4.0088"/>
   <path id="path8742" d="m138.82 1033.6 6.6462 4.0088 0.64625-1.07-6.6462-4.0088"/>
   <path id="path8744" d="m63.919 1021.1h20.723v-1.25h-20.723v1.25z"/>
   <path id="path8746" d="m60.566 1023.5h20.872v-1.25h-20.872v1.25z"/>
   <path id="path8748" d="m63.567 1025.4h20.982v-1.25h-20.982v1.25z"/>
   <path id="path8750" d="m62.018 1027.3h21.095v-1.25h-21.095v1.25z"/>
   <path id="path8752" d="m61.852 1030.2h21.264v-1.25h-21.264v1.25z"/>
   <path id="path8754" d="m65.936 1028.5h8.4082v-1.25h-8.4082v1.25z"/>
   <path id="path8756" d="m76.747 1022.3h8.2602v-1.25h-8.2602v1.25z"/>
   <path id="path8758" d="m76.104 1031.6h8.479v-1.25h-8.479v1.25z"/>
   <path id="path8760" d="m79.603 1028.9h8.4141v-1.25h-8.4141v1.25z"/>
   <path id="path8762" d="m84.432 1026.4h8.3594v-1.25h-8.3594v1.25z"/>
   <path id="path8764" d="m82.629 1024.4h8.3115v-1.25h-8.3115v1.25z"/>
   <path id="path8766" d="m59.928 1031.8h8.4829v-1.25h-8.4829v1.25z"/>
   <path id="path8768" d="m63.436 1022.3h8.2617v-1.25h-8.2617v1.25z"/>
   <path id="path8770" d="m34.579 1020.4h9.939v-1.25h-9.939v1.25z"/>
   <path id="path8772" d="m32.691 1022.9h10.012v-1.25h-10.012v1.25z"/>
   <path id="path8774" d="m33.918 1024.8h10.067v-1.25h-10.067v1.25z"/>
   <path id="path8776" d="m32.962 1026.7h10.12v-1.25h-10.12v1.25z"/>
   <path id="path8778" d="m32.564 1029.5h10.202v-1.25h-10.202v1.25z"/>
   <path id="path8780" d="m34.706 1027.9h4.0322v-1.25h-4.0322v1.25z"/>
   <path id="path8782" d="m40.593 1021.7h3.9609v-1.25h-3.9609v1.25z"/>
   <path id="path8784" d="m39.242 1030.9h4.0674v-1.25h-4.0674v1.25z"/>
   <path id="path8786" d="m41.224 1028.2h4.0356v-1.25h-4.0356v1.25z"/>
   <path id="path8788" d="m43.817 1025.8h4.0088v-1.25h-4.0088v1.25z"/>
   <path id="path8790" d="m43.176 1023.8h3.9844v-1.25h-3.9844v1.25z"/>
   <path id="path8792" d="m31.461 1031.1h4.0688v-1.25h-4.0688v1.25z"/>
   <path id="path8794" d="m34.208 1021.7h3.9624v-1.25h-3.9624v1.25z"/>
  </g>
  <g fill="#343438">
   <path id="path8796" d="m88.724 1039.8c-1.3721 0.082-2.5504-0.6225-2.6158-1.565-0.0635-0.9463 0.9375-1.78 2.2265-1.8575 1.2828-0.08 2.4414 0.6237 2.5865 1.5662 0.15375 0.9463-0.83162 1.7788-2.1972 1.8563zm4.3505-5.0513-0.92288-0.5637c-0.27825-0.1763-0.67375-0.1675-0.91888 0.017l-0.47025 0.3487c-0.415-0.1537-0.852-0.2587-1.3012-0.3212l-0.14012-0.5113c-0.07225-0.2612-0.38575-0.4437-0.7315-0.4237l-1.123 0.075c-0.34275 0.021-0.62162 0.2437-0.6445 0.5125l-0.0415 0.5187c-0.44438 0.1213-0.87162 0.2863-1.2648 0.4938l-0.5625-0.2925c-0.28462-0.1488-0.6835-0.1063-0.93062 0.1l-0.81788 0.6737c-0.25488 0.205-0.27775 0.51-0.04975 0.7075l0.48338 0.4113c-0.21238 0.3025-0.376 0.62-0.48688 0.9437l-0.78262 0.1125c-0.37262 0.053-0.66025 0.2988-0.6665 0.5663l-0.0074 0.875c-0.001 0.2662 0.28562 0.4775 0.67525 0.485l0.85938 0.02c0.1295 0.2837 0.31012 0.5537 0.53575 0.8087l-0.53575 0.5025c-0.24312 0.225-0.21138 0.525 0.07813 0.6975l0.95562 0.5675c0.30025 0.1738 0.76075 0.165 1.0694-0.019l0.68112-0.4112c0.42475 0.1337 0.8755 0.2337 1.3412 0.2937l0.169 0.5988c0.07425 0.265 0.44625 0.4475 0.85788 0.4262l1.3394-0.074c0.41112-0.025 0.7275-0.2437 0.73-0.5137l0.01313-0.5863c0.47612-0.1137 0.92188-0.2675 1.3271-0.455l0.74225 0.3175c0.34762 0.15 0.79438 0.1075 1.04-0.1l0.77988-0.6675c0.23575-0.2075 0.19288-0.5125-0.09862-0.7062l-0.60312-0.4138c0.17675-0.3 0.29888-0.62 0.35012-0.9475l0.7485-0.1075c0.36725-0.054 0.59825-0.2987 0.53475-0.5662l-0.209-0.8738c-0.061-0.2687-0.38825-0.4787-0.75788-0.4875l-0.73388-0.015c-0.17912-0.3125-0.40762-0.6062-0.68112-0.8775l0.35788-0.4375c0.18562-0.225 0.10112-0.5275-0.187-0.7025"/>
   <path id="path8798" d="m77.092 1038c-0.9815 0.058-1.8056-0.4463-1.8325-1.1238-0.02687-0.6762 0.70938-1.2737 1.6309-1.33 0.92038-0.059 1.7334 0.4463 1.8129 1.1225 0.0865 0.6763-0.63612 1.275-1.6112 1.3313zm3.23-3.6213-0.64462-0.405c-0.19775-0.125-0.47988-0.12-0.66162 0.013l-0.34325 0.2488c-0.29388-0.1075-0.60538-0.1838-0.92375-0.2288l-0.09088-0.365c-0.04337-0.19-0.26612-0.32-0.51212-0.305l-0.80725 0.054c-0.249 0.016-0.45262 0.1725-0.47262 0.3675l-0.0425 0.3713c-0.32225 0.088-0.62988 0.2062-0.91788 0.355l-0.3965-0.21c-0.19925-0.1075-0.48638-0.075-0.668 0.071l-0.59962 0.4825c-0.1865 0.1487-0.2095 0.3662-0.04975 0.5062l0.33838 0.295c-0.15775 0.2175-0.28225 0.445-0.36775 0.6763l-0.559 0.081c-0.26862 0.039-0.4785 0.2137-0.48838 0.4062l-0.02188 0.6263c-0.0059 0.1925 0.19775 0.3425 0.47262 0.3487l0.61275 0.015c0.0865 0.2038 0.21 0.3975 0.36625 0.5788l-0.39312 0.3612c-0.17812 0.1613-0.16012 0.375 0.044 0.5l0.66988 0.405c0.2075 0.1263 0.53712 0.12 0.75938-0.013l0.49312-0.295c0.30175 0.096 0.62012 0.1688 0.94875 0.2113l0.10988 0.4287c0.04637 0.1888 0.30612 0.32 0.6005 0.305l0.95412-0.053c0.2935-0.019 0.523-0.175 0.53375-0.3675l0.02188-0.42c0.33938-0.08 0.66262-0.1925 0.95712-0.3275l0.5185 0.2288c0.24562 0.1087 0.5655 0.078 0.74362-0.072l0.57275-0.4775c0.17438-0.15 0.15-0.3675-0.05175-0.5075l-0.41938-0.2938c0.13525-0.2175 0.2295-0.4462 0.27588-0.68l0.53563-0.077c0.26462-0.04 0.43462-0.215 0.398-0.4075l-0.127-0.6262c-0.03812-0.1913-0.26362-0.3425-0.52975-0.3475l-0.524-0.013c-0.11962-0.2225-0.27588-0.4313-0.46475-0.6275l0.267-0.315c0.13825-0.1613 0.0845-0.3763-0.11662-0.5025"/>
   <path id="path8800" d="m79.262 1045.6c-0.998 0.06-1.8442-0.4438-1.876-1.12-0.03175-0.6775 0.713-1.275 1.6554-1.3313 0.93988-0.058 1.7714 0.4475 1.8579 1.1238 0.09275 0.6762-0.63962 1.2712-1.6372 1.3275zm3.2764-3.6188-0.66262-0.4062c-0.20012-0.1225-0.48825-0.1175-0.67238 0.014l-0.3505 0.2487c-0.30275-0.1075-0.61775-0.185-0.94588-0.2287l-0.09325-0.365c-0.04737-0.1887-0.27438-0.3187-0.52588-0.3037l-0.82375 0.051c-0.25138 0.017-0.46138 0.1762-0.48088 0.3687l-0.0405 0.3713c-0.32725 0.087-0.64062 0.205-0.93262 0.355l-0.40775-0.2113c-0.20512-0.105-0.49562-0.076-0.68112 0.074l-0.61038 0.4825c-0.188 0.1463-0.2075 0.3663-0.045 0.5063l0.34525 0.295c-0.15862 0.2175-0.28412 0.4425-0.37012 0.6762l-0.57225 0.08c-0.272 0.039-0.48488 0.2138-0.49312 0.4063l-0.01813 0.6275c-0.0039 0.1912 0.20262 0.3412 0.48438 0.3475l0.6265 0.014c0.08737 0.205 0.21488 0.3975 0.37838 0.5775l-0.39938 0.3637c-0.18062 0.16-0.16112 0.3763 0.04788 0.5013l0.6845 0.405c0.21488 0.125 0.54938 0.1187 0.77738-0.015l0.501-0.295c0.30612 0.097 0.63088 0.1712 0.97025 0.2125l0.11375 0.4287c0.04875 0.1888 0.31488 0.3213 0.61375 0.3063l0.97412-0.054c0.29925-0.017 0.53362-0.1738 0.542-0.3688l0.021-0.42c0.34525-0.08 0.67375-0.19 0.97262-0.325l0.53225 0.2275c0.2505 0.1075 0.57712 0.076 0.75925-0.071l0.58112-0.48c0.17725-0.1487 0.15275-0.365-0.05625-0.505l-0.43112-0.2962c0.13825-0.2175 0.2325-0.4463 0.27738-0.68l0.54688-0.079c0.2685-0.037 0.44338-0.2113 0.40188-0.4038l-0.12938-0.6275c-0.0415-0.19-0.274-0.3412-0.546-0.3487l-0.53462-0.013c-0.1245-0.2225-0.28225-0.4325-0.47612-0.6275l0.26862-0.3138c0.13812-0.1612 0.083-0.3775-0.12112-0.5025"/>
   <path id="path8802" d="m72.463 1042.5c-0.52888 0.033-0.96838-0.2362-0.9805-0.5975-0.01075-0.3587 0.38912-0.6762 0.88762-0.7062 0.49812-0.031 0.93262 0.2375 0.97025 0.5975 0.044 0.36-0.35012 0.6762-0.87738 0.7062zm1.771-1.925-0.34675-0.2162-0.35638 0.01-0.188 0.1337c-0.15975-0.058-0.32725-0.1-0.49912-0.1212l-0.04538-0.195c-0.02437-0.1-0.14162-0.1713-0.27688-0.1613l-0.43838 0.026c-0.13187 0.01-0.24325 0.092-0.25737 0.195l-0.02438 0.1988c-0.17337 0.046-0.34188 0.11-0.49812 0.19l-0.21288-0.1125-0.36225 0.036-0.32625 0.2587-0.02775 0.2675 0.18212 0.1575c-0.08787 0.115-0.15538 0.2363-0.20262 0.3588l-0.30175 0.045c-0.14512 0.019-0.25888 0.1125-0.26375 0.2137l-0.01462 0.3338c-0.0049 0.1012 0.105 0.1825 0.25387 0.1862l0.33112 0.01 0.19375 0.3075-0.21238 0.1938 0.022 0.2637 0.35788 0.2175c0.11238 0.065 0.28812 0.062 0.40775-0.01l0.2685-0.1562c0.15875 0.051 0.33062 0.089 0.50788 0.1112l0.05463 0.2275c0.0235 0.1013 0.16512 0.1713 0.32138 0.1625l0.51262-0.028c0.15725-0.01 0.28175-0.094 0.28812-0.1962l0.01563-0.2225c0.1855-0.044 0.3565-0.1013 0.51762-0.175l0.27725 0.1225c0.13038 0.056 0.30138 0.04 0.40038-0.039l0.3125-0.255-0.02338-0.2688-0.22462-0.1575c0.07575-0.115 0.12838-0.235 0.15625-0.3612l0.28812-0.041c0.14162-0.019 0.23675-0.1138 0.21875-0.2163l-0.0625-0.3337c-0.0195-0.1-0.13912-0.1813-0.28325-0.1838l-0.28312-0.01c-0.06213-0.1162-0.14412-0.2287-0.24325-0.3337l0.1455-0.1663-0.0585-0.2675"/>
   <path id="path8804" d="m69.504 1036.1c-0.52 0.033-0.95025-0.2375-0.9585-0.5975-0.0074-0.36 0.38962-0.6763 0.88038-0.7075 0.48825-0.03 0.913 0.2375 0.94825 0.5975 0.038 0.36-0.35162 0.6787-0.87012 0.7075zm1.7602-1.9263-0.34088-0.215-0.3515 0.01-0.18562 0.1325c-0.15525-0.058-0.31838-0.098-0.48925-0.1225l-0.043-0.1937c-0.0205-0.1013-0.13762-0.17-0.2695-0.1625l-0.42962 0.028c-0.13238 0.01-0.24325 0.094-0.25638 0.1975l-0.02438 0.1962c-0.17238 0.048-0.33838 0.11-0.49225 0.1888l-0.21-0.1113-0.354 0.039-0.32462 0.2563-0.02938 0.2675 0.17725 0.1575c-0.08688 0.115-0.15375 0.2362-0.20163 0.36l-0.29637 0.044c-0.14312 0.02-0.25388 0.1125-0.26275 0.2162l-0.017 0.3313c-0.0035 0.1025 0.101 0.1837 0.249 0.1862l0.32475 0.01 0.18788 0.3088-0.21088 0.1912 0.018 0.2663 0.34912 0.2162c0.11087 0.066 0.28325 0.064 0.40287-0.01l0.26363-0.1562c0.15725 0.051 0.32475 0.089 0.49962 0.1125l0.05125 0.2275c0.02388 0.1 0.15862 0.17 0.31488 0.1625l0.504-0.028c0.15525-0.01 0.27725-0.095 0.28562-0.1963l0.01613-0.2225c0.183-0.045 0.351-0.1012 0.50875-0.175l0.2725 0.1225c0.12938 0.056 0.29638 0.04 0.394-0.039l0.30912-0.255-0.021-0.2687-0.21638-0.1588c0.07225-0.1137 0.126-0.2362 0.15525-0.3612l0.28325-0.04c0.14062-0.02 0.23188-0.1138 0.21625-0.2163l-0.05763-0.3325c-0.018-0.1025-0.13525-0.1837-0.27588-0.1875l-0.27825-0.01c-0.061-0.1187-0.14162-0.23-0.23925-0.3337l0.14788-0.1688-0.05363-0.2662"/>
   <path id="path8806" d="m91.935 1032.5c-0.51125 0.031-0.9555-0.2375-0.98538-0.5988-0.02875-0.3587 0.34325-0.6762 0.82575-0.705 0.48338-0.032 0.91888 0.2363 0.9765 0.595 0.05963 0.3588-0.30662 0.6763-0.81688 0.7088zm1.6211-1.9263-0.34675-0.215-0.34912 0.01-0.17425 0.1313c-0.15775-0.057-0.32375-0.099-0.49225-0.1225l-0.05463-0.1925c-0.02837-0.1013-0.148-0.1713-0.27738-0.1625l-0.42475 0.029c-0.13038 0.01-0.233 0.091-0.23925 0.1937l-0.01475 0.1988c-0.16688 0.046-0.32712 0.1087-0.47362 0.1887l-0.21475-0.1125-0.34912 0.039-0.30275 0.2563-0.01563 0.2687 0.185 0.1588c-0.07813 0.115-0.13762 0.2337-0.17525 0.3587l-0.2935 0.044c-0.13862 0.02-0.24512 0.1125-0.24512 0.215l0.004 0.3338c0.000875 0.1012 0.11075 0.1812 0.25725 0.185l0.31988 0.01 0.206 0.3087-0.19475 0.1913 0.03263 0.2662 0.36138 0.2175 0.3955-0.01 0.25288-0.1562c0.15975 0.05 0.32725 0.088 0.49912 0.1112l0.06588 0.2288c0.02925 0.1 0.1685 0.17 0.32225 0.1612l0.49812-0.027c0.15125-0.01 0.267-0.092 0.27-0.1962l0.0019-0.2238c0.17625-0.041 0.34325-0.1012 0.49462-0.1737l0.27588 0.1225c0.13088 0.057 0.29688 0.039 0.38825-0.039l0.2895-0.255-0.03663-0.2675-0.227-0.1563c0.06687-0.1175 0.11325-0.2387 0.13275-0.3637l0.27988-0.041c0.13525-0.02 0.22462-0.1138 0.19962-0.2163l-0.07663-0.3312c-0.02438-0.1025-0.1465-0.1825-0.28562-0.1863l-0.27589-0.01c-0.06688-0.1175-0.15388-0.2313-0.25388-0.335l0.13075-0.1675-0.06975-0.2663"/>
   <path id="path8808" d="m66.024 1041c-0.80812 0.046-1.4746-0.365-1.481-0.9175-0.0059-0.5513 0.61425-1.04 1.376-1.0863 0.76025-0.046 1.4175 0.365 1.4672 0.9175 0.05375 0.5538-0.55512 1.04-1.3622 1.0863zm2.7539-2.955-0.52338-0.3313c-0.15625-0.1025-0.39062-0.097-0.5445 0.01l-0.291 0.2025c-0.23875-0.086-0.49262-0.1487-0.75538-0.185l-0.06587-0.3c-0.03025-0.1525-0.211-0.26-0.41512-0.2487l-0.6665 0.045c-0.205 0.013-0.37838 0.14-0.40125 0.3012l-0.043 0.3025c-0.26612 0.07-0.5235 0.1675-0.76425 0.2888l-0.32225-0.1713c-0.16212-0.089-0.39888-0.064-0.55275 0.059l-0.50438 0.3938c-0.15712 0.1212-0.18062 0.2987-0.05125 0.4125l0.271 0.2425c-0.13425 0.1762-0.24162 0.3625-0.31838 0.5525l-0.46288 0.066c-0.22212 0.031-0.39788 0.1725-0.41012 0.3287l-0.03325 0.5125c-0.0082 0.1563 0.15525 0.28 0.38238 0.285l0.50387 0.011c0.06638 0.1663 0.16412 0.3263 0.28713 0.4738l-0.33062 0.295c-0.15038 0.1312-0.14062 0.305 0.0255 0.4075l0.541 0.3312c0.16838 0.1013 0.43938 0.097 0.626-0.011l0.4115-0.2412c0.24512 0.078 0.50638 0.1387 0.775 0.1725l0.07813 0.35c0.03563 0.1562 0.2465 0.2612 0.48825 0.2487l0.78462-0.044c0.24075-0.013 0.43362-0.1412 0.44825-0.2987l0.02938-0.3425c0.28075-0.067 0.54925-0.1563 0.79488-0.2675l0.42088 0.1862c0.20025 0.087 0.46288 0.062 0.61425-0.056l0.48438-0.3937c0.1465-0.1188 0.13188-0.2975-0.02925-0.4125l-0.34088-0.2413c0.11875-0.1775 0.20175-0.3612 0.24712-0.555l0.44137-0.062c0.21875-0.033 0.36525-0.1762 0.33838-0.3325l-0.08638-0.51c-0.02837-0.1575-0.2105-0.2812-0.42725-0.2862l-0.43212-0.01c-0.09425-0.18-0.21638-0.3513-0.36675-0.51l0.2285-0.2588c0.11625-0.1312 0.07963-0.3075-0.083-0.4087"/>
  </g>
  <g>
   <path id="path8810" d="m109.56 1031.4c0.31388 1.5287-1.6919 2.77-4.48 2.77s-5.1074-1.2413-5.1806-2.77c-0.07575-1.5313 1.9311-2.77 4.4809-2.77 2.5504 0 4.8686 1.2387 5.1798 2.77" fill="#eaebea"/>
   <path id="path8812" d="m106.93 1031.4c0.13662 0.695-0.77638 1.2587-2.0386 1.2587-1.2646 0-2.3194-0.5637-2.3584-1.2587-0.0381-0.6975 0.8755-1.2625 2.0395-1.2625 1.166 0 2.2208 0.565 2.3575 1.2625" fill="#e56a28"/>
   <path id="path8814" d="m103.17 1021.2c0.0815 0.4412-0.482 0.7987-1.2584 0.7987-0.77775 0-1.4262-0.3575-1.4478-0.7987-0.0234-0.4413 0.54062-0.7975 1.2584-0.7975 0.71925 0 1.3671 0.3562 1.4478 0.7975" fill="#eaebea"/>
  </g>
 </g>
</svg>
