<svg xmlns="http://www.w3.org/2000/svg" height="105" width="105" viewBox="0 0 606.372 461.937">
  <path fill="#b22222" d="M145.897 457.106c-13.98-4.47-26.798-15.964-26.798-24.03 0-2.487-1.31-2.424 43-2.098 29.38.216 71.8-1.2 76.25-2.546 4.06-1.23 4.22-3.08 4.74-52.895l.5-48 25-.316c13.75-.17 35.46-.01 48.25.37l23.25.68.01 48.64c.01 26.75.38 49.21.82 49.91 1.52 2.41 7.71 3.43 23.89 3.96 14.19.47 16.55.32 18.83-1.17 5.67-3.71 5.63-3.33 6.16-74.05.53-70.87.53-70.76-5.05-74.9-2.75-2.04-3.96-2.1-48.25-2.42-33.86-.24-45.42-.62-45.4-1.5.03-1.33 34.6-44.99 36.02-45.5.51-.18 6.66 4.54 13.66 10.5 22.37 19.04 26.7 22.34 30.73 23.44 3.04.83 4.55.77 6.6-.26 3.14-1.58 14.5-14.55 44.94-51.34 46.68-56.4 45.13-54.67 48.5-54.02 14.69 2.86 26.87 2.57 42.28-1.01 3.49-.81 7.62-1.47 9.17-1.47 2.9 0 41.43 14.25 43.752 16.18 1.04.86 1.29 24.39 1.29 121.31 0 77.6-.367 122.15-1.02 125.62-2.48 13.05-12.37 26.62-23.867 32.75-12.16 6.48.09 6.12-205.12 6.08-177.66-.04-186.77-.12-192.2-1.86zm-140.36-28.85c-.422-.962-.968-8.097-1.214-15.854l-.448-14.104 9.844-3.396 9.84-3.396 3.62-6.25c8.29-14.317 13.52-28.492 34.76-94.25 15.88-49.187 20.23-61.216 27.63-76.534 14.96-30.966 35.38-54.102 62.71-71.05 16.34-10.134 33.57-15.937 54.3-18.29 10.77-1.223 183.27-2.338 205.17-1.327l15.17.7-5.48 7.78c-3.01 4.28-7.32 9.116-9.58 10.75l-4.1 2.97-15.6.018c-8.58.01-31.13-.473-50.1-1.073l-34.5-1.09-11.94-5.66c-10.15-4.812-12.77-5.656-17.5-5.627-6.19.04-10.2 1.766-15.88 6.847l-3.69 3.302-17.5.602c-9.62.33-22.22 1.323-28 2.204-20.34 3.1-41.77 12.282-58.69 25.132-16.43 12.48-34.2 34.696-43.75 54.695-2.57 5.38-14.85 40.875-29.81 86.15-16.74 50.674-26.95 80.03-29.85 85.856-8.65 17.36-16.3 24.11-33.67 29.68-10.88 3.49-10.8 3.48-11.79 1.22zm107.16-48.09c-.29-.47-.573-28.038-.628-61.26l-.1-60.408 2.53-9.88c5.18-20.177 18.12-41.347 36.23-59.268 18.9-18.71 39-28.715 64.85-32.29 10.9-1.506 35.13-2.47 35.77-1.423.31.507-2.61 4.733-6.49 9.39-3.88 4.66-14.59 18.145-23.79 29.97s-21.09 26.9-26.42 33.5c-8.66 10.73-14.28 19.887-16.05 26.158-.51 1.805 1.03 3.524 9.41 10.5 11.3 9.412 10.9 8.257 7.43 21.342-1.67 6.304-1.86 11.327-1.87 50.5l-.01 43.5-40.19.262c-22.1.14-40.42-.13-40.71-.6zm249.75-185.63c-3.217-2.456-11.924-9.89-19.35-16.52-7.424-6.632-16.067-13.735-19.206-15.786-3.13-2.05-5.72-4.002-5.75-4.336-.02-.335 2.73-.897 6.11-1.25 8.51-.89 79.09-.782 80.49.122.73.473-2.59 5.023-9.29 12.735-5.73 6.6-13.44 15.92-17.13 20.7-3.69 4.78-7.45 8.72-8.36 8.75-.91.03-4.28-1.95-7.5-4.41zm229.76-25.174c-4.614-1.335-17.665-5.962-29-10.283-24.558-9.37-36.06-13.08-40.47-13.08-1.79 0-8.153.9-14.14 2-13.205 2.42-20.772 2.52-29.436.37-9.47-2.35-15.15-5.55-21.21-11.94-2.94-3.1-7.01-6.88-9.04-8.39l-3.7-2.75 8.2-1.62c4.51-.89 13.15-3.5 19.2-5.79 15.29-5.81 21.77-6.18 34.8-2.01 14.44 4.62 14.06 4.67 52.21-6.25 19.29-5.52 31.77-8.35 39-8.86l4-.28-.36 27.5c-.2 15.12-.65 31.16-1 35.64l-.63 8.14-8.39-2.43zm-479.9-70.187l.287-60.827 4.247-8.57c6.55-13.21 16.83-21.605 30.95-25.284 4.98-1.297 30.18-1.49 192.77-1.48 155.25.01 187.92.245 192.19 1.383C548.2 8.51 561 20.984 565.73 36.515c1.557 5.12 1.825 9.746 1.847 31.924l.03 25.93-17.772 5.85c-22.717 7.48-27.6 8.01-39.412 4.24-14.876-4.75-24.56-3.96-45.206 3.68L454.82 112h-55.36c-30.45 0-55.36-.146-55.36-.327 0-.18 1.145-3.147 2.546-6.594 3.093-7.62 4.243-17.8 2.293-20.31-1.26-1.62-1.87-1.63-9.84-.14-6.97 1.3-15.68 1.56-48.27 1.45-24.66-.09-40.47.23-41.62.85-3.21 1.71-3.45 7.95-.62 15.48 1.37 3.64 2.49 7.18 2.49 7.85 0 .92-4.49 1.27-17.75 1.39-48.78.44-84.81 13.71-113.64 41.84-3.67 3.57-6.89 6.49-7.17 6.49-.29 0-.39-27.37-.23-60.83z"/>
  <path fill="#98a8a8" d="M148.357 456.506c-7.302-1.966-13.938-5.52-19.556-10.476-4.27-3.767-8.7-10.302-8.7-12.827 0-.547 21.96-1.17 53.75-1.525 55.65-.622 66.75-1.203 68.21-3.565 1.85-2.988 2.53-21.314 2.23-59.977l-.31-40.41 21.82.658c12 .362 33.47.66 47.72.66l25.91.003-.69 31.058c-.38 17.082-.38 39.41 0 49.617l.69 18.56 3.59 1.55c2.65 1.144 8.39 1.67 21.88 2.006 16.83.418 18.45.305 20.35-1.416 5.49-4.964 5.3-2.235 5.33-76.375.03-66.142-.03-68.61-1.91-71.72-1.07-1.77-2.64-3.542-3.5-3.94-.85-.396-21.65-.972-46.22-1.28-24.57-.31-44.93-.82-45.24-1.137-.67-.668 32.5-42.814 33.74-42.88.46-.024 9.46 7.17 20 15.984 28.59 23.9 27.24 23.923 48.31-.78 8.32-9.762 24.05-28.548 34.95-41.748 26.15-31.66 38.39-46.004 39.23-45.98.38.01 4.45.634 9.04 1.387 9.82 1.61 19.01 1.052 34.32-2.09l10.67-2.187 20.83 7.978 20.83 7.98.63 6.955c1.11 12.37.95 230.38-.18 237.46-2.2 13.82-11.79 27.44-23.85 33.86-12.1 6.45-1.58 6.14-204.42 6.07-155.2-.06-185.01-.29-189.42-1.48zm-34.623-80.208c-.34-2.062-.622-29.175-.624-60.25 0-63.197.02-63.456 7.368-80.874 11.905-28.217 37.825-56.057 62.992-67.658 8.614-3.97 23.26-8.006 34.122-9.4 9.69-1.246 30.102-1.8 31.057-.845.37.38-1.78 3.53-4.8 6.99-3.02 3.46-11.94 14.62-19.82 24.8-7.89 10.18-18.64 23.85-23.89 30.38-5.26 6.53-11.3 14.18-13.44 17-4.28 5.65-9.62 16.49-9.62 19.51 0 1.22 3.63 5.02 9.75 10.23 5.36 4.56 9.87 8.36 10.02 8.44.15.09-.63 3.91-1.72 8.49-3.46 14.48-4.3 29.98-3.12 57.25.59 13.55 1.07 28.03 1.07 32.17v7.54h-78.73l-.62-3.75zm250.49-182.11c-2.79-2.097-10.373-8.548-16.85-14.337-6.477-5.78-15.028-13.02-19.002-16.08l-7.225-5.56 12.225-.69c6.724-.38 25.157-.31 40.962.15l28.737.84-8.95 10.37c-4.92 5.71-12.23 14.57-16.23 19.7-4 5.14-7.57 9.36-7.93 9.38-.36.03-2.93-1.66-5.72-3.76zm-251.13-92.2c0-37.087.373-57.668 1.11-61.185 3.646-17.413 19.074-32.42 36.78-35.78 3.54-.67 68.62-1.02 190.04-1.02 202.14 0 190.12-.345 201.45 5.783 6.262 3.388 14.348 11.24 17.92 17.402 5.325 9.186 6.18 14.936 6.194 41.674l.013 24.36-14.44 4.898c-7.94 2.695-17.94 5.61-22.22 6.477-8.28 1.68-8.58 1.647-23.33-2.507-12.44-3.505-23.24-2.283-40.5 4.584l-9.5 3.78-55.25.307c-30.38.17-55.25.09-55.25-.18s.96-2.87 2.12-5.78c1.17-2.9 2.4-8.61 2.75-12.69l.64-7.4 4-1.41c2.2-.77 6.67-1.72 9.92-2.1 3.26-.37 6.1-1.22 6.32-1.88.22-.66-1.78-2.3-4.46-3.66-7.47-3.79-12.7-10.25-18.83-23.31-4.65-9.89-6.43-12.56-12.2-18.21-11.21-10.99-24.19-16.49-38.74-16.42-26.27.12-44.6 14.32-60.01 46.48-4.06 8.48-4.21 9.86-1.38 12.42 3.47 3.15 6.67 9.52 8.27 16.48.84 3.62 2.41 8.83 3.5 11.6l1.98 5.03-18.68.65c-10.27.36-23.14 1.34-28.6 2.18-34.99 5.43-61.67 18.15-84.32 40.24l-5.25 5.12V102zm32.493 354.118c-12.197-4.344-20.482-10.7-24.083-18.47-1.277-2.758-2.09-5.25-1.802-5.535.286-.28 23.105-.59 50.71-.67 50.156-.16 67.793-1.06 70.34-3.61 2.507-2.51 3.286-16.12 3.317-58.02l.03-41.75h35.34c19.44 0 40.81.3 47.5.66l12.15.66v48.15c0 37.03.29 48.52 1.25 49.72 2.32 2.9 8.18 3.98 24.75 4.54l16.51.56 3.17-2.67c1.74-1.47 3.62-4.12 4.16-5.89.57-1.88 1.21-30.2 1.53-68.21.5-59.71.41-65.4-1.17-69.99-2.82-8.19-1.14-7.93-52.52-8.34-24.64-.19-44.67-.72-44.5-1.17.64-1.71 34.34-43.88 35.12-43.93.45-.03 7.88 5.92 16.5 13.24 21.64 18.36 23.5 19.76 27.32 20.61 6.68 1.49 8.62.09 22.45-16.13 10.19-11.95 68.37-81.46 74.12-88.56 1.04-1.28 2.07-1.31 7.5-.22 9.78 1.99 22.74 1.51 36.46-1.34l12.17-2.52 20.42 7.78c11.23 4.28 20.94 8.11 21.58 8.5 1.61 1 1.65 240.13.03 247.79-3.57 16.97-17 30.73-34.43 35.27-5.18 1.35-28.09 1.52-193.42 1.46-177.37-.07-187.81-.17-192.55-1.86zm-31.78-75.73c-.32-.518-.65-28.37-.736-61.89-.14-58.344-.06-61.276 1.88-68.624 5.78-21.816 18.19-42.13 37.12-60.722 17.27-16.964 35.7-26.418 59.61-30.588 10.32-1.8 38.43-3.194 38.43-1.907 0 .504-2.95 4.453-6.56 8.777-3.61 4.323-12.55 15.568-19.86 24.988-7.31 9.42-19.22 24.553-26.46 33.628-13.39 16.787-19.1 26.093-19.1 31.117 0 2.294 1.73 4.285 9.59 11.068 10.81 9.313 10.19 7.316 6.71 21.816-1.61 6.7-1.78 11.95-1.56 49.74l.25 42.25h-29.75c-16.36 0-34.06.29-39.35.64-5.67.37-9.84.25-10.18-.31zm250.69-185.26c-4.214-3.12-11.947-9.763-23.556-20.23-4.03-3.643-10.38-8.882-14.09-11.644-4.96-3.694-6.33-5.182-5.17-5.63 2.05-.784 82.42-.796 82.42-.01 0 .326-4.86 6.29-10.81 13.25s-13.42 15.917-16.61 19.904c-3.19 3.988-6.36 7.25-7.04 7.25-.68 0-2.99-1.3-5.14-2.89zm-251.4-94.88c0-56.37.07-58.503 2.078-64.464 4.29-12.74 12.17-21.48 24.923-27.646l7.5-3.627h385.1l7.537 3.72c8.677 4.29 16.288 11.27 20.682 18.98 4.91 8.62 6.177 17.54 6.177 43.52v22.82l-14.25 4.75c-25.7 8.57-30.85 9.28-41.268 5.69-14.59-5.02-24.814-4.42-44.162 2.59l-12.18 4.42h-110.05l2.557-6.75c1.41-3.72 2.71-9.33 2.89-12.48.18-3.15.58-6.14.89-6.64.68-1.1 11.73-4.03 16.51-4.39 5.08-.38 4.83-2.34-.65-5.12-7.47-3.79-12.7-10.26-18.83-23.32-4.65-9.9-6.44-12.57-12.2-18.21-11.21-10.99-24.19-16.49-38.74-16.42-26.27.12-44.6 14.31-60.01 46.48-1.91 4-3.48 7.89-3.48 8.64 0 .75 1.56 3.2 3.48 5.43 1.91 2.23 4.1 5.9 4.85 8.16.76 2.25 2.63 7.7 4.15 12.1 4.75 13.73 4.96 12.89-3.07 12.23-7.95-.65-32.37.7-42.19 2.34-33.56 5.6-59.57 18.07-81.57 39.12l-6.63 6.34v-58.3zm32.49 355.87c-12.197-4.344-20.482-10.7-24.083-18.47-1.277-2.758-2.09-5.25-1.802-5.535.286-.28 23.105-.59 50.71-.67 50.156-.16 67.793-1.06 70.34-3.61 2.507-2.51 3.286-16.12 3.317-58.02l.03-41.75h35.34c19.44 0 40.81.3 47.5.66l12.15.66v48.15c0 37.03.29 48.52 1.25 49.72 2.32 2.9 8.18 3.98 24.75 4.54l16.51.56 3.17-2.67c1.74-1.47 3.62-4.12 4.16-5.89.57-1.88 1.21-30.2 1.53-68.21.5-59.71.41-65.4-1.17-69.99-2.82-8.19-1.14-7.93-52.52-8.34-24.64-.19-44.67-.72-44.5-1.17.64-1.71 34.34-43.88 35.12-43.93.45-.03 7.88 5.92 16.5 13.24 21.64 18.36 23.5 19.76 27.32 20.61 6.68 1.49 8.62.09 22.45-16.13 10.19-11.95 68.37-81.46 74.12-88.56 1.04-1.28 2.07-1.31 7.5-.22 9.78 1.99 22.74 1.51 36.46-1.34l12.17-2.52 20.42 7.78c11.23 4.28 20.94 8.11 21.58 8.5 1.61 1 1.65 240.13.03 247.79-3.57 16.97-17 30.73-34.43 35.27-5.18 1.35-28.09 1.52-193.42 1.46-177.37-.07-187.81-.17-192.55-1.86zm-31.78-75.73c-.32-.518-.65-28.37-.736-61.89-.14-58.344-.06-61.276 1.88-68.624 5.78-21.816 18.19-42.13 37.12-60.722 17.27-16.964 35.7-26.418 59.61-30.588 10.32-1.8 38.43-3.194 38.43-1.907 0 .504-2.95 4.453-6.56 8.777-3.61 4.323-12.55 15.568-19.86 24.988-7.31 9.42-19.22 24.553-26.46 33.628-13.39 16.787-19.1 26.093-19.1 31.117 0 2.294 1.73 4.285 9.59 11.068 10.81 9.313 10.19 7.316 6.71 21.816-1.61 6.7-1.78 11.95-1.56 49.75l.25 42.25h-29.75c-16.36 0-34.06.29-39.35.64-5.67.37-9.84.25-10.18-.31zm250.69-185.26c-4.214-3.12-11.947-9.763-23.556-20.23-4.03-3.643-10.38-8.882-14.09-11.644-4.96-3.694-6.33-5.182-5.17-5.63 2.05-.784 82.42-.796 82.42-.01 0 .326-4.86 6.29-10.81 13.25s-13.42 15.917-16.61 19.904c-3.19 3.988-6.36 7.25-7.04 7.25-.68 0-2.99-1.3-5.14-2.89zm-251.4-94.88c0-56.37.07-58.503 2.078-64.464 4.29-12.74 12.17-21.48 24.923-27.646l7.5-3.627h385.1l7.537 3.72c8.677 4.29 16.288 11.27 20.682 18.98 4.91 8.62 6.177 17.54 6.177 43.52v22.82l-14.25 4.75c-25.7 8.57-30.85 9.28-41.268 5.69-14.59-5.02-24.814-4.42-44.162 2.59l-12.18 4.42h-110.05l2.6-6.75c1.8-4.68 2.632-8.83 2.705-13.53l.1-6.78 5.28-1.98c2.91-1.09 6.82-1.98 8.69-1.98 5.01 0 5.08-1.48.19-4.35-6.82-4-11.06-9.54-17.49-22.86-5.2-10.78-6.81-13.15-12.62-18.59-25.4-23.76-62.74-19.41-84.03 9.78-3.49 4.78-11.43 19.09-13.93 25.1-1.47 3.54-1.45 3.63 2.57 9.29 4.06 5.73 7.16 13.59 6.27 15.91-.26.68.65 4.13 2.04 7.664 3.69 9.43 3.7 9.414-4.23 8.764-7.83-.64-32.3.73-42.05 2.36-33.56 5.596-59.57 18.07-81.57 39.12l-6.63 6.34v-58.3zm36.5 357.37c-8.144-2.006-16.093-6.16-21.618-11.3-5.1-4.743-9.58-12.395-8.38-14.33.38-.628 16.82-.99 44.97-.99 45.94 0 74.12-1.224 76.2-3.313 2.38-2.378 3.46-27.983 2.73-64.447l-.71-35.26 48.39.26 48.39.26-.27 39c-.15 21.45.07 43.72.5 49.49.75 10.32.81 10.513 3.7 11.895 1.78.85 9.39 1.82 19.24 2.46 18.58 1.19 21.73.5 25.03-5.55 1.68-3.07 1.79-7.78 1.79-71.96 0-68.25-.01-68.69-2.11-71.5-1.5-2.01-3.38-3.05-6.5-3.59-2.42-.42-23.46-.96-46.76-1.19-23.3-.23-42.52-.58-42.7-.76-.6-.59 34.51-44.26 35.82-44.55.69-.15 6.88 4.51 13.75 10.35 21.56 18.34 26.82 22.31 30.49 23 7.67 1.44 7.28 1.83 46.23-45.06 44.13-53.12 51.5-61.62 52.91-61.08 8.56 3.29 26.52 3.09 43.02-.46l10.16-2.19 21.43 8.19 21.43 8.19.66 33.68c.81 41.43.7 153.11-.19 189.68l-.66 27-3.21 6.79c-6.09 12.85-15.64 21.37-29.13 25.95l-6.65 2.26-186.5.18c-144.81.14-187.62-.1-191.5-1.05zm-36.978-88.87c-.38-6.736-.52-34.974-.33-62.75l.35-50.5 2.75-9c9.23-30.144 35.09-62.363 61.69-76.847 7.51-4.09 22.05-9.15 32.36-11.26 7.57-1.55 41.64-3.18 41.64-1.99 0 .38-2.6 3.71-5.77 7.4-3.17 3.68-13.47 16.6-22.88 28.71-9.42 12.1-21.69 27.63-27.27 34.49-10 12.29-17.08 24.1-17.08 28.49 0 1.61 2.81 4.58 10.04 10.61 8.09 6.75 9.92 8.76 9.44 10.38-4.77 16.03-5.58 30.36-4.49 79.5.27 12.37.13 23.06-.31 23.75-.63.96-9.78 1.25-40.15 1.25h-39.34l-.68-12.25zm250.84-174.14c-3.23-2.41-11.71-9.62-18.86-16.02-7.15-6.4-15.8-13.538-19.22-15.864-3.42-2.326-6.24-4.502-6.25-4.835-.06-1.05 24.31-1.445 55.91-.91l30.45.516-6.79 7.5c-3.74 4.125-11.59 13.462-17.44 20.75s-10.94 13.25-11.3 13.25c-.36 0-3.29-1.974-6.51-4.386zm-251.36-91.46c0-33.815.4-57.987 1.02-61.245C116.72 22.9 133.1 7 152.1 4.03c4.21-.66 70.59-1.01 189-1 198.91.01 190.34-.23 201.13 5.646 11.65 6.346 20.53 17.575 23.52 29.764 1.39 5.66 1.74 11.812 1.79 30.91.03 14.764-.33 24.078-.94 24.46-.55.337-4.82 1.925-9.5 3.526-28.25 9.67-34.87 10.604-46.57 6.565-5.64-1.94-8.91-2.39-17.44-2.36-9.9.03-11.19.28-22.5 4.44l-12 4.41-56 .56c-30.8.31-56.32.33-56.71.05-.39-.28.392-3.56 1.75-7.29 1.65-4.54 2.46-8.88 2.46-13.16v-6.38l5.536-2.07c3.046-1.14 7.07-2.07 8.94-2.07 5.015 0 5.08-1.48.19-4.35-6.82-3.99-11.06-9.54-17.487-22.85-5.21-10.78-6.82-13.16-12.63-18.59-25.4-23.76-62.74-19.41-84.03 9.79-3.48 4.78-11.42 19.09-13.93 25.1-1.48 3.55-1.45 3.64 2.56 9.3 3.92 5.53 7.33 14 6.3 15.67-.28.45.85 4.23 2.51 8.41 1.66 4.18 3.01 7.74 3.01 7.92 0 .18-9.12.59-20.25.91-48.09 1.38-81.39 13.51-109.1 39.75-4.63 4.38-8.7 7.97-9.03 7.97-.34 0-.62-25.14-.62-55.862zm33.79 353.97c-13.98-4.47-26.8-15.964-26.8-24.03 0-2.487-1.31-2.423 43-2.098 29.38.216 71.8-1.2 76.25-2.546 4.06-1.23 4.22-3.08 4.75-52.895l.5-48 25-.316c13.75-.17 35.46-.01 48.25.37l23.25.68.01 48.64c.01 26.75.38 49.21.82 49.91 1.52 2.41 7.71 3.43 23.89 3.96 14.19.47 16.55.32 18.83-1.17 5.67-3.71 5.63-3.33 6.16-74.05.53-70.87.53-70.76-5.05-74.9-2.75-2.04-3.96-2.1-48.25-2.42-33.86-.24-45.42-.62-45.4-1.5.03-1.33 34.6-44.99 36.02-45.5.51-.18 6.66 4.54 13.66 10.5 22.37 19.04 26.7 22.34 30.73 23.44 3.04.83 4.55.77 6.6-.26 3.14-1.58 14.5-14.55 44.95-51.34 46.68-56.4 45.12-54.67 48.5-54.02 14.69 2.86 26.87 2.57 42.28-1.01 3.49-.81 7.62-1.47 9.18-1.47 2.9 0 41.42 14.25 43.75 16.18 1.04.86 1.29 24.39 1.29 121.31 0 77.6-.37 122.15-1.02 125.62-2.48 13.05-12.37 26.62-23.87 32.75-12.16 6.48.09 6.12-205.12 6.08-177.66-.04-186.77-.12-192.2-1.86zm-33.2-76.9c-.29-.47-.58-28.04-.63-61.262l-.1-60.407 2.53-9.88c5.18-20.177 18.12-41.347 36.23-59.268 18.9-18.72 39-28.72 64.85-32.29 10.9-1.51 35.13-2.48 35.77-1.43.31.5-2.61 4.73-6.49 9.39-3.88 4.66-14.59 18.14-23.79 29.97-9.2 11.82-21.09 26.9-26.42 33.5-8.66 10.73-14.28 19.88-16.05 26.16-.51 1.8 1.03 3.52 9.41 10.5 11.3 9.41 10.9 8.25 7.43 21.34-1.67 6.3-1.86 11.32-1.87 50.5l-.02 43.5-40.19.26c-22.1.14-40.42-.13-40.71-.6zm249.74-185.67c-3.22-2.457-11.93-9.89-19.35-16.522-7.43-6.63-16.07-13.734-19.21-15.785-3.14-2.06-5.73-4.01-5.75-4.34-.03-.34 2.72-.9 6.1-1.25 8.51-.89 79.09-.78 80.48.12.73.47-2.59 5.02-9.29 12.73-5.74 6.6-13.45 15.91-17.14 20.69-3.69 4.78-7.45 8.72-8.36 8.75-.91.03-4.28-1.96-7.5-4.41zM112.3 99.173l.288-60.827 4.246-8.57c6.547-13.21 16.823-21.605 30.946-25.284 4.98-1.297 30.173-1.49 192.77-1.48 155.25.01 187.92.245 192.19 1.383 15.446 4.112 28.254 16.587 32.977 32.118 1.556 5.12 1.824 9.746 1.846 31.924l.026 25.936-17.78 5.853c-22.72 7.483-27.6 8.008-39.41 4.24-14.88-4.748-24.56-3.958-45.21 3.687L454.81 112h-55.36c-30.446 0-55.358-.147-55.358-.328 0-.18 1.185-3.217 2.633-6.75 1.768-4.315 2.73-8.72 2.934-13.422l.3-7 5.31-2.22c2.92-1.22 6.97-2.232 9-2.25 5.29-.043 5.45-1.465.47-4.38-6.82-3.994-11.06-9.54-17.49-22.856-5.21-10.787-6.82-13.158-12.63-18.59-25.4-23.76-62.74-19.41-84.03 9.784-3.48 4.768-11.42 19.08-13.92 25.07-1.47 3.53-1.45 3.608 2.89 9.843 3.01 4.33 4.86 8.37 5.91 12.95.85 3.66 2.45 9.03 3.56 11.92 1.11 2.9 2.02 5.82 2.02 6.5 0 .94-4.39 1.28-17.75 1.41-48.78.45-84.81 13.72-113.64 41.84-3.66 3.58-6.89 6.5-7.17 6.5-.28 0-.39-27.37-.23-60.82z"/>
</svg>
