<svg xmlns="http://www.w3.org/2000/svg" width="138.68" height="138.68">
  <path fill="#b22222" d="M135.22 86.7c-.17-.37-.35-.73-.5-1.1-.98-2.13-.7-4.58-2.02-6.68-1.22-1.92-3.06-3-5.26-3.46-4.98-1.04-11.36.13-16.14 1.67-2.25.73-5.03 1.9-6.73 3.62-4.6 4.6-5.9 10.2-2.6 15.9 3.2 5.5 8.4 8.1 14.9 7.4 4.3-.5 8.5-2.2 12.3-4.4 2.7-1.6 6.5-3.5 7.3-6.8.5-2.2-.4-4.3-1.4-6.2zM60.5 33.83c-5.7-6.48 3.62-16.1 7.9-20.22 4.55-4.4 12.43-7.9 18.82-5.8 7.43 2.4 13.18 13.2 14.33 20.4 1.88 11.8-16.8 28.8-27 19.1-4.66-4.43-9.5-8.73-14.05-13.3zM39.98 72.76c-.82-1.44-1.4-3.12-1.64-5.04-.84-6.56-1.27-14.36 3.27-19.82 3.3-3.96 8.8-5.77 14-5.83 5.9 0 19.1 1.3 19.2 9.3.1 5.8-5 18.3-9 22.5-7.1 7.5-20.8 7.4-25.7-1.1z"/>
  <path fill="#a9a9a9" d="M107.55 53.08c5.54 1.87 22.1 5.8 25.56 4.13 6.3-3 5.5-26.5 5.6-34.1.1-7.4-2.9-12.9-9.2-14.9-6.1-2-19.4-3.3-23.6 2.3-3.6 4.9-2.9 25.8-4 31.9-.3 1.6-.5 3.3-.2 4.9.6 3.3 3.5 5 6 5.9zM56.33 24.6c.84-1.7 1.75-3.35 2.07-5.3.6-3.6-.03-7.7-1.86-10.86-3.18-5.5-8.76-7.66-14.58-6.68C36.24 2.73 34 9 34.8 14.7c.5 3.26-3.5 7.86-5.1 10.36-1.7 2.77-8 10.24-6.2 13.64 1 1.75 2.1 2.98 2.7 4.98 1.1 3.54 2.3 7.37 6.6 5.38 3-1.4 5.3-3.72 8-5.5l7.2-4.8c4.3-2.87 6.1-4.44 6.8-9.73.3-1.6.9-3 1.6-4.4zM6.85 73.17c4.13-3.74 10.9-6.75 14.3-7.36 6.18-1.1 11.03 2.3 13.26 6.9 2.2 4.5 1.3 9.3-3.5 13.5-4.6 4.1-9.8 5.5-15 4-4.4-1.2-8.1-4.4-10.8-7.7-.8-.9-1.4-1.8-1.7-2.9-.5-2.3 1.4-4.7 3.4-6.4zm56.43 40.02c-4.65 1.8-11.14.9-14.06-.6-5.32-2.8-8-10-8.1-17-.1-6.9 2.34-12.1 7.67-14 5.2-1.9 9.9-.1 13.4 5.1 3.1 4.5 4.9 10.7 5.9 16.4.3 1.5.5 3 .3 4.5-.4 3-2.8 4.6-5 5.5zm26.1-60.8c3.48 0 7.04 1.7 10.33 2.6 7.1 2 14.4 1.7 21.5 3 3.2.6 7 1.4 9.4 3.7 4.8 4.6-1.3 9.12-5.3 10.55-5.4 1.93-11.3 3.07-17 3.4-3.4.2-7 .22-10.5-.08-6.4-.6-10.2-3.2-12.2-6.37-1.5-2.34-1.1-4.3-3.1-6.6-2-2.4-5.3-5.33-3.8-7.9 1.3-2.2 5.9-2.57 10.9-2.47z"/>
  <path fill="#b22222" d="M38.8 136.9c1.7-.85 3.13-2.2 3.96-4.12.73-1.72 1.14-3.6 1.9-5.3 1.2-2.7 3.23-5.02 3.62-7.97.62-4.7-3-9-6.15-11.6-2.58-2.1-5.5-3.8-8.45-5.3C31.98 101.8 10.5 91 8.84 92c-1.23.7-.42 11.3-.93 12.7-2.5 6.9-3.2 14.7-2.6 22.03.4 4.13 1 6.88 4.5 9.04 3.1 1.9 25.6 2.97 29 1.25z"/>
  <path fill="#a9a9a9" d="M19.98 65.3c-4.2 1.9-10.03.98-12.66-.64C2.54 61.7.12 54.03.02 46.54c-.1-7.33 2.08-12.8 6.87-14.87 4.7-2 8.9 0 12.1 5.5 2.8 4.8 4.4 11.5 5.3 17.6.3 1.6.5 3.2.3 4.8-.4 3.28-2.5 5-4.5 5.9zm30.33 67.63c2 1.76 5.1 2.7 7.4 2.97 4.1.48 8.4-.72 11.4-3.68 5.5-5.53 4.5-13.16-2.7-16.5-3.9-1.8-7.42-.07-11.1 1.73-1.52.7-3.1 1.6-4.13 3-1.1 1.3-1.6 2.9-2.1 4.6-.4 1.5-.8 3.1-.6 4.6.2 1.3.9 2.3 1.9 3.2z"/>
  <path fill="#b22222" d="M.46 16.06c.2 1.5.45 2.95.68 4.28 3.2 19.05 42.8 3.23 27.52-15.83C24.96-.1 21.18.3 16.14.7 10.72 1.2.96.7.12 8c-.27 2.44-.04 5.3.34 8.05zm83.9 119c3.36 2.47 39.43 4.45 43.75 2.1 2.1-1.18 4.5-4.44 5.7-6.64 1-1.83 3.6-11.23 3.9-13.36.3-2.58 1.4-6.18.7-8.76-.8-3.08-4.3-3.86-7-3.9-4.8-.05-45.7 9.5-50.5 10-5.7.6-6 4.88-6 10.18s2.3 7.52 6.98 8.96c.96.3 1.84.8 2.7 1.43zM72.58 108.7c.83.67 1.83 1.17 3 1.44 1.9.45 3.76 1.52 5.74 1.5 2.13-.04 3.9-1.47 5.92-1.92 2.3-.5 4.63-.75 6.94-1.1 3.88-.62 9.78-1.02 7.3-6.46-3.15-6.86-7.37-13.2-10.3-20.16-.75-1.76-1.17-4.56-2.66-5.87-3.05-2.66-10.67-.67-14.12.1-3.56.82-10.46 1.27-10.84 6.08-.54 6.9 5.1 12.8 5.66 19.5.23 2.8 1.3 5.4 3.35 7z"/>
</svg>

