<?xml version="1.0" encoding="UTF-8" standalone="no"?>
<svg id="Capa_1" xmlns:rdf="http://www.w3.org/1999/02/22-rdf-syntax-ns#" xmlns="http://www.w3.org/2000/svg" xml:space="preserve" viewBox="0 0 134.64176 118.5" height="118.5" width="134.64" version="1.1" y="0px" x="0px" xmlns:cc="http://creativecommons.org/ns#" xmlns:dc="http://purl.org/dc/elements/1.1/"><style id="style8069" type="text/css">
	.st0{fill:#294563;}
</style><g id="g8071" fill="#294563" transform="translate(-324.36 -23.3)"><circle id="circle8073" cy="50.6" cx="452.6" r="4.4" class="st0"/><circle id="circle8075" cy="27.7" cx="447.4" r="4.4" class="st0"/><circle id="circle8077" cy="34.7" cx="431" r="4.4" class="st0"/><circle id="circle8079" cy="52.9" cx="435.7" r="4.4" class="st0"/><circle id="circle8081" cy="72.2" cx="435.4" r="4.4" class="st0"/><circle id="circle8083" cy="71.4" cx="419.3" r="4.4" class="st0"/><circle id="circle8085" cy="55.8" cx="420.1" r="4.4" class="st0"/><circle id="circle8087" cy="41.2" cx="414.1" r="4.4" class="st0"/><circle id="circle8089" cy="73.2" cx="454.6" r="4.4" class="st0"/><path id="path8091" class="st0" d="m342.7 141.8-7.6-47.3s-4.9-20.6 16.6-23c0 0-0.2 6.9 4.9 6.1 1.9 0.2 2.1-4 2.1-4l40.9-8.7s0.2 1.6 2.3 1.6 2.3-2.4 2.3-2.4l-1.6-10.2s-0.2-2.6-2.6-2.4-1.9 2.8-1.9 2.8l-41.6 4.2s-0.9-3.5-4-2.8-1.8 6.8-1.8 6.8-17.7 1.6-24.3 15.2c-5.8 12 2.6 47.1 2.6 47.1l13.7 17z"/></g></svg>
