<?xml version="1.0" encoding="UTF-8" standalone="no"?>
<svg id="svg9079" xmlns:rdf="http://www.w3.org/1999/02/22-rdf-syntax-ns#" xmlns="http://www.w3.org/2000/svg" height="18.14mm" width="31.583mm" version="1.1" xmlns:cc="http://creativecommons.org/ns#" xmlns:dc="http://purl.org/dc/elements/1.1/" viewBox="0 0 111.90738 64.275">
 <g id="layer1" transform="translate(0 -988.09)">
  <path id="path8170" d="m75.6 1030.9c5.1386 0 9.4918 3.345 11.022 7.9713h1.1538c1.5294-4.6263 5.8829-7.9713 11.021-7.9713 5.1418 0 9.493 3.345 11.022 7.9713h0.5v-12.902h-66.513v12.902h20.772c1.5289-4.6263 5.8824-7.9713 11.022-7.9713" fill="#839396"/>
  <path id="path8172" d="m27.71 999.75-6.4116 15.525-17.889 3.3738v20.251l18.456 0.94c1.2046-5.1262 5.7984-8.95 11.293-8.95 5.9038 0 10.769 4.41 11.505 10.112l9.289 0.4738v-41.726h-26.243" fill="#aabbbc"/>
  <path id="path8174" d="m46.317 997.39h-20.293l1.686 2.3637h26.243v-2.3637h-7.6358" fill="#ffb012"/>
  <path id="path8176" d="m93.247 1003.9-3.9879-14.196-0.44188-1.5675-1.3666 1.8625 4.0425 14.392 1.7539-0.4912" fill="#ffb012"/>
  <g fill="#839396">
   <path id="path8178" d="m107.77 999.77-0.16625-0.5962-2.28-8.1125-2.755 0.7737-13.311-2.18 3.9879 14.196 14.524-4.0813"/>
   <path id="path8180" d="m91.493 1004.3-4.0425-14.392-18.531 5.2075 4.0434 14.392 18.53-5.2075"/>
   <path id="path8182" d="m67.166 995.65-5.3622 8.7987 1.9751 7.0338 0.1675 0.6 7.2616-2.0413-4.042-14.391"/>
  </g>
  <path id="path8184" d="m72.963 1009.5-4.0434-14.392-2.1372-0.8787 0.38375 1.3725 4.042 14.391 1.7549-0.4925" fill="#ffb012"/>
  <path id="path8186" d="m97.207 1017.9 10.229-8.7938 2.7538-0.7725-2.2775-8.1125-0.14125-0.5-14.524 4.0813 3.96 14.098" fill="#5f7278"/>
  <path id="path8188" d="m91.493 1004.3 4.017 14.296 2.1382 0.8775-0.44138-1.5675-3.96-14.098-1.7539 0.4912" fill="#e39700"/>
  <path id="path8190" d="m72.963 1009.5 4.0151 14.292 18.532-5.2037-4.017-14.296-18.53 5.2075" fill="#5f7278"/>
  <path id="path8192" d="m72.963 1009.5-1.7549 0.4925 4.0176 14.295 0.38425 1.37 1.3681-1.865-4.0151-14.292" fill="#e39700"/>
  <path id="path8194" d="m63.946 1012.1 0.141 0.4987 1.9771 7.0338 9.1611 4.7212-4.0176-14.295-7.2616 2.0413" fill="#5f7278"/>
  <path id="path8196" d="m107.84 1010.1-5.3675-19.101 4.0687-1.145 5.3675 19.101-4.0688 1.145" fill="#ffb012"/>
  <path id="path8198" d="m111.36 1008.5-5.0988-18.148-1.045 0.2938-1.5312 0.4287-0.59875 0.1663 2.0275 0.835 0.57 0.2325 4.6312 16.486 1.045-0.295" fill="#ffca5f"/>
  <g fill="#aabbbc">
   <path id="path8200" d="m103.23 996.17-1.0362-3.6938-11.614-1.9562 10.41 2.9812 2.24 2.6688"/>
   <path id="path8202" d="m87.982 995.85-1.3589-4.8388-16.062 4.5113 15.14-2.7875 2.2808 3.115"/>
   <path id="path8204" d="m68.097 1002.2-1.2525-4.4562-4.019 6.5337 3.7421-4.3975 1.5294 2.32"/>
  </g>
  <path id="path8206" d="m57.749 1015.6-0.93112-3.3138 6.6504-1.865 0.93125 3.3088-6.6505 1.87" fill="#5f7278"/>
  <path id="path8208" d="m63.462 1014-2.085-2.985 2.0912-0.5863 0.93125 3.3088-0.9375 0.2625" fill="#546c72"/>
  <path id="path8210" d="m8.709 1040.3-5.2992-1.1375v-21.604l5.2992-0.9475v23.689" fill="#ffb012"/>
  <path id="path8212" d="m43.018 1042.5c0 5.445-4.4126 9.8562-9.8584 9.8562-5.4449 0-9.857-4.4112-9.857-9.8562 0-5.4463 4.4121-9.86 9.857-9.86 5.4458 0 9.8584 4.4137 9.8584 9.86" fill="#3e5459"/>
  <path id="path8214" d="m38.478 1042.5c0 2.935-2.3814 5.315-5.3184 5.315-2.9365 0-5.3169-2.38-5.3169-5.315 0-2.9363 2.3804-5.315 5.3169-5.315 2.937 0 5.3184 2.3787 5.3184 5.315" fill="#aabbbc"/>
  <path id="path8216" d="m29.215 1043.4c0-2.5075 2.0318-4.5362 4.5371-4.5362 1.4541 0 2.7456 0.685 3.5776 1.7475-0.67775-1.65-2.3008-2.8175-4.2008-2.8175-2.5044 0-4.5351 2.0337-4.5351 4.5387 0 1.0525 0.35888 2.0163 0.961 2.7863-0.21688-0.5325-0.33988-1.1113-0.33988-1.7188" fill="#5f7278"/>
  <path id="path8218" d="m85.459 1042.5c0 5.445-4.4145 9.8562-9.8584 9.8562-5.4449 0-9.8594-4.4112-9.8594-9.8562 0-5.4463 4.4145-9.86 9.8594-9.86 5.4439 0 9.8584 4.4137 9.8584 9.86" fill="#3e5459"/>
  <path id="path8220" d="m80.917 1042.5c0 2.935-2.3814 5.315-5.3164 5.315-2.937 0-5.3164-2.38-5.3164-5.315 0-2.9363 2.3794-5.315 5.3164-5.315 2.935 0 5.3164 2.3787 5.3164 5.315" fill="#aabbbc"/>
  <path id="path8222" d="m71.655 1043.4c0-2.5075 2.0312-4.5362 4.5385-4.5362 1.4551 0 2.7446 0.685 3.5748 1.7475-0.67725-1.65-2.3004-2.8175-4.1972-2.8175-2.5059 0-4.5371 2.0337-4.5371 4.5387 0 1.0525 0.36088 2.0163 0.9595 2.7863-0.21588-0.5325-0.33838-1.1113-0.33838-1.7188" fill="#5f7278"/>
  <path id="path8224" d="m108.66 1042.5c0 5.445-4.415 9.8562-9.8605 9.8562-5.4424 0-9.8589-4.4112-9.8589-9.8562 0-5.4463 4.4165-9.86 9.8589-9.86 5.4455 0 9.8605 4.4137 9.8605 9.86" fill="#3e5459"/>
  <path id="path8226" d="m104.11 1042.5c0 2.935-2.3812 5.315-5.318 5.315-2.9335 0-5.3164-2.38-5.3164-5.315 0-2.9363 2.3829-5.315 5.3164-5.315 2.9368 0 5.318 2.3787 5.318 5.315" fill="#aabbbc"/>
  <path id="path8228" d="m94.854 1043.4c0-2.5075 2.0308-4.5362 4.5356-4.5362 1.4553 0 2.7477 0.685 3.5778 1.7475-0.67876-1.65-2.3013-2.8175-4.1983-2.8175-2.5054 0-4.5386 2.0337-4.5386 4.5387 0 1.0525 0.36138 2.0163 0.96138 2.7863-0.21525-0.5325-0.33788-1.1113-0.33788-1.7188" fill="#5f7278"/>
  <path id="path8230" d="m56.818 1026h3.7915v-13.716h-3.7915v13.716z" fill="#5f7278"/>
  <path id="path8232" d="m61.804 1013.4c0 1.7038-1.3842 3.085-3.0889 3.085-1.707 0-3.0899-1.3812-3.0899-3.085 0-1.7087 1.3829-3.0887 3.0899-3.0887 1.7046 0 3.0889 1.38 3.0889 3.0887" fill="#546c72"/>
  <path id="path8234" d="m60.338 1013.4c0 0.895-0.7275 1.6225-1.6235 1.6225-0.898 0-1.624-0.7275-1.624-1.6225 0-0.8987 0.726-1.6262 1.624-1.6262 0.896 0 1.6235 0.7275 1.6235 1.6262" fill="#aabbbc"/>
  <path id="path8236" d="m100.58 1026h3.79v-13.716h-3.79v13.716z" fill="#5f7278"/>
  <path id="path8238" d="m105.56 1013.4c0 1.7038-1.3838 3.085-3.0888 3.085-1.7063 0-3.0893-1.3812-3.0893-3.085 0-1.7087 1.383-3.0887 3.0893-3.0887 1.705 0 3.0888 1.38 3.0888 3.0887" fill="#546c72"/>
  <path id="path8240" d="m104.1 1013.4c0 0.895-0.7275 1.6225-1.625 1.6225-0.89751 0-1.6238-0.7275-1.6238-1.6225 0-0.8987 0.72624-1.6262 1.6238-1.6262 0.8975 0 1.625 0.7275 1.625 1.6262" fill="#aabbbc"/>
  <path id="path8242" d="m6.7129 1017.6-2.6962 0.4412v20.161l1.0118-19.419 1.6845-1.1837" fill="#ffca5f"/>
  <path id="path8244" d="m0 1033.5c0 1.7062 1.3004 3.105 2.9634 3.2687v-6.5375c-1.663 0.1-2.9634 1.5-2.9634 3.2" fill="#fbb040"/>
  <path id="path8246" d="m0.62012 1034.5c0-1.7338 1.2271-3.175 2.8594-3.5163v-0.4862c-1.6655 0.1637-2.9652 1.5625-2.9652 3.2675 0 0.29 0.0415 0.5712 0.11025 0.8375l-0.0044-0.1025" fill="#ffca85"/>
  <path id="path8248" d="m2.814 1029.5c-0.13288 0-0.26362 0-0.39312 0.021v7.9712c0.1295 0.012 0.26025 0.02 0.39312 0.02 2.2129 0 4.0049-1.795 4.0049-4.0062 0-2.215-1.792-4.0063-4.0049-4.0063" fill="#5f7278"/>
  <path id="path8250" d="m49.535 1002.2h-14.836l-4.4502 13.399h19.286v-13.399" fill="#839396"/>
  <path id="path8252" d="m33.217 1002.2h-4.6231l-5.292 13.399h5.292l4.6231-13.399" fill="#839396"/>
  <path id="path8254" d="m19.683 1025.4h2.7622v-1.9722h-2.7622v1.9722z" fill="#fbb040"/>
  <path id="path8256" d="m19.954 1025.1h2.2236v-1.43h-2.2236v1.43zm2.7638 0.5425h-3.3042v-2.515h3.3042v2.515" fill="#839396"/>
  <path id="path8258" d="m111.24 1031.9c0 0.2887-0.23626 0.5225-0.525 0.5225-0.29 0-0.52625-0.2338-0.52625-0.5225v-3.85c0-0.29 0.23625-0.5275 0.52625-0.5275 0.28874 0 0.525 0.2375 0.525 0.5275v3.85" fill="#d62b40"/>
  <path id="path8260" d="m31.53 1002.6h-2.4276l-4.9902 12.482 5.5298-11.74 1.8881-0.7425" fill="#aabbbc"/>
  <path id="path8262" d="m48.524 1002.6h-13.351l-4.1158 12.482 5.1275-11.471 12.339-1.0113" fill="#aabbbc"/>
 </g>
</svg>
