<svg xmlns="http://www.w3.org/2000/svg" class="hide"><symbol id="check" viewBox="0 0 34.741248 27.669999"><path d="M34.741 5.547L29.194 0 12.703 16.491 5.548 9.336 0 14.884l7.155 7.155-.084.083 5.548 5.548.084-.084.083.084 5.548-5.548-.084-.083L34.741 5.548z"/></symbol><symbol id="clock-o" viewBox="0 0 1792 1792"><path d="M1024 544v448q0 14-9 23t-23 9H672q-14 0-23-9t-9-23v-64q0-14 9-23t23-9h224V544q0-14 9-23t23-9h64q14 0 23 9t9 23zm416 352q0-148-73-273t-198-198-273-73-273 73-198 198-73 273 73 273 198 198 273 73 273-73 198-198 73-273zm224 0q0 209-103 385.5T1281.5 1561 896 1664t-385.5-103T231 1281.5 128 896t103-385.5T510.5 231 896 128t385.5 103T1561 510.5 1664 896z"/></symbol><symbol id="envelope-o" viewBox="0 0 1792 1792"><path d="M1664 1504V736q-32 36-69 66-268 206-426 338-51 43-83 67t-86.5 48.5T897 1280h-2q-48 0-102.5-24.5T706 1207t-83-67q-158-132-426-338-37-30-69-66v768q0 13 9.5 22.5t22.5 9.5h1472q13 0 22.5-9.5t9.5-22.5zm0-1051v-24.5l-.5-13-3-12.5-5.5-9-9-7.5-14-2.5H160q-13 0-22.5 9.5T128 416q0 168 147 284 193 152 401 317 6 5 35 29.5t46 37.5 44.5 31.5T852 1143t43 9h2q20 0 43-9t50.5-27.5 44.5-31.5 46-37.5 35-29.5q208-165 401-317 54-43 100.5-115.5T1664 453zm128-37v1088q0 66-47 113t-113 47H160q-66 0-113-47T0 1504V416q0-66 47-113t113-47h1472q66 0 113 47t47 113z"/></symbol><symbol id="envelope" viewBox="0 0 1792 1792"><path d="M1792 710v794q0 66-47 113t-113 47H160q-66 0-113-47T0 1504V710q44 49 101 87 362 246 497 345 57 42 92.5 65.5t94.5 48 110 24.5h2q51 0 110-24.5t94.5-48 92.5-65.5q170-123 498-345 57-39 100-87zm0-294q0 79-49 151t-122 123q-376 261-468 325-10 7-42.5 30.5t-54 38-52 32.5-57.5 27-50 9h-2q-23 0-50-9t-57.5-27-52-32.5-54-38T639 1015q-91-64-262-182.5T172 690q-62-42-117-115.5T0 438q0-78 41.5-130T160 256h1472q65 0 112.5 47t47.5 113z"/></symbol><symbol id="facebook" viewBox="0 0 1792 1792"><path d="M1343 12v264h-157q-86 0-116 36t-30 108v189h293l-39 296h-254v759H734V905H479V609h255V391q0-186 104-288.5T1115 0q147 0 228 12z"/></symbol><symbol id="google-plus" viewBox="0 0 1792 1792"><path d="M1181 913q0 208-87 370.5t-248 254-369 91.5q-149 0-285-58t-234-156-156-234-58-285 58-285 156-234 234-156 285-58q286 0 491 192L769 546Q652 433 477 433q-123 0-227.5 62T84 663.5 23 896t61 232.5T249.5 1297t227.5 62q83 0 152.5-23t114.5-57.5 78.5-78.5 49-83 21.5-74H477V791h692q12 63 12 122zm867-122v210h-209v209h-210v-209h-209V791h209V582h210v209h209z"/></symbol><symbol id="home" viewBox="0 0 1792 1792"><path d="M1472 992v480q0 26-19 45t-45 19h-384v-384H768v384H384q-26 0-45-19t-19-45V992q0-1 .5-3t.5-3l575-474 575 474q1 2 1 6zm223-69l-62 74q-8 9-21 11h-3q-13 0-21-7L896 424l-692 577q-12 8-24 7-13-2-21-11l-62-74q-8-10-7-23.5t11-21.5l719-599q32-26 76-26t76 26l244 204V288q0-14 9-23t23-9h192q14 0 23 9t9 23v408l219 182q10 8 11 21.5t-7 23.5z"/></symbol><symbol id="linkedin" viewBox="0 0 1792 1792"><path d="M477 625v991H147V625h330zm21-306q1 73-50.5 122T312 490h-2q-82 0-132-49t-50-122q0-74 51.5-122.5T314 148t133 48.5T498 319zm1166 729v568h-329v-530q0-105-40.5-164.5T1168 862q-63 0-105.5 34.5T999 982q-11 30-11 81v553H659q2-399 2-647t-1-296l-1-48h329v144h-2q20-32 41-56t56.5-52 87-43.5T1285 602q171 0 275 113.5t104 332.5z"/></symbol><symbol id="map-marker" viewBox="0 0 1792 1792"><path d="M1152 640q0-106-75-181t-181-75-181 75-75 181 75 181 181 75 181-75 75-181zm256 0q0 109-33 179l-364 774q-16 33-47.5 52t-67.5 19-67.5-19-46.5-52L417 819q-33-70-33-179 0-212 150-362t362-150 362 150 150 362z"/></symbol><symbol id="phone" viewBox="0 0 1792 1792"><path d="M1600 1240q0 27-10 70.5t-21 68.5q-21 50-122 106-94 51-186 51-27 0-52.5-3.5T1151 1520t-47.5-14.5-55.5-20.5-49-18q-98-35-175-83-128-79-264.5-215.5T344 904q-48-77-83-175-3-9-18-49t-20.5-55.5T208 577t-12.5-57.5T192 467q0-92 51-186 56-101 106-122 25-11 68.5-21t70.5-10q14 0 21 3 18 6 53 76 11 19 30 54t35 63.5 31 53.5q3 4 17.5 25t21.5 35.5 7 28.5q0 20-28.5 50t-62 55-62 53-28.5 46q0 9 5 22.5t8.5 20.5 14 24 11.5 19q76 137 174 235t235 174q2 1 19 11.5t24 14 20.5 8.5 22.5 5q18 0 46-28.5t53-62 55-62 50-28.5q14 0 28.5 7t35.5 21.5 25 17.5q25 15 53.5 31t63.5 35 54 30q70 35 76 53 3 7 3 21z"/></symbol><symbol id="pin" viewBox="-17.7 -48.66 95.27 48"><g id="coatzacoalcos" class="suc sucursal-18"><path d="M-.46-48.66c-9.8 0-17.7 7.8-17.7 17.4 0 15.5 17.7 30.6 17.7 30.6s17.7-15.4 17.7-30.6c0-9.6-7.9-17.4-17.7-17.4z" class="pin"/><circle cx="-.46" cy="-30.96" r="17.7" class="circulo1"/><path class="rect1" style="transform-origin:-1.46px -30.96px" d="M-1.458-48.66h2v35.4h-2z"/><circle cx="-.46" cy="-30.96" r="13" class="circulo2"/><path class="rect2" style="transform-origin:-1.46px -30.96px" d="M-1.458-43.96h2v26h-2z"/><circle cx="-.46" cy="-30.96" r="13" class="circulo3"/><a data-href="/sucursal/coatzacoalcos"><text id="t_coatzacoalcos" x="-6.46" y="-24.96">Coatzacoalcos</text></a></g></symbol></svg>